%TF.GenerationSoftware,KiCad,Pcbnew,(7.0.0)*%
%TF.CreationDate,2024-06-11T23:13:23+02:00*%
%TF.ProjectId,qazimodo,71617a69-6d6f-4646-9f2e-6b696361645f,rev?*%
%TF.SameCoordinates,Original*%
%TF.FileFunction,Profile,NP*%
%FSLAX46Y46*%
G04 Gerber Fmt 4.6, Leading zero omitted, Abs format (unit mm)*
G04 Created by KiCad (PCBNEW (7.0.0)) date 2024-06-11 23:13:23*
%MOMM*%
%LPD*%
G01*
G04 APERTURE LIST*
%TA.AperFunction,Profile*%
%ADD10C,0.200000*%
%TD*%
G04 APERTURE END LIST*
D10*
%TO.C,*%
X46563758Y-48172257D02*
X46563758Y-101372246D01*
X46563758Y-101372246D02*
X49456755Y-101372246D01*
X46563758Y-103572250D02*
X46563274Y-138371748D01*
X48563274Y-46171748D02*
X53563274Y-46171748D01*
X48563758Y-140372250D02*
X55563274Y-140371748D01*
X49456755Y-103572250D02*
X46563758Y-103572250D01*
X58713274Y-137872850D02*
X62288271Y-137872850D01*
X69185755Y-140372250D02*
X90529753Y-140372250D01*
X80093756Y-46172257D02*
X59863274Y-46171748D01*
X97658759Y-46172257D02*
X88235755Y-46172257D01*
X138217757Y-46172257D02*
X108718756Y-46172257D01*
X138217757Y-140372250D02*
X102517318Y-140372257D01*
X145243284Y-137872850D02*
X145513273Y-137872850D01*
X148604750Y-140372250D02*
X229222762Y-140372250D01*
X170598106Y-46172257D02*
X148604750Y-46172257D01*
X229163274Y-46171748D02*
X178844318Y-46172257D01*
X232848250Y-137897479D02*
X232326763Y-137872836D01*
X239609755Y-140372250D02*
X275246107Y-140372257D01*
X269108763Y-46172257D02*
X239609755Y-46172257D01*
X287297759Y-140372250D02*
X308641753Y-140372250D01*
X289591765Y-46172257D02*
X280168761Y-46172257D01*
X315718414Y-137878246D02*
X319113275Y-137872836D01*
X315963063Y-46171800D02*
X297733763Y-46172257D01*
X322263274Y-140371748D02*
X329263762Y-140372250D01*
X328370757Y-101372246D02*
X331263762Y-101372246D01*
X329263762Y-46172257D02*
X322304747Y-46172257D01*
X331263762Y-101372246D02*
X331263762Y-48172257D01*
X331263762Y-103572250D02*
X328370757Y-103572250D01*
X331263762Y-138372250D02*
X331263762Y-103572250D01*
X48563274Y-46171748D02*
G75*
G03*
X46563758Y-48172257I1737J-2001252D01*
G01*
X46563274Y-138371748D02*
G75*
G03*
X48563758Y-140372250I2000524J22D01*
G01*
X49456755Y-103572250D02*
G75*
G03*
X49456755Y-101372246I1J1100002D01*
G01*
X58713274Y-137872850D02*
G75*
G03*
X55563274Y-140371748I160675J-3437364D01*
G01*
X53563274Y-46171748D02*
G75*
G03*
X59863274Y-46171748I3150000J735922D01*
G01*
X62288271Y-137872850D02*
G75*
G03*
X62722273Y-137707250I-908J653891D01*
G01*
X68614754Y-139801251D02*
G75*
G03*
X62722274Y-137707251I-3543720J-634298D01*
G01*
X68614757Y-139801251D02*
G75*
G03*
X69185755Y-140372249I570178J-820D01*
G01*
X80664754Y-46743256D02*
G75*
G03*
X80093756Y-46172258I-570160J838D01*
G01*
X80664756Y-46743256D02*
G75*
G03*
X87664754Y-46743256I3499999J626653D01*
G01*
X88235755Y-46172258D02*
G75*
G03*
X87664756Y-46743256I-837J-570162D01*
G01*
X90529753Y-140372250D02*
G75*
G03*
X91085761Y-139816250I-521J556529D01*
G01*
X101187283Y-139565805D02*
G75*
G03*
X91085761Y-139816250I-5028113J-1038705D01*
G01*
X98229757Y-46743256D02*
G75*
G03*
X97658759Y-46172258I-570160J838D01*
G01*
X101187284Y-139565805D02*
G75*
G03*
X102517318Y-140372257I1330047J693570D01*
G01*
X98229759Y-46743256D02*
G75*
G03*
X108147757Y-46743256I4958999J770510D01*
G01*
X108718756Y-46172258D02*
G75*
G03*
X108147758Y-46743256I-827J-570171D01*
G01*
X138788755Y-46743256D02*
G75*
G03*
X138217757Y-46172258I-570160J838D01*
G01*
X138217757Y-140372249D02*
G75*
G03*
X138788755Y-139801251I824J570174D01*
G01*
X144733763Y-137846249D02*
G75*
G03*
X138788757Y-139801251I-2444801J-2582202D01*
G01*
X138788757Y-46743256D02*
G75*
G03*
X144578453Y-48853168I3528302J683270D01*
G01*
X145488753Y-48670647D02*
G75*
G03*
X144578454Y-48853170I-195972J-1383861D01*
G01*
X144733763Y-137846248D02*
G75*
G03*
X145243284Y-137872849I318670J1210843D01*
G01*
X148604750Y-140372250D02*
G75*
G03*
X145513273Y-137872851I-3066616J-631455D01*
G01*
X145488753Y-48670646D02*
G75*
G03*
X148604750Y-46172257I83078J3088719D01*
G01*
X171928141Y-46978708D02*
G75*
G03*
X170598106Y-46172257I-1330003J-693499D01*
G01*
X171928141Y-46978708D02*
G75*
G03*
X177514283Y-46978709I2793071J1456402D01*
G01*
X178844318Y-46172257D02*
G75*
G03*
X177514283Y-46978709I85J-1500141D01*
G01*
X232326763Y-137872837D02*
G75*
G03*
X229222762Y-140372250I-89080J-3066495D01*
G01*
X229163275Y-46171748D02*
G75*
G03*
X232313273Y-48670595I3118156J695850D01*
G01*
X233210607Y-48837400D02*
G75*
G03*
X232313273Y-48670596I-739131J-1479171D01*
G01*
X232848250Y-137897479D02*
G75*
G03*
X233320226Y-137694480I-36248J734452D01*
G01*
X239038755Y-139801251D02*
G75*
G03*
X233320227Y-137694481I-3476458J-621899D01*
G01*
X233210607Y-48837400D02*
G75*
G03*
X239038756Y-46743256I2311448J2724224D01*
G01*
X239609755Y-46172258D02*
G75*
G03*
X239038757Y-46743256I-807J-570191D01*
G01*
X239038757Y-139801251D02*
G75*
G03*
X239609755Y-140372249I570191J-807D01*
G01*
X269679761Y-46743256D02*
G75*
G03*
X269108763Y-46172258I-570225J773D01*
G01*
X275246107Y-140372256D02*
G75*
G03*
X277044250Y-138977250I79J1856291D01*
G01*
X286741760Y-139816250D02*
G75*
G03*
X277044250Y-138977250I-4951609J-769327D01*
G01*
X269679761Y-46743256D02*
G75*
G03*
X279597747Y-46743256I4958993J770503D01*
G01*
X280168761Y-46172258D02*
G75*
G03*
X279597748Y-46743256I-827J-570186D01*
G01*
X286741759Y-139816250D02*
G75*
G03*
X287297759Y-140372250I556487J487D01*
G01*
X290162748Y-46743256D02*
G75*
G03*
X289591765Y-46172258I-570002J996D01*
G01*
X290162750Y-46743256D02*
G75*
G03*
X297162748Y-46743256I3499999J626653D01*
G01*
X297733763Y-46172258D02*
G75*
G03*
X297162750Y-46743256I-817J-570196D01*
G01*
X308641753Y-140372249D02*
G75*
G03*
X309212766Y-139801251I825J570188D01*
G01*
X315085752Y-137779248D02*
G75*
G03*
X309212768Y-139801251I-2372252J-2649857D01*
G01*
X315085753Y-137779246D02*
G75*
G03*
X315718414Y-137878245I454552J833814D01*
G01*
X322263273Y-140371748D02*
G75*
G03*
X319113275Y-137872837I-3191735J-788518D01*
G01*
X315963063Y-46171800D02*
G75*
G03*
X322304747Y-46172257I3170895J740873D01*
G01*
X328370757Y-101372246D02*
G75*
G03*
X328370757Y-103572250I-2J-1100002D01*
G01*
X331263762Y-48172257D02*
G75*
G03*
X329263762Y-46172257I-2000726J-726D01*
G01*
X329263762Y-140372250D02*
G75*
G03*
X331263762Y-138372250I-692J2000692D01*
G01*
%TD*%
M02*
