%TF.GenerationSoftware,KiCad,Pcbnew,(7.0.0)*%
%TF.CreationDate,2024-06-11T23:13:23+02:00*%
%TF.ProjectId,qazimodo,71617a69-6d6f-4646-9f2e-6b696361645f,rev?*%
%TF.SameCoordinates,Original*%
%TF.FileFunction,Legend,Bot*%
%TF.FilePolarity,Positive*%
%FSLAX46Y46*%
G04 Gerber Fmt 4.6, Leading zero omitted, Abs format (unit mm)*
G04 Created by KiCad (PCBNEW (7.0.0)) date 2024-06-11 23:13:23*
%MOMM*%
%LPD*%
G01*
G04 APERTURE LIST*
%ADD10C,0.500000*%
%ADD11C,0.125000*%
%ADD12C,0.120000*%
%ADD13C,0.150000*%
G04 APERTURE END LIST*
D10*
G36*
X78794000Y-89335000D02*
G01*
X78344000Y-89335000D01*
X78794000Y-88885000D01*
X78794000Y-89335000D01*
G37*
X78794000Y-89335000D02*
X78344000Y-89335000D01*
X78794000Y-88885000D01*
X78794000Y-89335000D01*
D11*
X85377678Y-82031785D02*
X85806249Y-82031785D01*
X85591964Y-82031785D02*
X85591964Y-81281785D01*
X85591964Y-81281785D02*
X85663392Y-81388928D01*
X85663392Y-81388928D02*
X85734821Y-81460357D01*
X85734821Y-81460357D02*
X85806249Y-81496071D01*
X84913392Y-81281785D02*
X84841963Y-81281785D01*
X84841963Y-81281785D02*
X84770535Y-81317500D01*
X84770535Y-81317500D02*
X84734821Y-81353214D01*
X84734821Y-81353214D02*
X84699106Y-81424642D01*
X84699106Y-81424642D02*
X84663392Y-81567500D01*
X84663392Y-81567500D02*
X84663392Y-81746071D01*
X84663392Y-81746071D02*
X84699106Y-81888928D01*
X84699106Y-81888928D02*
X84734821Y-81960357D01*
X84734821Y-81960357D02*
X84770535Y-81996071D01*
X84770535Y-81996071D02*
X84841963Y-82031785D01*
X84841963Y-82031785D02*
X84913392Y-82031785D01*
X84913392Y-82031785D02*
X84984821Y-81996071D01*
X84984821Y-81996071D02*
X85020535Y-81960357D01*
X85020535Y-81960357D02*
X85056249Y-81888928D01*
X85056249Y-81888928D02*
X85091963Y-81746071D01*
X85091963Y-81746071D02*
X85091963Y-81567500D01*
X85091963Y-81567500D02*
X85056249Y-81424642D01*
X85056249Y-81424642D02*
X85020535Y-81353214D01*
X85020535Y-81353214D02*
X84984821Y-81317500D01*
X84984821Y-81317500D02*
X84913392Y-81281785D01*
X84341963Y-82031785D02*
X84341963Y-81281785D01*
X84270535Y-81746071D02*
X84056249Y-82031785D01*
X84056249Y-81531785D02*
X84341963Y-81817500D01*
X78063035Y-92501785D02*
X78063035Y-92073214D01*
X78063035Y-92287499D02*
X77313035Y-92287499D01*
X77313035Y-92287499D02*
X77420178Y-92216071D01*
X77420178Y-92216071D02*
X77491607Y-92144642D01*
X77491607Y-92144642D02*
X77527321Y-92073214D01*
X77313035Y-92966071D02*
X77313035Y-93037500D01*
X77313035Y-93037500D02*
X77348750Y-93108928D01*
X77348750Y-93108928D02*
X77384464Y-93144643D01*
X77384464Y-93144643D02*
X77455892Y-93180357D01*
X77455892Y-93180357D02*
X77598750Y-93216071D01*
X77598750Y-93216071D02*
X77777321Y-93216071D01*
X77777321Y-93216071D02*
X77920178Y-93180357D01*
X77920178Y-93180357D02*
X77991607Y-93144643D01*
X77991607Y-93144643D02*
X78027321Y-93108928D01*
X78027321Y-93108928D02*
X78063035Y-93037500D01*
X78063035Y-93037500D02*
X78063035Y-92966071D01*
X78063035Y-92966071D02*
X78027321Y-92894643D01*
X78027321Y-92894643D02*
X77991607Y-92858928D01*
X77991607Y-92858928D02*
X77920178Y-92823214D01*
X77920178Y-92823214D02*
X77777321Y-92787500D01*
X77777321Y-92787500D02*
X77598750Y-92787500D01*
X77598750Y-92787500D02*
X77455892Y-92823214D01*
X77455892Y-92823214D02*
X77384464Y-92858928D01*
X77384464Y-92858928D02*
X77348750Y-92894643D01*
X77348750Y-92894643D02*
X77313035Y-92966071D01*
X77313035Y-93680357D02*
X77313035Y-93751786D01*
X77313035Y-93751786D02*
X77348750Y-93823214D01*
X77348750Y-93823214D02*
X77384464Y-93858929D01*
X77384464Y-93858929D02*
X77455892Y-93894643D01*
X77455892Y-93894643D02*
X77598750Y-93930357D01*
X77598750Y-93930357D02*
X77777321Y-93930357D01*
X77777321Y-93930357D02*
X77920178Y-93894643D01*
X77920178Y-93894643D02*
X77991607Y-93858929D01*
X77991607Y-93858929D02*
X78027321Y-93823214D01*
X78027321Y-93823214D02*
X78063035Y-93751786D01*
X78063035Y-93751786D02*
X78063035Y-93680357D01*
X78063035Y-93680357D02*
X78027321Y-93608929D01*
X78027321Y-93608929D02*
X77991607Y-93573214D01*
X77991607Y-93573214D02*
X77920178Y-93537500D01*
X77920178Y-93537500D02*
X77777321Y-93501786D01*
X77777321Y-93501786D02*
X77598750Y-93501786D01*
X77598750Y-93501786D02*
X77455892Y-93537500D01*
X77455892Y-93537500D02*
X77384464Y-93573214D01*
X77384464Y-93573214D02*
X77348750Y-93608929D01*
X77348750Y-93608929D02*
X77313035Y-93680357D01*
X77563035Y-94251786D02*
X78063035Y-94251786D01*
X77634464Y-94251786D02*
X77598750Y-94287500D01*
X77598750Y-94287500D02*
X77563035Y-94358929D01*
X77563035Y-94358929D02*
X77563035Y-94466072D01*
X77563035Y-94466072D02*
X77598750Y-94537500D01*
X77598750Y-94537500D02*
X77670178Y-94573215D01*
X77670178Y-94573215D02*
X78063035Y-94573215D01*
X77670178Y-95180357D02*
X77670178Y-94930357D01*
X78063035Y-94930357D02*
X77313035Y-94930357D01*
X77313035Y-94930357D02*
X77313035Y-95287500D01*
X65505356Y-49811714D02*
X65505356Y-50245047D01*
X65783928Y-49811714D02*
X65783928Y-50152190D01*
X65783928Y-50152190D02*
X65752975Y-50214095D01*
X65752975Y-50214095D02*
X65691070Y-50245047D01*
X65691070Y-50245047D02*
X65598213Y-50245047D01*
X65598213Y-50245047D02*
X65536309Y-50214095D01*
X65536309Y-50214095D02*
X65505356Y-50183142D01*
X65226785Y-50214095D02*
X65164880Y-50245047D01*
X65164880Y-50245047D02*
X65041071Y-50245047D01*
X65041071Y-50245047D02*
X64979166Y-50214095D01*
X64979166Y-50214095D02*
X64948214Y-50152190D01*
X64948214Y-50152190D02*
X64948214Y-50121238D01*
X64948214Y-50121238D02*
X64979166Y-50059333D01*
X64979166Y-50059333D02*
X65041071Y-50028380D01*
X65041071Y-50028380D02*
X65133928Y-50028380D01*
X65133928Y-50028380D02*
X65195833Y-49997428D01*
X65195833Y-49997428D02*
X65226785Y-49935523D01*
X65226785Y-49935523D02*
X65226785Y-49904571D01*
X65226785Y-49904571D02*
X65195833Y-49842666D01*
X65195833Y-49842666D02*
X65133928Y-49811714D01*
X65133928Y-49811714D02*
X65041071Y-49811714D01*
X65041071Y-49811714D02*
X64979166Y-49842666D01*
X64669643Y-50245047D02*
X64669643Y-49595047D01*
X64669643Y-49842666D02*
X64607738Y-49811714D01*
X64607738Y-49811714D02*
X64483928Y-49811714D01*
X64483928Y-49811714D02*
X64422024Y-49842666D01*
X64422024Y-49842666D02*
X64391071Y-49873619D01*
X64391071Y-49873619D02*
X64360119Y-49935523D01*
X64360119Y-49935523D02*
X64360119Y-50121238D01*
X64360119Y-50121238D02*
X64391071Y-50183142D01*
X64391071Y-50183142D02*
X64422024Y-50214095D01*
X64422024Y-50214095D02*
X64483928Y-50245047D01*
X64483928Y-50245047D02*
X64607738Y-50245047D01*
X64607738Y-50245047D02*
X64669643Y-50214095D01*
X56008928Y-83619285D02*
X56437499Y-83619285D01*
X56223214Y-83619285D02*
X56223214Y-82869285D01*
X56223214Y-82869285D02*
X56294642Y-82976428D01*
X56294642Y-82976428D02*
X56366071Y-83047857D01*
X56366071Y-83047857D02*
X56437499Y-83083571D01*
X55366071Y-83119285D02*
X55366071Y-83619285D01*
X55687499Y-83119285D02*
X55687499Y-83512142D01*
X55687499Y-83512142D02*
X55651785Y-83583571D01*
X55651785Y-83583571D02*
X55580356Y-83619285D01*
X55580356Y-83619285D02*
X55473213Y-83619285D01*
X55473213Y-83619285D02*
X55401785Y-83583571D01*
X55401785Y-83583571D02*
X55366071Y-83547857D01*
X54758928Y-83226428D02*
X55008928Y-83226428D01*
X55008928Y-83619285D02*
X55008928Y-82869285D01*
X55008928Y-82869285D02*
X54651785Y-82869285D01*
X67087944Y-78856785D02*
X67516515Y-78856785D01*
X67302230Y-78856785D02*
X67302230Y-78106785D01*
X67302230Y-78106785D02*
X67373658Y-78213928D01*
X67373658Y-78213928D02*
X67445087Y-78285357D01*
X67445087Y-78285357D02*
X67516515Y-78321071D01*
X66623658Y-78106785D02*
X66552229Y-78106785D01*
X66552229Y-78106785D02*
X66480801Y-78142500D01*
X66480801Y-78142500D02*
X66445087Y-78178214D01*
X66445087Y-78178214D02*
X66409372Y-78249642D01*
X66409372Y-78249642D02*
X66373658Y-78392500D01*
X66373658Y-78392500D02*
X66373658Y-78571071D01*
X66373658Y-78571071D02*
X66409372Y-78713928D01*
X66409372Y-78713928D02*
X66445087Y-78785357D01*
X66445087Y-78785357D02*
X66480801Y-78821071D01*
X66480801Y-78821071D02*
X66552229Y-78856785D01*
X66552229Y-78856785D02*
X66623658Y-78856785D01*
X66623658Y-78856785D02*
X66695087Y-78821071D01*
X66695087Y-78821071D02*
X66730801Y-78785357D01*
X66730801Y-78785357D02*
X66766515Y-78713928D01*
X66766515Y-78713928D02*
X66802229Y-78571071D01*
X66802229Y-78571071D02*
X66802229Y-78392500D01*
X66802229Y-78392500D02*
X66766515Y-78249642D01*
X66766515Y-78249642D02*
X66730801Y-78178214D01*
X66730801Y-78178214D02*
X66695087Y-78142500D01*
X66695087Y-78142500D02*
X66623658Y-78106785D01*
X65909372Y-78106785D02*
X65837943Y-78106785D01*
X65837943Y-78106785D02*
X65766515Y-78142500D01*
X65766515Y-78142500D02*
X65730801Y-78178214D01*
X65730801Y-78178214D02*
X65695086Y-78249642D01*
X65695086Y-78249642D02*
X65659372Y-78392500D01*
X65659372Y-78392500D02*
X65659372Y-78571071D01*
X65659372Y-78571071D02*
X65695086Y-78713928D01*
X65695086Y-78713928D02*
X65730801Y-78785357D01*
X65730801Y-78785357D02*
X65766515Y-78821071D01*
X65766515Y-78821071D02*
X65837943Y-78856785D01*
X65837943Y-78856785D02*
X65909372Y-78856785D01*
X65909372Y-78856785D02*
X65980801Y-78821071D01*
X65980801Y-78821071D02*
X66016515Y-78785357D01*
X66016515Y-78785357D02*
X66052229Y-78713928D01*
X66052229Y-78713928D02*
X66087943Y-78571071D01*
X66087943Y-78571071D02*
X66087943Y-78392500D01*
X66087943Y-78392500D02*
X66052229Y-78249642D01*
X66052229Y-78249642D02*
X66016515Y-78178214D01*
X66016515Y-78178214D02*
X65980801Y-78142500D01*
X65980801Y-78142500D02*
X65909372Y-78106785D01*
X65337943Y-78356785D02*
X65337943Y-78856785D01*
X65337943Y-78428214D02*
X65302229Y-78392500D01*
X65302229Y-78392500D02*
X65230800Y-78356785D01*
X65230800Y-78356785D02*
X65123657Y-78356785D01*
X65123657Y-78356785D02*
X65052229Y-78392500D01*
X65052229Y-78392500D02*
X65016515Y-78463928D01*
X65016515Y-78463928D02*
X65016515Y-78856785D01*
X64409372Y-78463928D02*
X64659372Y-78463928D01*
X64659372Y-78856785D02*
X64659372Y-78106785D01*
X64659372Y-78106785D02*
X64302229Y-78106785D01*
X69066071Y-83619285D02*
X69494642Y-83619285D01*
X69280357Y-83619285D02*
X69280357Y-82869285D01*
X69280357Y-82869285D02*
X69351785Y-82976428D01*
X69351785Y-82976428D02*
X69423214Y-83047857D01*
X69423214Y-83047857D02*
X69494642Y-83083571D01*
X68601785Y-82869285D02*
X68530356Y-82869285D01*
X68530356Y-82869285D02*
X68458928Y-82905000D01*
X68458928Y-82905000D02*
X68423214Y-82940714D01*
X68423214Y-82940714D02*
X68387499Y-83012142D01*
X68387499Y-83012142D02*
X68351785Y-83155000D01*
X68351785Y-83155000D02*
X68351785Y-83333571D01*
X68351785Y-83333571D02*
X68387499Y-83476428D01*
X68387499Y-83476428D02*
X68423214Y-83547857D01*
X68423214Y-83547857D02*
X68458928Y-83583571D01*
X68458928Y-83583571D02*
X68530356Y-83619285D01*
X68530356Y-83619285D02*
X68601785Y-83619285D01*
X68601785Y-83619285D02*
X68673214Y-83583571D01*
X68673214Y-83583571D02*
X68708928Y-83547857D01*
X68708928Y-83547857D02*
X68744642Y-83476428D01*
X68744642Y-83476428D02*
X68780356Y-83333571D01*
X68780356Y-83333571D02*
X68780356Y-83155000D01*
X68780356Y-83155000D02*
X68744642Y-83012142D01*
X68744642Y-83012142D02*
X68708928Y-82940714D01*
X68708928Y-82940714D02*
X68673214Y-82905000D01*
X68673214Y-82905000D02*
X68601785Y-82869285D01*
X67708928Y-83119285D02*
X67708928Y-83619285D01*
X68030356Y-83119285D02*
X68030356Y-83512142D01*
X68030356Y-83512142D02*
X67994642Y-83583571D01*
X67994642Y-83583571D02*
X67923213Y-83619285D01*
X67923213Y-83619285D02*
X67816070Y-83619285D01*
X67816070Y-83619285D02*
X67744642Y-83583571D01*
X67744642Y-83583571D02*
X67708928Y-83547857D01*
X67101785Y-83226428D02*
X67351785Y-83226428D01*
X67351785Y-83619285D02*
X67351785Y-82869285D01*
X67351785Y-82869285D02*
X66994642Y-82869285D01*
X63946428Y-83619285D02*
X64374999Y-83619285D01*
X64160714Y-83619285D02*
X64160714Y-82869285D01*
X64160714Y-82869285D02*
X64232142Y-82976428D01*
X64232142Y-82976428D02*
X64303571Y-83047857D01*
X64303571Y-83047857D02*
X64374999Y-83083571D01*
X63303571Y-83119285D02*
X63303571Y-83619285D01*
X63624999Y-83119285D02*
X63624999Y-83512142D01*
X63624999Y-83512142D02*
X63589285Y-83583571D01*
X63589285Y-83583571D02*
X63517856Y-83619285D01*
X63517856Y-83619285D02*
X63410713Y-83619285D01*
X63410713Y-83619285D02*
X63339285Y-83583571D01*
X63339285Y-83583571D02*
X63303571Y-83547857D01*
X62696428Y-83226428D02*
X62946428Y-83226428D01*
X62946428Y-83619285D02*
X62946428Y-82869285D01*
X62946428Y-82869285D02*
X62589285Y-82869285D01*
X82916964Y-78063035D02*
X83345535Y-78063035D01*
X83131250Y-78063035D02*
X83131250Y-77313035D01*
X83131250Y-77313035D02*
X83202678Y-77420178D01*
X83202678Y-77420178D02*
X83274107Y-77491607D01*
X83274107Y-77491607D02*
X83345535Y-77527321D01*
X82452678Y-77313035D02*
X82381249Y-77313035D01*
X82381249Y-77313035D02*
X82309821Y-77348750D01*
X82309821Y-77348750D02*
X82274107Y-77384464D01*
X82274107Y-77384464D02*
X82238392Y-77455892D01*
X82238392Y-77455892D02*
X82202678Y-77598750D01*
X82202678Y-77598750D02*
X82202678Y-77777321D01*
X82202678Y-77777321D02*
X82238392Y-77920178D01*
X82238392Y-77920178D02*
X82274107Y-77991607D01*
X82274107Y-77991607D02*
X82309821Y-78027321D01*
X82309821Y-78027321D02*
X82381249Y-78063035D01*
X82381249Y-78063035D02*
X82452678Y-78063035D01*
X82452678Y-78063035D02*
X82524107Y-78027321D01*
X82524107Y-78027321D02*
X82559821Y-77991607D01*
X82559821Y-77991607D02*
X82595535Y-77920178D01*
X82595535Y-77920178D02*
X82631249Y-77777321D01*
X82631249Y-77777321D02*
X82631249Y-77598750D01*
X82631249Y-77598750D02*
X82595535Y-77455892D01*
X82595535Y-77455892D02*
X82559821Y-77384464D01*
X82559821Y-77384464D02*
X82524107Y-77348750D01*
X82524107Y-77348750D02*
X82452678Y-77313035D01*
X81738392Y-77313035D02*
X81666963Y-77313035D01*
X81666963Y-77313035D02*
X81595535Y-77348750D01*
X81595535Y-77348750D02*
X81559821Y-77384464D01*
X81559821Y-77384464D02*
X81524106Y-77455892D01*
X81524106Y-77455892D02*
X81488392Y-77598750D01*
X81488392Y-77598750D02*
X81488392Y-77777321D01*
X81488392Y-77777321D02*
X81524106Y-77920178D01*
X81524106Y-77920178D02*
X81559821Y-77991607D01*
X81559821Y-77991607D02*
X81595535Y-78027321D01*
X81595535Y-78027321D02*
X81666963Y-78063035D01*
X81666963Y-78063035D02*
X81738392Y-78063035D01*
X81738392Y-78063035D02*
X81809821Y-78027321D01*
X81809821Y-78027321D02*
X81845535Y-77991607D01*
X81845535Y-77991607D02*
X81881249Y-77920178D01*
X81881249Y-77920178D02*
X81916963Y-77777321D01*
X81916963Y-77777321D02*
X81916963Y-77598750D01*
X81916963Y-77598750D02*
X81881249Y-77455892D01*
X81881249Y-77455892D02*
X81845535Y-77384464D01*
X81845535Y-77384464D02*
X81809821Y-77348750D01*
X81809821Y-77348750D02*
X81738392Y-77313035D01*
X81166963Y-77563035D02*
X81166963Y-78063035D01*
X81166963Y-77634464D02*
X81131249Y-77598750D01*
X81131249Y-77598750D02*
X81059820Y-77563035D01*
X81059820Y-77563035D02*
X80952677Y-77563035D01*
X80952677Y-77563035D02*
X80881249Y-77598750D01*
X80881249Y-77598750D02*
X80845535Y-77670178D01*
X80845535Y-77670178D02*
X80845535Y-78063035D01*
X80238392Y-77670178D02*
X80488392Y-77670178D01*
X80488392Y-78063035D02*
X80488392Y-77313035D01*
X80488392Y-77313035D02*
X80131249Y-77313035D01*
X69667721Y-91978127D02*
X69667721Y-91549556D01*
X69667721Y-91763841D02*
X68917721Y-91763841D01*
X68917721Y-91763841D02*
X69024864Y-91692413D01*
X69024864Y-91692413D02*
X69096293Y-91620984D01*
X69096293Y-91620984D02*
X69132007Y-91549556D01*
X68917721Y-92442413D02*
X68917721Y-92513842D01*
X68917721Y-92513842D02*
X68953436Y-92585270D01*
X68953436Y-92585270D02*
X68989150Y-92620985D01*
X68989150Y-92620985D02*
X69060578Y-92656699D01*
X69060578Y-92656699D02*
X69203436Y-92692413D01*
X69203436Y-92692413D02*
X69382007Y-92692413D01*
X69382007Y-92692413D02*
X69524864Y-92656699D01*
X69524864Y-92656699D02*
X69596293Y-92620985D01*
X69596293Y-92620985D02*
X69632007Y-92585270D01*
X69632007Y-92585270D02*
X69667721Y-92513842D01*
X69667721Y-92513842D02*
X69667721Y-92442413D01*
X69667721Y-92442413D02*
X69632007Y-92370985D01*
X69632007Y-92370985D02*
X69596293Y-92335270D01*
X69596293Y-92335270D02*
X69524864Y-92299556D01*
X69524864Y-92299556D02*
X69382007Y-92263842D01*
X69382007Y-92263842D02*
X69203436Y-92263842D01*
X69203436Y-92263842D02*
X69060578Y-92299556D01*
X69060578Y-92299556D02*
X68989150Y-92335270D01*
X68989150Y-92335270D02*
X68953436Y-92370985D01*
X68953436Y-92370985D02*
X68917721Y-92442413D01*
X68917721Y-93156699D02*
X68917721Y-93228128D01*
X68917721Y-93228128D02*
X68953436Y-93299556D01*
X68953436Y-93299556D02*
X68989150Y-93335271D01*
X68989150Y-93335271D02*
X69060578Y-93370985D01*
X69060578Y-93370985D02*
X69203436Y-93406699D01*
X69203436Y-93406699D02*
X69382007Y-93406699D01*
X69382007Y-93406699D02*
X69524864Y-93370985D01*
X69524864Y-93370985D02*
X69596293Y-93335271D01*
X69596293Y-93335271D02*
X69632007Y-93299556D01*
X69632007Y-93299556D02*
X69667721Y-93228128D01*
X69667721Y-93228128D02*
X69667721Y-93156699D01*
X69667721Y-93156699D02*
X69632007Y-93085271D01*
X69632007Y-93085271D02*
X69596293Y-93049556D01*
X69596293Y-93049556D02*
X69524864Y-93013842D01*
X69524864Y-93013842D02*
X69382007Y-92978128D01*
X69382007Y-92978128D02*
X69203436Y-92978128D01*
X69203436Y-92978128D02*
X69060578Y-93013842D01*
X69060578Y-93013842D02*
X68989150Y-93049556D01*
X68989150Y-93049556D02*
X68953436Y-93085271D01*
X68953436Y-93085271D02*
X68917721Y-93156699D01*
X69167721Y-93728128D02*
X69667721Y-93728128D01*
X69239150Y-93728128D02*
X69203436Y-93763842D01*
X69203436Y-93763842D02*
X69167721Y-93835271D01*
X69167721Y-93835271D02*
X69167721Y-93942414D01*
X69167721Y-93942414D02*
X69203436Y-94013842D01*
X69203436Y-94013842D02*
X69274864Y-94049557D01*
X69274864Y-94049557D02*
X69667721Y-94049557D01*
X69274864Y-94656699D02*
X69274864Y-94406699D01*
X69667721Y-94406699D02*
X68917721Y-94406699D01*
X68917721Y-94406699D02*
X68917721Y-94763842D01*
X71603273Y-64892964D02*
X71355654Y-64892964D01*
X71510416Y-65326297D02*
X71510416Y-64769154D01*
X71510416Y-64769154D02*
X71479463Y-64707250D01*
X71479463Y-64707250D02*
X71417558Y-64676297D01*
X71417558Y-64676297D02*
X71355654Y-64676297D01*
X70860415Y-64892964D02*
X70860415Y-65326297D01*
X71138987Y-64892964D02*
X71138987Y-65233440D01*
X71138987Y-65233440D02*
X71108034Y-65295345D01*
X71108034Y-65295345D02*
X71046129Y-65326297D01*
X71046129Y-65326297D02*
X70953272Y-65326297D01*
X70953272Y-65326297D02*
X70891368Y-65295345D01*
X70891368Y-65295345D02*
X70860415Y-65264392D01*
X70581844Y-65295345D02*
X70519939Y-65326297D01*
X70519939Y-65326297D02*
X70396130Y-65326297D01*
X70396130Y-65326297D02*
X70334225Y-65295345D01*
X70334225Y-65295345D02*
X70303273Y-65233440D01*
X70303273Y-65233440D02*
X70303273Y-65202488D01*
X70303273Y-65202488D02*
X70334225Y-65140583D01*
X70334225Y-65140583D02*
X70396130Y-65109630D01*
X70396130Y-65109630D02*
X70488987Y-65109630D01*
X70488987Y-65109630D02*
X70550892Y-65078678D01*
X70550892Y-65078678D02*
X70581844Y-65016773D01*
X70581844Y-65016773D02*
X70581844Y-64985821D01*
X70581844Y-64985821D02*
X70550892Y-64923916D01*
X70550892Y-64923916D02*
X70488987Y-64892964D01*
X70488987Y-64892964D02*
X70396130Y-64892964D01*
X70396130Y-64892964D02*
X70334225Y-64923916D01*
X69777083Y-65295345D02*
X69838987Y-65326297D01*
X69838987Y-65326297D02*
X69962797Y-65326297D01*
X69962797Y-65326297D02*
X70024702Y-65295345D01*
X70024702Y-65295345D02*
X70055654Y-65233440D01*
X70055654Y-65233440D02*
X70055654Y-64985821D01*
X70055654Y-64985821D02*
X70024702Y-64923916D01*
X70024702Y-64923916D02*
X69962797Y-64892964D01*
X69962797Y-64892964D02*
X69838987Y-64892964D01*
X69838987Y-64892964D02*
X69777083Y-64923916D01*
X69777083Y-64923916D02*
X69746130Y-64985821D01*
X69746130Y-64985821D02*
X69746130Y-65047726D01*
X69746130Y-65047726D02*
X70055654Y-65109630D01*
X59739095Y-79523214D02*
X59770047Y-79585119D01*
X59770047Y-79585119D02*
X59770047Y-79708928D01*
X59770047Y-79708928D02*
X59739095Y-79770833D01*
X59739095Y-79770833D02*
X59677190Y-79801785D01*
X59677190Y-79801785D02*
X59646238Y-79801785D01*
X59646238Y-79801785D02*
X59584333Y-79770833D01*
X59584333Y-79770833D02*
X59553380Y-79708928D01*
X59553380Y-79708928D02*
X59553380Y-79616071D01*
X59553380Y-79616071D02*
X59522428Y-79554166D01*
X59522428Y-79554166D02*
X59460523Y-79523214D01*
X59460523Y-79523214D02*
X59429571Y-79523214D01*
X59429571Y-79523214D02*
X59367666Y-79554166D01*
X59367666Y-79554166D02*
X59336714Y-79616071D01*
X59336714Y-79616071D02*
X59336714Y-79708928D01*
X59336714Y-79708928D02*
X59367666Y-79770833D01*
X59770047Y-80080356D02*
X59120047Y-80080356D01*
X59770047Y-80358928D02*
X59429571Y-80358928D01*
X59429571Y-80358928D02*
X59367666Y-80327975D01*
X59367666Y-80327975D02*
X59336714Y-80266071D01*
X59336714Y-80266071D02*
X59336714Y-80173214D01*
X59336714Y-80173214D02*
X59367666Y-80111309D01*
X59367666Y-80111309D02*
X59398619Y-80080356D01*
X59770047Y-80668451D02*
X59336714Y-80668451D01*
X59120047Y-80668451D02*
X59151000Y-80637499D01*
X59151000Y-80637499D02*
X59181952Y-80668451D01*
X59181952Y-80668451D02*
X59151000Y-80699404D01*
X59151000Y-80699404D02*
X59120047Y-80668451D01*
X59120047Y-80668451D02*
X59181952Y-80668451D01*
X59336714Y-80885118D02*
X59336714Y-81132737D01*
X59770047Y-80977975D02*
X59212904Y-80977975D01*
X59212904Y-80977975D02*
X59151000Y-81008928D01*
X59151000Y-81008928D02*
X59120047Y-81070833D01*
X59120047Y-81070833D02*
X59120047Y-81132737D01*
X59336714Y-81256547D02*
X59336714Y-81504166D01*
X59120047Y-81349404D02*
X59677190Y-81349404D01*
X59677190Y-81349404D02*
X59739095Y-81380357D01*
X59739095Y-81380357D02*
X59770047Y-81442262D01*
X59770047Y-81442262D02*
X59770047Y-81504166D01*
X59739095Y-81968452D02*
X59770047Y-81906548D01*
X59770047Y-81906548D02*
X59770047Y-81782738D01*
X59770047Y-81782738D02*
X59739095Y-81720833D01*
X59739095Y-81720833D02*
X59677190Y-81689881D01*
X59677190Y-81689881D02*
X59429571Y-81689881D01*
X59429571Y-81689881D02*
X59367666Y-81720833D01*
X59367666Y-81720833D02*
X59336714Y-81782738D01*
X59336714Y-81782738D02*
X59336714Y-81906548D01*
X59336714Y-81906548D02*
X59367666Y-81968452D01*
X59367666Y-81968452D02*
X59429571Y-81999405D01*
X59429571Y-81999405D02*
X59491476Y-81999405D01*
X59491476Y-81999405D02*
X59553380Y-81689881D01*
X59770047Y-82277976D02*
X59336714Y-82277976D01*
X59460523Y-82277976D02*
X59398619Y-82308929D01*
X59398619Y-82308929D02*
X59367666Y-82339881D01*
X59367666Y-82339881D02*
X59336714Y-82401786D01*
X59336714Y-82401786D02*
X59336714Y-82463691D01*
X76257440Y-83106297D02*
X76257440Y-82672964D01*
X76257440Y-82734869D02*
X76226487Y-82703916D01*
X76226487Y-82703916D02*
X76164582Y-82672964D01*
X76164582Y-82672964D02*
X76071725Y-82672964D01*
X76071725Y-82672964D02*
X76009821Y-82703916D01*
X76009821Y-82703916D02*
X75978868Y-82765821D01*
X75978868Y-82765821D02*
X75978868Y-83106297D01*
X75978868Y-82765821D02*
X75947916Y-82703916D01*
X75947916Y-82703916D02*
X75886011Y-82672964D01*
X75886011Y-82672964D02*
X75793154Y-82672964D01*
X75793154Y-82672964D02*
X75731249Y-82703916D01*
X75731249Y-82703916D02*
X75700297Y-82765821D01*
X75700297Y-82765821D02*
X75700297Y-83106297D01*
X75112201Y-83075345D02*
X75174106Y-83106297D01*
X75174106Y-83106297D02*
X75297915Y-83106297D01*
X75297915Y-83106297D02*
X75359820Y-83075345D01*
X75359820Y-83075345D02*
X75390773Y-83044392D01*
X75390773Y-83044392D02*
X75421725Y-82982488D01*
X75421725Y-82982488D02*
X75421725Y-82796773D01*
X75421725Y-82796773D02*
X75390773Y-82734869D01*
X75390773Y-82734869D02*
X75359820Y-82703916D01*
X75359820Y-82703916D02*
X75297915Y-82672964D01*
X75297915Y-82672964D02*
X75174106Y-82672964D01*
X75174106Y-82672964D02*
X75112201Y-82703916D01*
X74555058Y-82672964D02*
X74555058Y-83106297D01*
X74833630Y-82672964D02*
X74833630Y-83013440D01*
X74833630Y-83013440D02*
X74802677Y-83075345D01*
X74802677Y-83075345D02*
X74740772Y-83106297D01*
X74740772Y-83106297D02*
X74647915Y-83106297D01*
X74647915Y-83106297D02*
X74586011Y-83075345D01*
X74586011Y-83075345D02*
X74555058Y-83044392D01*
X68129464Y-63025535D02*
X68486607Y-63025535D01*
X68486607Y-63025535D02*
X68522321Y-63382678D01*
X68522321Y-63382678D02*
X68486607Y-63346964D01*
X68486607Y-63346964D02*
X68415179Y-63311250D01*
X68415179Y-63311250D02*
X68236607Y-63311250D01*
X68236607Y-63311250D02*
X68165179Y-63346964D01*
X68165179Y-63346964D02*
X68129464Y-63382678D01*
X68129464Y-63382678D02*
X68093750Y-63454107D01*
X68093750Y-63454107D02*
X68093750Y-63632678D01*
X68093750Y-63632678D02*
X68129464Y-63704107D01*
X68129464Y-63704107D02*
X68165179Y-63739821D01*
X68165179Y-63739821D02*
X68236607Y-63775535D01*
X68236607Y-63775535D02*
X68415179Y-63775535D01*
X68415179Y-63775535D02*
X68486607Y-63739821D01*
X68486607Y-63739821D02*
X68522321Y-63704107D01*
X67772321Y-63704107D02*
X67736607Y-63739821D01*
X67736607Y-63739821D02*
X67772321Y-63775535D01*
X67772321Y-63775535D02*
X67808035Y-63739821D01*
X67808035Y-63739821D02*
X67772321Y-63704107D01*
X67772321Y-63704107D02*
X67772321Y-63775535D01*
X67022321Y-63775535D02*
X67450892Y-63775535D01*
X67236607Y-63775535D02*
X67236607Y-63025535D01*
X67236607Y-63025535D02*
X67308035Y-63132678D01*
X67308035Y-63132678D02*
X67379464Y-63204107D01*
X67379464Y-63204107D02*
X67450892Y-63239821D01*
X66700892Y-63775535D02*
X66700892Y-63025535D01*
X66629464Y-63489821D02*
X66415178Y-63775535D01*
X66415178Y-63275535D02*
X66700892Y-63561250D01*
X92156113Y-82689034D02*
X92156113Y-82039034D01*
X92156113Y-82286653D02*
X92094208Y-82255701D01*
X92094208Y-82255701D02*
X91970398Y-82255701D01*
X91970398Y-82255701D02*
X91908494Y-82286653D01*
X91908494Y-82286653D02*
X91877541Y-82317606D01*
X91877541Y-82317606D02*
X91846589Y-82379510D01*
X91846589Y-82379510D02*
X91846589Y-82565225D01*
X91846589Y-82565225D02*
X91877541Y-82627129D01*
X91877541Y-82627129D02*
X91908494Y-82658082D01*
X91908494Y-82658082D02*
X91970398Y-82689034D01*
X91970398Y-82689034D02*
X92094208Y-82689034D01*
X92094208Y-82689034D02*
X92156113Y-82658082D01*
X91475160Y-82689034D02*
X91537065Y-82658082D01*
X91537065Y-82658082D02*
X91568018Y-82627129D01*
X91568018Y-82627129D02*
X91598970Y-82565225D01*
X91598970Y-82565225D02*
X91598970Y-82379510D01*
X91598970Y-82379510D02*
X91568018Y-82317606D01*
X91568018Y-82317606D02*
X91537065Y-82286653D01*
X91537065Y-82286653D02*
X91475160Y-82255701D01*
X91475160Y-82255701D02*
X91382303Y-82255701D01*
X91382303Y-82255701D02*
X91320399Y-82286653D01*
X91320399Y-82286653D02*
X91289446Y-82317606D01*
X91289446Y-82317606D02*
X91258494Y-82379510D01*
X91258494Y-82379510D02*
X91258494Y-82565225D01*
X91258494Y-82565225D02*
X91289446Y-82627129D01*
X91289446Y-82627129D02*
X91320399Y-82658082D01*
X91320399Y-82658082D02*
X91382303Y-82689034D01*
X91382303Y-82689034D02*
X91475160Y-82689034D01*
X90887065Y-82689034D02*
X90948970Y-82658082D01*
X90948970Y-82658082D02*
X90979923Y-82627129D01*
X90979923Y-82627129D02*
X91010875Y-82565225D01*
X91010875Y-82565225D02*
X91010875Y-82379510D01*
X91010875Y-82379510D02*
X90979923Y-82317606D01*
X90979923Y-82317606D02*
X90948970Y-82286653D01*
X90948970Y-82286653D02*
X90887065Y-82255701D01*
X90887065Y-82255701D02*
X90794208Y-82255701D01*
X90794208Y-82255701D02*
X90732304Y-82286653D01*
X90732304Y-82286653D02*
X90701351Y-82317606D01*
X90701351Y-82317606D02*
X90670399Y-82379510D01*
X90670399Y-82379510D02*
X90670399Y-82565225D01*
X90670399Y-82565225D02*
X90701351Y-82627129D01*
X90701351Y-82627129D02*
X90732304Y-82658082D01*
X90732304Y-82658082D02*
X90794208Y-82689034D01*
X90794208Y-82689034D02*
X90887065Y-82689034D01*
X90484685Y-82255701D02*
X90237066Y-82255701D01*
X90391828Y-82039034D02*
X90391828Y-82596177D01*
X90391828Y-82596177D02*
X90360875Y-82658082D01*
X90360875Y-82658082D02*
X90298970Y-82689034D01*
X90298970Y-82689034D02*
X90237066Y-82689034D01*
X64160714Y-63025535D02*
X64517857Y-63025535D01*
X64517857Y-63025535D02*
X64553571Y-63382678D01*
X64553571Y-63382678D02*
X64517857Y-63346964D01*
X64517857Y-63346964D02*
X64446429Y-63311250D01*
X64446429Y-63311250D02*
X64267857Y-63311250D01*
X64267857Y-63311250D02*
X64196429Y-63346964D01*
X64196429Y-63346964D02*
X64160714Y-63382678D01*
X64160714Y-63382678D02*
X64125000Y-63454107D01*
X64125000Y-63454107D02*
X64125000Y-63632678D01*
X64125000Y-63632678D02*
X64160714Y-63704107D01*
X64160714Y-63704107D02*
X64196429Y-63739821D01*
X64196429Y-63739821D02*
X64267857Y-63775535D01*
X64267857Y-63775535D02*
X64446429Y-63775535D01*
X64446429Y-63775535D02*
X64517857Y-63739821D01*
X64517857Y-63739821D02*
X64553571Y-63704107D01*
X63803571Y-63704107D02*
X63767857Y-63739821D01*
X63767857Y-63739821D02*
X63803571Y-63775535D01*
X63803571Y-63775535D02*
X63839285Y-63739821D01*
X63839285Y-63739821D02*
X63803571Y-63704107D01*
X63803571Y-63704107D02*
X63803571Y-63775535D01*
X63053571Y-63775535D02*
X63482142Y-63775535D01*
X63267857Y-63775535D02*
X63267857Y-63025535D01*
X63267857Y-63025535D02*
X63339285Y-63132678D01*
X63339285Y-63132678D02*
X63410714Y-63204107D01*
X63410714Y-63204107D02*
X63482142Y-63239821D01*
X62732142Y-63775535D02*
X62732142Y-63025535D01*
X62660714Y-63489821D02*
X62446428Y-63775535D01*
X62446428Y-63275535D02*
X62732142Y-63561250D01*
X78063035Y-96470535D02*
X78063035Y-96041964D01*
X78063035Y-96256249D02*
X77313035Y-96256249D01*
X77313035Y-96256249D02*
X77420178Y-96184821D01*
X77420178Y-96184821D02*
X77491607Y-96113392D01*
X77491607Y-96113392D02*
X77527321Y-96041964D01*
X77313035Y-96934821D02*
X77313035Y-97006250D01*
X77313035Y-97006250D02*
X77348750Y-97077678D01*
X77348750Y-97077678D02*
X77384464Y-97113393D01*
X77384464Y-97113393D02*
X77455892Y-97149107D01*
X77455892Y-97149107D02*
X77598750Y-97184821D01*
X77598750Y-97184821D02*
X77777321Y-97184821D01*
X77777321Y-97184821D02*
X77920178Y-97149107D01*
X77920178Y-97149107D02*
X77991607Y-97113393D01*
X77991607Y-97113393D02*
X78027321Y-97077678D01*
X78027321Y-97077678D02*
X78063035Y-97006250D01*
X78063035Y-97006250D02*
X78063035Y-96934821D01*
X78063035Y-96934821D02*
X78027321Y-96863393D01*
X78027321Y-96863393D02*
X77991607Y-96827678D01*
X77991607Y-96827678D02*
X77920178Y-96791964D01*
X77920178Y-96791964D02*
X77777321Y-96756250D01*
X77777321Y-96756250D02*
X77598750Y-96756250D01*
X77598750Y-96756250D02*
X77455892Y-96791964D01*
X77455892Y-96791964D02*
X77384464Y-96827678D01*
X77384464Y-96827678D02*
X77348750Y-96863393D01*
X77348750Y-96863393D02*
X77313035Y-96934821D01*
X77313035Y-97649107D02*
X77313035Y-97720536D01*
X77313035Y-97720536D02*
X77348750Y-97791964D01*
X77348750Y-97791964D02*
X77384464Y-97827679D01*
X77384464Y-97827679D02*
X77455892Y-97863393D01*
X77455892Y-97863393D02*
X77598750Y-97899107D01*
X77598750Y-97899107D02*
X77777321Y-97899107D01*
X77777321Y-97899107D02*
X77920178Y-97863393D01*
X77920178Y-97863393D02*
X77991607Y-97827679D01*
X77991607Y-97827679D02*
X78027321Y-97791964D01*
X78027321Y-97791964D02*
X78063035Y-97720536D01*
X78063035Y-97720536D02*
X78063035Y-97649107D01*
X78063035Y-97649107D02*
X78027321Y-97577679D01*
X78027321Y-97577679D02*
X77991607Y-97541964D01*
X77991607Y-97541964D02*
X77920178Y-97506250D01*
X77920178Y-97506250D02*
X77777321Y-97470536D01*
X77777321Y-97470536D02*
X77598750Y-97470536D01*
X77598750Y-97470536D02*
X77455892Y-97506250D01*
X77455892Y-97506250D02*
X77384464Y-97541964D01*
X77384464Y-97541964D02*
X77348750Y-97577679D01*
X77348750Y-97577679D02*
X77313035Y-97649107D01*
X77563035Y-98220536D02*
X78063035Y-98220536D01*
X77634464Y-98220536D02*
X77598750Y-98256250D01*
X77598750Y-98256250D02*
X77563035Y-98327679D01*
X77563035Y-98327679D02*
X77563035Y-98434822D01*
X77563035Y-98434822D02*
X77598750Y-98506250D01*
X77598750Y-98506250D02*
X77670178Y-98541965D01*
X77670178Y-98541965D02*
X78063035Y-98541965D01*
X77670178Y-99149107D02*
X77670178Y-98899107D01*
X78063035Y-98899107D02*
X77313035Y-98899107D01*
X77313035Y-98899107D02*
X77313035Y-99256250D01*
X76927514Y-67066010D02*
X76896562Y-67004105D01*
X76896562Y-67004105D02*
X76834657Y-66973152D01*
X76834657Y-66973152D02*
X76277514Y-66973152D01*
X76927514Y-67406486D02*
X76896562Y-67344581D01*
X76896562Y-67344581D02*
X76865609Y-67313628D01*
X76865609Y-67313628D02*
X76803705Y-67282676D01*
X76803705Y-67282676D02*
X76617990Y-67282676D01*
X76617990Y-67282676D02*
X76556086Y-67313628D01*
X76556086Y-67313628D02*
X76525133Y-67344581D01*
X76525133Y-67344581D02*
X76494181Y-67406486D01*
X76494181Y-67406486D02*
X76494181Y-67499343D01*
X76494181Y-67499343D02*
X76525133Y-67561247D01*
X76525133Y-67561247D02*
X76556086Y-67592200D01*
X76556086Y-67592200D02*
X76617990Y-67623152D01*
X76617990Y-67623152D02*
X76803705Y-67623152D01*
X76803705Y-67623152D02*
X76865609Y-67592200D01*
X76865609Y-67592200D02*
X76896562Y-67561247D01*
X76896562Y-67561247D02*
X76927514Y-67499343D01*
X76927514Y-67499343D02*
X76927514Y-67406486D01*
X76927514Y-68180295D02*
X76277514Y-68180295D01*
X76896562Y-68180295D02*
X76927514Y-68118390D01*
X76927514Y-68118390D02*
X76927514Y-67994581D01*
X76927514Y-67994581D02*
X76896562Y-67932676D01*
X76896562Y-67932676D02*
X76865609Y-67901723D01*
X76865609Y-67901723D02*
X76803705Y-67870771D01*
X76803705Y-67870771D02*
X76617990Y-67870771D01*
X76617990Y-67870771D02*
X76556086Y-67901723D01*
X76556086Y-67901723D02*
X76525133Y-67932676D01*
X76525133Y-67932676D02*
X76494181Y-67994581D01*
X76494181Y-67994581D02*
X76494181Y-68118390D01*
X76494181Y-68118390D02*
X76525133Y-68180295D01*
X94905059Y-64892964D02*
X94905059Y-65450107D01*
X94905059Y-65450107D02*
X94936011Y-65512011D01*
X94936011Y-65512011D02*
X94997916Y-65542964D01*
X94997916Y-65542964D02*
X95028868Y-65542964D01*
X94905059Y-64676297D02*
X94936011Y-64707250D01*
X94936011Y-64707250D02*
X94905059Y-64738202D01*
X94905059Y-64738202D02*
X94874106Y-64707250D01*
X94874106Y-64707250D02*
X94905059Y-64676297D01*
X94905059Y-64676297D02*
X94905059Y-64738202D01*
X94626487Y-65295345D02*
X94564582Y-65326297D01*
X94564582Y-65326297D02*
X94440773Y-65326297D01*
X94440773Y-65326297D02*
X94378868Y-65295345D01*
X94378868Y-65295345D02*
X94347916Y-65233440D01*
X94347916Y-65233440D02*
X94347916Y-65202488D01*
X94347916Y-65202488D02*
X94378868Y-65140583D01*
X94378868Y-65140583D02*
X94440773Y-65109630D01*
X94440773Y-65109630D02*
X94533630Y-65109630D01*
X94533630Y-65109630D02*
X94595535Y-65078678D01*
X94595535Y-65078678D02*
X94626487Y-65016773D01*
X94626487Y-65016773D02*
X94626487Y-64985821D01*
X94626487Y-64985821D02*
X94595535Y-64923916D01*
X94595535Y-64923916D02*
X94533630Y-64892964D01*
X94533630Y-64892964D02*
X94440773Y-64892964D01*
X94440773Y-64892964D02*
X94378868Y-64923916D01*
X94162202Y-64892964D02*
X93914583Y-64892964D01*
X94069345Y-64676297D02*
X94069345Y-65233440D01*
X94069345Y-65233440D02*
X94038392Y-65295345D01*
X94038392Y-65295345D02*
X93976487Y-65326297D01*
X93976487Y-65326297D02*
X93914583Y-65326297D01*
X67453640Y-88533035D02*
X67453640Y-88104464D01*
X67453640Y-88318749D02*
X66703640Y-88318749D01*
X66703640Y-88318749D02*
X66810783Y-88247321D01*
X66810783Y-88247321D02*
X66882212Y-88175892D01*
X66882212Y-88175892D02*
X66917926Y-88104464D01*
X66703640Y-88997321D02*
X66703640Y-89068750D01*
X66703640Y-89068750D02*
X66739355Y-89140178D01*
X66739355Y-89140178D02*
X66775069Y-89175893D01*
X66775069Y-89175893D02*
X66846497Y-89211607D01*
X66846497Y-89211607D02*
X66989355Y-89247321D01*
X66989355Y-89247321D02*
X67167926Y-89247321D01*
X67167926Y-89247321D02*
X67310783Y-89211607D01*
X67310783Y-89211607D02*
X67382212Y-89175893D01*
X67382212Y-89175893D02*
X67417926Y-89140178D01*
X67417926Y-89140178D02*
X67453640Y-89068750D01*
X67453640Y-89068750D02*
X67453640Y-88997321D01*
X67453640Y-88997321D02*
X67417926Y-88925893D01*
X67417926Y-88925893D02*
X67382212Y-88890178D01*
X67382212Y-88890178D02*
X67310783Y-88854464D01*
X67310783Y-88854464D02*
X67167926Y-88818750D01*
X67167926Y-88818750D02*
X66989355Y-88818750D01*
X66989355Y-88818750D02*
X66846497Y-88854464D01*
X66846497Y-88854464D02*
X66775069Y-88890178D01*
X66775069Y-88890178D02*
X66739355Y-88925893D01*
X66739355Y-88925893D02*
X66703640Y-88997321D01*
X66703640Y-89711607D02*
X66703640Y-89783036D01*
X66703640Y-89783036D02*
X66739355Y-89854464D01*
X66739355Y-89854464D02*
X66775069Y-89890179D01*
X66775069Y-89890179D02*
X66846497Y-89925893D01*
X66846497Y-89925893D02*
X66989355Y-89961607D01*
X66989355Y-89961607D02*
X67167926Y-89961607D01*
X67167926Y-89961607D02*
X67310783Y-89925893D01*
X67310783Y-89925893D02*
X67382212Y-89890179D01*
X67382212Y-89890179D02*
X67417926Y-89854464D01*
X67417926Y-89854464D02*
X67453640Y-89783036D01*
X67453640Y-89783036D02*
X67453640Y-89711607D01*
X67453640Y-89711607D02*
X67417926Y-89640179D01*
X67417926Y-89640179D02*
X67382212Y-89604464D01*
X67382212Y-89604464D02*
X67310783Y-89568750D01*
X67310783Y-89568750D02*
X67167926Y-89533036D01*
X67167926Y-89533036D02*
X66989355Y-89533036D01*
X66989355Y-89533036D02*
X66846497Y-89568750D01*
X66846497Y-89568750D02*
X66775069Y-89604464D01*
X66775069Y-89604464D02*
X66739355Y-89640179D01*
X66739355Y-89640179D02*
X66703640Y-89711607D01*
X66953640Y-90283036D02*
X67453640Y-90283036D01*
X67025069Y-90283036D02*
X66989355Y-90318750D01*
X66989355Y-90318750D02*
X66953640Y-90390179D01*
X66953640Y-90390179D02*
X66953640Y-90497322D01*
X66953640Y-90497322D02*
X66989355Y-90568750D01*
X66989355Y-90568750D02*
X67060783Y-90604465D01*
X67060783Y-90604465D02*
X67453640Y-90604465D01*
X67060783Y-91211607D02*
X67060783Y-90961607D01*
X67453640Y-90961607D02*
X66703640Y-90961607D01*
X66703640Y-90961607D02*
X66703640Y-91318750D01*
D12*
%TO.C,D7*%
X76787500Y-57822500D02*
X76787500Y-53962500D01*
X78787500Y-57822500D02*
X76787500Y-57822500D01*
X78787500Y-57822500D02*
X78787500Y-53962500D01*
%TO.C,D42*%
X233950000Y-114934400D02*
X233950000Y-111074400D01*
X235950000Y-114934400D02*
X233950000Y-114934400D01*
X235950000Y-114934400D02*
X235950000Y-111074400D01*
%TO.C,D48*%
X264906250Y-95922500D02*
X264906250Y-92062500D01*
X266906250Y-95922500D02*
X264906250Y-95922500D01*
X266906250Y-95922500D02*
X266906250Y-92062500D01*
%TO.C,D11*%
X81550000Y-134022500D02*
X81550000Y-130162500D01*
X83550000Y-134022500D02*
X81550000Y-134022500D01*
X83550000Y-134022500D02*
X83550000Y-130162500D01*
%TO.C,D58*%
X267287500Y-134022500D02*
X267287500Y-130162500D01*
X269287500Y-134022500D02*
X267287500Y-134022500D01*
X269287500Y-134022500D02*
X269287500Y-130162500D01*
D13*
%TO.C,J2*%
X94312500Y-62087500D02*
X91912500Y-62087500D01*
X91912500Y-62087500D02*
X91912500Y-63087500D01*
X96112500Y-67087500D02*
X96112500Y-63087500D01*
X91912500Y-67087500D02*
X91912500Y-68087500D01*
X91912500Y-68087500D02*
X94312500Y-68087500D01*
D12*
%TO.C,D71*%
X324437500Y-134022500D02*
X324437500Y-130162500D01*
X326437500Y-134022500D02*
X324437500Y-134022500D01*
X326437500Y-134022500D02*
X326437500Y-130162500D01*
%TO.C,D52*%
X286337500Y-114972500D02*
X286337500Y-111112500D01*
X288337500Y-114972500D02*
X286337500Y-114972500D01*
X288337500Y-114972500D02*
X288337500Y-111112500D01*
%TO.C,D15*%
X119650000Y-114972500D02*
X119650000Y-111112500D01*
X121650000Y-114972500D02*
X119650000Y-114972500D01*
X121650000Y-114972500D02*
X121650000Y-111112500D01*
%TO.C,D38*%
X200612500Y-76872500D02*
X200612500Y-73012500D01*
X202612500Y-76872500D02*
X200612500Y-76872500D01*
X202612500Y-76872500D02*
X202612500Y-73012500D01*
%TO.C,D50*%
X238712500Y-76872500D02*
X238712500Y-73012500D01*
X240712500Y-76872500D02*
X238712500Y-76872500D01*
X240712500Y-76872500D02*
X240712500Y-73012500D01*
%TO.C,C16*%
X56297500Y-80695002D02*
X56297500Y-81217506D01*
X54827500Y-80695002D02*
X54827500Y-81217506D01*
%TO.C,D62*%
X324437500Y-114972500D02*
X324437500Y-111112500D01*
X326437500Y-114972500D02*
X324437500Y-114972500D01*
X326437500Y-114972500D02*
X326437500Y-111112500D01*
%TO.C,D70*%
X324437500Y-57822500D02*
X324437500Y-53962500D01*
X326437500Y-57822500D02*
X324437500Y-57822500D01*
X326437500Y-57822500D02*
X326437500Y-53962500D01*
%TO.C,U3*%
X58771250Y-82542500D02*
X60231250Y-82542500D01*
X58771250Y-82542500D02*
X58771250Y-81612500D01*
X58771250Y-79382500D02*
X61931250Y-79382500D01*
X58771250Y-79382500D02*
X58771250Y-80312500D01*
%TO.C,C10*%
X81021250Y-80430002D02*
X81021250Y-79907498D01*
X82491250Y-80430002D02*
X82491250Y-79907498D01*
%TO.C,D16*%
X85614000Y-134022500D02*
X85614000Y-130162500D01*
X87614000Y-134022500D02*
X85614000Y-134022500D01*
X87614000Y-134022500D02*
X87614000Y-130162500D01*
%TO.C,C17*%
X62765000Y-81223752D02*
X62765000Y-80701248D01*
X64235000Y-81223752D02*
X64235000Y-80701248D01*
%TO.C,C15*%
X69297500Y-89432498D02*
X69297500Y-89955002D01*
X67827500Y-89432498D02*
X67827500Y-89955002D01*
%TO.C,D66*%
X324437500Y-95922500D02*
X324437500Y-92062500D01*
X326437500Y-95922500D02*
X324437500Y-95922500D01*
X326437500Y-95922500D02*
X326437500Y-92062500D01*
%TO.C,D18*%
X124412500Y-76872500D02*
X124412500Y-73012500D01*
X126412500Y-76872500D02*
X124412500Y-76872500D01*
X126412500Y-76872500D02*
X126412500Y-73012500D01*
%TO.C,D61*%
X305387500Y-95922500D02*
X305387500Y-92062500D01*
X307387500Y-95922500D02*
X305387500Y-95922500D01*
X307387500Y-95922500D02*
X307387500Y-92062500D01*
%TO.C,D41*%
X209343750Y-134022500D02*
X209343750Y-130162500D01*
X211343750Y-134022500D02*
X209343750Y-134022500D01*
X211343750Y-134022500D02*
X211343750Y-130162500D01*
%TO.C,D34*%
X186325000Y-95922500D02*
X186325000Y-92062500D01*
X188325000Y-95922500D02*
X186325000Y-95922500D01*
X188325000Y-95922500D02*
X188325000Y-92062500D01*
%TO.C,C12*%
X79858466Y-93401248D02*
X79858466Y-93923752D01*
X78388466Y-93401248D02*
X78388466Y-93923752D01*
%TO.C,D65*%
X305387500Y-76872500D02*
X305387500Y-73012500D01*
X307387500Y-76872500D02*
X305387500Y-76872500D01*
X307387500Y-76872500D02*
X307387500Y-73012500D01*
%TO.C,D4*%
X64784192Y-95911705D02*
X64784192Y-92051705D01*
X66784192Y-95911705D02*
X64784192Y-95911705D01*
X66784192Y-95911705D02*
X66784192Y-92051705D01*
%TO.C,D14*%
X110125000Y-95922500D02*
X110125000Y-92062500D01*
X112125000Y-95922500D02*
X110125000Y-95922500D01*
X112125000Y-95922500D02*
X112125000Y-92062500D01*
%TO.C,R5*%
X85666250Y-83910436D02*
X85666250Y-84364564D01*
X84196250Y-83910436D02*
X84196250Y-84364564D01*
%TO.C,D47*%
X233156250Y-134022500D02*
X233156250Y-130162500D01*
X235156250Y-134022500D02*
X233156250Y-134022500D01*
X235156250Y-134022500D02*
X235156250Y-130162500D01*
%TO.C,D57*%
X305387500Y-114972500D02*
X305387500Y-111112500D01*
X307387500Y-114972500D02*
X305387500Y-114972500D01*
X307387500Y-114972500D02*
X307387500Y-111112500D01*
%TO.C,D51*%
X243475000Y-95922500D02*
X243475000Y-92062500D01*
X245475000Y-95922500D02*
X243475000Y-95922500D01*
X245475000Y-95922500D02*
X245475000Y-92062500D01*
%TO.C,D49*%
X229187500Y-57822500D02*
X229187500Y-53962500D01*
X231187500Y-57822500D02*
X229187500Y-57822500D01*
X231187500Y-57822500D02*
X231187500Y-53962500D01*
%TO.C,D45*%
X224425000Y-95922500D02*
X224425000Y-92062500D01*
X226425000Y-95922500D02*
X224425000Y-95922500D01*
X226425000Y-95922500D02*
X226425000Y-92062500D01*
%TO.C,D17*%
X114887500Y-57822500D02*
X114887500Y-53962500D01*
X116887500Y-57822500D02*
X114887500Y-57822500D01*
X116887500Y-57822500D02*
X116887500Y-53962500D01*
%TO.C,F1*%
X71553750Y-64485436D02*
X71553750Y-65689564D01*
X69733750Y-64485436D02*
X69733750Y-65689564D01*
%TO.C,D10*%
X100600000Y-114972500D02*
X100600000Y-111112500D01*
X102600000Y-114972500D02*
X100600000Y-114972500D01*
X102600000Y-114972500D02*
X102600000Y-111112500D01*
%TO.C,R_USB1*%
X64235000Y-60891686D02*
X64235000Y-61345814D01*
X62765000Y-60891686D02*
X62765000Y-61345814D01*
%TO.C,D19*%
X129175000Y-95922500D02*
X129175000Y-92062500D01*
X131175000Y-95922500D02*
X129175000Y-95922500D01*
X131175000Y-95922500D02*
X131175000Y-92062500D01*
%TO.C,D5*%
X69515675Y-114986368D02*
X69515675Y-111126368D01*
X71515675Y-114986368D02*
X69515675Y-114986368D01*
X71515675Y-114986368D02*
X71515675Y-111126368D01*
%TO.C,R_USB2*%
X68003750Y-60891686D02*
X68003750Y-61345814D01*
X66533750Y-60891686D02*
X66533750Y-61345814D01*
%TO.C,D64*%
X286337500Y-57822500D02*
X286337500Y-53962500D01*
X288337500Y-57822500D02*
X286337500Y-57822500D01*
X288337500Y-57822500D02*
X288337500Y-53962500D01*
%TO.C,D26*%
X141081250Y-134022500D02*
X141081250Y-130162500D01*
X143081250Y-134022500D02*
X141081250Y-134022500D01*
X143081250Y-134022500D02*
X143081250Y-130162500D01*
%TO.C,D36*%
X195088000Y-134022500D02*
X195088000Y-130162500D01*
X197088000Y-134022500D02*
X195088000Y-134022500D01*
X197088000Y-134022500D02*
X197088000Y-130162500D01*
%TO.C,C9*%
X67527500Y-81223752D02*
X67527500Y-80701248D01*
X68997500Y-81223752D02*
X68997500Y-80701248D01*
%TO.C,SW1*%
X94001250Y-83590000D02*
X94001250Y-81510000D01*
X92731250Y-85270000D02*
X93221250Y-84780000D01*
X92731250Y-85270000D02*
X89831250Y-85270000D01*
X92731250Y-79830000D02*
X93221250Y-80320000D01*
X92731250Y-79830000D02*
X89831250Y-79830000D01*
X89831250Y-85270000D02*
X89341250Y-84780000D01*
X89831250Y-79830000D02*
X89341250Y-80320000D01*
X88561250Y-83590000D02*
X88561250Y-81510000D01*
%TO.C,D22*%
X133937500Y-57822500D02*
X133937500Y-53962500D01*
X135937500Y-57822500D02*
X133937500Y-57822500D01*
X135937500Y-57822500D02*
X135937500Y-53962500D01*
%TO.C,J3*%
X60070000Y-44308000D02*
X69470000Y-44308000D01*
X60070000Y-46208000D02*
X60070000Y-44308000D01*
X60070000Y-50108000D02*
X60070000Y-48108000D01*
X69470000Y-46208000D02*
X69470000Y-44308000D01*
X69470000Y-50108000D02*
X69470000Y-48108000D01*
%TO.C,C11*%
X79858466Y-97369998D02*
X79858466Y-97892502D01*
X78388466Y-97369998D02*
X78388466Y-97892502D01*
%TO.C,D31*%
X166481250Y-134022500D02*
X166481250Y-130162500D01*
X168481250Y-134022500D02*
X166481250Y-134022500D01*
X168481250Y-134022500D02*
X168481250Y-130162500D01*
%TO.C,D28*%
X162512500Y-76872500D02*
X162512500Y-73012500D01*
X164512500Y-76872500D02*
X162512500Y-76872500D01*
X164512500Y-76872500D02*
X164512500Y-73012500D01*
%TO.C,D72*%
X76058000Y-66067500D02*
X77358000Y-66067500D01*
X77358000Y-69187500D02*
X74358000Y-69187500D01*
%TO.C,D63*%
X276018750Y-134022500D02*
X276018750Y-130162500D01*
X278018750Y-134022500D02*
X276018750Y-134022500D01*
X278018750Y-134022500D02*
X278018750Y-130162500D01*
%TO.C,D44*%
X219662500Y-76872500D02*
X219662500Y-73012500D01*
X221662500Y-76872500D02*
X219662500Y-76872500D01*
X221662500Y-76872500D02*
X221662500Y-73012500D01*
%TO.C,D68*%
X305387500Y-57822500D02*
X305387500Y-53962500D01*
X307387500Y-57822500D02*
X305387500Y-57822500D01*
X307387500Y-57822500D02*
X307387500Y-53962500D01*
%TO.C,D29*%
X167275000Y-95922500D02*
X167275000Y-92062500D01*
X169275000Y-95922500D02*
X167275000Y-95922500D01*
X169275000Y-95922500D02*
X169275000Y-92062500D01*
%TO.C,D24*%
X148225000Y-95922500D02*
X148225000Y-92062500D01*
X150225000Y-95922500D02*
X148225000Y-95922500D01*
X150225000Y-95922500D02*
X150225000Y-92062500D01*
%TO.C,D2*%
X57737500Y-58013000D02*
X57737500Y-54153000D01*
X59737500Y-58013000D02*
X57737500Y-58013000D01*
X59737500Y-58013000D02*
X59737500Y-54153000D01*
%TO.C,U2*%
X71574000Y-89335000D02*
X72024000Y-89335000D01*
X78344000Y-89335000D02*
X78344000Y-90625000D01*
X78794000Y-89335000D02*
X78344000Y-89335000D01*
X71574000Y-88885000D02*
X71574000Y-89335000D01*
X78794000Y-88885000D02*
X78794000Y-89335000D01*
X71574000Y-82565000D02*
X71574000Y-82115000D01*
X78794000Y-82565000D02*
X78794000Y-82115000D01*
X71574000Y-82115000D02*
X72024000Y-82115000D01*
X78794000Y-82115000D02*
X78344000Y-82115000D01*
%TO.C,C14*%
X65146250Y-81223752D02*
X65146250Y-80701248D01*
X66616250Y-81223752D02*
X66616250Y-80701248D01*
%TO.C,D6*%
X57737500Y-134022500D02*
X57737500Y-130162500D01*
X59737500Y-134022500D02*
X57737500Y-134022500D01*
X59737500Y-134022500D02*
X59737500Y-130162500D01*
%TO.C,D43*%
X210137500Y-57822500D02*
X210137500Y-53962500D01*
X212137500Y-57822500D02*
X210137500Y-57822500D01*
X212137500Y-57822500D02*
X212137500Y-53962500D01*
%TO.C,D32*%
X172037500Y-57822500D02*
X172037500Y-53962500D01*
X174037500Y-57822500D02*
X172037500Y-57822500D01*
X174037500Y-57822500D02*
X174037500Y-53962500D01*
%TO.C,D1*%
X81550000Y-114972500D02*
X81550000Y-111112500D01*
X83550000Y-114972500D02*
X81550000Y-114972500D01*
X83550000Y-114972500D02*
X83550000Y-111112500D01*
%TO.C,D69*%
X324437500Y-76685000D02*
X324437500Y-72825000D01*
X326437500Y-76685000D02*
X324437500Y-76685000D01*
X326437500Y-76685000D02*
X326437500Y-72825000D01*
%TO.C,D60*%
X286337500Y-76872500D02*
X286337500Y-73012500D01*
X288337500Y-76872500D02*
X286337500Y-76872500D01*
X288337500Y-76872500D02*
X288337500Y-73012500D01*
%TO.C,D27*%
X152987500Y-57822500D02*
X152987500Y-53962500D01*
X154987500Y-57822500D02*
X152987500Y-57822500D01*
X154987500Y-57822500D02*
X154987500Y-53962500D01*
%TO.C,D25*%
X157750000Y-114972500D02*
X157750000Y-111112500D01*
X159750000Y-114972500D02*
X157750000Y-114972500D01*
X159750000Y-114972500D02*
X159750000Y-111112500D01*
%TO.C,D33*%
X181562500Y-76872500D02*
X181562500Y-73012500D01*
X183562500Y-76872500D02*
X181562500Y-76872500D01*
X183562500Y-76872500D02*
X183562500Y-73012500D01*
%TO.C,D21*%
X105362500Y-134022500D02*
X105362500Y-130162500D01*
X107362500Y-134022500D02*
X105362500Y-134022500D01*
X107362500Y-134022500D02*
X107362500Y-130162500D01*
%TO.C,D12*%
X95837500Y-57822500D02*
X95837500Y-53962500D01*
X97837500Y-57822500D02*
X95837500Y-57822500D01*
X97837500Y-57822500D02*
X97837500Y-53962500D01*
%TO.C,C13*%
X71378750Y-92607498D02*
X71378750Y-93130002D01*
X69908750Y-92607498D02*
X69908750Y-93130002D01*
%TO.C,D23*%
X143462500Y-76872500D02*
X143462500Y-73012500D01*
X145462500Y-76872500D02*
X143462500Y-76872500D01*
X145462500Y-76872500D02*
X145462500Y-73012500D01*
%TO.C,D59*%
X267287500Y-60997500D02*
X267287500Y-57137500D01*
X269287500Y-60997500D02*
X267287500Y-60997500D01*
X269287500Y-60997500D02*
X269287500Y-57137500D01*
%TO.C,D40*%
X214900000Y-114972500D02*
X214900000Y-111112500D01*
X216900000Y-114972500D02*
X214900000Y-114972500D01*
X216900000Y-114972500D02*
X216900000Y-111112500D01*
%TO.C,D8*%
X86312500Y-76872500D02*
X86312500Y-73012500D01*
X88312500Y-76872500D02*
X86312500Y-76872500D01*
X88312500Y-76872500D02*
X88312500Y-73012500D01*
%TO.C,D56*%
X286337500Y-95922500D02*
X286337500Y-92062500D01*
X288337500Y-95922500D02*
X286337500Y-95922500D01*
X288337500Y-95922500D02*
X288337500Y-92062500D01*
%TO.C,D37*%
X191087500Y-57822500D02*
X191087500Y-53962500D01*
X193087500Y-57822500D02*
X191087500Y-57822500D01*
X193087500Y-57822500D02*
X193087500Y-53962500D01*
%TO.C,D54*%
X248237500Y-60997500D02*
X248237500Y-57137500D01*
X250237500Y-60997500D02*
X248237500Y-60997500D01*
X250237500Y-60997500D02*
X250237500Y-57137500D01*
%TO.C,D55*%
X273637500Y-76872500D02*
X273637500Y-73012500D01*
X275637500Y-76872500D02*
X273637500Y-76872500D01*
X275637500Y-76872500D02*
X275637500Y-73012500D01*
%TO.C,D9*%
X91075000Y-95922500D02*
X91075000Y-92062500D01*
X93075000Y-95922500D02*
X91075000Y-95922500D01*
X93075000Y-95922500D02*
X93075000Y-92062500D01*
%TO.C,D3*%
X62500000Y-76872500D02*
X62500000Y-73012500D01*
X64500000Y-76872500D02*
X62500000Y-76872500D01*
X64500000Y-76872500D02*
X64500000Y-73012500D01*
%TO.C,D67*%
X305387500Y-134022500D02*
X305387500Y-130162500D01*
X307387500Y-134022500D02*
X305387500Y-134022500D01*
X307387500Y-134022500D02*
X307387500Y-130162500D01*
%TO.C,D13*%
X105362500Y-76872500D02*
X105362500Y-73012500D01*
X107362500Y-76872500D02*
X105362500Y-76872500D01*
X107362500Y-76872500D02*
X107362500Y-73012500D01*
%TO.C,D30*%
X176800000Y-114972500D02*
X176800000Y-111112500D01*
X178800000Y-114972500D02*
X176800000Y-114972500D01*
X178800000Y-114972500D02*
X178800000Y-111112500D01*
%TO.C,D46*%
X260143750Y-114972500D02*
X260143750Y-111112500D01*
X262143750Y-114972500D02*
X260143750Y-114972500D01*
X262143750Y-114972500D02*
X262143750Y-111112500D01*
%TO.C,D39*%
X205375000Y-95922500D02*
X205375000Y-92062500D01*
X207375000Y-95922500D02*
X205375000Y-95922500D01*
X207375000Y-95922500D02*
X207375000Y-92062500D01*
%TO.C,D35*%
X195850000Y-114972500D02*
X195850000Y-111112500D01*
X197850000Y-114972500D02*
X195850000Y-114972500D01*
X197850000Y-114972500D02*
X197850000Y-111112500D01*
%TO.C,D20*%
X138700000Y-114972500D02*
X138700000Y-111112500D01*
X140700000Y-114972500D02*
X138700000Y-114972500D01*
X140700000Y-114972500D02*
X140700000Y-111112500D01*
%TO.C,D53*%
X248237500Y-134022500D02*
X248237500Y-130162500D01*
X250237500Y-134022500D02*
X248237500Y-134022500D01*
X250237500Y-134022500D02*
X250237500Y-130162500D01*
%TD*%
M02*
