M48
; DRILL file {KiCad (7.0.0)} date Mon Mar  6 16:52:17 2023
; FORMAT={-:-/ absolute / inch / decimal}
; #@! TF.CreationDate,2023-03-06T16:52:17+01:00
; #@! TF.GenerationSoftware,Kicad,Pcbnew,(7.0.0)
; #@! TF.FileFunction,NonPlated,1,2,NPTH
FMAT,2
INCH
; #@! TA.AperFunction,NonPlated,NPTH,ComponentDrill
T1C0.0256
; #@! TA.AperFunction,NonPlated,NPTH,ComponentDrill
T2C0.0689
; #@! TA.AperFunction,NonPlated,NPTH,ComponentDrill
T3C0.1200
; #@! TA.AperFunction,NonPlated,NPTH,ComponentDrill
T4C0.1570
; #@! TA.AperFunction,NonPlated,NPTH,ComponentDrill
T5C0.1575
%
G90
G05
T1
X2.4362Y-2.0003
X2.6638Y-2.0003
T2
X1.9875Y-2.1875
X1.9875Y-5.1875
X2.0786Y-3.6875
X2.0803Y-4.4381
X2.082Y-5.1875
X2.175Y-2.9375
X2.175Y-5.1875
X2.2675Y-3.6875
X2.3875Y-2.1875
X2.3875Y-5.1875
X2.4525Y-4.4375
X2.4786Y-3.6875
X2.4803Y-4.4381
X2.482Y-5.1875
X2.575Y-2.9375
X2.575Y-5.1875
X2.6675Y-3.6875
X2.7375Y-2.1875
X2.7375Y-5.1875
X2.8525Y-4.4375
X2.925Y-4.4375
X2.925Y-5.1875
X3.0192Y-5.1886
X3.1125Y-2.9375
X3.1375Y-2.1875
X3.1375Y-5.1875
X3.3Y-3.6875
X3.3Y-5.1875
X3.325Y-4.4375
X3.325Y-5.1875
X3.4192Y-5.1886
X3.4875Y-2.1875
X3.4875Y-5.1875
X3.5125Y-2.9375
X3.675Y-4.4375
X3.7Y-3.6875
X3.7Y-5.1875
X3.8625Y-2.9375
X3.8625Y-5.1875
X3.8875Y-2.1875
X3.8875Y-5.1875
X4.05Y-3.6875
X4.075Y-4.4375
X4.2375Y-2.1875
X4.2625Y-2.9375
X4.2625Y-5.1875
X4.425Y-4.4375
X4.45Y-3.6875
X4.6125Y-2.9375
X4.6375Y-2.1875
X4.8Y-3.6875
X4.825Y-4.4375
X4.9875Y-2.1875
X4.9875Y-5.1875
X5.0125Y-2.9375
X5.175Y-4.4375
X5.2Y-3.6875
X5.27Y-5.1875
X5.3625Y-2.9375
X5.3875Y-2.1875
X5.3875Y-5.1875
X5.55Y-3.6875
X5.575Y-4.4375
X5.67Y-5.1875
X5.7375Y-2.1875
X5.7625Y-2.9375
X5.925Y-4.4375
X5.95Y-3.6875
X6.0175Y-5.1875
X6.1125Y-2.9375
X6.1125Y-5.1875
X6.1125Y-5.1875
X6.1375Y-2.1875
X6.3Y-3.6875
X6.325Y-4.4375
X6.4175Y-5.1875
X6.4875Y-2.1875
X6.5125Y-2.9375
X6.5125Y-5.1875
X6.5125Y-5.1875
X6.675Y-4.4375
X6.7Y-3.6875
X6.8625Y-2.9375
X6.8875Y-2.1875
X7.05Y-3.6875
X7.075Y-4.4375
X7.1453Y-5.1875
X7.2375Y-2.1875
X7.2375Y-5.1875
X7.2625Y-2.9375
X7.425Y-4.4375
X7.45Y-3.6875
X7.5453Y-5.1875
X7.6125Y-2.9375
X7.6375Y-2.1875
X7.6375Y-5.1875
X7.8Y-3.6875
X7.825Y-4.4375
X7.9875Y-2.1875
X8.0125Y-2.9375
X8.175Y-4.4375
X8.2Y-3.6875
X8.3625Y-2.9375
X8.3625Y-5.1875
X8.3875Y-2.1875
X8.55Y-3.6875
X8.55Y-5.1875
X8.575Y-4.4375
X8.7375Y-2.1875
X8.7375Y-5.1875
X8.7625Y-2.9375
X8.7625Y-5.1875
X8.925Y-4.4375
X8.925Y-5.1875
X8.95Y-3.6875
X8.95Y-5.1875
X9.1125Y-2.9375
X9.1375Y-2.1875
X9.1375Y-5.1875
X9.2063Y-5.1876
X9.3Y-3.6875
X9.3Y-5.1875
X9.3Y-5.1875
X9.325Y-4.4375
X9.325Y-5.1875
X9.4875Y-2.1875
X9.4875Y-5.1875
X9.5125Y-2.9375
X9.5825Y-4.4375
X9.6063Y-5.1876
X9.7Y-3.6875
X9.7Y-5.1875
X9.7Y-5.1875
X9.7675Y-3.6875
X9.8625Y-2.1875
X9.8875Y-2.1875
X9.8875Y-5.1875
X9.9575Y-4.4375
X9.9825Y-4.4375
X10.05Y-2.9375
X10.05Y-5.1875
X10.1425Y-3.3125
X10.1425Y-3.6875
X10.1434Y-5.1899
X10.1675Y-3.6875
X10.2375Y-2.1875
X10.2375Y-5.1875
X10.2625Y-2.1875
X10.3575Y-4.4375
X10.45Y-2.9375
X10.45Y-5.1875
X10.5425Y-3.3125
X10.5425Y-3.6875
X10.5434Y-5.1899
X10.6375Y-2.1875
X10.6375Y-5.1875
X10.9875Y-2.1875
X10.9875Y-2.9375
X10.9875Y-3.6875
X10.9875Y-4.4375
X10.9875Y-5.1875
X11.3625Y-5.1875
X11.3875Y-2.1875
X11.3875Y-2.9375
X11.3875Y-3.6875
X11.3875Y-4.4375
X11.3875Y-5.1875
X11.7375Y-2.1875
X11.7375Y-2.9375
X11.7375Y-3.6875
X11.7375Y-4.4375
X11.7375Y-5.1875
X11.7625Y-5.1875
X12.1375Y-2.1875
X12.1375Y-2.9375
X12.1375Y-3.6875
X12.1375Y-4.4375
X12.1375Y-5.1875
X12.4875Y-2.1875
X12.4875Y-2.9375
X12.4875Y-3.6875
X12.4875Y-4.4375
X12.4875Y-5.1875
X12.8875Y-2.1875
X12.8875Y-2.9375
X12.8875Y-3.6875
X12.8875Y-4.4375
X12.8875Y-5.1875
T3
X2.1837Y-4.1625
X3.1212Y-4.1625
X4.0625Y-5.4625
X4.249Y-5.4625
X4.4375Y-5.4625
X4.4375Y-5.4625
X5.0012Y-5.4625
X5.9375Y-5.4625
X5.9387Y-5.4625
X6.6875Y-5.4625
X6.8765Y-5.4625
X7.814Y-5.4625
X8.186Y-5.4625
X8.1875Y-5.4625
X8.1875Y-5.4625
X8.5625Y-5.4625
X9.3138Y-4.1625
X9.4987Y-3.9625
X9.5938Y-1.9125
X10.2513Y-4.1625
X10.4362Y-3.9625
X10.5312Y-1.9125
X10.6175Y-2.8425
X10.6175Y-3.7825
T4
X2.1837Y-4.7625
X2.1875Y-2.1875
X2.1875Y-5.1875
X2.2786Y-3.6875
X2.2803Y-4.4381
X2.282Y-5.1875
X2.375Y-2.9375
X2.375Y-5.1875
X2.4675Y-3.6875
X2.6525Y-4.4375
X2.9375Y-2.1875
X2.9375Y-5.1875
X3.1212Y-4.7625
X3.125Y-4.4375
X3.125Y-5.1875
X3.2192Y-5.1886
X3.3125Y-2.9375
X3.5Y-3.6875
X3.5Y-5.1875
X3.6875Y-2.1875
X3.6875Y-5.1875
X3.875Y-4.4375
X4.0625Y-2.9375
X4.0625Y-4.8625
X4.0625Y-5.1875
X4.249Y-4.8625
X4.25Y-3.6875
X4.4375Y-2.1875
X4.4375Y-4.8625
X4.4375Y-4.8625
X4.625Y-4.4375
X4.8125Y-2.9375
X5.0Y-3.6875
X5.0012Y-4.8625
X5.1875Y-2.1875
X5.1875Y-5.1875
X5.375Y-4.4375
X5.47Y-5.1875
X5.5625Y-2.9375
X5.75Y-3.6875
X5.9375Y-2.1875
X5.9375Y-4.8625
X5.9387Y-4.8625
X6.125Y-4.4375
X6.2175Y-5.1875
X6.3125Y-2.9375
X6.3125Y-5.1875
X6.3125Y-5.1875
X6.5Y-3.6875
X6.6875Y-2.1875
X6.6875Y-4.8625
X6.875Y-4.4375
X6.8765Y-4.8625
X7.0625Y-2.9375
X7.25Y-3.6875
X7.3453Y-5.1875
X7.4375Y-2.1875
X7.4375Y-5.1875
X7.625Y-4.4375
X7.8125Y-2.9375
X7.814Y-4.8625
X8.0Y-3.6875
X8.186Y-4.8625
X8.1875Y-2.1875
X8.1875Y-4.8625
X8.1875Y-4.8625
X8.375Y-4.4375
X8.5625Y-2.9375
X8.5625Y-4.8625
X8.5625Y-5.1875
X8.75Y-3.6875
X8.75Y-5.1875
X8.9375Y-2.1875
X8.9375Y-5.1875
X9.125Y-4.4375
X9.125Y-5.1875
X9.3125Y-2.9375
X9.3138Y-4.7625
X9.4063Y-5.1876
X9.4987Y-3.3625
X9.5Y-3.6875
X9.5Y-5.1875
X9.5Y-5.1875
X9.5938Y-2.5125
X9.6875Y-2.1875
X9.6875Y-5.1875
X9.7825Y-4.4375
X9.9675Y-3.6875
X10.0175Y-2.8425
X10.0175Y-3.7825
X10.0625Y-2.1875
X10.1575Y-4.4375
X10.25Y-2.9375
X10.25Y-5.1875
X10.2513Y-4.7625
X10.3425Y-3.3125
X10.3425Y-3.6875
X10.3434Y-5.1899
X10.4362Y-3.3625
X10.4375Y-2.1875
X10.4375Y-5.1875
X10.5312Y-2.5125
X11.1875Y-2.1875
X11.1875Y-2.9375
X11.1875Y-3.6875
X11.1875Y-4.4375
X11.1875Y-5.1875
X11.5625Y-5.1875
X11.9375Y-2.1875
X11.9375Y-2.9375
X11.9375Y-3.6875
X11.9375Y-4.4375
X11.9375Y-5.1875
X12.6875Y-2.1875
X12.6875Y-2.9375
X12.6875Y-3.6875
X12.6875Y-4.4375
X12.6875Y-5.1875
T5
X6.3125Y-5.1875
T0
M30
