%TF.GenerationSoftware,KiCad,Pcbnew,(7.0.0)*%
%TF.CreationDate,2023-03-04T17:53:59+01:00*%
%TF.ProjectId,qazimodo,71617a69-6d6f-4646-9f2e-6b696361645f,rev?*%
%TF.SameCoordinates,Original*%
%TF.FileFunction,Soldermask,Bot*%
%TF.FilePolarity,Negative*%
%FSLAX46Y46*%
G04 Gerber Fmt 4.6, Leading zero omitted, Abs format (unit mm)*
G04 Created by KiCad (PCBNEW (7.0.0)) date 2023-03-04 17:53:59*
%MOMM*%
%LPD*%
G01*
G04 APERTURE LIST*
G04 Aperture macros list*
%AMRoundRect*
0 Rectangle with rounded corners*
0 $1 Rounding radius*
0 $2 $3 $4 $5 $6 $7 $8 $9 X,Y pos of 4 corners*
0 Add a 4 corners polygon primitive as box body*
4,1,4,$2,$3,$4,$5,$6,$7,$8,$9,$2,$3,0*
0 Add four circle primitives for the rounded corners*
1,1,$1+$1,$2,$3*
1,1,$1+$1,$4,$5*
1,1,$1+$1,$6,$7*
1,1,$1+$1,$8,$9*
0 Add four rect primitives between the rounded corners*
20,1,$1+$1,$2,$3,$4,$5,0*
20,1,$1+$1,$4,$5,$6,$7,0*
20,1,$1+$1,$6,$7,$8,$9,0*
20,1,$1+$1,$8,$9,$2,$3,0*%
%AMRotRect*
0 Rectangle, with rotation*
0 The origin of the aperture is its center*
0 $1 length*
0 $2 width*
0 $3 Rotation angle, in degrees counterclockwise*
0 Add horizontal line*
21,1,$1,$2,0,0,$3*%
G04 Aperture macros list end*
%ADD10C,1.750000*%
%ADD11C,3.987800*%
%ADD12C,2.250000*%
%ADD13C,3.048000*%
%ADD14C,4.000000*%
%ADD15C,2.200000*%
%ADD16C,1.000000*%
%ADD17C,7.001300*%
%ADD18C,7.000240*%
%ADD19R,1.800000X1.100000*%
%ADD20R,1.100000X1.100000*%
%ADD21RoundRect,0.140000X0.170000X-0.140000X0.170000X0.140000X-0.170000X0.140000X-0.170000X-0.140000X0*%
%ADD22R,1.800000X1.200000*%
%ADD23R,1.550000X0.600000*%
%ADD24RoundRect,0.140000X0.219203X0.021213X0.021213X0.219203X-0.219203X-0.021213X-0.021213X-0.219203X0*%
%ADD25RoundRect,0.135000X-0.185000X0.135000X-0.185000X-0.135000X0.185000X-0.135000X0.185000X0.135000X0*%
%ADD26RoundRect,0.135000X0.135000X0.185000X-0.135000X0.185000X-0.135000X-0.185000X0.135000X-0.185000X0*%
%ADD27RoundRect,0.140000X-0.021213X0.219203X-0.219203X0.021213X0.021213X-0.219203X0.219203X-0.021213X0*%
%ADD28RoundRect,0.250000X-0.625000X0.375000X-0.625000X-0.375000X0.625000X-0.375000X0.625000X0.375000X0*%
%ADD29RotRect,1.400000X1.200000X135.000000*%
%ADD30C,0.650000*%
%ADD31R,0.600000X1.450000*%
%ADD32R,0.300000X1.450000*%
%ADD33O,1.000000X1.600000*%
%ADD34O,1.000000X2.100000*%
%ADD35R,0.700000X1.000000*%
%ADD36R,0.700000X0.600000*%
%ADD37RoundRect,0.140000X-0.140000X-0.170000X0.140000X-0.170000X0.140000X0.170000X-0.140000X0.170000X0*%
%ADD38RoundRect,0.140000X-0.170000X0.140000X-0.170000X-0.140000X0.170000X-0.140000X0.170000X0.140000X0*%
%ADD39R,1.000000X1.000000*%
%ADD40O,1.000000X1.000000*%
%ADD41RoundRect,0.062500X-0.062500X0.475000X-0.062500X-0.475000X0.062500X-0.475000X0.062500X0.475000X0*%
%ADD42RoundRect,0.062500X-0.475000X0.062500X-0.475000X-0.062500X0.475000X-0.062500X0.475000X0.062500X0*%
%ADD43R,5.200000X5.200000*%
G04 APERTURE END LIST*
D10*
%TO.C,MX3*%
X88582500Y-55562500D03*
D11*
X93662500Y-55562500D03*
D10*
X98742500Y-55562500D03*
D12*
X89852500Y-53022500D03*
X96202500Y-50482500D03*
%TD*%
D10*
%TO.C,MX55b1*%
X55245000Y-131762500D03*
D11*
X60325000Y-131762500D03*
D10*
X65405000Y-131762500D03*
D12*
X56515000Y-129222500D03*
X62865000Y-126682500D03*
%TD*%
D10*
%TO.C,MX64a1*%
X233839503Y-131764508D03*
D11*
X238919503Y-131764508D03*
D10*
X243999503Y-131764508D03*
D12*
X235109503Y-129224508D03*
X241459503Y-126684508D03*
%TD*%
D10*
%TO.C,MX68*%
X317182500Y-131762500D03*
D11*
X322262500Y-131762500D03*
D10*
X327342500Y-131762500D03*
D12*
X318452500Y-129222500D03*
X324802500Y-126682500D03*
%TD*%
D11*
%TO.C,MX61*%
X174663687Y-123507500D03*
D13*
X174663687Y-138747500D03*
D10*
X181489937Y-131762500D03*
D11*
X186569937Y-131762500D03*
D10*
X191649937Y-131762500D03*
D11*
X198476187Y-123507500D03*
D13*
X198476187Y-138747500D03*
D12*
X182759937Y-129222500D03*
X189109937Y-126682500D03*
%TD*%
D10*
%TO.C,MX63a1*%
X226695000Y-131762500D03*
D11*
X231775000Y-131762500D03*
D10*
X236855000Y-131762500D03*
D12*
X227965000Y-129222500D03*
X234315000Y-126682500D03*
%TD*%
D10*
%TO.C,MX52*%
X279082500Y-112712500D03*
D11*
X284162500Y-112712500D03*
D10*
X289242500Y-112712500D03*
D12*
X280352500Y-110172500D03*
X286702500Y-107632500D03*
%TD*%
D10*
%TO.C,MX34*%
X140970000Y-93662500D03*
D11*
X146050000Y-93662500D03*
D10*
X151130000Y-93662500D03*
D12*
X142240000Y-91122500D03*
X148590000Y-88582500D03*
%TD*%
D10*
%TO.C,MX9*%
X202882500Y-55562500D03*
D11*
X207962500Y-55562500D03*
D10*
X213042500Y-55562500D03*
D12*
X204152500Y-53022500D03*
X210502500Y-50482500D03*
%TD*%
D10*
%TO.C,MX14*%
X298132500Y-55562500D03*
D11*
X303212500Y-55562500D03*
D10*
X308292500Y-55562500D03*
D12*
X299402500Y-53022500D03*
X305752500Y-50482500D03*
%TD*%
D10*
%TO.C,MX27*%
X279082500Y-74612500D03*
D11*
X284162500Y-74612500D03*
D10*
X289242500Y-74612500D03*
D12*
X280352500Y-72072500D03*
X286702500Y-69532500D03*
%TD*%
D10*
%TO.C,MX30a1*%
X52795628Y-93662501D03*
D11*
X57875628Y-93662501D03*
D10*
X62955628Y-93662501D03*
D12*
X54065628Y-91122501D03*
X60415628Y-88582501D03*
%TD*%
D10*
%TO.C,MX42*%
X317182500Y-93662500D03*
D11*
X322262500Y-93662500D03*
D10*
X327342500Y-93662500D03*
D12*
X318452500Y-91122500D03*
X324802500Y-88582500D03*
%TD*%
D10*
%TO.C,MX39a1*%
X236220000Y-93662500D03*
D11*
X241300000Y-93662500D03*
D10*
X246380000Y-93662500D03*
D12*
X237490000Y-91122500D03*
X243840000Y-88582500D03*
%TD*%
D10*
%TO.C,MX50*%
X207645000Y-112712500D03*
D11*
X212725000Y-112712500D03*
D10*
X217805000Y-112712500D03*
D12*
X208915000Y-110172500D03*
X215265000Y-107632500D03*
%TD*%
D11*
%TO.C,MX60b1*%
X112712500Y-123507500D03*
D13*
X112712500Y-138747500D03*
D10*
X155257500Y-131762500D03*
D11*
X160337500Y-131762500D03*
D10*
X165417500Y-131762500D03*
D11*
X207962500Y-123507500D03*
D13*
X207962500Y-138747500D03*
D12*
X156527500Y-129222500D03*
X162877500Y-126682500D03*
%TD*%
D10*
%TO.C,MX25*%
X231457500Y-74612500D03*
D11*
X236537500Y-74612500D03*
D10*
X241617500Y-74612500D03*
D12*
X232727500Y-72072500D03*
X239077500Y-69532500D03*
%TD*%
D10*
%TO.C,MX11*%
X240982500Y-55562500D03*
D11*
X246062500Y-55562500D03*
D10*
X251142500Y-55562500D03*
D12*
X242252500Y-53022500D03*
X248602500Y-50482500D03*
%TD*%
D10*
%TO.C,MX62*%
X212407500Y-131762500D03*
D11*
X217487500Y-131762500D03*
D10*
X222567500Y-131762500D03*
D12*
X213677500Y-129222500D03*
X220027500Y-126682500D03*
%TD*%
D10*
%TO.C,MX57b1*%
X83820000Y-131762500D03*
D11*
X88900000Y-131762500D03*
D10*
X93980000Y-131762500D03*
D12*
X85090000Y-129222500D03*
X91440000Y-126682500D03*
%TD*%
D10*
%TO.C,MX41*%
X298132500Y-93662500D03*
D11*
X303212500Y-93662500D03*
D10*
X308292500Y-93662500D03*
D12*
X299402500Y-91122500D03*
X305752500Y-88582500D03*
%TD*%
D10*
%TO.C,MX54*%
X317182500Y-112712500D03*
D11*
X322262500Y-112712500D03*
D10*
X327342500Y-112712500D03*
D12*
X318452500Y-110172500D03*
X324802500Y-107632500D03*
%TD*%
D13*
%TO.C,MX12a1*%
X243681250Y-48577500D03*
D11*
X243681250Y-63817500D03*
D10*
X250507500Y-55562500D03*
D11*
X255587500Y-55562500D03*
D10*
X260667500Y-55562500D03*
D13*
X267493750Y-48577500D03*
D11*
X267493750Y-63817500D03*
D12*
X251777500Y-53022500D03*
X258127500Y-50482500D03*
%TD*%
D10*
%TO.C,MX65a1*%
X257642743Y-131822903D03*
D11*
X262722743Y-131822903D03*
D10*
X267802743Y-131822903D03*
D12*
X258912743Y-129282903D03*
X265262743Y-126742903D03*
%TD*%
D14*
%TO.C,MX60c1*%
X160337500Y-131762500D03*
D15*
X156527500Y-129222500D03*
X162877500Y-126682500D03*
%TD*%
D10*
%TO.C,MX45*%
X112395000Y-112712500D03*
D11*
X117475000Y-112712500D03*
D10*
X122555000Y-112712500D03*
D12*
X113665000Y-110172500D03*
X120015000Y-107632500D03*
%TD*%
D10*
%TO.C,MX67*%
X298132500Y-131762500D03*
D11*
X303212500Y-131762500D03*
D10*
X308292500Y-131762500D03*
D12*
X299402500Y-129222500D03*
X305752500Y-126682500D03*
%TD*%
D10*
%TO.C,MX53*%
X298132500Y-112712500D03*
D11*
X303212500Y-112712500D03*
D10*
X308292500Y-112712500D03*
D12*
X299402500Y-110172500D03*
X305752500Y-107632500D03*
%TD*%
D10*
%TO.C,MX33*%
X121920000Y-93662500D03*
D11*
X127000000Y-93662500D03*
D10*
X132080000Y-93662500D03*
D12*
X123190000Y-91122500D03*
X129540000Y-88582500D03*
%TD*%
D10*
%TO.C,MX8*%
X183832500Y-55562500D03*
D11*
X188912500Y-55562500D03*
D10*
X193992500Y-55562500D03*
D12*
X185102500Y-53022500D03*
X191452500Y-50482500D03*
%TD*%
D10*
%TO.C,MX38*%
X217170000Y-93662500D03*
D11*
X222250000Y-93662500D03*
D10*
X227330000Y-93662500D03*
D12*
X218440000Y-91122500D03*
X224790000Y-88582500D03*
%TD*%
D10*
%TO.C,MX48*%
X169545000Y-112712500D03*
D11*
X174625000Y-112712500D03*
D10*
X179705000Y-112712500D03*
D12*
X170815000Y-110172500D03*
X177165000Y-107632500D03*
%TD*%
D10*
%TO.C,MX19*%
X117157500Y-74612500D03*
D11*
X122237500Y-74612500D03*
D10*
X127317500Y-74612500D03*
D12*
X118427500Y-72072500D03*
X124777500Y-69532500D03*
%TD*%
D11*
%TO.C,MX26a1*%
X254444500Y-72199500D03*
X254444500Y-96075500D03*
D10*
X257619500Y-84137500D03*
D11*
X262699500Y-84137500D03*
D10*
X267779500Y-84137500D03*
D13*
X269684500Y-72199500D03*
X269684500Y-96075500D03*
D12*
X258889500Y-81597500D03*
X265239500Y-79057500D03*
%TD*%
D10*
%TO.C,MX10*%
X221932500Y-55562500D03*
D11*
X227012500Y-55562500D03*
D10*
X232092500Y-55562500D03*
D12*
X223202500Y-53022500D03*
X229552500Y-50482500D03*
%TD*%
D10*
%TO.C,MX21*%
X155257500Y-74612500D03*
D11*
X160337500Y-74612500D03*
D10*
X165417500Y-74612500D03*
D12*
X156527500Y-72072500D03*
X162877500Y-69532500D03*
%TD*%
D10*
%TO.C,MX66a1*%
X288607500Y-131762500D03*
D11*
X293687500Y-131762500D03*
D10*
X298767500Y-131762500D03*
D12*
X289877500Y-129222500D03*
X296227500Y-126682500D03*
%TD*%
D10*
%TO.C,MX64c1*%
X236220000Y-131762500D03*
D11*
X241300000Y-131762500D03*
D10*
X246380000Y-131762500D03*
D12*
X237490000Y-129222500D03*
X243840000Y-126682500D03*
%TD*%
D10*
%TO.C,MX37*%
X198120000Y-93662500D03*
D11*
X203200000Y-93662500D03*
D10*
X208280000Y-93662500D03*
D12*
X199390000Y-91122500D03*
X205740000Y-88582500D03*
%TD*%
D10*
%TO.C,MX64*%
X236220000Y-131762500D03*
D11*
X241300000Y-131762500D03*
D10*
X246380000Y-131762500D03*
D12*
X237490000Y-129222500D03*
X243840000Y-126682500D03*
%TD*%
D10*
%TO.C,MX46*%
X131445000Y-112712500D03*
D11*
X136525000Y-112712500D03*
D10*
X141605000Y-112712500D03*
D12*
X132715000Y-110172500D03*
X139065000Y-107632500D03*
%TD*%
D11*
%TO.C,MX39*%
X241268250Y-85407500D03*
D13*
X241268250Y-100647500D03*
D10*
X248094500Y-93662500D03*
D11*
X253174500Y-93662500D03*
D10*
X258254500Y-93662500D03*
D11*
X265080750Y-85407500D03*
D13*
X265080750Y-100647500D03*
D12*
X249364500Y-91122500D03*
X255714500Y-88582500D03*
%TD*%
D10*
%TO.C,MX44*%
X93345000Y-112712500D03*
D11*
X98425000Y-112712500D03*
D10*
X103505000Y-112712500D03*
D12*
X94615000Y-110172500D03*
X100965000Y-107632500D03*
%TD*%
D10*
%TO.C,MX26*%
X255270000Y-74612500D03*
D11*
X260350000Y-74612500D03*
D10*
X265430000Y-74612500D03*
D12*
X256540000Y-72072500D03*
X262890000Y-69532500D03*
%TD*%
D11*
%TO.C,MX61a1*%
X169862500Y-123507500D03*
D13*
X169862500Y-138747500D03*
D10*
X183832500Y-131762500D03*
D11*
X188912500Y-131762500D03*
D10*
X193992500Y-131762500D03*
D11*
X207962500Y-123507500D03*
D13*
X207962500Y-138747500D03*
D12*
X185102500Y-129222500D03*
X191452500Y-126682500D03*
%TD*%
D10*
%TO.C,MX30*%
X57594500Y-93662500D03*
D11*
X62674500Y-93662500D03*
D10*
X67754500Y-93662500D03*
D12*
X58864500Y-91122500D03*
X65214500Y-88582500D03*
%TD*%
D10*
%TO.C,MX40*%
X279082500Y-93662500D03*
D11*
X284162500Y-93662500D03*
D10*
X289242500Y-93662500D03*
D12*
X280352500Y-91122500D03*
X286702500Y-88582500D03*
%TD*%
D10*
%TO.C,MX49*%
X188595000Y-112712500D03*
D11*
X193675000Y-112712500D03*
D10*
X198755000Y-112712500D03*
D12*
X189865000Y-110172500D03*
X196215000Y-107632500D03*
%TD*%
D10*
%TO.C,MX23*%
X193357500Y-74612500D03*
D11*
X198437500Y-74612500D03*
D10*
X203517500Y-74612500D03*
D12*
X194627500Y-72072500D03*
X200977500Y-69532500D03*
%TD*%
D10*
%TO.C,MX24*%
X212407500Y-74612500D03*
D11*
X217487500Y-74612500D03*
D10*
X222567500Y-74612500D03*
D12*
X213677500Y-72072500D03*
X220027500Y-69532500D03*
%TD*%
D10*
%TO.C,MX55*%
X50482500Y-131762500D03*
D11*
X55562500Y-131762500D03*
D10*
X60642500Y-131762500D03*
D12*
X51752500Y-129222500D03*
X58102500Y-126682500D03*
%TD*%
D10*
%TO.C,MX2*%
X79692500Y-55562500D03*
D11*
X74612500Y-55562500D03*
D10*
X69532500Y-55562500D03*
D12*
X78422500Y-58102500D03*
X72072500Y-60642500D03*
%TD*%
D10*
%TO.C,MX31*%
X83820000Y-93662500D03*
D11*
X88900000Y-93662500D03*
D10*
X93980000Y-93662500D03*
D12*
X85090000Y-91122500D03*
X91440000Y-88582500D03*
%TD*%
D10*
%TO.C,MX63b1*%
X217170000Y-131762500D03*
D11*
X222250000Y-131762500D03*
D10*
X227330000Y-131762500D03*
D12*
X218440000Y-129222500D03*
X224790000Y-126682500D03*
%TD*%
D10*
%TO.C,MX58*%
X98107500Y-131762500D03*
D11*
X103187500Y-131762500D03*
D10*
X108267500Y-131762500D03*
D12*
X99377500Y-129222500D03*
X105727500Y-126682500D03*
%TD*%
D10*
%TO.C,MX29*%
X317182500Y-74612500D03*
D11*
X322262500Y-74612500D03*
D10*
X327342500Y-74612500D03*
D12*
X318452500Y-72072500D03*
X324802500Y-69532500D03*
%TD*%
D10*
%TO.C,MX57a1*%
X88582500Y-131762500D03*
D11*
X93662500Y-131762500D03*
D10*
X98742500Y-131762500D03*
D12*
X89852500Y-129222500D03*
X96202500Y-126682500D03*
%TD*%
D10*
%TO.C,MX32*%
X102870000Y-93662500D03*
D11*
X107950000Y-93662500D03*
D10*
X113030000Y-93662500D03*
D12*
X104140000Y-91122500D03*
X110490000Y-88582500D03*
%TD*%
D10*
%TO.C,MX12*%
X260032500Y-55562500D03*
D11*
X265112500Y-55562500D03*
D10*
X270192500Y-55562500D03*
D12*
X261302500Y-53022500D03*
X267652500Y-50482500D03*
%TD*%
D10*
%TO.C,MX17*%
X79057500Y-74612500D03*
D11*
X84137500Y-74612500D03*
D10*
X89217500Y-74612500D03*
D12*
X80327500Y-72072500D03*
X86677500Y-69532500D03*
%TD*%
D10*
%TO.C,MX16*%
X55245000Y-74612500D03*
D11*
X60325000Y-74612500D03*
D10*
X65405000Y-74612500D03*
D12*
X56515000Y-72072500D03*
X62865000Y-69532500D03*
%TD*%
D10*
%TO.C,MX55a1*%
X52881621Y-131762500D03*
D11*
X57961621Y-131762500D03*
D10*
X63041621Y-131762500D03*
D12*
X54151621Y-129222500D03*
X60501621Y-126682500D03*
%TD*%
D11*
%TO.C,MX60a1*%
X107924600Y-123507500D03*
D13*
X107924600Y-138747500D03*
D10*
X152844500Y-131762500D03*
D11*
X157924500Y-131762500D03*
D10*
X163004500Y-131762500D03*
D11*
X207924400Y-123507500D03*
D13*
X207924400Y-138747500D03*
D12*
X154114500Y-129222500D03*
X160464500Y-126682500D03*
%TD*%
D10*
%TO.C,MX36*%
X179070000Y-93662500D03*
D11*
X184150000Y-93662500D03*
D10*
X189230000Y-93662500D03*
D12*
X180340000Y-91122500D03*
X186690000Y-88582500D03*
%TD*%
D11*
%TO.C,MX59a1*%
X112712500Y-123507500D03*
D13*
X112712500Y-138747500D03*
D10*
X126682500Y-131762500D03*
D11*
X131762500Y-131762500D03*
D10*
X136842500Y-131762500D03*
D11*
X150812500Y-123507500D03*
D13*
X150812500Y-138747500D03*
D12*
X127952500Y-129222500D03*
X134302500Y-126682500D03*
%TD*%
D13*
%TO.C,MX51b1*%
X236569250Y-105727500D03*
D11*
X236569250Y-120967500D03*
D10*
X243395500Y-112712500D03*
D11*
X248475500Y-112712500D03*
D10*
X253555500Y-112712500D03*
D13*
X260381750Y-105727500D03*
D11*
X260381750Y-120967500D03*
D12*
X244665500Y-110172500D03*
X251015500Y-107632500D03*
%TD*%
D10*
%TO.C,MX5*%
X126682500Y-55562500D03*
D11*
X131762500Y-55562500D03*
D10*
X136842500Y-55562500D03*
D12*
X127952500Y-53022500D03*
X134302500Y-50482500D03*
%TD*%
D10*
%TO.C,MX7*%
X164782500Y-55562500D03*
D11*
X169862500Y-55562500D03*
D10*
X174942500Y-55562500D03*
D12*
X166052500Y-53022500D03*
X172402500Y-50482500D03*
%TD*%
D10*
%TO.C,MX18*%
X98107500Y-74612500D03*
D11*
X103187500Y-74612500D03*
D10*
X108267500Y-74612500D03*
D12*
X99377500Y-72072500D03*
X105727500Y-69532500D03*
%TD*%
D10*
%TO.C,MX15*%
X317182500Y-55562500D03*
D11*
X322262500Y-55562500D03*
D10*
X327342500Y-55562500D03*
D12*
X318452500Y-53022500D03*
X324802500Y-50482500D03*
%TD*%
D10*
%TO.C,MX56b1*%
X74295000Y-131762500D03*
D11*
X79375000Y-131762500D03*
D10*
X84455000Y-131762500D03*
D12*
X75565000Y-129222500D03*
X81915000Y-126682500D03*
%TD*%
D10*
%TO.C,MX63*%
X221932500Y-131762500D03*
D11*
X227012500Y-131762500D03*
D10*
X232092500Y-131762500D03*
D12*
X223202500Y-129222500D03*
X229552500Y-126682500D03*
%TD*%
D10*
%TO.C,MX4*%
X107632500Y-55562500D03*
D11*
X112712500Y-55562500D03*
D10*
X117792500Y-55562500D03*
D12*
X108902500Y-53022500D03*
X115252500Y-50482500D03*
%TD*%
D10*
%TO.C,MX20*%
X136207500Y-74612500D03*
D11*
X141287500Y-74612500D03*
D10*
X146367500Y-74612500D03*
D12*
X137477500Y-72072500D03*
X143827500Y-69532500D03*
%TD*%
D10*
%TO.C,MX28*%
X298132500Y-74612500D03*
D11*
X303212500Y-74612500D03*
D10*
X308292500Y-74612500D03*
D12*
X299402500Y-72072500D03*
X305752500Y-69532500D03*
%TD*%
D10*
%TO.C,MX51*%
X226695000Y-112712500D03*
D11*
X231775000Y-112712500D03*
D10*
X236855000Y-112712500D03*
D12*
X227965000Y-110172500D03*
X234315000Y-107632500D03*
%TD*%
D10*
%TO.C,MX35*%
X160020000Y-93662500D03*
D11*
X165100000Y-93662500D03*
D10*
X170180000Y-93662500D03*
D12*
X161290000Y-91122500D03*
X167640000Y-88582500D03*
%TD*%
D10*
%TO.C,MX66*%
X279082500Y-131762500D03*
D11*
X284162500Y-131762500D03*
D10*
X289242500Y-131762500D03*
D12*
X280352500Y-129222500D03*
X286702500Y-126682500D03*
%TD*%
D10*
%TO.C,MX65*%
X255270000Y-131762500D03*
D11*
X260350000Y-131762500D03*
D10*
X265430000Y-131762500D03*
D12*
X256540000Y-129222500D03*
X262890000Y-126682500D03*
%TD*%
D10*
%TO.C,MX51a1*%
X252920500Y-112712500D03*
D11*
X258000500Y-112712500D03*
D10*
X263080500Y-112712500D03*
D12*
X254190500Y-110172500D03*
X260540500Y-107632500D03*
%TD*%
D11*
%TO.C,MX59*%
X127031750Y-123507500D03*
D13*
X127031750Y-138747500D03*
D10*
X133858000Y-131762500D03*
D11*
X138938000Y-131762500D03*
D10*
X144018000Y-131762500D03*
D11*
X150844250Y-123507500D03*
D13*
X150844250Y-138747500D03*
D12*
X135128000Y-129222500D03*
X141478000Y-126682500D03*
%TD*%
D10*
%TO.C,MX64b1*%
X240982500Y-131762500D03*
D11*
X246062500Y-131762500D03*
D10*
X251142500Y-131762500D03*
D12*
X242252500Y-129222500D03*
X248602500Y-126682500D03*
%TD*%
D10*
%TO.C,MX47*%
X150495000Y-112712500D03*
D11*
X155575000Y-112712500D03*
D10*
X160655000Y-112712500D03*
D12*
X151765000Y-110172500D03*
X158115000Y-107632500D03*
%TD*%
D16*
%TO.C,*%
X69325000Y-73991000D03*
X69325000Y-73991000D03*
X69998654Y-72364654D03*
X69998654Y-72364654D03*
X69998654Y-75617346D03*
X69998654Y-75617346D03*
X71625000Y-71691000D03*
X71625000Y-71691000D03*
D17*
X71625000Y-73991000D03*
X71625000Y-73991000D03*
D16*
X71625000Y-76291000D03*
X71625000Y-76291000D03*
X73251346Y-72364654D03*
X73251346Y-72364654D03*
X73251346Y-75617346D03*
X73251346Y-75617346D03*
X73925000Y-73991000D03*
X73925000Y-73991000D03*
D18*
X174625000Y-93091000D03*
X174625000Y-93091000D03*
%TD*%
D10*
%TO.C,MX39b1*%
X257619500Y-93662500D03*
D11*
X262699500Y-93662500D03*
D10*
X267779500Y-93662500D03*
D12*
X258889500Y-91122500D03*
X265239500Y-88582500D03*
%TD*%
D10*
%TO.C,MX56*%
X69532500Y-131762500D03*
D11*
X74612500Y-131762500D03*
D10*
X79692500Y-131762500D03*
D12*
X70802500Y-129222500D03*
X77152500Y-126682500D03*
%TD*%
D10*
%TO.C,MX43b1*%
X74295000Y-112712500D03*
D11*
X79375000Y-112712500D03*
D10*
X84455000Y-112712500D03*
D12*
X75565000Y-110172500D03*
X81915000Y-107632500D03*
%TD*%
D10*
%TO.C,MX43a1*%
X52839685Y-112727971D03*
D11*
X57919685Y-112727971D03*
D10*
X62999685Y-112727971D03*
D12*
X54109685Y-110187971D03*
X60459685Y-107647971D03*
%TD*%
D10*
%TO.C,MX65b1*%
X260032500Y-131762500D03*
D11*
X265112500Y-131762500D03*
D10*
X270192500Y-131762500D03*
D12*
X261302500Y-129222500D03*
X267652500Y-126682500D03*
%TD*%
D10*
%TO.C,MX22*%
X174307500Y-74612500D03*
D11*
X179387500Y-74612500D03*
D10*
X184467500Y-74612500D03*
D12*
X175577500Y-72072500D03*
X181927500Y-69532500D03*
%TD*%
D10*
%TO.C,MX56a1*%
X76687877Y-131789345D03*
D11*
X81767877Y-131789345D03*
D10*
X86847877Y-131789345D03*
D12*
X77957877Y-129249345D03*
X84307877Y-126709345D03*
%TD*%
D10*
%TO.C,MX13*%
X279082500Y-55562500D03*
D11*
X284162500Y-55562500D03*
D10*
X289242500Y-55562500D03*
D12*
X280352500Y-53022500D03*
X286702500Y-50482500D03*
%TD*%
D10*
%TO.C,MX6*%
X145732500Y-55562500D03*
D11*
X150812500Y-55562500D03*
D10*
X155892500Y-55562500D03*
D12*
X147002500Y-53022500D03*
X153352500Y-50482500D03*
%TD*%
D11*
%TO.C,MX60*%
X103187500Y-123507500D03*
D13*
X103187500Y-138747500D03*
D10*
X155257500Y-131762500D03*
D11*
X160337500Y-131762500D03*
D10*
X165417500Y-131762500D03*
D11*
X217487500Y-123507500D03*
D13*
X217487500Y-138747500D03*
D12*
X156527500Y-129222500D03*
X162877500Y-126682500D03*
%TD*%
D10*
%TO.C,MX1*%
X60642500Y-55562500D03*
D11*
X55562500Y-55562500D03*
D10*
X50482500Y-55562500D03*
D12*
X59372500Y-58102500D03*
X53022500Y-60642500D03*
%TD*%
D13*
%TO.C,MX43*%
X55467250Y-105727500D03*
D11*
X55467250Y-120967500D03*
D10*
X62293500Y-112712500D03*
D11*
X67373500Y-112712500D03*
D10*
X72453500Y-112712500D03*
D13*
X79279750Y-105727500D03*
D11*
X79279750Y-120967500D03*
D12*
X63563500Y-110172500D03*
X69913500Y-107632500D03*
%TD*%
D19*
%TO.C,SW_Reset1*%
X107874999Y-80699999D03*
X101674999Y-84399999D03*
X107874999Y-84399999D03*
X101674999Y-80699999D03*
%TD*%
D20*
%TO.C,D7*%
X77787499Y-63312499D03*
X77787499Y-60512499D03*
%TD*%
%TO.C,D42*%
X266699999Y-114112499D03*
X266699999Y-111312499D03*
%TD*%
%TO.C,D48*%
X274637499Y-95062499D03*
X274637499Y-92262499D03*
%TD*%
D21*
%TO.C,C2*%
X69723000Y-88364000D03*
X69723000Y-87404000D03*
%TD*%
D20*
%TO.C,D11*%
X71437499Y-136337499D03*
X71437499Y-133537499D03*
%TD*%
%TO.C,D58*%
X271462499Y-136337499D03*
X271462499Y-133537499D03*
%TD*%
D22*
%TO.C,J2*%
X95412499Y-63874999D03*
X95412499Y-69474999D03*
D23*
X91537499Y-65174999D03*
X91537499Y-66174999D03*
X91537499Y-67174999D03*
X91537499Y-68174999D03*
%TD*%
D20*
%TO.C,D71*%
X325437499Y-136337499D03*
X325437499Y-133537499D03*
%TD*%
%TO.C,D52*%
X287337499Y-114112499D03*
X287337499Y-111312499D03*
%TD*%
%TO.C,D15*%
X120649999Y-114112499D03*
X120649999Y-111312499D03*
%TD*%
%TO.C,D38*%
X201612499Y-76012499D03*
X201612499Y-73212499D03*
%TD*%
%TO.C,D50*%
X239712499Y-76012499D03*
X239712499Y-73212499D03*
%TD*%
%TO.C,D62*%
X325437499Y-114112499D03*
X325437499Y-111312499D03*
%TD*%
%TO.C,D70*%
X325437499Y-56962499D03*
X325437499Y-54162499D03*
%TD*%
%TO.C,D16*%
X115887499Y-136337499D03*
X115887499Y-133537499D03*
%TD*%
D24*
%TO.C,C4*%
X87215030Y-84286411D03*
X86536208Y-83607589D03*
%TD*%
D20*
%TO.C,D66*%
X325437499Y-95062499D03*
X325437499Y-92262499D03*
%TD*%
%TO.C,D18*%
X125412499Y-76012499D03*
X125412499Y-73212499D03*
%TD*%
%TO.C,D61*%
X306387499Y-95062499D03*
X306387499Y-92262499D03*
%TD*%
%TO.C,D41*%
X214312499Y-136337499D03*
X214312499Y-133537499D03*
%TD*%
D25*
%TO.C,R1*%
X73406000Y-78865000D03*
X73406000Y-79885000D03*
%TD*%
%TO.C,R2*%
X74549000Y-78865000D03*
X74549000Y-79885000D03*
%TD*%
D20*
%TO.C,D34*%
X187324999Y-95062499D03*
X187324999Y-92262499D03*
%TD*%
%TO.C,D65*%
X306387499Y-76012499D03*
X306387499Y-73212499D03*
%TD*%
%TO.C,D4*%
X65784191Y-95051704D03*
X65784191Y-92251704D03*
%TD*%
%TO.C,D14*%
X111124999Y-95062499D03*
X111124999Y-92262499D03*
%TD*%
%TO.C,D47*%
X249237499Y-136337499D03*
X249237499Y-133537499D03*
%TD*%
%TO.C,D57*%
X306387499Y-114112499D03*
X306387499Y-111312499D03*
%TD*%
D26*
%TO.C,R4*%
X81091500Y-82931000D03*
X80071500Y-82931000D03*
%TD*%
D20*
%TO.C,D51*%
X244474999Y-95062499D03*
X244474999Y-92262499D03*
%TD*%
%TO.C,D49*%
X230187499Y-56962499D03*
X230187499Y-54162499D03*
%TD*%
D25*
%TO.C,R_USBSHIELD1*%
X71501000Y-51941000D03*
X71501000Y-52961000D03*
%TD*%
D20*
%TO.C,D45*%
X225424999Y-95062499D03*
X225424999Y-92262499D03*
%TD*%
D27*
%TO.C,C8*%
X70443411Y-80813589D03*
X69764589Y-81492411D03*
%TD*%
D20*
%TO.C,D17*%
X115887499Y-56962499D03*
X115887499Y-54162499D03*
%TD*%
D28*
%TO.C,F1*%
X69596000Y-65275000D03*
X69596000Y-68075000D03*
%TD*%
D20*
%TO.C,D10*%
X101599999Y-114112499D03*
X101599999Y-111312499D03*
%TD*%
D25*
%TO.C,R_USB1*%
X63500000Y-54227000D03*
X63500000Y-55247000D03*
%TD*%
D20*
%TO.C,D19*%
X130174999Y-95062499D03*
X130174999Y-92262499D03*
%TD*%
%TO.C,D5*%
X70515674Y-114126367D03*
X70515674Y-111326367D03*
%TD*%
D25*
%TO.C,R_USB2*%
X66548000Y-54227000D03*
X66548000Y-55247000D03*
%TD*%
D20*
%TO.C,D64*%
X287337499Y-56962499D03*
X287337499Y-54162499D03*
%TD*%
%TO.C,D26*%
X148589999Y-136337499D03*
X148589999Y-133537499D03*
%TD*%
%TO.C,D36*%
X196849999Y-136337499D03*
X196849999Y-133537499D03*
%TD*%
D29*
%TO.C,Y1*%
X85147395Y-87103857D03*
X83591760Y-85548222D03*
X84793841Y-84346141D03*
X86349476Y-85901776D03*
%TD*%
D20*
%TO.C,D22*%
X134937499Y-56962499D03*
X134937499Y-54162499D03*
%TD*%
D30*
%TO.C,J3*%
X61880000Y-50808000D03*
X67660000Y-50808000D03*
D31*
X61519999Y-52252999D03*
X62319999Y-52252999D03*
D32*
X63519999Y-52252999D03*
X64519999Y-52252999D03*
X65019999Y-52252999D03*
X66019999Y-52252999D03*
D31*
X67219999Y-52252999D03*
X68019999Y-52252999D03*
X68019999Y-52252999D03*
X67219999Y-52252999D03*
D32*
X66519999Y-52252999D03*
X65519999Y-52252999D03*
X64019999Y-52252999D03*
X63019999Y-52252999D03*
D31*
X62319999Y-52252999D03*
X61519999Y-52252999D03*
D33*
X60449999Y-47157999D03*
D34*
X60449999Y-51337999D03*
D33*
X69089999Y-47157999D03*
D34*
X69089999Y-51337999D03*
%TD*%
D20*
%TO.C,D31*%
X166687499Y-136337499D03*
X166687499Y-133537499D03*
%TD*%
%TO.C,D28*%
X163512499Y-76012499D03*
X163512499Y-73212499D03*
%TD*%
D35*
%TO.C,D72*%
X75707999Y-69964999D03*
D36*
X75707999Y-68264999D03*
X77707999Y-68264999D03*
X77707999Y-70164999D03*
%TD*%
D20*
%TO.C,D63*%
X287337499Y-136337499D03*
X287337499Y-133537499D03*
%TD*%
%TO.C,D44*%
X220662499Y-76012499D03*
X220662499Y-73212499D03*
%TD*%
%TO.C,D68*%
X306387499Y-56962499D03*
X306387499Y-54162499D03*
%TD*%
D26*
%TO.C,R3*%
X71693500Y-90614500D03*
X70673500Y-90614500D03*
%TD*%
D20*
%TO.C,D29*%
X168274999Y-95062499D03*
X168274999Y-92262499D03*
%TD*%
D37*
%TO.C,C7*%
X80101500Y-84074000D03*
X81061500Y-84074000D03*
%TD*%
D20*
%TO.C,D24*%
X149224999Y-95062499D03*
X149224999Y-92262499D03*
%TD*%
%TO.C,D2*%
X58737499Y-63312499D03*
X58737499Y-60512499D03*
%TD*%
D21*
%TO.C,C1*%
X75819000Y-79728000D03*
X75819000Y-78768000D03*
%TD*%
D20*
%TO.C,D6*%
X68262499Y-136337499D03*
X68262499Y-133537499D03*
%TD*%
D21*
%TO.C,C5*%
X77089000Y-79728000D03*
X77089000Y-78768000D03*
%TD*%
D20*
%TO.C,D43*%
X211137499Y-56962499D03*
X211137499Y-54162499D03*
%TD*%
%TO.C,D32*%
X173037499Y-56962499D03*
X173037499Y-54162499D03*
%TD*%
%TO.C,D1*%
X82549999Y-114112499D03*
X82549999Y-111312499D03*
%TD*%
%TO.C,D69*%
X325437499Y-75824999D03*
X325437499Y-73024999D03*
%TD*%
%TO.C,D60*%
X287337499Y-76012499D03*
X287337499Y-73212499D03*
%TD*%
%TO.C,D27*%
X153987499Y-56962499D03*
X153987499Y-54162499D03*
%TD*%
%TO.C,D25*%
X158749999Y-114112499D03*
X158749999Y-111312499D03*
%TD*%
D37*
%TO.C,C6*%
X77371000Y-90424000D03*
X78331000Y-90424000D03*
%TD*%
D20*
%TO.C,D33*%
X182562499Y-76012499D03*
X182562499Y-73212499D03*
%TD*%
%TO.C,D21*%
X119062499Y-136337499D03*
X119062499Y-133537499D03*
%TD*%
%TO.C,D12*%
X96837499Y-56962499D03*
X96837499Y-54162499D03*
%TD*%
%TO.C,D23*%
X144462499Y-76012499D03*
X144462499Y-73212499D03*
%TD*%
%TO.C,D59*%
X273049999Y-60137499D03*
X273049999Y-57337499D03*
%TD*%
%TO.C,D40*%
X215899999Y-114112499D03*
X215899999Y-111312499D03*
%TD*%
%TO.C,D8*%
X87312499Y-76012499D03*
X87312499Y-73212499D03*
%TD*%
%TO.C,D56*%
X287337499Y-95062499D03*
X287337499Y-92262499D03*
%TD*%
%TO.C,D37*%
X192087499Y-56962499D03*
X192087499Y-54162499D03*
%TD*%
D38*
%TO.C,C_USBSHIELD1*%
X58039000Y-51971000D03*
X58039000Y-52931000D03*
%TD*%
D20*
%TO.C,D54*%
X249237499Y-60137499D03*
X249237499Y-57337499D03*
%TD*%
%TO.C,D55*%
X274637499Y-76012499D03*
X274637499Y-73212499D03*
%TD*%
%TO.C,D9*%
X92074999Y-95062499D03*
X92074999Y-92262499D03*
%TD*%
D39*
%TO.C,J1*%
X93037499Y-83819999D03*
D40*
X94307499Y-83819999D03*
X93037499Y-82549999D03*
X94307499Y-82549999D03*
X93037499Y-81279999D03*
X94307499Y-81279999D03*
%TD*%
D41*
%TO.C,U1*%
X72684000Y-82387500D03*
X73184000Y-82387500D03*
X73684000Y-82387500D03*
X74184000Y-82387500D03*
X74684000Y-82387500D03*
X75184000Y-82387500D03*
X75684000Y-82387500D03*
X76184000Y-82387500D03*
X76684000Y-82387500D03*
X77184000Y-82387500D03*
X77684000Y-82387500D03*
D42*
X78521500Y-83225000D03*
X78521500Y-83725000D03*
X78521500Y-84225000D03*
X78521500Y-84725000D03*
X78521500Y-85225000D03*
X78521500Y-85725000D03*
X78521500Y-86225000D03*
X78521500Y-86725000D03*
X78521500Y-87225000D03*
X78521500Y-87725000D03*
X78521500Y-88225000D03*
D41*
X77684000Y-89062500D03*
X77184000Y-89062500D03*
X76684000Y-89062500D03*
X76184000Y-89062500D03*
X75684000Y-89062500D03*
X75184000Y-89062500D03*
X74684000Y-89062500D03*
X74184000Y-89062500D03*
X73684000Y-89062500D03*
X73184000Y-89062500D03*
X72684000Y-89062500D03*
D42*
X71846500Y-88225000D03*
X71846500Y-87725000D03*
X71846500Y-87225000D03*
X71846500Y-86725000D03*
X71846500Y-86225000D03*
X71846500Y-85725000D03*
X71846500Y-85225000D03*
X71846500Y-84725000D03*
X71846500Y-84225000D03*
X71846500Y-83725000D03*
X71846500Y-83225000D03*
D43*
X75183999Y-85724999D03*
%TD*%
D20*
%TO.C,D3*%
X63499999Y-76012499D03*
X63499999Y-73212499D03*
%TD*%
%TO.C,D67*%
X300037499Y-136337499D03*
X300037499Y-133537499D03*
%TD*%
%TO.C,D13*%
X106362499Y-76012499D03*
X106362499Y-73212499D03*
%TD*%
%TO.C,D30*%
X177799999Y-114112499D03*
X177799999Y-111312499D03*
%TD*%
%TO.C,D46*%
X239712499Y-114112499D03*
X239712499Y-111312499D03*
%TD*%
%TO.C,D39*%
X206374999Y-95062499D03*
X206374999Y-92262499D03*
%TD*%
%TO.C,D35*%
X196849999Y-114112499D03*
X196849999Y-111312499D03*
%TD*%
D27*
%TO.C,C3*%
X87469030Y-87544589D03*
X86790208Y-88223411D03*
%TD*%
D20*
%TO.C,D20*%
X139699999Y-114112499D03*
X139699999Y-111312499D03*
%TD*%
%TO.C,D53*%
X255587499Y-136337499D03*
X255587499Y-133537499D03*
%TD*%
M02*
