%TF.GenerationSoftware,KiCad,Pcbnew,(7.0.0)*%
%TF.CreationDate,2023-03-04T14:38:51+01:00*%
%TF.ProjectId,qazimodo,71617a69-6d6f-4646-9f2e-6b696361645f,rev?*%
%TF.SameCoordinates,Original*%
%TF.FileFunction,Soldermask,Top*%
%TF.FilePolarity,Negative*%
%FSLAX46Y46*%
G04 Gerber Fmt 4.6, Leading zero omitted, Abs format (unit mm)*
G04 Created by KiCad (PCBNEW (7.0.0)) date 2023-03-04 14:38:51*
%MOMM*%
%LPD*%
G01*
G04 APERTURE LIST*
%ADD10C,1.750000*%
%ADD11C,3.987800*%
%ADD12C,3.048000*%
%ADD13C,4.000000*%
%ADD14C,2.200000*%
%ADD15C,1.000000*%
%ADD16C,7.001300*%
%ADD17C,7.000240*%
%ADD18C,0.650000*%
%ADD19O,1.000000X1.600000*%
%ADD20O,1.000000X2.100000*%
%ADD21R,1.000000X1.000000*%
%ADD22O,1.000000X1.000000*%
G04 APERTURE END LIST*
D10*
%TO.C,MX3*%
X88582500Y-55562500D03*
D11*
X93662500Y-55562500D03*
D10*
X98742500Y-55562500D03*
%TD*%
%TO.C,MX55b1*%
X55245000Y-131762500D03*
D11*
X60325000Y-131762500D03*
D10*
X65405000Y-131762500D03*
%TD*%
%TO.C,MX64a1*%
X233839503Y-131764508D03*
D11*
X238919503Y-131764508D03*
D10*
X243999503Y-131764508D03*
%TD*%
%TO.C,MX68*%
X317182500Y-131762500D03*
D11*
X322262500Y-131762500D03*
D10*
X327342500Y-131762500D03*
%TD*%
D11*
%TO.C,MX61*%
X174663687Y-123507500D03*
D12*
X174663687Y-138747500D03*
D10*
X181489937Y-131762500D03*
D11*
X186569937Y-131762500D03*
D10*
X191649937Y-131762500D03*
D11*
X198476187Y-123507500D03*
D12*
X198476187Y-138747500D03*
%TD*%
D10*
%TO.C,MX63a1*%
X226695000Y-131762500D03*
D11*
X231775000Y-131762500D03*
D10*
X236855000Y-131762500D03*
%TD*%
%TO.C,MX52*%
X279082500Y-112712500D03*
D11*
X284162500Y-112712500D03*
D10*
X289242500Y-112712500D03*
%TD*%
%TO.C,MX34*%
X140970000Y-93662500D03*
D11*
X146050000Y-93662500D03*
D10*
X151130000Y-93662500D03*
%TD*%
%TO.C,MX9*%
X202882500Y-55562500D03*
D11*
X207962500Y-55562500D03*
D10*
X213042500Y-55562500D03*
%TD*%
%TO.C,MX14*%
X298132500Y-55562500D03*
D11*
X303212500Y-55562500D03*
D10*
X308292500Y-55562500D03*
%TD*%
%TO.C,MX27*%
X279082500Y-74612500D03*
D11*
X284162500Y-74612500D03*
D10*
X289242500Y-74612500D03*
%TD*%
%TO.C,MX30a1*%
X52795628Y-93662501D03*
D11*
X57875628Y-93662501D03*
D10*
X62955628Y-93662501D03*
%TD*%
%TO.C,MX42*%
X317182500Y-93662500D03*
D11*
X322262500Y-93662500D03*
D10*
X327342500Y-93662500D03*
%TD*%
%TO.C,MX39a1*%
X236220000Y-93662500D03*
D11*
X241300000Y-93662500D03*
D10*
X246380000Y-93662500D03*
%TD*%
%TO.C,MX50*%
X207645000Y-112712500D03*
D11*
X212725000Y-112712500D03*
D10*
X217805000Y-112712500D03*
%TD*%
D11*
%TO.C,MX60b1*%
X112712500Y-123507500D03*
D12*
X112712500Y-138747500D03*
D10*
X155257500Y-131762500D03*
D11*
X160337500Y-131762500D03*
D10*
X165417500Y-131762500D03*
D11*
X207962500Y-123507500D03*
D12*
X207962500Y-138747500D03*
%TD*%
D10*
%TO.C,MX25*%
X231457500Y-74612500D03*
D11*
X236537500Y-74612500D03*
D10*
X241617500Y-74612500D03*
%TD*%
%TO.C,MX11*%
X240982500Y-55562500D03*
D11*
X246062500Y-55562500D03*
D10*
X251142500Y-55562500D03*
%TD*%
%TO.C,MX62*%
X212407500Y-131762500D03*
D11*
X217487500Y-131762500D03*
D10*
X222567500Y-131762500D03*
%TD*%
%TO.C,MX57b1*%
X83820000Y-131762500D03*
D11*
X88900000Y-131762500D03*
D10*
X93980000Y-131762500D03*
%TD*%
%TO.C,MX41*%
X298132500Y-93662500D03*
D11*
X303212500Y-93662500D03*
D10*
X308292500Y-93662500D03*
%TD*%
%TO.C,MX54*%
X317182500Y-112712500D03*
D11*
X322262500Y-112712500D03*
D10*
X327342500Y-112712500D03*
%TD*%
D12*
%TO.C,MX12a1*%
X243681250Y-48577500D03*
D11*
X243681250Y-63817500D03*
D10*
X250507500Y-55562500D03*
D11*
X255587500Y-55562500D03*
D10*
X260667500Y-55562500D03*
D12*
X267493750Y-48577500D03*
D11*
X267493750Y-63817500D03*
%TD*%
D10*
%TO.C,MX65a1*%
X257642743Y-131822903D03*
D11*
X262722743Y-131822903D03*
D10*
X267802743Y-131822903D03*
%TD*%
D13*
%TO.C,MX60c1*%
X160337500Y-131762500D03*
D14*
X156527500Y-129222500D03*
X162877500Y-126682500D03*
%TD*%
D10*
%TO.C,MX45*%
X112395000Y-112712500D03*
D11*
X117475000Y-112712500D03*
D10*
X122555000Y-112712500D03*
%TD*%
%TO.C,MX67*%
X298132500Y-131762500D03*
D11*
X303212500Y-131762500D03*
D10*
X308292500Y-131762500D03*
%TD*%
%TO.C,MX53*%
X298132500Y-112712500D03*
D11*
X303212500Y-112712500D03*
D10*
X308292500Y-112712500D03*
%TD*%
%TO.C,MX33*%
X121920000Y-93662500D03*
D11*
X127000000Y-93662500D03*
D10*
X132080000Y-93662500D03*
%TD*%
%TO.C,MX8*%
X183832500Y-55562500D03*
D11*
X188912500Y-55562500D03*
D10*
X193992500Y-55562500D03*
%TD*%
%TO.C,MX38*%
X217170000Y-93662500D03*
D11*
X222250000Y-93662500D03*
D10*
X227330000Y-93662500D03*
%TD*%
%TO.C,MX48*%
X169545000Y-112712500D03*
D11*
X174625000Y-112712500D03*
D10*
X179705000Y-112712500D03*
%TD*%
%TO.C,MX19*%
X117157500Y-74612500D03*
D11*
X122237500Y-74612500D03*
D10*
X127317500Y-74612500D03*
%TD*%
D11*
%TO.C,MX26a1*%
X254444500Y-72199500D03*
X254444500Y-96075500D03*
D10*
X257619500Y-84137500D03*
D11*
X262699500Y-84137500D03*
D10*
X267779500Y-84137500D03*
D12*
X269684500Y-72199500D03*
X269684500Y-96075500D03*
%TD*%
D10*
%TO.C,MX10*%
X221932500Y-55562500D03*
D11*
X227012500Y-55562500D03*
D10*
X232092500Y-55562500D03*
%TD*%
%TO.C,MX21*%
X155257500Y-74612500D03*
D11*
X160337500Y-74612500D03*
D10*
X165417500Y-74612500D03*
%TD*%
%TO.C,MX66a1*%
X288607500Y-131762500D03*
D11*
X293687500Y-131762500D03*
D10*
X298767500Y-131762500D03*
%TD*%
%TO.C,MX64c1*%
X236220000Y-131762500D03*
D11*
X241300000Y-131762500D03*
D10*
X246380000Y-131762500D03*
%TD*%
%TO.C,MX37*%
X198120000Y-93662500D03*
D11*
X203200000Y-93662500D03*
D10*
X208280000Y-93662500D03*
%TD*%
%TO.C,MX64*%
X236220000Y-131762500D03*
D11*
X241300000Y-131762500D03*
D10*
X246380000Y-131762500D03*
%TD*%
%TO.C,MX46*%
X131445000Y-112712500D03*
D11*
X136525000Y-112712500D03*
D10*
X141605000Y-112712500D03*
%TD*%
D11*
%TO.C,MX39*%
X241268250Y-85407500D03*
D12*
X241268250Y-100647500D03*
D10*
X248094500Y-93662500D03*
D11*
X253174500Y-93662500D03*
D10*
X258254500Y-93662500D03*
D11*
X265080750Y-85407500D03*
D12*
X265080750Y-100647500D03*
%TD*%
D10*
%TO.C,MX44*%
X93345000Y-112712500D03*
D11*
X98425000Y-112712500D03*
D10*
X103505000Y-112712500D03*
%TD*%
%TO.C,MX26*%
X255270000Y-74612500D03*
D11*
X260350000Y-74612500D03*
D10*
X265430000Y-74612500D03*
%TD*%
D11*
%TO.C,MX61a1*%
X169862500Y-123507500D03*
D12*
X169862500Y-138747500D03*
D10*
X183832500Y-131762500D03*
D11*
X188912500Y-131762500D03*
D10*
X193992500Y-131762500D03*
D11*
X207962500Y-123507500D03*
D12*
X207962500Y-138747500D03*
%TD*%
D10*
%TO.C,MX30*%
X57594500Y-93662500D03*
D11*
X62674500Y-93662500D03*
D10*
X67754500Y-93662500D03*
%TD*%
%TO.C,MX40*%
X279082500Y-93662500D03*
D11*
X284162500Y-93662500D03*
D10*
X289242500Y-93662500D03*
%TD*%
%TO.C,MX49*%
X188595000Y-112712500D03*
D11*
X193675000Y-112712500D03*
D10*
X198755000Y-112712500D03*
%TD*%
%TO.C,MX23*%
X193357500Y-74612500D03*
D11*
X198437500Y-74612500D03*
D10*
X203517500Y-74612500D03*
%TD*%
%TO.C,MX24*%
X212407500Y-74612500D03*
D11*
X217487500Y-74612500D03*
D10*
X222567500Y-74612500D03*
%TD*%
%TO.C,MX55*%
X50482500Y-131762500D03*
D11*
X55562500Y-131762500D03*
D10*
X60642500Y-131762500D03*
%TD*%
%TO.C,MX2*%
X79692500Y-55562500D03*
D11*
X74612500Y-55562500D03*
D10*
X69532500Y-55562500D03*
%TD*%
%TO.C,MX31*%
X83820000Y-93662500D03*
D11*
X88900000Y-93662500D03*
D10*
X93980000Y-93662500D03*
%TD*%
%TO.C,MX63b1*%
X217170000Y-131762500D03*
D11*
X222250000Y-131762500D03*
D10*
X227330000Y-131762500D03*
%TD*%
%TO.C,MX58*%
X98107500Y-131762500D03*
D11*
X103187500Y-131762500D03*
D10*
X108267500Y-131762500D03*
%TD*%
%TO.C,MX29*%
X317182500Y-74612500D03*
D11*
X322262500Y-74612500D03*
D10*
X327342500Y-74612500D03*
%TD*%
%TO.C,MX57a1*%
X88582500Y-131762500D03*
D11*
X93662500Y-131762500D03*
D10*
X98742500Y-131762500D03*
%TD*%
%TO.C,MX32*%
X102870000Y-93662500D03*
D11*
X107950000Y-93662500D03*
D10*
X113030000Y-93662500D03*
%TD*%
%TO.C,MX12*%
X260032500Y-55562500D03*
D11*
X265112500Y-55562500D03*
D10*
X270192500Y-55562500D03*
%TD*%
%TO.C,MX17*%
X79057500Y-74612500D03*
D11*
X84137500Y-74612500D03*
D10*
X89217500Y-74612500D03*
%TD*%
%TO.C,MX16*%
X55245000Y-74612500D03*
D11*
X60325000Y-74612500D03*
D10*
X65405000Y-74612500D03*
%TD*%
%TO.C,MX55a1*%
X52881621Y-131762500D03*
D11*
X57961621Y-131762500D03*
D10*
X63041621Y-131762500D03*
%TD*%
D11*
%TO.C,MX60a1*%
X107924600Y-123507500D03*
D12*
X107924600Y-138747500D03*
D10*
X152844500Y-131762500D03*
D11*
X157924500Y-131762500D03*
D10*
X163004500Y-131762500D03*
D11*
X207924400Y-123507500D03*
D12*
X207924400Y-138747500D03*
%TD*%
D10*
%TO.C,MX36*%
X179070000Y-93662500D03*
D11*
X184150000Y-93662500D03*
D10*
X189230000Y-93662500D03*
%TD*%
D11*
%TO.C,MX59a1*%
X112712500Y-123507500D03*
D12*
X112712500Y-138747500D03*
D10*
X126682500Y-131762500D03*
D11*
X131762500Y-131762500D03*
D10*
X136842500Y-131762500D03*
D11*
X150812500Y-123507500D03*
D12*
X150812500Y-138747500D03*
%TD*%
%TO.C,MX51b1*%
X236569250Y-105727500D03*
D11*
X236569250Y-120967500D03*
D10*
X243395500Y-112712500D03*
D11*
X248475500Y-112712500D03*
D10*
X253555500Y-112712500D03*
D12*
X260381750Y-105727500D03*
D11*
X260381750Y-120967500D03*
%TD*%
D10*
%TO.C,MX5*%
X126682500Y-55562500D03*
D11*
X131762500Y-55562500D03*
D10*
X136842500Y-55562500D03*
%TD*%
%TO.C,MX7*%
X164782500Y-55562500D03*
D11*
X169862500Y-55562500D03*
D10*
X174942500Y-55562500D03*
%TD*%
%TO.C,MX18*%
X98107500Y-74612500D03*
D11*
X103187500Y-74612500D03*
D10*
X108267500Y-74612500D03*
%TD*%
%TO.C,MX15*%
X317182500Y-55562500D03*
D11*
X322262500Y-55562500D03*
D10*
X327342500Y-55562500D03*
%TD*%
%TO.C,MX56b1*%
X74295000Y-131762500D03*
D11*
X79375000Y-131762500D03*
D10*
X84455000Y-131762500D03*
%TD*%
%TO.C,MX63*%
X221932500Y-131762500D03*
D11*
X227012500Y-131762500D03*
D10*
X232092500Y-131762500D03*
%TD*%
%TO.C,MX4*%
X107632500Y-55562500D03*
D11*
X112712500Y-55562500D03*
D10*
X117792500Y-55562500D03*
%TD*%
%TO.C,MX20*%
X136207500Y-74612500D03*
D11*
X141287500Y-74612500D03*
D10*
X146367500Y-74612500D03*
%TD*%
%TO.C,MX28*%
X298132500Y-74612500D03*
D11*
X303212500Y-74612500D03*
D10*
X308292500Y-74612500D03*
%TD*%
%TO.C,MX51*%
X226695000Y-112712500D03*
D11*
X231775000Y-112712500D03*
D10*
X236855000Y-112712500D03*
%TD*%
%TO.C,MX35*%
X160020000Y-93662500D03*
D11*
X165100000Y-93662500D03*
D10*
X170180000Y-93662500D03*
%TD*%
%TO.C,MX66*%
X279082500Y-131762500D03*
D11*
X284162500Y-131762500D03*
D10*
X289242500Y-131762500D03*
%TD*%
%TO.C,MX65*%
X255270000Y-131762500D03*
D11*
X260350000Y-131762500D03*
D10*
X265430000Y-131762500D03*
%TD*%
%TO.C,MX51a1*%
X252920500Y-112712500D03*
D11*
X258000500Y-112712500D03*
D10*
X263080500Y-112712500D03*
%TD*%
D11*
%TO.C,MX59*%
X127031750Y-123507500D03*
D12*
X127031750Y-138747500D03*
D10*
X133858000Y-131762500D03*
D11*
X138938000Y-131762500D03*
D10*
X144018000Y-131762500D03*
D11*
X150844250Y-123507500D03*
D12*
X150844250Y-138747500D03*
%TD*%
D10*
%TO.C,MX64b1*%
X240982500Y-131762500D03*
D11*
X246062500Y-131762500D03*
D10*
X251142500Y-131762500D03*
%TD*%
%TO.C,MX47*%
X150495000Y-112712500D03*
D11*
X155575000Y-112712500D03*
D10*
X160655000Y-112712500D03*
%TD*%
D15*
%TO.C,*%
X69325000Y-73991000D03*
X69325000Y-73991000D03*
X69998654Y-72364654D03*
X69998654Y-72364654D03*
X69998654Y-75617346D03*
X69998654Y-75617346D03*
X71625000Y-71691000D03*
X71625000Y-71691000D03*
D16*
X71625000Y-73991000D03*
X71625000Y-73991000D03*
D15*
X71625000Y-76291000D03*
X71625000Y-76291000D03*
X73251346Y-72364654D03*
X73251346Y-72364654D03*
X73251346Y-75617346D03*
X73251346Y-75617346D03*
X73925000Y-73991000D03*
X73925000Y-73991000D03*
D17*
X174625000Y-93091000D03*
X174625000Y-93091000D03*
%TD*%
D10*
%TO.C,MX39b1*%
X257619500Y-93662500D03*
D11*
X262699500Y-93662500D03*
D10*
X267779500Y-93662500D03*
%TD*%
%TO.C,MX56*%
X69532500Y-131762500D03*
D11*
X74612500Y-131762500D03*
D10*
X79692500Y-131762500D03*
%TD*%
%TO.C,MX43b1*%
X74295000Y-112712500D03*
D11*
X79375000Y-112712500D03*
D10*
X84455000Y-112712500D03*
%TD*%
%TO.C,MX43a1*%
X52839685Y-112727971D03*
D11*
X57919685Y-112727971D03*
D10*
X62999685Y-112727971D03*
%TD*%
%TO.C,MX65b1*%
X260032500Y-131762500D03*
D11*
X265112500Y-131762500D03*
D10*
X270192500Y-131762500D03*
%TD*%
%TO.C,MX22*%
X174307500Y-74612500D03*
D11*
X179387500Y-74612500D03*
D10*
X184467500Y-74612500D03*
%TD*%
%TO.C,MX56a1*%
X76687877Y-131789345D03*
D11*
X81767877Y-131789345D03*
D10*
X86847877Y-131789345D03*
%TD*%
%TO.C,MX13*%
X279082500Y-55562500D03*
D11*
X284162500Y-55562500D03*
D10*
X289242500Y-55562500D03*
%TD*%
%TO.C,MX6*%
X145732500Y-55562500D03*
D11*
X150812500Y-55562500D03*
D10*
X155892500Y-55562500D03*
%TD*%
D11*
%TO.C,MX60*%
X103187500Y-123507500D03*
D12*
X103187500Y-138747500D03*
D10*
X155257500Y-131762500D03*
D11*
X160337500Y-131762500D03*
D10*
X165417500Y-131762500D03*
D11*
X217487500Y-123507500D03*
D12*
X217487500Y-138747500D03*
%TD*%
D10*
%TO.C,MX1*%
X60642500Y-55562500D03*
D11*
X55562500Y-55562500D03*
D10*
X50482500Y-55562500D03*
%TD*%
D12*
%TO.C,MX43*%
X55467250Y-105727500D03*
D11*
X55467250Y-120967500D03*
D10*
X62293500Y-112712500D03*
D11*
X67373500Y-112712500D03*
D10*
X72453500Y-112712500D03*
D12*
X79279750Y-105727500D03*
D11*
X79279750Y-120967500D03*
%TD*%
D18*
%TO.C,J3*%
X61880000Y-50808000D03*
X67660000Y-50808000D03*
D19*
X60449999Y-47157999D03*
D20*
X60449999Y-51337999D03*
D19*
X69089999Y-47157999D03*
D20*
X69089999Y-51337999D03*
%TD*%
D21*
%TO.C,J1*%
X93037499Y-83819999D03*
D22*
X94307499Y-83819999D03*
X93037499Y-82549999D03*
X94307499Y-82549999D03*
X93037499Y-81279999D03*
X94307499Y-81279999D03*
%TD*%
M02*
