%TF.GenerationSoftware,KiCad,Pcbnew,(7.0.0)*%
%TF.CreationDate,2023-03-04T14:40:31+01:00*%
%TF.ProjectId,qazimodo plate,71617a69-6d6f-4646-9f20-706c6174652e,rev?*%
%TF.SameCoordinates,Original*%
%TF.FileFunction,Profile,NP*%
%FSLAX46Y46*%
G04 Gerber Fmt 4.6, Leading zero omitted, Abs format (unit mm)*
G04 Created by KiCad (PCBNEW (7.0.0)) date 2023-03-04 14:40:31*
%MOMM*%
%LPD*%
G01*
G04 APERTURE LIST*
%TA.AperFunction,Profile*%
%ADD10C,0.200000*%
%TD*%
%TA.AperFunction,Profile*%
%ADD11C,0.100000*%
%TD*%
G04 APERTURE END LIST*
D10*
X138760937Y-48552682D02*
X124760937Y-48552682D01*
X97160937Y-138752682D02*
X99685937Y-138752682D01*
X234298437Y-138752682D02*
X238773437Y-138752682D01*
X52029187Y-105702682D02*
X50942187Y-105702682D01*
X195910937Y-62552682D02*
X195910937Y-48552682D01*
X237766687Y-86652682D02*
X234298437Y-86652682D01*
X310210937Y-86652682D02*
X296210937Y-86652682D01*
X310210937Y-48552682D02*
X296210937Y-48552682D01*
X106692187Y-123752682D02*
X106685937Y-123752682D01*
X296210937Y-81602682D02*
X310210937Y-81602682D01*
X130466687Y-138752682D02*
X131904687Y-138752682D01*
X171091687Y-138752682D02*
X173360937Y-138752682D01*
X143523437Y-119702682D02*
X143523437Y-105702682D01*
X291160937Y-86652682D02*
X277160937Y-86652682D01*
X116210937Y-138752682D02*
X116210937Y-123752682D01*
X191435937Y-81602682D02*
X205435937Y-81602682D01*
X271023937Y-48552682D02*
X264023937Y-48552682D01*
X130466687Y-123752682D02*
X123466687Y-123752682D01*
X224773437Y-119702682D02*
X233004187Y-119702682D01*
X214960937Y-48552682D02*
X200960937Y-48552682D01*
X244766687Y-86652682D02*
X237766687Y-86652682D01*
X148285937Y-81602682D02*
X148285937Y-67602682D01*
X229535937Y-81602682D02*
X243535937Y-81602682D01*
X191148437Y-86652682D02*
X177148437Y-86652682D01*
X291160937Y-124752682D02*
X286685937Y-124752682D01*
X296210937Y-67602682D02*
X296210937Y-81602682D01*
X331245023Y-48061977D02*
G75*
G03*
X329245026Y-46061977I-1999923J77D01*
G01*
X81610937Y-124752682D02*
X74754687Y-124752682D01*
X119710937Y-48552682D02*
X105710937Y-48552682D01*
X291160937Y-119702682D02*
X291160937Y-105702682D01*
X46559497Y-104013000D02*
X46545321Y-138271306D01*
X178091687Y-138752682D02*
X178091687Y-123752682D01*
X77135937Y-67602682D02*
X77135937Y-81602682D01*
X253060937Y-138752682D02*
X253060937Y-124752682D01*
X64942187Y-100652682D02*
X69704687Y-100652682D01*
X261642687Y-101652682D02*
X268642687Y-101652682D01*
X210485937Y-81602682D02*
X224485937Y-81602682D01*
X59029187Y-105702682D02*
X52029187Y-105702682D01*
X224773437Y-105702682D02*
X224773437Y-119702682D01*
X129523437Y-119702682D02*
X143523437Y-119702682D01*
X172098437Y-100652682D02*
X172098437Y-86652682D01*
X269729687Y-77127682D02*
X267348437Y-77127682D01*
X269729687Y-99565682D02*
X269729687Y-92565682D01*
X264967187Y-105702682D02*
X263880187Y-105702682D01*
X131904687Y-124752682D02*
X130466687Y-124752682D01*
X253060937Y-124752682D02*
X248298437Y-124752682D01*
X253348437Y-67602682D02*
X253348437Y-81602682D01*
X91423437Y-119702682D02*
X105423437Y-119702682D01*
X230510937Y-138752682D02*
X231917187Y-138752682D01*
X186385937Y-81602682D02*
X186385937Y-67602682D01*
X267348437Y-124752682D02*
X258110937Y-124752682D01*
X100660937Y-62552682D02*
X100660937Y-48552682D01*
X129523437Y-105702682D02*
X129523437Y-119702682D01*
X162860937Y-62552682D02*
X176860937Y-62552682D01*
X315260937Y-124752682D02*
X315260937Y-138752682D01*
X258110937Y-138752682D02*
X267348437Y-138752682D01*
X291160937Y-100652682D02*
X291160937Y-86652682D01*
X229248437Y-138752682D02*
X230510937Y-138752682D01*
X255729687Y-81602682D02*
X255729687Y-86652682D01*
X195910937Y-48552682D02*
X181910937Y-48552682D01*
X62560937Y-138752682D02*
X64942187Y-138752682D01*
X67323437Y-138752682D02*
X67323437Y-124752682D01*
X81610937Y-62552682D02*
X81610937Y-48552682D01*
X315260937Y-67602682D02*
X315260937Y-81602682D01*
X115235937Y-67602682D02*
X115235937Y-81602682D01*
X138760937Y-138752682D02*
X145904687Y-138752682D01*
X277160937Y-119702682D02*
X291160937Y-119702682D01*
X138760937Y-62552682D02*
X138760937Y-48552682D01*
X91135937Y-81602682D02*
X91135937Y-67602682D01*
X267348437Y-67602682D02*
X253348437Y-67602682D01*
X244766687Y-100652682D02*
X246204687Y-100652682D01*
X145904687Y-124752682D02*
X138760937Y-124752682D01*
X124473437Y-119702682D02*
X124473437Y-105702682D01*
X53323437Y-124752682D02*
X50942187Y-124752682D01*
X62560937Y-124752682D02*
X53323437Y-124752682D01*
X166360937Y-124752682D02*
X160192187Y-124752682D01*
X215248437Y-100652682D02*
X229248437Y-100652682D01*
X147342687Y-138752682D02*
X153335937Y-138752682D01*
X315260937Y-86652682D02*
X315260937Y-100652682D01*
X53323437Y-67602682D02*
X53323437Y-81602682D01*
X253348437Y-138752682D02*
X255729687Y-138752682D01*
X72373437Y-105702682D02*
X64942187Y-105702682D01*
X74754687Y-138752682D02*
X81610937Y-138752682D01*
X60467187Y-105702682D02*
X59029187Y-105702682D01*
X200673437Y-105702682D02*
X186673437Y-105702682D01*
X86660937Y-124752682D02*
X86373437Y-124752682D01*
X277160937Y-124752682D02*
X277160937Y-138752682D01*
X329260937Y-62552682D02*
X329260937Y-48552682D01*
X133998437Y-100652682D02*
X133998437Y-86652682D01*
X230510937Y-124752682D02*
X230510937Y-123752682D01*
X74467187Y-105702682D02*
X72373437Y-105702682D01*
X258110937Y-48552682D02*
X253060937Y-48552682D01*
X255729687Y-100652682D02*
X260204687Y-100652682D01*
X246204687Y-86652682D02*
X244766687Y-86652682D01*
X277160937Y-105702682D02*
X277160937Y-119702682D01*
X86660937Y-62552682D02*
X100660937Y-62552682D01*
X309123937Y-138752682D02*
X310210937Y-138752682D01*
X59029187Y-119702682D02*
X60467187Y-119702682D01*
X229535937Y-67602682D02*
X229535937Y-81602682D01*
X199692187Y-123752682D02*
X194967687Y-123752682D01*
X74754687Y-124752682D02*
X72373437Y-124752682D01*
X234298437Y-124752682D02*
X234010937Y-124752682D01*
X100660937Y-48552682D02*
X86660937Y-48552682D01*
X240004187Y-105702682D02*
X238773437Y-105702682D01*
X181910937Y-62552682D02*
X195910937Y-62552682D01*
X267348437Y-77127682D02*
X267348437Y-75689682D01*
X239060937Y-138752682D02*
X245917187Y-138752682D01*
X263880187Y-119702682D02*
X264967187Y-119702682D01*
X263880187Y-105702682D02*
X256880187Y-105702682D01*
X172098437Y-86652682D02*
X158098437Y-86652682D01*
X99685937Y-138752682D02*
X99692187Y-138752682D01*
X247147937Y-62552682D02*
X248585937Y-62552682D01*
X110473437Y-105702682D02*
X110473437Y-119702682D01*
X267348437Y-68689682D02*
X267348437Y-67602682D01*
X310210937Y-100652682D02*
X310210937Y-86652682D01*
X205435937Y-81602682D02*
X205435937Y-67602682D01*
X46559497Y-100711000D02*
X49452502Y-100711000D01*
X133998437Y-86652682D02*
X119998437Y-86652682D01*
X224485937Y-81602682D02*
X224485937Y-67602682D01*
X82905187Y-120702682D02*
X82905187Y-119702682D01*
X81898437Y-138752682D02*
X86373437Y-138752682D01*
X267348437Y-75689682D02*
X269729687Y-75689682D01*
X199692187Y-138752682D02*
X201967687Y-138752682D01*
X49452502Y-104013000D02*
G75*
G03*
X49452502Y-100711000I-102J1651000D01*
G01*
X124760937Y-62552682D02*
X138760937Y-62552682D01*
X263880187Y-120702682D02*
X263880187Y-119702682D01*
X146192187Y-124752682D02*
X146192187Y-138752682D01*
X67610937Y-124752682D02*
X67610937Y-138752682D01*
X214960937Y-62552682D02*
X214960937Y-48552682D01*
X53323437Y-138752682D02*
X62560937Y-138752682D01*
X55704687Y-86652682D02*
X50942187Y-86652682D01*
X243535937Y-81602682D02*
X243535937Y-67602682D01*
X59029187Y-120702682D02*
X59029187Y-119702682D01*
X239060937Y-62552682D02*
X240147937Y-62552682D01*
X296210937Y-62552682D02*
X310210937Y-62552682D01*
X315260937Y-138752682D02*
X329260937Y-138752682D01*
X296210937Y-86652682D02*
X296210937Y-100652682D01*
X160192187Y-138752682D02*
X166360937Y-138752682D01*
X269729687Y-91127682D02*
X269729687Y-86652682D01*
X269729687Y-138752682D02*
X272110937Y-138752682D01*
X213985937Y-138752682D02*
X215248437Y-138752682D01*
X269729687Y-92565682D02*
X269729687Y-91127682D01*
X315260937Y-48552682D02*
X315260937Y-62552682D01*
X248585937Y-62552682D02*
X253060937Y-62552682D01*
X110185937Y-81602682D02*
X110185937Y-67602682D01*
X329245026Y-140262026D02*
G75*
G03*
X331245026Y-138261970I74J1999926D01*
G01*
X91135937Y-67602682D02*
X77135937Y-67602682D01*
X119998437Y-100652682D02*
X133998437Y-100652682D01*
X193529687Y-138752682D02*
X194967687Y-138752682D01*
X72373437Y-119702682D02*
X74467187Y-119702682D01*
X166360937Y-138752682D02*
X167335937Y-138752682D01*
X106692187Y-124752682D02*
X106692187Y-123752682D01*
X238773437Y-105702682D02*
X233004187Y-105702682D01*
X248298437Y-124752682D02*
X245917187Y-124752682D01*
X329260937Y-105702682D02*
X315260937Y-105702682D01*
X328353046Y-100838000D02*
G75*
G03*
X328353046Y-104013000I154J-1587500D01*
G01*
X64942187Y-138752682D02*
X67323437Y-138752682D01*
X269729687Y-124752682D02*
X267348437Y-124752682D01*
X220985937Y-138752682D02*
X223510937Y-138752682D01*
X106685937Y-138752682D02*
X106692187Y-138752682D01*
X247147937Y-48552682D02*
X240147937Y-48552682D01*
X205723437Y-119702682D02*
X219723437Y-119702682D01*
X237766687Y-101652682D02*
X244766687Y-101652682D01*
X116210937Y-123752682D02*
X109210937Y-123752682D01*
X220985937Y-124752682D02*
X220985937Y-123752682D01*
X191148437Y-100652682D02*
X191148437Y-86652682D01*
X153335937Y-138752682D02*
X154310937Y-138752682D01*
X110185937Y-138752682D02*
X116210937Y-138752682D01*
X277160937Y-48552682D02*
X277160937Y-62552682D01*
X53323437Y-81602682D02*
X67323437Y-81602682D01*
X153335937Y-67602682D02*
X153335937Y-81602682D01*
X194967687Y-123752682D02*
X194967687Y-124752682D01*
X250967187Y-105702682D02*
X241442187Y-105702682D01*
X291160937Y-62552682D02*
X291160937Y-48552682D01*
X229248437Y-100652682D02*
X229248437Y-86652682D01*
X210485937Y-138752682D02*
X211460937Y-138752682D01*
X146192187Y-138752682D02*
X147310937Y-138752682D01*
X96185937Y-67602682D02*
X96185937Y-81602682D01*
X244766687Y-101652682D02*
X244766687Y-100652682D01*
X262585937Y-62552682D02*
X264023937Y-62552682D01*
X224485937Y-67602682D02*
X210485937Y-67602682D01*
X109210937Y-138752682D02*
X110185937Y-138752682D01*
X272110937Y-138752682D02*
X272110937Y-124752682D01*
X86660937Y-48552682D02*
X86660937Y-62552682D01*
X329260937Y-48552682D02*
X315260937Y-48552682D01*
X245917187Y-124752682D02*
X239060937Y-124752682D01*
X264967187Y-119702682D02*
X264967187Y-105702682D01*
X253060937Y-62552682D02*
X258110937Y-62552682D01*
X166360937Y-123752682D02*
X166360937Y-124752682D01*
X291160937Y-48552682D02*
X277160937Y-48552682D01*
X291160937Y-105702682D02*
X277160937Y-105702682D01*
X88754687Y-124752682D02*
X86660937Y-124752682D01*
X167335937Y-81602682D02*
X167335937Y-67602682D01*
X255729687Y-124752682D02*
X253348437Y-124752682D01*
X234010937Y-124752682D02*
X231917187Y-124752682D01*
X86373437Y-138752682D02*
X86660937Y-138752682D01*
X239060937Y-48552682D02*
X239060937Y-62552682D01*
X100948437Y-86652682D02*
X100948437Y-100652682D01*
X268642687Y-101652682D02*
X268642687Y-100652682D01*
X81610937Y-138752682D02*
X81898437Y-138752682D01*
X67610937Y-48552682D02*
X67610937Y-62552682D01*
X81898437Y-86652682D02*
X81898437Y-100652682D01*
X177009344Y-93001114D02*
G75*
G03*
X177009344Y-93001114I-2400000J0D01*
G01*
X48560937Y-48552682D02*
X48560937Y-62552682D01*
X277160937Y-67602682D02*
X277160937Y-81602682D01*
X261642687Y-100652682D02*
X261642687Y-101652682D01*
X277160937Y-62552682D02*
X291160937Y-62552682D01*
X201967687Y-138752682D02*
X204460937Y-138752682D01*
X329260937Y-67602682D02*
X315260937Y-67602682D01*
X96185937Y-138752682D02*
X97160937Y-138752682D01*
X147342687Y-123752682D02*
X147310937Y-123752682D01*
X210485937Y-67602682D02*
X210485937Y-81602682D01*
X97160937Y-123752682D02*
X90160937Y-123752682D01*
X48560937Y-62552682D02*
X62560937Y-62552682D01*
X315260937Y-100652682D02*
X329260937Y-100652682D01*
X186673437Y-119702682D02*
X200673437Y-119702682D01*
X253060937Y-48552682D02*
X248585937Y-48552682D01*
X310210937Y-81602682D02*
X310210937Y-67602682D01*
X148573437Y-105702682D02*
X148573437Y-119702682D01*
X64942187Y-119702682D02*
X72373437Y-119702682D01*
X50942187Y-119702682D02*
X52029187Y-119702682D01*
X213985937Y-123752682D02*
X213985937Y-124752682D01*
X178091687Y-123752682D02*
X173360937Y-123752682D01*
X109210937Y-123752682D02*
X109210937Y-124752682D01*
X82905187Y-119702682D02*
X86373437Y-119702682D01*
X91423437Y-105702682D02*
X91423437Y-119702682D01*
X291160937Y-81602682D02*
X291160937Y-67602682D01*
X154310937Y-123752682D02*
X147342687Y-123752682D01*
X220010937Y-48552682D02*
X220010937Y-62552682D01*
X114948437Y-86652682D02*
X100948437Y-86652682D01*
X233004187Y-120702682D02*
X240004187Y-120702682D01*
X255729687Y-138752682D02*
X258110937Y-138752682D01*
X173360937Y-138752682D02*
X178091687Y-138752682D01*
X310210937Y-124752682D02*
X309123937Y-124752682D01*
X154342687Y-124752682D02*
X154342687Y-123752682D01*
X52029187Y-119702682D02*
X52029187Y-120702682D01*
X157810937Y-48552682D02*
X143810937Y-48552682D01*
X90160937Y-123752682D02*
X90160937Y-124752682D01*
X196198437Y-100652682D02*
X210198437Y-100652682D01*
X219723437Y-119702682D02*
X219723437Y-105702682D01*
X110185937Y-67602682D02*
X96185937Y-67602682D01*
X147310937Y-138752682D02*
X147342687Y-138752682D01*
X48545022Y-140261970D02*
X329245026Y-140261970D01*
X302123937Y-124752682D02*
X300685937Y-124752682D01*
X119710937Y-62552682D02*
X119710937Y-48552682D01*
X181910937Y-138752682D02*
X193529687Y-138752682D01*
X277160937Y-138752682D02*
X278247937Y-138752682D01*
X195910937Y-138752682D02*
X199692187Y-138752682D01*
X234298437Y-100652682D02*
X237766687Y-100652682D01*
X172385937Y-67602682D02*
X172385937Y-81602682D01*
X172385937Y-81602682D02*
X186385937Y-81602682D01*
X210198437Y-86652682D02*
X196198437Y-86652682D01*
X272110937Y-62552682D02*
X272110937Y-48552682D01*
X158098437Y-86652682D02*
X158098437Y-100652682D01*
X296210937Y-124752682D02*
X291160937Y-124752682D01*
X315260937Y-105702682D02*
X315260937Y-119702682D01*
X234010937Y-62552682D02*
X234010937Y-48552682D01*
X167623437Y-105702682D02*
X167623437Y-119702682D01*
X191435937Y-67602682D02*
X191435937Y-81602682D01*
X310210937Y-67602682D02*
X296210937Y-67602682D01*
X181910937Y-124752682D02*
X179529687Y-124752682D01*
X143810937Y-62552682D02*
X157810937Y-62552682D01*
X296210937Y-100652682D02*
X310210937Y-100652682D01*
X147310937Y-124752682D02*
X146192187Y-124752682D01*
X220985937Y-123752682D02*
X213985937Y-123752682D01*
X81610937Y-48552682D02*
X67610937Y-48552682D01*
X186385937Y-67602682D02*
X172385937Y-67602682D01*
X50927000Y-100652682D02*
X55704687Y-100652682D01*
X143810937Y-48552682D02*
X143810937Y-62552682D01*
X167623437Y-119702682D02*
X181623437Y-119702682D01*
X143523437Y-105702682D02*
X129523437Y-105702682D01*
X329260937Y-124752682D02*
X315260937Y-124752682D01*
X245917187Y-138752682D02*
X248298437Y-138752682D01*
X258110937Y-124752682D02*
X255729687Y-124752682D01*
X119998437Y-86652682D02*
X119998437Y-100652682D01*
X264023937Y-62552682D02*
X264023937Y-63552682D01*
X67323437Y-81602682D02*
X67323437Y-67602682D01*
X64942187Y-105702682D02*
X60467187Y-105702682D01*
X248298437Y-138752682D02*
X253060937Y-138752682D01*
X67610937Y-138752682D02*
X72373437Y-138752682D01*
X73991873Y-73880935D02*
G75*
G03*
X73991873Y-73880935I-2400000J0D01*
G01*
X139048437Y-100652682D02*
X153048437Y-100652682D01*
X50942187Y-124752682D02*
X48560937Y-124752682D01*
X176860937Y-48552682D02*
X162860937Y-48552682D01*
X310210937Y-62552682D02*
X310210937Y-48552682D01*
X256880187Y-119702682D02*
X256880187Y-120702682D01*
X100948437Y-100652682D02*
X114948437Y-100652682D01*
X204460937Y-138752682D02*
X206692187Y-138752682D01*
X72373437Y-124752682D02*
X67610937Y-124752682D01*
X129235937Y-67602682D02*
X115235937Y-67602682D01*
X309123937Y-124752682D02*
X302123937Y-124752682D01*
X123466687Y-138752682D02*
X124760937Y-138752682D01*
X105423437Y-119702682D02*
X105423437Y-105702682D01*
X310210937Y-119702682D02*
X310210937Y-105702682D01*
X129235937Y-81602682D02*
X129235937Y-67602682D01*
X105423437Y-105702682D02*
X91423437Y-105702682D01*
X75905187Y-119702682D02*
X75905187Y-120702682D01*
X99692187Y-123752682D02*
X99685937Y-123752682D01*
X176860937Y-62552682D02*
X176860937Y-48552682D01*
X296210937Y-105702682D02*
X296210937Y-119702682D01*
X64942187Y-124752682D02*
X62560937Y-124752682D01*
X296210937Y-48552682D02*
X296210937Y-62552682D01*
X315260937Y-62552682D02*
X329260937Y-62552682D01*
X196198437Y-86652682D02*
X196198437Y-100652682D01*
X99685937Y-124752682D02*
X97160937Y-124752682D01*
X240004187Y-120702682D02*
X240004187Y-105702682D01*
X74467187Y-119702682D02*
X75905187Y-119702682D01*
X250967187Y-119702682D02*
X255442187Y-119702682D01*
X109210937Y-124752682D02*
X106692187Y-124752682D01*
X256880187Y-105702682D02*
X255442187Y-105702682D01*
X99685937Y-123752682D02*
X99685937Y-124752682D01*
X95898437Y-138752682D02*
X96185937Y-138752682D01*
X240147937Y-63552682D02*
X247147937Y-63552682D01*
X243535937Y-67602682D02*
X229535937Y-67602682D01*
X246204687Y-100652682D02*
X248298437Y-100652682D01*
X255442187Y-105702682D02*
X250967187Y-105702682D01*
X81898437Y-124752682D02*
X81610937Y-124752682D01*
X271023937Y-62552682D02*
X272110937Y-62552682D01*
X264023937Y-48552682D02*
X262585937Y-48552682D01*
X99692187Y-138752682D02*
X100660937Y-138752682D01*
X154310937Y-138752682D02*
X154342687Y-138752682D01*
X106685937Y-123752682D02*
X99692187Y-123752682D01*
X106692187Y-138752682D02*
X109210937Y-138752682D01*
X153048437Y-86652682D02*
X139048437Y-86652682D01*
X233004187Y-105702682D02*
X224773437Y-105702682D01*
X269729687Y-100652682D02*
X269729687Y-99565682D01*
X310210937Y-138752682D02*
X310210937Y-124752682D01*
X86373437Y-124752682D02*
X81898437Y-124752682D01*
X46559497Y-104013000D02*
X49452502Y-104013000D01*
X300685937Y-124752682D02*
X296210937Y-124752682D01*
X241442187Y-105702682D02*
X241442187Y-119702682D01*
X219723437Y-105702682D02*
X205723437Y-105702682D01*
X131904687Y-138752682D02*
X138760937Y-138752682D01*
X277160937Y-100652682D02*
X291160937Y-100652682D01*
X223510937Y-138752682D02*
X224485937Y-138752682D01*
X86660937Y-138752682D02*
X88754687Y-138752682D01*
X240147937Y-62552682D02*
X240147937Y-63552682D01*
X105710937Y-48552682D02*
X105710937Y-62552682D01*
X124760937Y-138752682D02*
X130466687Y-138752682D01*
X269729687Y-86652682D02*
X269729687Y-77127682D01*
X67323437Y-124752682D02*
X64942187Y-124752682D01*
X115235937Y-81602682D02*
X129235937Y-81602682D01*
X331296513Y-100835180D02*
X331245026Y-48061977D01*
X167335937Y-67602682D02*
X153335937Y-67602682D01*
X231917187Y-124752682D02*
X230510937Y-124752682D01*
X162573437Y-105702682D02*
X148573437Y-105702682D01*
X331296513Y-100835180D02*
X328353046Y-100838000D01*
X247147937Y-63552682D02*
X247147937Y-62552682D01*
X171091687Y-123752682D02*
X166360937Y-123752682D01*
X237766687Y-100652682D02*
X237766687Y-101652682D01*
X296210937Y-119702682D02*
X310210937Y-119702682D01*
X95898437Y-86652682D02*
X81898437Y-86652682D01*
X238773437Y-138752682D02*
X239060937Y-138752682D01*
X269729687Y-68689682D02*
X267348437Y-68689682D01*
X315260937Y-81602682D02*
X329260937Y-81602682D01*
X234298437Y-86652682D02*
X234298437Y-100652682D01*
X285247937Y-124752682D02*
X278247937Y-124752682D01*
X75905187Y-120702682D02*
X82905187Y-120702682D01*
X67323437Y-67602682D02*
X53323437Y-67602682D01*
X220010937Y-138752682D02*
X220985937Y-138752682D01*
X86373437Y-119702682D02*
X86373437Y-105702682D01*
X69704687Y-100652682D02*
X69704687Y-86652682D01*
X206692187Y-123752682D02*
X204460937Y-123752682D01*
X241442187Y-119702682D02*
X250967187Y-119702682D01*
X220010937Y-62552682D02*
X234010937Y-62552682D01*
X50942187Y-86652682D02*
X50927000Y-100652682D01*
X331246051Y-104013000D02*
X331245026Y-138261970D01*
X46545250Y-138271306D02*
G75*
G03*
X48545022Y-140261970I1999650J9006D01*
G01*
X62560937Y-62552682D02*
X62560937Y-48552682D01*
X267348437Y-138752682D02*
X269729687Y-138752682D01*
X329260937Y-119702682D02*
X329260937Y-105702682D01*
X162860937Y-48552682D02*
X162860937Y-62552682D01*
X123466687Y-123752682D02*
X123466687Y-138752682D01*
X291160937Y-67602682D02*
X277160937Y-67602682D01*
X248585937Y-48552682D02*
X247147937Y-48552682D01*
X329260937Y-81602682D02*
X329260937Y-67602682D01*
X75905187Y-105702682D02*
X74467187Y-105702682D01*
D11*
X328422000Y-103886000D02*
X328422000Y-103886000D01*
D10*
X240147937Y-48552682D02*
X239060937Y-48552682D01*
X48560937Y-138752682D02*
X50942187Y-138752682D01*
X88754687Y-138752682D02*
X90160937Y-138752682D01*
X90160937Y-138752682D02*
X95898437Y-138752682D01*
X60467187Y-119702682D02*
X64942187Y-119702682D01*
X110473437Y-119702682D02*
X124473437Y-119702682D01*
X181910937Y-48552682D02*
X181910937Y-62552682D01*
X224773437Y-138752682D02*
X229248437Y-138752682D01*
X278247937Y-138752682D02*
X309123937Y-138752682D01*
X148285937Y-67602682D02*
X134285937Y-67602682D01*
X154342687Y-123752682D02*
X154310937Y-123752682D01*
X95898437Y-100652682D02*
X95898437Y-86652682D01*
X268642687Y-100652682D02*
X269729687Y-100652682D01*
X124473437Y-105702682D02*
X110473437Y-105702682D01*
X179529687Y-138752682D02*
X181910937Y-138752682D01*
X97160937Y-124752682D02*
X97160937Y-123752682D01*
X229248437Y-86652682D02*
X215248437Y-86652682D01*
X86373437Y-105702682D02*
X82905187Y-105702682D01*
X194967687Y-138752682D02*
X195910937Y-138752682D01*
X46545022Y-48061977D02*
X46559497Y-100711000D01*
X211460937Y-138752682D02*
X213985937Y-138752682D01*
X260204687Y-100652682D02*
X261642687Y-100652682D01*
X124760937Y-48552682D02*
X124760937Y-62552682D01*
X157810937Y-62552682D02*
X157810937Y-48552682D01*
X181623437Y-119702682D02*
X181623437Y-105702682D01*
X200960937Y-48552682D02*
X200960937Y-62552682D01*
X177148437Y-86652682D02*
X177148437Y-100652682D01*
X329260937Y-86652682D02*
X315260937Y-86652682D01*
X206692187Y-138752682D02*
X210485937Y-138752682D01*
X96185937Y-81602682D02*
X110185937Y-81602682D01*
X100660937Y-138752682D02*
X106685937Y-138752682D01*
X239060937Y-124752682D02*
X238773437Y-124752682D01*
X286685937Y-124752682D02*
X285247937Y-124752682D01*
X69704687Y-86652682D02*
X64942187Y-86652682D01*
X186673437Y-105702682D02*
X186673437Y-119702682D01*
X215248437Y-86652682D02*
X215248437Y-100652682D01*
X258110937Y-62552682D02*
X262585937Y-62552682D01*
X211460937Y-123752682D02*
X206692187Y-123752682D01*
X211460937Y-124752682D02*
X211460937Y-123752682D01*
X331246051Y-104013000D02*
X328353046Y-104013000D01*
X55704687Y-100652682D02*
X64942187Y-100652682D01*
X329260937Y-100652682D02*
X329260937Y-86652682D01*
X48544538Y-46061462D02*
G75*
G03*
X46545022Y-48061977I882J-2000398D01*
G01*
X256880187Y-120702682D02*
X263880187Y-120702682D01*
X200673437Y-119702682D02*
X200673437Y-105702682D01*
X215248437Y-138752682D02*
X220010937Y-138752682D01*
X181623437Y-105702682D02*
X167623437Y-105702682D01*
X278247937Y-124752682D02*
X277160937Y-124752682D01*
X248298437Y-100652682D02*
X255729687Y-100652682D01*
X253348437Y-124752682D02*
X253348437Y-138752682D01*
X231917187Y-138752682D02*
X234010937Y-138752682D01*
X67610937Y-62552682D02*
X81610937Y-62552682D01*
X50942187Y-105702682D02*
X50942187Y-119702682D01*
X269729687Y-75689682D02*
X269729687Y-68689682D01*
X210198437Y-100652682D02*
X210198437Y-86652682D01*
X158098437Y-100652682D02*
X172098437Y-100652682D01*
X315260937Y-119702682D02*
X329260937Y-119702682D01*
X134285937Y-67602682D02*
X134285937Y-81602682D01*
X90160937Y-124752682D02*
X88754687Y-124752682D01*
X310210937Y-105702682D02*
X296210937Y-105702682D01*
X277160937Y-86652682D02*
X277160937Y-100652682D01*
X82905187Y-105702682D02*
X75905187Y-105702682D01*
X48560937Y-124752682D02*
X48560937Y-138752682D01*
X193529687Y-124752682D02*
X181910937Y-124752682D01*
X50942187Y-138752682D02*
X53323437Y-138752682D01*
X277160937Y-81602682D02*
X291160937Y-81602682D01*
X148573437Y-119702682D02*
X162573437Y-119702682D01*
X329260937Y-138752682D02*
X329260937Y-124752682D01*
X264023937Y-63552682D02*
X271023937Y-63552682D01*
X162573437Y-119702682D02*
X162573437Y-105702682D01*
X177148437Y-100652682D02*
X191148437Y-100652682D01*
X130466687Y-124752682D02*
X130466687Y-123752682D01*
X213985937Y-124752682D02*
X211460937Y-124752682D01*
X262585937Y-48552682D02*
X258110937Y-48552682D01*
X62560937Y-48552682D02*
X48560937Y-48552682D01*
X138760937Y-124752682D02*
X131904687Y-124752682D01*
X173360937Y-123752682D02*
X171091687Y-123752682D01*
X271023937Y-63552682D02*
X271023937Y-62552682D01*
X205435937Y-67602682D02*
X191435937Y-67602682D01*
X134285937Y-81602682D02*
X148285937Y-81602682D01*
X194967687Y-124752682D02*
X193529687Y-124752682D01*
X200960937Y-62552682D02*
X214960937Y-62552682D01*
X105710937Y-62552682D02*
X119710937Y-62552682D01*
X81898437Y-100652682D02*
X95898437Y-100652682D01*
X255729687Y-86652682D02*
X248298437Y-86652682D01*
X114948437Y-100652682D02*
X114948437Y-86652682D01*
X160192187Y-124752682D02*
X154342687Y-124752682D01*
X255442187Y-119702682D02*
X256880187Y-119702682D01*
X272110937Y-48552682D02*
X271023937Y-48552682D01*
X153048437Y-100652682D02*
X153048437Y-86652682D01*
X145904687Y-138752682D02*
X145904687Y-124752682D01*
X248298437Y-86652682D02*
X246204687Y-86652682D01*
X238773437Y-124752682D02*
X234298437Y-124752682D01*
X154342687Y-138752682D02*
X160192187Y-138752682D01*
X72373437Y-138752682D02*
X74754687Y-138752682D01*
X77135937Y-81602682D02*
X91135937Y-81602682D01*
X204460937Y-123752682D02*
X201967687Y-123752682D01*
X233004187Y-119702682D02*
X233004187Y-120702682D01*
X224485937Y-138752682D02*
X224773437Y-138752682D01*
X253348437Y-81602682D02*
X255729687Y-81602682D01*
X230510937Y-123752682D02*
X223510937Y-123752682D01*
X234010937Y-48552682D02*
X220010937Y-48552682D01*
X147310937Y-123752682D02*
X147310937Y-124752682D01*
X153335937Y-81602682D02*
X167335937Y-81602682D01*
X139048437Y-86652682D02*
X139048437Y-100652682D01*
X223510937Y-123752682D02*
X223510937Y-124752682D01*
X167335937Y-138752682D02*
X171091687Y-138752682D01*
X234010937Y-138752682D02*
X234298437Y-138752682D01*
X223510937Y-124752682D02*
X220985937Y-124752682D01*
X272110937Y-124752682D02*
X269729687Y-124752682D01*
X179529687Y-124752682D02*
X179529687Y-138752682D01*
X205723437Y-105702682D02*
X205723437Y-119702682D01*
X52029187Y-120702682D02*
X59029187Y-120702682D01*
X329245026Y-46061977D02*
X48544538Y-46061468D01*
X64942187Y-86652682D02*
X55704687Y-86652682D01*
X201967687Y-123752682D02*
X199692187Y-123752682D01*
M02*
