%TF.GenerationSoftware,KiCad,Pcbnew,(7.0.0)*%
%TF.CreationDate,2023-03-04T17:59:08+01:00*%
%TF.ProjectId,qazimodo plate,71617a69-6d6f-4646-9f20-706c6174652e,rev?*%
%TF.SameCoordinates,Original*%
%TF.FileFunction,Copper,L2,Bot*%
%TF.FilePolarity,Positive*%
%FSLAX46Y46*%
G04 Gerber Fmt 4.6, Leading zero omitted, Abs format (unit mm)*
G04 Created by KiCad (PCBNEW (7.0.0)) date 2023-03-04 17:59:08*
%MOMM*%
%LPD*%
G01*
G04 APERTURE LIST*
G04 APERTURE END LIST*
%TA.AperFunction,NonConductor*%
G36*
X329244526Y-46062477D02*
G01*
X329244656Y-46062477D01*
X329245407Y-46062501D01*
X329328717Y-46067959D01*
X329328779Y-46067989D01*
X329328779Y-46067963D01*
X329328876Y-46067969D01*
X329513628Y-46081176D01*
X329515006Y-46081362D01*
X329634588Y-46105145D01*
X329634627Y-46105153D01*
X329781467Y-46137092D01*
X329782677Y-46137427D01*
X329904416Y-46178749D01*
X329904684Y-46178844D01*
X330039176Y-46229005D01*
X330040198Y-46229446D01*
X330157858Y-46287468D01*
X330158245Y-46287669D01*
X330281903Y-46355189D01*
X330282776Y-46355717D01*
X330392856Y-46429269D01*
X330393359Y-46429625D01*
X330505222Y-46513363D01*
X330505912Y-46513923D01*
X330605813Y-46601533D01*
X330606363Y-46602047D01*
X330704949Y-46700633D01*
X330705463Y-46701183D01*
X330793084Y-46801098D01*
X330793644Y-46801788D01*
X330877364Y-46913626D01*
X330877720Y-46914129D01*
X330951288Y-47024234D01*
X330951819Y-47025112D01*
X331019308Y-47148712D01*
X331019529Y-47149137D01*
X331077547Y-47266791D01*
X331078008Y-47267858D01*
X331128141Y-47402279D01*
X331128256Y-47402602D01*
X331169566Y-47524304D01*
X331169913Y-47525556D01*
X331201823Y-47672265D01*
X331201865Y-47672466D01*
X331225635Y-47791982D01*
X331225827Y-47793405D01*
X331239009Y-47977814D01*
X331239013Y-47977882D01*
X331244501Y-48061641D01*
X331244526Y-48062393D01*
X331244526Y-48062477D01*
X331244527Y-48062477D01*
X331296000Y-100823180D01*
X331294465Y-100828931D01*
X331290260Y-100833145D01*
X331284511Y-100834691D01*
X328352947Y-100837500D01*
X328352946Y-100837499D01*
X328352946Y-100837500D01*
X328234486Y-100837510D01*
X328234473Y-100837510D01*
X328234049Y-100837511D01*
X328233623Y-100837575D01*
X328233613Y-100837576D01*
X327999140Y-100872939D01*
X327999137Y-100872939D01*
X327998717Y-100873003D01*
X327998314Y-100873127D01*
X327998311Y-100873128D01*
X327771709Y-100943044D01*
X327771703Y-100943045D01*
X327771302Y-100943170D01*
X327770926Y-100943350D01*
X327770916Y-100943355D01*
X327557270Y-101046260D01*
X327557258Y-101046266D01*
X327556884Y-101046447D01*
X327556535Y-101046684D01*
X327556528Y-101046689D01*
X327360608Y-101180282D01*
X327360599Y-101180288D01*
X327360253Y-101180525D01*
X327359947Y-101180808D01*
X327359938Y-101180816D01*
X327186114Y-101342117D01*
X327186102Y-101342129D01*
X327185799Y-101342411D01*
X327185537Y-101342738D01*
X327185530Y-101342747D01*
X327037690Y-101528148D01*
X327037683Y-101528157D01*
X327037420Y-101528488D01*
X327037208Y-101528855D01*
X327037202Y-101528864D01*
X326918647Y-101734224D01*
X326918430Y-101734600D01*
X326918275Y-101734993D01*
X326918271Y-101735003D01*
X326863613Y-101874281D01*
X326831487Y-101956144D01*
X326831392Y-101956559D01*
X326831392Y-101956560D01*
X326822678Y-101994743D01*
X326778531Y-102188172D01*
X326778499Y-102188587D01*
X326778498Y-102188600D01*
X326774747Y-102238663D01*
X326760747Y-102425500D01*
X326760779Y-102425927D01*
X326778498Y-102662399D01*
X326778499Y-102662410D01*
X326778531Y-102662828D01*
X326831487Y-102894856D01*
X326831644Y-102895256D01*
X326904357Y-103080542D01*
X326918430Y-103116400D01*
X327037420Y-103322512D01*
X327037688Y-103322848D01*
X327037690Y-103322851D01*
X327169715Y-103488419D01*
X327185799Y-103508589D01*
X327186109Y-103508877D01*
X327186114Y-103508882D01*
X327359938Y-103670183D01*
X327360253Y-103670475D01*
X327556884Y-103804553D01*
X327771302Y-103907830D01*
X327998717Y-103977997D01*
X328234049Y-104013489D01*
X328352946Y-104013499D01*
X328352947Y-104013500D01*
X328353046Y-104013500D01*
X331234051Y-104013500D01*
X331239801Y-104015041D01*
X331244010Y-104019250D01*
X331245550Y-104024998D01*
X331244930Y-124752141D01*
X331244526Y-138261470D01*
X331244526Y-138261600D01*
X331244501Y-138262352D01*
X331239226Y-138342889D01*
X331239222Y-138342959D01*
X331225748Y-138530988D01*
X331225556Y-138532409D01*
X331202522Y-138648243D01*
X331202480Y-138648444D01*
X331169759Y-138798897D01*
X331169412Y-138800149D01*
X331128908Y-138919486D01*
X331128793Y-138919808D01*
X331077769Y-139056626D01*
X331077308Y-139057694D01*
X331020181Y-139173548D01*
X331019960Y-139173973D01*
X330951467Y-139299417D01*
X330950936Y-139300295D01*
X330878361Y-139408919D01*
X330878005Y-139409422D01*
X330793158Y-139522769D01*
X330792598Y-139523459D01*
X330706080Y-139622117D01*
X330705566Y-139622667D01*
X330605716Y-139722519D01*
X330605167Y-139723033D01*
X330506496Y-139809568D01*
X330505805Y-139810128D01*
X330392468Y-139894972D01*
X330391965Y-139895328D01*
X330283341Y-139967908D01*
X330282463Y-139968439D01*
X330157010Y-140036941D01*
X330156585Y-140037162D01*
X330040757Y-140094281D01*
X330039690Y-140094742D01*
X329902844Y-140145781D01*
X329902521Y-140145896D01*
X329783200Y-140186398D01*
X329781948Y-140186745D01*
X329631487Y-140219472D01*
X329631286Y-140219514D01*
X329515491Y-140242544D01*
X329514068Y-140242736D01*
X329319384Y-140256654D01*
X329319316Y-140256658D01*
X329245970Y-140261463D01*
X329245125Y-140261410D01*
X329245125Y-140261470D01*
X48545403Y-140261470D01*
X48544654Y-140261446D01*
X48464526Y-140256213D01*
X48464455Y-140256208D01*
X48276715Y-140242783D01*
X48275298Y-140242592D01*
X48160608Y-140219853D01*
X48160408Y-140219812D01*
X48009570Y-140187104D01*
X48008321Y-140186758D01*
X47889798Y-140146656D01*
X47889477Y-140146542D01*
X47887739Y-140145896D01*
X47752523Y-140095627D01*
X47751459Y-140095170D01*
X47636241Y-140038544D01*
X47635817Y-140038324D01*
X47510286Y-139970019D01*
X47509410Y-139969491D01*
X47439575Y-139923003D01*
X47401285Y-139897515D01*
X47400804Y-139897175D01*
X47345160Y-139855684D01*
X47287321Y-139812555D01*
X47286631Y-139811998D01*
X47188341Y-139726164D01*
X47187792Y-139725652D01*
X47087756Y-139626072D01*
X47087242Y-139625526D01*
X47084722Y-139622667D01*
X47000964Y-139527632D01*
X47000404Y-139526946D01*
X46915269Y-139413853D01*
X46914913Y-139413353D01*
X46842454Y-139305574D01*
X46841922Y-139304701D01*
X46773025Y-139179448D01*
X46772825Y-139179066D01*
X46715673Y-139064104D01*
X46715210Y-139063042D01*
X46712791Y-139056626D01*
X46663635Y-138926227D01*
X46663569Y-138926043D01*
X46622910Y-138807658D01*
X46622559Y-138806413D01*
X46621171Y-138800149D01*
X46610651Y-138752682D01*
X48560396Y-138752682D01*
X48560437Y-138752781D01*
X48560554Y-138753065D01*
X48560937Y-138753223D01*
X48561036Y-138753182D01*
X50942088Y-138753182D01*
X50942286Y-138753182D01*
X53323338Y-138753182D01*
X53323536Y-138753182D01*
X62560838Y-138753182D01*
X62561036Y-138753182D01*
X64942088Y-138753182D01*
X64942286Y-138753182D01*
X67323338Y-138753182D01*
X67323437Y-138753223D01*
X67323820Y-138753065D01*
X67323937Y-138752781D01*
X67323978Y-138752682D01*
X67610396Y-138752682D01*
X67610437Y-138752781D01*
X67610554Y-138753065D01*
X67610937Y-138753223D01*
X67611036Y-138753182D01*
X72373338Y-138753182D01*
X72373536Y-138753182D01*
X74754588Y-138753182D01*
X74754786Y-138753182D01*
X81610838Y-138753182D01*
X81611036Y-138753182D01*
X81898338Y-138753182D01*
X81898536Y-138753182D01*
X86373338Y-138753182D01*
X86373536Y-138753182D01*
X86660838Y-138753182D01*
X86661036Y-138753182D01*
X88754588Y-138753182D01*
X88754786Y-138753182D01*
X90160838Y-138753182D01*
X90161036Y-138753182D01*
X95898338Y-138753182D01*
X95898536Y-138753182D01*
X96185838Y-138753182D01*
X96186036Y-138753182D01*
X97160838Y-138753182D01*
X97161036Y-138753182D01*
X99685838Y-138753182D01*
X99686036Y-138753182D01*
X99692088Y-138753182D01*
X99692286Y-138753182D01*
X100660838Y-138753182D01*
X100661036Y-138753182D01*
X106685838Y-138753182D01*
X106686036Y-138753182D01*
X106692088Y-138753182D01*
X106692286Y-138753182D01*
X109210838Y-138753182D01*
X109211036Y-138753182D01*
X110185838Y-138753182D01*
X110186036Y-138753182D01*
X116210838Y-138753182D01*
X116210937Y-138753223D01*
X116211320Y-138753065D01*
X116211437Y-138752781D01*
X116211478Y-138752682D01*
X123466146Y-138752682D01*
X123466187Y-138752781D01*
X123466304Y-138753065D01*
X123466687Y-138753223D01*
X123466786Y-138753182D01*
X124760838Y-138753182D01*
X124761036Y-138753182D01*
X130466588Y-138753182D01*
X130466786Y-138753182D01*
X131904588Y-138753182D01*
X131904786Y-138753182D01*
X138760838Y-138753182D01*
X138761036Y-138753182D01*
X145904588Y-138753182D01*
X145904687Y-138753223D01*
X145905070Y-138753065D01*
X145905187Y-138752781D01*
X145905228Y-138752682D01*
X146191646Y-138752682D01*
X146191687Y-138752781D01*
X146191804Y-138753065D01*
X146192187Y-138753223D01*
X146192286Y-138753182D01*
X147310838Y-138753182D01*
X147311036Y-138753182D01*
X147342588Y-138753182D01*
X147342786Y-138753182D01*
X153335838Y-138753182D01*
X153336036Y-138753182D01*
X154310838Y-138753182D01*
X154311036Y-138753182D01*
X154342588Y-138753182D01*
X154342786Y-138753182D01*
X160192088Y-138753182D01*
X160192286Y-138753182D01*
X166360838Y-138753182D01*
X166361036Y-138753182D01*
X167335838Y-138753182D01*
X167336036Y-138753182D01*
X171091588Y-138753182D01*
X171091786Y-138753182D01*
X173360838Y-138753182D01*
X173361036Y-138753182D01*
X178091588Y-138753182D01*
X178091687Y-138753223D01*
X178092070Y-138753065D01*
X178092187Y-138752781D01*
X178092228Y-138752682D01*
X179529146Y-138752682D01*
X179529187Y-138752781D01*
X179529304Y-138753065D01*
X179529687Y-138753223D01*
X179529786Y-138753182D01*
X181910838Y-138753182D01*
X181911036Y-138753182D01*
X193529588Y-138753182D01*
X193529786Y-138753182D01*
X194967588Y-138753182D01*
X194967786Y-138753182D01*
X195910838Y-138753182D01*
X195911036Y-138753182D01*
X199692088Y-138753182D01*
X199692286Y-138753182D01*
X201967588Y-138753182D01*
X201967786Y-138753182D01*
X204460838Y-138753182D01*
X204461036Y-138753182D01*
X206692088Y-138753182D01*
X206692286Y-138753182D01*
X210485838Y-138753182D01*
X210486036Y-138753182D01*
X211460838Y-138753182D01*
X211461036Y-138753182D01*
X213985838Y-138753182D01*
X213986036Y-138753182D01*
X215248338Y-138753182D01*
X215248536Y-138753182D01*
X220010838Y-138753182D01*
X220011036Y-138753182D01*
X220985838Y-138753182D01*
X220986036Y-138753182D01*
X223510838Y-138753182D01*
X223511036Y-138753182D01*
X224485838Y-138753182D01*
X224486036Y-138753182D01*
X224773338Y-138753182D01*
X224773536Y-138753182D01*
X229248338Y-138753182D01*
X229248536Y-138753182D01*
X230510838Y-138753182D01*
X230511036Y-138753182D01*
X231917088Y-138753182D01*
X231917286Y-138753182D01*
X234010838Y-138753182D01*
X234011036Y-138753182D01*
X234298338Y-138753182D01*
X234298536Y-138753182D01*
X238773338Y-138753182D01*
X238773536Y-138753182D01*
X239060838Y-138753182D01*
X239061036Y-138753182D01*
X245917088Y-138753182D01*
X245917286Y-138753182D01*
X248298338Y-138753182D01*
X248298536Y-138753182D01*
X253060838Y-138753182D01*
X253060937Y-138753223D01*
X253061320Y-138753065D01*
X253061437Y-138752781D01*
X253061478Y-138752682D01*
X253347896Y-138752682D01*
X253347937Y-138752781D01*
X253348054Y-138753065D01*
X253348437Y-138753223D01*
X253348536Y-138753182D01*
X255729588Y-138753182D01*
X255729786Y-138753182D01*
X258110838Y-138753182D01*
X258111036Y-138753182D01*
X267348338Y-138753182D01*
X267348536Y-138753182D01*
X269729588Y-138753182D01*
X269729786Y-138753182D01*
X272110838Y-138753182D01*
X272110937Y-138753223D01*
X272111320Y-138753065D01*
X272111437Y-138752781D01*
X272111478Y-138752682D01*
X277160396Y-138752682D01*
X277160437Y-138752781D01*
X277160554Y-138753065D01*
X277160937Y-138753223D01*
X277161036Y-138753182D01*
X278247838Y-138753182D01*
X278248036Y-138753182D01*
X309123838Y-138753182D01*
X309124036Y-138753182D01*
X310210838Y-138753182D01*
X310210937Y-138753223D01*
X310211320Y-138753065D01*
X310211437Y-138752781D01*
X310211478Y-138752682D01*
X315260396Y-138752682D01*
X315260437Y-138752781D01*
X315260554Y-138753065D01*
X315260937Y-138753223D01*
X315261036Y-138753182D01*
X329260838Y-138753182D01*
X329260937Y-138753223D01*
X329261320Y-138753065D01*
X329261437Y-138752781D01*
X329261478Y-138752682D01*
X329261437Y-138752583D01*
X329261437Y-124752781D01*
X329261478Y-124752682D01*
X329261320Y-124752299D01*
X329261036Y-124752182D01*
X329260937Y-124752141D01*
X329260838Y-124752182D01*
X315261036Y-124752182D01*
X315260937Y-124752141D01*
X315260838Y-124752182D01*
X315260554Y-124752299D01*
X315260396Y-124752682D01*
X315260437Y-124752781D01*
X315260437Y-138752583D01*
X315260396Y-138752682D01*
X310211478Y-138752682D01*
X310211437Y-138752583D01*
X310211437Y-124752781D01*
X310211478Y-124752682D01*
X310211320Y-124752299D01*
X310211036Y-124752182D01*
X310210937Y-124752141D01*
X310210838Y-124752182D01*
X309124036Y-124752182D01*
X302124036Y-124752182D01*
X300686036Y-124752182D01*
X296211036Y-124752182D01*
X291161036Y-124752182D01*
X286686036Y-124752182D01*
X285248036Y-124752182D01*
X278248036Y-124752182D01*
X277161036Y-124752182D01*
X277160937Y-124752141D01*
X277160838Y-124752182D01*
X277160554Y-124752299D01*
X277160396Y-124752682D01*
X277160437Y-124752781D01*
X277160437Y-138752583D01*
X277160396Y-138752682D01*
X272111478Y-138752682D01*
X272111437Y-138752583D01*
X272111437Y-124752781D01*
X272111478Y-124752682D01*
X272111320Y-124752299D01*
X272111036Y-124752182D01*
X272110937Y-124752141D01*
X272110838Y-124752182D01*
X269729786Y-124752182D01*
X267348536Y-124752182D01*
X258111036Y-124752182D01*
X255729786Y-124752182D01*
X253348536Y-124752182D01*
X253348437Y-124752141D01*
X253348338Y-124752182D01*
X253348054Y-124752299D01*
X253347896Y-124752682D01*
X253347937Y-124752781D01*
X253347937Y-138752583D01*
X253347896Y-138752682D01*
X253061478Y-138752682D01*
X253061437Y-138752583D01*
X253061437Y-124752781D01*
X253061478Y-124752682D01*
X253061320Y-124752299D01*
X253061036Y-124752182D01*
X253060937Y-124752141D01*
X253060838Y-124752182D01*
X248298536Y-124752182D01*
X245917286Y-124752182D01*
X239061036Y-124752182D01*
X238773536Y-124752182D01*
X234298536Y-124752182D01*
X234011036Y-124752182D01*
X231917286Y-124752182D01*
X230522937Y-124752182D01*
X230514805Y-124748814D01*
X230511437Y-124740682D01*
X230511437Y-123755882D01*
X230511437Y-123752781D01*
X230511478Y-123752682D01*
X230511320Y-123752299D01*
X230511036Y-123752182D01*
X230510937Y-123752141D01*
X230510838Y-123752182D01*
X223511036Y-123752182D01*
X223510937Y-123752141D01*
X223510838Y-123752182D01*
X223510554Y-123752299D01*
X223510396Y-123752682D01*
X223510437Y-123752781D01*
X223510437Y-123755882D01*
X223510437Y-124740682D01*
X223507069Y-124748814D01*
X223498937Y-124752182D01*
X220997937Y-124752182D01*
X220989805Y-124748814D01*
X220986437Y-124740682D01*
X220986437Y-123755882D01*
X220986437Y-123752781D01*
X220986478Y-123752682D01*
X220986320Y-123752299D01*
X220986036Y-123752182D01*
X220985937Y-123752141D01*
X220985838Y-123752182D01*
X213986036Y-123752182D01*
X213985937Y-123752141D01*
X213985838Y-123752182D01*
X213985554Y-123752299D01*
X213985396Y-123752682D01*
X213985437Y-123752781D01*
X213985437Y-123755882D01*
X213985437Y-124740682D01*
X213982069Y-124748814D01*
X213973937Y-124752182D01*
X211472937Y-124752182D01*
X211464805Y-124748814D01*
X211461437Y-124740682D01*
X211461437Y-123755882D01*
X211461437Y-123752781D01*
X211461478Y-123752682D01*
X211461320Y-123752299D01*
X211461036Y-123752182D01*
X211460937Y-123752141D01*
X211460838Y-123752182D01*
X206692286Y-123752182D01*
X204461036Y-123752182D01*
X201967786Y-123752182D01*
X199692286Y-123752182D01*
X194967786Y-123752182D01*
X194967687Y-123752141D01*
X194967588Y-123752182D01*
X194967304Y-123752299D01*
X194967146Y-123752682D01*
X194967187Y-123752781D01*
X194967187Y-123755882D01*
X194967187Y-124740682D01*
X194963819Y-124748814D01*
X194955687Y-124752182D01*
X193529786Y-124752182D01*
X181911036Y-124752182D01*
X179529786Y-124752182D01*
X179529687Y-124752141D01*
X179529588Y-124752182D01*
X179529304Y-124752299D01*
X179529146Y-124752682D01*
X179529187Y-124752781D01*
X179529187Y-138752583D01*
X179529146Y-138752682D01*
X178092228Y-138752682D01*
X178092187Y-138752583D01*
X178092187Y-123752781D01*
X178092228Y-123752682D01*
X178092070Y-123752299D01*
X178091786Y-123752182D01*
X178091687Y-123752141D01*
X178091588Y-123752182D01*
X173361036Y-123752182D01*
X171091786Y-123752182D01*
X166361036Y-123752182D01*
X166360937Y-123752141D01*
X166360838Y-123752182D01*
X166360554Y-123752299D01*
X166360396Y-123752682D01*
X166360437Y-123752781D01*
X166360437Y-123755882D01*
X166360437Y-124740682D01*
X166357069Y-124748814D01*
X166348937Y-124752182D01*
X160192286Y-124752182D01*
X154354687Y-124752182D01*
X154346555Y-124748814D01*
X154343187Y-124740682D01*
X154343187Y-123755882D01*
X154343187Y-123752781D01*
X154343228Y-123752682D01*
X154343070Y-123752299D01*
X154342786Y-123752182D01*
X154342687Y-123752141D01*
X154342588Y-123752182D01*
X154311036Y-123752182D01*
X147342786Y-123752182D01*
X147311036Y-123752182D01*
X147310937Y-123752141D01*
X147310838Y-123752182D01*
X147310554Y-123752299D01*
X147310396Y-123752682D01*
X147310437Y-123752781D01*
X147310437Y-123755882D01*
X147310437Y-124740682D01*
X147307069Y-124748814D01*
X147298937Y-124752182D01*
X146192286Y-124752182D01*
X146192187Y-124752141D01*
X146192088Y-124752182D01*
X146191804Y-124752299D01*
X146191646Y-124752682D01*
X146191687Y-124752781D01*
X146191687Y-138752583D01*
X146191646Y-138752682D01*
X145905228Y-138752682D01*
X145905187Y-138752583D01*
X145905187Y-124752781D01*
X145905228Y-124752682D01*
X145905070Y-124752299D01*
X145904786Y-124752182D01*
X145904687Y-124752141D01*
X145904588Y-124752182D01*
X138761036Y-124752182D01*
X131904786Y-124752182D01*
X130478687Y-124752182D01*
X130470555Y-124748814D01*
X130467187Y-124740682D01*
X130467187Y-123755882D01*
X130467187Y-123752781D01*
X130467228Y-123752682D01*
X130467070Y-123752299D01*
X130466786Y-123752182D01*
X130466687Y-123752141D01*
X130466588Y-123752182D01*
X123466786Y-123752182D01*
X123466687Y-123752141D01*
X123466588Y-123752182D01*
X123466304Y-123752299D01*
X123466146Y-123752682D01*
X123466187Y-123752781D01*
X123466187Y-138752583D01*
X123466146Y-138752682D01*
X116211478Y-138752682D01*
X116211437Y-138752583D01*
X116211437Y-123752781D01*
X116211478Y-123752682D01*
X116211320Y-123752299D01*
X116211036Y-123752182D01*
X116210937Y-123752141D01*
X116210838Y-123752182D01*
X109211036Y-123752182D01*
X109210937Y-123752141D01*
X109210838Y-123752182D01*
X109210554Y-123752299D01*
X109210396Y-123752682D01*
X109210437Y-123752781D01*
X109210437Y-123755882D01*
X109210437Y-124740682D01*
X109207069Y-124748814D01*
X109198937Y-124752182D01*
X106704187Y-124752182D01*
X106696055Y-124748814D01*
X106692687Y-124740682D01*
X106692687Y-123755882D01*
X106692687Y-123752781D01*
X106692728Y-123752682D01*
X106692570Y-123752299D01*
X106692286Y-123752182D01*
X106692187Y-123752141D01*
X106692088Y-123752182D01*
X106686036Y-123752182D01*
X99692286Y-123752182D01*
X99686036Y-123752182D01*
X99685937Y-123752141D01*
X99685838Y-123752182D01*
X99685554Y-123752299D01*
X99685396Y-123752682D01*
X99685437Y-123752781D01*
X99685437Y-123755882D01*
X99685437Y-124740682D01*
X99682069Y-124748814D01*
X99673937Y-124752182D01*
X97172937Y-124752182D01*
X97164805Y-124748814D01*
X97161437Y-124740682D01*
X97161437Y-123755882D01*
X97161437Y-123752781D01*
X97161478Y-123752682D01*
X97161320Y-123752299D01*
X97161036Y-123752182D01*
X97160937Y-123752141D01*
X97160838Y-123752182D01*
X90161036Y-123752182D01*
X90160937Y-123752141D01*
X90160838Y-123752182D01*
X90160554Y-123752299D01*
X90160396Y-123752682D01*
X90160437Y-123752781D01*
X90160437Y-123755882D01*
X90160437Y-124740682D01*
X90157069Y-124748814D01*
X90148937Y-124752182D01*
X88754786Y-124752182D01*
X86661036Y-124752182D01*
X86373536Y-124752182D01*
X81898536Y-124752182D01*
X81611036Y-124752182D01*
X74754786Y-124752182D01*
X72373536Y-124752182D01*
X67611036Y-124752182D01*
X67610937Y-124752141D01*
X67610838Y-124752182D01*
X67610554Y-124752299D01*
X67610396Y-124752682D01*
X67610437Y-124752781D01*
X67610437Y-138752583D01*
X67610396Y-138752682D01*
X67323978Y-138752682D01*
X67323937Y-138752583D01*
X67323937Y-124752781D01*
X67323978Y-124752682D01*
X67323820Y-124752299D01*
X67323536Y-124752182D01*
X67323437Y-124752141D01*
X67323338Y-124752182D01*
X64942286Y-124752182D01*
X62561036Y-124752182D01*
X53323536Y-124752182D01*
X50942286Y-124752182D01*
X48561036Y-124752182D01*
X48560937Y-124752141D01*
X48560838Y-124752182D01*
X48560554Y-124752299D01*
X48560396Y-124752682D01*
X48560437Y-124752781D01*
X48560437Y-138752583D01*
X48560396Y-138752682D01*
X46610651Y-138752682D01*
X46589146Y-138655646D01*
X46565857Y-138540934D01*
X46565667Y-138539566D01*
X46550782Y-138343320D01*
X46545822Y-138272341D01*
X46545883Y-138271405D01*
X46545821Y-138271405D01*
X46551414Y-124755882D01*
X46553505Y-119702682D01*
X50941646Y-119702682D01*
X50941687Y-119702781D01*
X50941804Y-119703065D01*
X50942187Y-119703223D01*
X50942286Y-119703182D01*
X52017187Y-119703182D01*
X52025319Y-119706550D01*
X52028687Y-119714682D01*
X52028687Y-120702583D01*
X52028646Y-120702682D01*
X52028687Y-120702781D01*
X52028804Y-120703065D01*
X52029187Y-120703223D01*
X52029286Y-120703182D01*
X59029088Y-120703182D01*
X59029187Y-120703223D01*
X59029570Y-120703065D01*
X59029687Y-120702781D01*
X59029728Y-120702682D01*
X59029687Y-120702583D01*
X59029687Y-119714682D01*
X59033055Y-119706550D01*
X59041187Y-119703182D01*
X60467088Y-119703182D01*
X60467286Y-119703182D01*
X64942088Y-119703182D01*
X64942286Y-119703182D01*
X72373338Y-119703182D01*
X72373536Y-119703182D01*
X74467088Y-119703182D01*
X74467286Y-119703182D01*
X75893187Y-119703182D01*
X75901319Y-119706550D01*
X75904687Y-119714682D01*
X75904687Y-120702583D01*
X75904646Y-120702682D01*
X75904687Y-120702781D01*
X75904804Y-120703065D01*
X75905187Y-120703223D01*
X75905286Y-120703182D01*
X82905088Y-120703182D01*
X82905187Y-120703223D01*
X82905570Y-120703065D01*
X82905687Y-120702781D01*
X82905728Y-120702682D01*
X82905687Y-120702583D01*
X82905687Y-119714682D01*
X82909055Y-119706550D01*
X82917187Y-119703182D01*
X86373338Y-119703182D01*
X86373437Y-119703223D01*
X86373820Y-119703065D01*
X86373937Y-119702781D01*
X86373978Y-119702682D01*
X91422896Y-119702682D01*
X91422937Y-119702781D01*
X91423054Y-119703065D01*
X91423437Y-119703223D01*
X91423536Y-119703182D01*
X105423338Y-119703182D01*
X105423437Y-119703223D01*
X105423820Y-119703065D01*
X105423937Y-119702781D01*
X105423978Y-119702682D01*
X110472896Y-119702682D01*
X110472937Y-119702781D01*
X110473054Y-119703065D01*
X110473437Y-119703223D01*
X110473536Y-119703182D01*
X124473338Y-119703182D01*
X124473437Y-119703223D01*
X124473820Y-119703065D01*
X124473937Y-119702781D01*
X124473978Y-119702682D01*
X129522896Y-119702682D01*
X129522937Y-119702781D01*
X129523054Y-119703065D01*
X129523437Y-119703223D01*
X129523536Y-119703182D01*
X143523338Y-119703182D01*
X143523437Y-119703223D01*
X143523820Y-119703065D01*
X143523937Y-119702781D01*
X143523978Y-119702682D01*
X148572896Y-119702682D01*
X148572937Y-119702781D01*
X148573054Y-119703065D01*
X148573437Y-119703223D01*
X148573536Y-119703182D01*
X162573338Y-119703182D01*
X162573437Y-119703223D01*
X162573820Y-119703065D01*
X162573937Y-119702781D01*
X162573978Y-119702682D01*
X167622896Y-119702682D01*
X167622937Y-119702781D01*
X167623054Y-119703065D01*
X167623437Y-119703223D01*
X167623536Y-119703182D01*
X181623338Y-119703182D01*
X181623437Y-119703223D01*
X181623820Y-119703065D01*
X181623937Y-119702781D01*
X181623978Y-119702682D01*
X186672896Y-119702682D01*
X186672937Y-119702781D01*
X186673054Y-119703065D01*
X186673437Y-119703223D01*
X186673536Y-119703182D01*
X200673338Y-119703182D01*
X200673437Y-119703223D01*
X200673820Y-119703065D01*
X200673937Y-119702781D01*
X200673978Y-119702682D01*
X205722896Y-119702682D01*
X205722937Y-119702781D01*
X205723054Y-119703065D01*
X205723437Y-119703223D01*
X205723536Y-119703182D01*
X219723338Y-119703182D01*
X219723437Y-119703223D01*
X219723820Y-119703065D01*
X219723937Y-119702781D01*
X219723978Y-119702682D01*
X224772896Y-119702682D01*
X224772937Y-119702781D01*
X224773054Y-119703065D01*
X224773437Y-119703223D01*
X224773536Y-119703182D01*
X232992187Y-119703182D01*
X233000319Y-119706550D01*
X233003687Y-119714682D01*
X233003687Y-120702583D01*
X233003646Y-120702682D01*
X233003687Y-120702781D01*
X233003804Y-120703065D01*
X233004187Y-120703223D01*
X233004286Y-120703182D01*
X240004088Y-120703182D01*
X240004187Y-120703223D01*
X240004570Y-120703065D01*
X240004687Y-120702781D01*
X240004728Y-120702682D01*
X240004687Y-120702583D01*
X240004687Y-119702682D01*
X241441646Y-119702682D01*
X241441687Y-119702781D01*
X241441804Y-119703065D01*
X241442187Y-119703223D01*
X241442286Y-119703182D01*
X250967088Y-119703182D01*
X250967286Y-119703182D01*
X255442088Y-119703182D01*
X255442286Y-119703182D01*
X256868187Y-119703182D01*
X256876319Y-119706550D01*
X256879687Y-119714682D01*
X256879687Y-120702583D01*
X256879646Y-120702682D01*
X256879687Y-120702781D01*
X256879804Y-120703065D01*
X256880187Y-120703223D01*
X256880286Y-120703182D01*
X263880088Y-120703182D01*
X263880187Y-120703223D01*
X263880570Y-120703065D01*
X263880687Y-120702781D01*
X263880728Y-120702682D01*
X263880687Y-120702583D01*
X263880687Y-119714682D01*
X263884055Y-119706550D01*
X263892187Y-119703182D01*
X264967088Y-119703182D01*
X264967187Y-119703223D01*
X264967570Y-119703065D01*
X264967687Y-119702781D01*
X264967728Y-119702682D01*
X277160396Y-119702682D01*
X277160437Y-119702781D01*
X277160554Y-119703065D01*
X277160937Y-119703223D01*
X277161036Y-119703182D01*
X291160838Y-119703182D01*
X291160937Y-119703223D01*
X291161320Y-119703065D01*
X291161437Y-119702781D01*
X291161478Y-119702682D01*
X296210396Y-119702682D01*
X296210437Y-119702781D01*
X296210554Y-119703065D01*
X296210937Y-119703223D01*
X296211036Y-119703182D01*
X310210838Y-119703182D01*
X310210937Y-119703223D01*
X310211320Y-119703065D01*
X310211437Y-119702781D01*
X310211478Y-119702682D01*
X315260396Y-119702682D01*
X315260437Y-119702781D01*
X315260554Y-119703065D01*
X315260937Y-119703223D01*
X315261036Y-119703182D01*
X329260838Y-119703182D01*
X329260937Y-119703223D01*
X329261320Y-119703065D01*
X329261437Y-119702781D01*
X329261478Y-119702682D01*
X329261437Y-119702583D01*
X329261437Y-105702781D01*
X329261478Y-105702682D01*
X329261320Y-105702299D01*
X329261036Y-105702182D01*
X329260937Y-105702141D01*
X329260838Y-105702182D01*
X315261036Y-105702182D01*
X315260937Y-105702141D01*
X315260838Y-105702182D01*
X315260554Y-105702299D01*
X315260396Y-105702682D01*
X315260437Y-105702781D01*
X315260437Y-119702583D01*
X315260396Y-119702682D01*
X310211478Y-119702682D01*
X310211437Y-119702583D01*
X310211437Y-105702781D01*
X310211478Y-105702682D01*
X310211320Y-105702299D01*
X310211036Y-105702182D01*
X310210937Y-105702141D01*
X310210838Y-105702182D01*
X296211036Y-105702182D01*
X296210937Y-105702141D01*
X296210838Y-105702182D01*
X296210554Y-105702299D01*
X296210396Y-105702682D01*
X296210437Y-105702781D01*
X296210437Y-119702583D01*
X296210396Y-119702682D01*
X291161478Y-119702682D01*
X291161437Y-119702583D01*
X291161437Y-105702781D01*
X291161478Y-105702682D01*
X291161320Y-105702299D01*
X291161036Y-105702182D01*
X291160937Y-105702141D01*
X291160838Y-105702182D01*
X277161036Y-105702182D01*
X277160937Y-105702141D01*
X277160838Y-105702182D01*
X277160554Y-105702299D01*
X277160396Y-105702682D01*
X277160437Y-105702781D01*
X277160437Y-119702583D01*
X277160396Y-119702682D01*
X264967728Y-119702682D01*
X264967687Y-119702583D01*
X264967687Y-105702781D01*
X264967728Y-105702682D01*
X264967570Y-105702299D01*
X264967286Y-105702182D01*
X264967187Y-105702141D01*
X264967088Y-105702182D01*
X263880286Y-105702182D01*
X256880286Y-105702182D01*
X255442286Y-105702182D01*
X250967286Y-105702182D01*
X241442286Y-105702182D01*
X241442187Y-105702141D01*
X241442088Y-105702182D01*
X241441804Y-105702299D01*
X241441646Y-105702682D01*
X241441687Y-105702781D01*
X241441687Y-119702583D01*
X241441646Y-119702682D01*
X240004687Y-119702682D01*
X240004687Y-105702781D01*
X240004728Y-105702682D01*
X240004570Y-105702299D01*
X240004286Y-105702182D01*
X240004187Y-105702141D01*
X240004088Y-105702182D01*
X238773536Y-105702182D01*
X233004286Y-105702182D01*
X224773536Y-105702182D01*
X224773437Y-105702141D01*
X224773338Y-105702182D01*
X224773054Y-105702299D01*
X224772896Y-105702682D01*
X224772937Y-105702781D01*
X224772937Y-119702583D01*
X224772896Y-119702682D01*
X219723978Y-119702682D01*
X219723937Y-119702583D01*
X219723937Y-105702781D01*
X219723978Y-105702682D01*
X219723820Y-105702299D01*
X219723536Y-105702182D01*
X219723437Y-105702141D01*
X219723338Y-105702182D01*
X205723536Y-105702182D01*
X205723437Y-105702141D01*
X205723338Y-105702182D01*
X205723054Y-105702299D01*
X205722896Y-105702682D01*
X205722937Y-105702781D01*
X205722937Y-119702583D01*
X205722896Y-119702682D01*
X200673978Y-119702682D01*
X200673937Y-119702583D01*
X200673937Y-105702781D01*
X200673978Y-105702682D01*
X200673820Y-105702299D01*
X200673536Y-105702182D01*
X200673437Y-105702141D01*
X200673338Y-105702182D01*
X186673536Y-105702182D01*
X186673437Y-105702141D01*
X186673338Y-105702182D01*
X186673054Y-105702299D01*
X186672896Y-105702682D01*
X186672937Y-105702781D01*
X186672937Y-119702583D01*
X186672896Y-119702682D01*
X181623978Y-119702682D01*
X181623937Y-119702583D01*
X181623937Y-105702781D01*
X181623978Y-105702682D01*
X181623820Y-105702299D01*
X181623536Y-105702182D01*
X181623437Y-105702141D01*
X181623338Y-105702182D01*
X167623536Y-105702182D01*
X167623437Y-105702141D01*
X167623338Y-105702182D01*
X167623054Y-105702299D01*
X167622896Y-105702682D01*
X167622937Y-105702781D01*
X167622937Y-119702583D01*
X167622896Y-119702682D01*
X162573978Y-119702682D01*
X162573937Y-119702583D01*
X162573937Y-105702781D01*
X162573978Y-105702682D01*
X162573820Y-105702299D01*
X162573536Y-105702182D01*
X162573437Y-105702141D01*
X162573338Y-105702182D01*
X148573536Y-105702182D01*
X148573437Y-105702141D01*
X148573338Y-105702182D01*
X148573054Y-105702299D01*
X148572896Y-105702682D01*
X148572937Y-105702781D01*
X148572937Y-119702583D01*
X148572896Y-119702682D01*
X143523978Y-119702682D01*
X143523937Y-119702583D01*
X143523937Y-105702781D01*
X143523978Y-105702682D01*
X143523820Y-105702299D01*
X143523536Y-105702182D01*
X143523437Y-105702141D01*
X143523338Y-105702182D01*
X129523536Y-105702182D01*
X129523437Y-105702141D01*
X129523338Y-105702182D01*
X129523054Y-105702299D01*
X129522896Y-105702682D01*
X129522937Y-105702781D01*
X129522937Y-119702583D01*
X129522896Y-119702682D01*
X124473978Y-119702682D01*
X124473937Y-119702583D01*
X124473937Y-105702781D01*
X124473978Y-105702682D01*
X124473820Y-105702299D01*
X124473536Y-105702182D01*
X124473437Y-105702141D01*
X124473338Y-105702182D01*
X110473536Y-105702182D01*
X110473437Y-105702141D01*
X110473338Y-105702182D01*
X110473054Y-105702299D01*
X110472896Y-105702682D01*
X110472937Y-105702781D01*
X110472937Y-119702583D01*
X110472896Y-119702682D01*
X105423978Y-119702682D01*
X105423937Y-119702583D01*
X105423937Y-105702781D01*
X105423978Y-105702682D01*
X105423820Y-105702299D01*
X105423536Y-105702182D01*
X105423437Y-105702141D01*
X105423338Y-105702182D01*
X91423536Y-105702182D01*
X91423437Y-105702141D01*
X91423338Y-105702182D01*
X91423054Y-105702299D01*
X91422896Y-105702682D01*
X91422937Y-105702781D01*
X91422937Y-119702583D01*
X91422896Y-119702682D01*
X86373978Y-119702682D01*
X86373937Y-119702583D01*
X86373937Y-105702781D01*
X86373978Y-105702682D01*
X86373820Y-105702299D01*
X86373536Y-105702182D01*
X86373437Y-105702141D01*
X86373338Y-105702182D01*
X82905286Y-105702182D01*
X75905286Y-105702182D01*
X74467286Y-105702182D01*
X72373536Y-105702182D01*
X64942286Y-105702182D01*
X60467286Y-105702182D01*
X59029286Y-105702182D01*
X52029286Y-105702182D01*
X50942286Y-105702182D01*
X50942187Y-105702141D01*
X50942088Y-105702182D01*
X50941804Y-105702299D01*
X50941646Y-105702682D01*
X50941687Y-105702781D01*
X50941687Y-119702583D01*
X50941646Y-119702682D01*
X46553505Y-119702682D01*
X46559992Y-104024994D01*
X46563362Y-104016867D01*
X46571492Y-104013500D01*
X49452598Y-104013500D01*
X49452601Y-104013500D01*
X49452601Y-104013499D01*
X49576260Y-104013493D01*
X49821009Y-103976589D01*
X50057525Y-103903620D01*
X50280525Y-103796217D01*
X50485026Y-103656779D01*
X50666463Y-103488419D01*
X50820782Y-103294900D01*
X50944535Y-103080542D01*
X51034959Y-102850135D01*
X51090035Y-102608824D01*
X51108531Y-102362000D01*
X51090035Y-102115176D01*
X51034959Y-101873865D01*
X50944535Y-101643458D01*
X50820782Y-101429100D01*
X50666463Y-101235581D01*
X50597719Y-101171791D01*
X50485340Y-101067512D01*
X50485337Y-101067509D01*
X50485026Y-101067221D01*
X50454284Y-101046260D01*
X50280880Y-100928025D01*
X50280879Y-100928024D01*
X50280525Y-100927783D01*
X50280144Y-100927599D01*
X50280138Y-100927596D01*
X50057914Y-100820567D01*
X50057910Y-100820565D01*
X50057525Y-100820380D01*
X50057114Y-100820253D01*
X50057111Y-100820252D01*
X49821419Y-100747537D01*
X49821412Y-100747535D01*
X49821009Y-100747411D01*
X49820587Y-100747347D01*
X49820581Y-100747346D01*
X49576695Y-100710572D01*
X49576687Y-100710571D01*
X49576260Y-100710507D01*
X49575834Y-100710506D01*
X49575822Y-100710506D01*
X49452601Y-100710500D01*
X46571494Y-100710500D01*
X46563363Y-100707133D01*
X46559994Y-100699003D01*
X46559981Y-100652682D01*
X50926459Y-100652682D01*
X50926616Y-100653064D01*
X50926617Y-100653065D01*
X50926999Y-100653223D01*
X50927099Y-100653182D01*
X55704588Y-100653182D01*
X55704786Y-100653182D01*
X64942088Y-100653182D01*
X64942286Y-100653182D01*
X69704588Y-100653182D01*
X69704687Y-100653223D01*
X69705070Y-100653065D01*
X69705187Y-100652781D01*
X69705228Y-100652682D01*
X81897896Y-100652682D01*
X81897937Y-100652781D01*
X81898054Y-100653065D01*
X81898437Y-100653223D01*
X81898536Y-100653182D01*
X95898338Y-100653182D01*
X95898437Y-100653223D01*
X95898820Y-100653065D01*
X95898937Y-100652781D01*
X95898978Y-100652682D01*
X100947896Y-100652682D01*
X100947937Y-100652781D01*
X100948054Y-100653065D01*
X100948437Y-100653223D01*
X100948536Y-100653182D01*
X114948338Y-100653182D01*
X114948437Y-100653223D01*
X114948820Y-100653065D01*
X114948937Y-100652781D01*
X114948978Y-100652682D01*
X119997896Y-100652682D01*
X119997937Y-100652781D01*
X119998054Y-100653065D01*
X119998437Y-100653223D01*
X119998536Y-100653182D01*
X133998338Y-100653182D01*
X133998437Y-100653223D01*
X133998820Y-100653065D01*
X133998937Y-100652781D01*
X133998978Y-100652682D01*
X139047896Y-100652682D01*
X139047937Y-100652781D01*
X139048054Y-100653065D01*
X139048437Y-100653223D01*
X139048536Y-100653182D01*
X153048338Y-100653182D01*
X153048437Y-100653223D01*
X153048820Y-100653065D01*
X153048937Y-100652781D01*
X153048978Y-100652682D01*
X158097896Y-100652682D01*
X158097937Y-100652781D01*
X158098054Y-100653065D01*
X158098437Y-100653223D01*
X158098536Y-100653182D01*
X172098338Y-100653182D01*
X172098437Y-100653223D01*
X172098820Y-100653065D01*
X172098937Y-100652781D01*
X172098978Y-100652682D01*
X177147896Y-100652682D01*
X177147937Y-100652781D01*
X177148054Y-100653065D01*
X177148437Y-100653223D01*
X177148536Y-100653182D01*
X191148338Y-100653182D01*
X191148437Y-100653223D01*
X191148820Y-100653065D01*
X191148937Y-100652781D01*
X191148978Y-100652682D01*
X196197896Y-100652682D01*
X196197937Y-100652781D01*
X196198054Y-100653065D01*
X196198437Y-100653223D01*
X196198536Y-100653182D01*
X210198338Y-100653182D01*
X210198437Y-100653223D01*
X210198820Y-100653065D01*
X210198937Y-100652781D01*
X210198978Y-100652682D01*
X215247896Y-100652682D01*
X215247937Y-100652781D01*
X215248054Y-100653065D01*
X215248437Y-100653223D01*
X215248536Y-100653182D01*
X229248338Y-100653182D01*
X229248437Y-100653223D01*
X229248820Y-100653065D01*
X229248937Y-100652781D01*
X229248978Y-100652682D01*
X234297896Y-100652682D01*
X234297937Y-100652781D01*
X234298054Y-100653065D01*
X234298437Y-100653223D01*
X234298536Y-100653182D01*
X237754687Y-100653182D01*
X237762819Y-100656550D01*
X237766187Y-100664682D01*
X237766187Y-101652583D01*
X237766146Y-101652682D01*
X237766187Y-101652781D01*
X237766304Y-101653065D01*
X237766687Y-101653223D01*
X237766786Y-101653182D01*
X244766588Y-101653182D01*
X244766687Y-101653223D01*
X244767070Y-101653065D01*
X244767187Y-101652781D01*
X244767228Y-101652682D01*
X244767187Y-101652583D01*
X244767187Y-100664682D01*
X244770555Y-100656550D01*
X244778687Y-100653182D01*
X246204588Y-100653182D01*
X246204786Y-100653182D01*
X248298338Y-100653182D01*
X248298536Y-100653182D01*
X255729588Y-100653182D01*
X255729786Y-100653182D01*
X260204588Y-100653182D01*
X260204786Y-100653182D01*
X261630687Y-100653182D01*
X261638819Y-100656550D01*
X261642187Y-100664682D01*
X261642187Y-101652583D01*
X261642146Y-101652682D01*
X261642187Y-101652781D01*
X261642304Y-101653065D01*
X261642687Y-101653223D01*
X261642786Y-101653182D01*
X268642588Y-101653182D01*
X268642687Y-101653223D01*
X268643070Y-101653065D01*
X268643187Y-101652781D01*
X268643228Y-101652682D01*
X268643187Y-101652583D01*
X268643187Y-100664682D01*
X268646555Y-100656550D01*
X268654687Y-100653182D01*
X269729588Y-100653182D01*
X269729687Y-100653223D01*
X269730070Y-100653065D01*
X269730187Y-100652781D01*
X269730228Y-100652682D01*
X277160396Y-100652682D01*
X277160437Y-100652781D01*
X277160554Y-100653065D01*
X277160937Y-100653223D01*
X277161036Y-100653182D01*
X291160838Y-100653182D01*
X291160937Y-100653223D01*
X291161320Y-100653065D01*
X291161437Y-100652781D01*
X291161478Y-100652682D01*
X296210396Y-100652682D01*
X296210437Y-100652781D01*
X296210554Y-100653065D01*
X296210937Y-100653223D01*
X296211036Y-100653182D01*
X310210838Y-100653182D01*
X310210937Y-100653223D01*
X310211320Y-100653065D01*
X310211437Y-100652781D01*
X310211478Y-100652682D01*
X315260396Y-100652682D01*
X315260437Y-100652781D01*
X315260554Y-100653065D01*
X315260937Y-100653223D01*
X315261036Y-100653182D01*
X329260838Y-100653182D01*
X329260937Y-100653223D01*
X329261320Y-100653065D01*
X329261437Y-100652781D01*
X329261478Y-100652682D01*
X329261437Y-100652583D01*
X329261437Y-86652781D01*
X329261478Y-86652682D01*
X329261320Y-86652299D01*
X329261036Y-86652182D01*
X329260937Y-86652141D01*
X329260838Y-86652182D01*
X315261036Y-86652182D01*
X315260937Y-86652141D01*
X315260838Y-86652182D01*
X315260554Y-86652299D01*
X315260396Y-86652682D01*
X315260437Y-86652781D01*
X315260437Y-100652583D01*
X315260396Y-100652682D01*
X310211478Y-100652682D01*
X310211437Y-100652583D01*
X310211437Y-86652781D01*
X310211478Y-86652682D01*
X310211320Y-86652299D01*
X310211036Y-86652182D01*
X310210937Y-86652141D01*
X310210838Y-86652182D01*
X296211036Y-86652182D01*
X296210937Y-86652141D01*
X296210838Y-86652182D01*
X296210554Y-86652299D01*
X296210396Y-86652682D01*
X296210437Y-86652781D01*
X296210437Y-100652583D01*
X296210396Y-100652682D01*
X291161478Y-100652682D01*
X291161437Y-100652583D01*
X291161437Y-86652781D01*
X291161478Y-86652682D01*
X291161320Y-86652299D01*
X291161036Y-86652182D01*
X291160937Y-86652141D01*
X291160838Y-86652182D01*
X277161036Y-86652182D01*
X277160937Y-86652141D01*
X277160838Y-86652182D01*
X277160554Y-86652299D01*
X277160396Y-86652682D01*
X277160437Y-86652781D01*
X277160437Y-100652583D01*
X277160396Y-100652682D01*
X269730228Y-100652682D01*
X269730187Y-100652583D01*
X269730187Y-99565583D01*
X269730187Y-92565583D01*
X269730187Y-91127583D01*
X269730187Y-86652583D01*
X269730187Y-81602682D01*
X277160396Y-81602682D01*
X277160437Y-81602781D01*
X277160554Y-81603065D01*
X277160937Y-81603223D01*
X277161036Y-81603182D01*
X291160838Y-81603182D01*
X291160937Y-81603223D01*
X291161320Y-81603065D01*
X291161437Y-81602781D01*
X291161478Y-81602682D01*
X296210396Y-81602682D01*
X296210437Y-81602781D01*
X296210554Y-81603065D01*
X296210937Y-81603223D01*
X296211036Y-81603182D01*
X310210838Y-81603182D01*
X310210937Y-81603223D01*
X310211320Y-81603065D01*
X310211437Y-81602781D01*
X310211478Y-81602682D01*
X315260396Y-81602682D01*
X315260437Y-81602781D01*
X315260554Y-81603065D01*
X315260937Y-81603223D01*
X315261036Y-81603182D01*
X329260838Y-81603182D01*
X329260937Y-81603223D01*
X329261320Y-81603065D01*
X329261437Y-81602781D01*
X329261478Y-81602682D01*
X329261437Y-81602583D01*
X329261437Y-67602781D01*
X329261478Y-67602682D01*
X329261320Y-67602299D01*
X329261036Y-67602182D01*
X329260937Y-67602141D01*
X329260838Y-67602182D01*
X315261036Y-67602182D01*
X315260937Y-67602141D01*
X315260838Y-67602182D01*
X315260554Y-67602299D01*
X315260396Y-67602682D01*
X315260437Y-67602781D01*
X315260437Y-81602583D01*
X315260396Y-81602682D01*
X310211478Y-81602682D01*
X310211437Y-81602583D01*
X310211437Y-67602781D01*
X310211478Y-67602682D01*
X310211320Y-67602299D01*
X310211036Y-67602182D01*
X310210937Y-67602141D01*
X310210838Y-67602182D01*
X296211036Y-67602182D01*
X296210937Y-67602141D01*
X296210838Y-67602182D01*
X296210554Y-67602299D01*
X296210396Y-67602682D01*
X296210437Y-67602781D01*
X296210437Y-81602583D01*
X296210396Y-81602682D01*
X291161478Y-81602682D01*
X291161437Y-81602583D01*
X291161437Y-67602781D01*
X291161478Y-67602682D01*
X291161320Y-67602299D01*
X291161036Y-67602182D01*
X291160937Y-67602141D01*
X291160838Y-67602182D01*
X277161036Y-67602182D01*
X277160937Y-67602141D01*
X277160838Y-67602182D01*
X277160554Y-67602299D01*
X277160396Y-67602682D01*
X277160437Y-67602781D01*
X277160437Y-81602583D01*
X277160396Y-81602682D01*
X269730187Y-81602682D01*
X269730187Y-77127781D01*
X269730228Y-77127682D01*
X269730070Y-77127299D01*
X269729786Y-77127182D01*
X269729687Y-77127141D01*
X269729588Y-77127182D01*
X267360437Y-77127182D01*
X267352305Y-77123814D01*
X267348937Y-77115682D01*
X267348937Y-75701682D01*
X267352305Y-75693550D01*
X267360437Y-75690182D01*
X269729588Y-75690182D01*
X269729687Y-75690223D01*
X269730070Y-75690065D01*
X269730187Y-75689781D01*
X269730228Y-75689682D01*
X269730187Y-75689583D01*
X269730187Y-68689781D01*
X269730228Y-68689682D01*
X269730070Y-68689299D01*
X269729786Y-68689182D01*
X269729687Y-68689141D01*
X269729588Y-68689182D01*
X267360437Y-68689182D01*
X267352305Y-68685814D01*
X267348937Y-68677682D01*
X267348937Y-67605882D01*
X267348937Y-67602781D01*
X267348978Y-67602682D01*
X267348820Y-67602299D01*
X267348536Y-67602182D01*
X267348437Y-67602141D01*
X267348338Y-67602182D01*
X253348536Y-67602182D01*
X253348437Y-67602141D01*
X253348338Y-67602182D01*
X253348054Y-67602299D01*
X253347896Y-67602682D01*
X253347937Y-67602781D01*
X253347937Y-81602583D01*
X253347896Y-81602682D01*
X253347937Y-81602781D01*
X253348054Y-81603065D01*
X253348437Y-81603223D01*
X253348536Y-81603182D01*
X255717687Y-81603182D01*
X255725819Y-81606550D01*
X255729187Y-81614682D01*
X255729187Y-86640682D01*
X255725819Y-86648814D01*
X255717687Y-86652182D01*
X248298536Y-86652182D01*
X246204786Y-86652182D01*
X244766786Y-86652182D01*
X237766786Y-86652182D01*
X234298536Y-86652182D01*
X234298437Y-86652141D01*
X234298338Y-86652182D01*
X234298054Y-86652299D01*
X234297896Y-86652682D01*
X234297937Y-86652781D01*
X234297937Y-100652583D01*
X234297896Y-100652682D01*
X229248978Y-100652682D01*
X229248937Y-100652583D01*
X229248937Y-86652781D01*
X229248978Y-86652682D01*
X229248820Y-86652299D01*
X229248536Y-86652182D01*
X229248437Y-86652141D01*
X229248338Y-86652182D01*
X215248536Y-86652182D01*
X215248437Y-86652141D01*
X215248338Y-86652182D01*
X215248054Y-86652299D01*
X215247896Y-86652682D01*
X215247937Y-86652781D01*
X215247937Y-100652583D01*
X215247896Y-100652682D01*
X210198978Y-100652682D01*
X210198937Y-100652583D01*
X210198937Y-86652781D01*
X210198978Y-86652682D01*
X210198820Y-86652299D01*
X210198536Y-86652182D01*
X210198437Y-86652141D01*
X210198338Y-86652182D01*
X196198536Y-86652182D01*
X196198437Y-86652141D01*
X196198338Y-86652182D01*
X196198054Y-86652299D01*
X196197896Y-86652682D01*
X196197937Y-86652781D01*
X196197937Y-100652583D01*
X196197896Y-100652682D01*
X191148978Y-100652682D01*
X191148937Y-100652583D01*
X191148937Y-86652781D01*
X191148978Y-86652682D01*
X191148820Y-86652299D01*
X191148536Y-86652182D01*
X191148437Y-86652141D01*
X191148338Y-86652182D01*
X177148536Y-86652182D01*
X177148437Y-86652141D01*
X177148338Y-86652182D01*
X177148054Y-86652299D01*
X177147896Y-86652682D01*
X177147937Y-86652781D01*
X177147937Y-100652583D01*
X177147896Y-100652682D01*
X172098978Y-100652682D01*
X172098937Y-100652583D01*
X172098937Y-93001114D01*
X172204098Y-93001114D01*
X172204121Y-93001480D01*
X172223018Y-93301851D01*
X172223064Y-93302571D01*
X172279663Y-93599274D01*
X172373003Y-93886544D01*
X172501611Y-94159850D01*
X172501796Y-94160142D01*
X172501798Y-94160145D01*
X172661315Y-94411505D01*
X172663459Y-94414882D01*
X172663685Y-94415155D01*
X172663690Y-94415162D01*
X172855765Y-94647341D01*
X172855772Y-94647348D01*
X172855995Y-94647618D01*
X173076182Y-94854388D01*
X173320549Y-95031930D01*
X173585240Y-95177446D01*
X173866082Y-95288639D01*
X174158646Y-95363756D01*
X174458317Y-95401614D01*
X174760010Y-95401614D01*
X174760371Y-95401614D01*
X175060042Y-95363756D01*
X175352606Y-95288639D01*
X175633448Y-95177446D01*
X175898139Y-95031930D01*
X176142506Y-94854388D01*
X176362693Y-94647618D01*
X176555229Y-94414882D01*
X176717077Y-94159850D01*
X176845685Y-93886544D01*
X176939025Y-93599274D01*
X176995624Y-93302571D01*
X177014590Y-93001114D01*
X176995624Y-92699657D01*
X176939025Y-92402954D01*
X176845685Y-92115684D01*
X176717077Y-91842378D01*
X176555229Y-91587346D01*
X176365947Y-91358543D01*
X176362922Y-91354886D01*
X176362916Y-91354880D01*
X176362693Y-91354610D01*
X176142506Y-91147840D01*
X175898139Y-90970298D01*
X175897827Y-90970126D01*
X175897820Y-90970122D01*
X175633768Y-90824958D01*
X175633448Y-90824782D01*
X175633102Y-90824645D01*
X175633100Y-90824644D01*
X175352945Y-90713723D01*
X175352941Y-90713721D01*
X175352606Y-90713589D01*
X175352267Y-90713502D01*
X175352258Y-90713499D01*
X175060386Y-90638560D01*
X175060381Y-90638559D01*
X175060042Y-90638472D01*
X175059693Y-90638427D01*
X175059683Y-90638426D01*
X174760731Y-90600659D01*
X174760723Y-90600658D01*
X174760371Y-90600614D01*
X174458317Y-90600614D01*
X174457965Y-90600658D01*
X174457956Y-90600659D01*
X174159004Y-90638426D01*
X174158991Y-90638428D01*
X174158646Y-90638472D01*
X174158309Y-90638558D01*
X174158301Y-90638560D01*
X173866429Y-90713499D01*
X173866415Y-90713503D01*
X173866082Y-90713589D01*
X173865750Y-90713720D01*
X173865742Y-90713723D01*
X173585587Y-90824644D01*
X173585578Y-90824647D01*
X173585240Y-90824782D01*
X173584924Y-90824955D01*
X173584919Y-90824958D01*
X173320867Y-90970122D01*
X173320853Y-90970130D01*
X173320549Y-90970298D01*
X173320265Y-90970503D01*
X173320256Y-90970510D01*
X173076469Y-91147631D01*
X173076464Y-91147634D01*
X173076182Y-91147840D01*
X173075926Y-91148080D01*
X173075918Y-91148087D01*
X172856257Y-91354363D01*
X172856249Y-91354371D01*
X172855995Y-91354610D01*
X172855778Y-91354871D01*
X172855765Y-91354886D01*
X172663690Y-91587065D01*
X172663679Y-91587079D01*
X172663459Y-91587346D01*
X172663273Y-91587638D01*
X172663265Y-91587650D01*
X172501798Y-91842082D01*
X172501792Y-91842091D01*
X172501611Y-91842378D01*
X172373003Y-92115684D01*
X172372895Y-92116013D01*
X172372893Y-92116021D01*
X172279774Y-92402611D01*
X172279663Y-92402954D01*
X172279596Y-92403304D01*
X172279595Y-92403309D01*
X172223131Y-92699303D01*
X172223129Y-92699311D01*
X172223064Y-92699657D01*
X172223041Y-92700009D01*
X172223041Y-92700016D01*
X172204121Y-93000748D01*
X172204098Y-93001114D01*
X172098937Y-93001114D01*
X172098937Y-86652781D01*
X172098978Y-86652682D01*
X172098820Y-86652299D01*
X172098536Y-86652182D01*
X172098437Y-86652141D01*
X172098338Y-86652182D01*
X158098536Y-86652182D01*
X158098437Y-86652141D01*
X158098338Y-86652182D01*
X158098054Y-86652299D01*
X158097896Y-86652682D01*
X158097937Y-86652781D01*
X158097937Y-100652583D01*
X158097896Y-100652682D01*
X153048978Y-100652682D01*
X153048937Y-100652583D01*
X153048937Y-86652781D01*
X153048978Y-86652682D01*
X153048820Y-86652299D01*
X153048536Y-86652182D01*
X153048437Y-86652141D01*
X153048338Y-86652182D01*
X139048536Y-86652182D01*
X139048437Y-86652141D01*
X139048338Y-86652182D01*
X139048054Y-86652299D01*
X139047896Y-86652682D01*
X139047937Y-86652781D01*
X139047937Y-100652583D01*
X139047896Y-100652682D01*
X133998978Y-100652682D01*
X133998937Y-100652583D01*
X133998937Y-86652781D01*
X133998978Y-86652682D01*
X133998820Y-86652299D01*
X133998536Y-86652182D01*
X133998437Y-86652141D01*
X133998338Y-86652182D01*
X119998536Y-86652182D01*
X119998437Y-86652141D01*
X119998338Y-86652182D01*
X119998054Y-86652299D01*
X119997896Y-86652682D01*
X119997937Y-86652781D01*
X119997937Y-100652583D01*
X119997896Y-100652682D01*
X114948978Y-100652682D01*
X114948937Y-100652583D01*
X114948937Y-86652781D01*
X114948978Y-86652682D01*
X114948820Y-86652299D01*
X114948536Y-86652182D01*
X114948437Y-86652141D01*
X114948338Y-86652182D01*
X100948536Y-86652182D01*
X100948437Y-86652141D01*
X100948338Y-86652182D01*
X100948054Y-86652299D01*
X100947896Y-86652682D01*
X100947937Y-86652781D01*
X100947937Y-100652583D01*
X100947896Y-100652682D01*
X95898978Y-100652682D01*
X95898937Y-100652583D01*
X95898937Y-86652781D01*
X95898978Y-86652682D01*
X95898820Y-86652299D01*
X95898536Y-86652182D01*
X95898437Y-86652141D01*
X95898338Y-86652182D01*
X81898536Y-86652182D01*
X81898437Y-86652141D01*
X81898338Y-86652182D01*
X81898054Y-86652299D01*
X81897896Y-86652682D01*
X81897937Y-86652781D01*
X81897937Y-100652583D01*
X81897896Y-100652682D01*
X69705228Y-100652682D01*
X69705187Y-100652583D01*
X69705187Y-86652781D01*
X69705228Y-86652682D01*
X69705070Y-86652299D01*
X69704786Y-86652182D01*
X69704687Y-86652141D01*
X69704588Y-86652182D01*
X64942286Y-86652182D01*
X55704786Y-86652182D01*
X50942287Y-86652182D01*
X50942188Y-86652141D01*
X50942088Y-86652182D01*
X50941804Y-86652299D01*
X50941646Y-86652682D01*
X50941686Y-86652780D01*
X50941683Y-86654764D01*
X50941683Y-86654767D01*
X50927679Y-99565583D01*
X50926500Y-100652582D01*
X50926459Y-100652682D01*
X46559981Y-100652682D01*
X46554743Y-81602682D01*
X53322896Y-81602682D01*
X53322937Y-81602781D01*
X53323054Y-81603065D01*
X53323437Y-81603223D01*
X53323536Y-81603182D01*
X67323338Y-81603182D01*
X67323437Y-81603223D01*
X67323820Y-81603065D01*
X67323937Y-81602781D01*
X67323978Y-81602682D01*
X77135396Y-81602682D01*
X77135437Y-81602781D01*
X77135554Y-81603065D01*
X77135937Y-81603223D01*
X77136036Y-81603182D01*
X91135838Y-81603182D01*
X91135937Y-81603223D01*
X91136320Y-81603065D01*
X91136437Y-81602781D01*
X91136478Y-81602682D01*
X96185396Y-81602682D01*
X96185437Y-81602781D01*
X96185554Y-81603065D01*
X96185937Y-81603223D01*
X96186036Y-81603182D01*
X110185838Y-81603182D01*
X110185937Y-81603223D01*
X110186320Y-81603065D01*
X110186437Y-81602781D01*
X110186478Y-81602682D01*
X115235396Y-81602682D01*
X115235437Y-81602781D01*
X115235554Y-81603065D01*
X115235937Y-81603223D01*
X115236036Y-81603182D01*
X129235838Y-81603182D01*
X129235937Y-81603223D01*
X129236320Y-81603065D01*
X129236437Y-81602781D01*
X129236478Y-81602682D01*
X134285396Y-81602682D01*
X134285437Y-81602781D01*
X134285554Y-81603065D01*
X134285937Y-81603223D01*
X134286036Y-81603182D01*
X148285838Y-81603182D01*
X148285937Y-81603223D01*
X148286320Y-81603065D01*
X148286437Y-81602781D01*
X148286478Y-81602682D01*
X153335396Y-81602682D01*
X153335437Y-81602781D01*
X153335554Y-81603065D01*
X153335937Y-81603223D01*
X153336036Y-81603182D01*
X167335838Y-81603182D01*
X167335937Y-81603223D01*
X167336320Y-81603065D01*
X167336437Y-81602781D01*
X167336478Y-81602682D01*
X172385396Y-81602682D01*
X172385437Y-81602781D01*
X172385554Y-81603065D01*
X172385937Y-81603223D01*
X172386036Y-81603182D01*
X186385838Y-81603182D01*
X186385937Y-81603223D01*
X186386320Y-81603065D01*
X186386437Y-81602781D01*
X186386478Y-81602682D01*
X191435396Y-81602682D01*
X191435437Y-81602781D01*
X191435554Y-81603065D01*
X191435937Y-81603223D01*
X191436036Y-81603182D01*
X205435838Y-81603182D01*
X205435937Y-81603223D01*
X205436320Y-81603065D01*
X205436437Y-81602781D01*
X205436478Y-81602682D01*
X210485396Y-81602682D01*
X210485437Y-81602781D01*
X210485554Y-81603065D01*
X210485937Y-81603223D01*
X210486036Y-81603182D01*
X224485838Y-81603182D01*
X224485937Y-81603223D01*
X224486320Y-81603065D01*
X224486437Y-81602781D01*
X224486478Y-81602682D01*
X229535396Y-81602682D01*
X229535437Y-81602781D01*
X229535554Y-81603065D01*
X229535937Y-81603223D01*
X229536036Y-81603182D01*
X243535838Y-81603182D01*
X243535937Y-81603223D01*
X243536320Y-81603065D01*
X243536437Y-81602781D01*
X243536478Y-81602682D01*
X243536437Y-81602583D01*
X243536437Y-67602781D01*
X243536478Y-67602682D01*
X243536320Y-67602299D01*
X243536036Y-67602182D01*
X243535937Y-67602141D01*
X243535838Y-67602182D01*
X229536036Y-67602182D01*
X229535937Y-67602141D01*
X229535838Y-67602182D01*
X229535554Y-67602299D01*
X229535396Y-67602682D01*
X229535437Y-67602781D01*
X229535437Y-81602583D01*
X229535396Y-81602682D01*
X224486478Y-81602682D01*
X224486437Y-81602583D01*
X224486437Y-67602781D01*
X224486478Y-67602682D01*
X224486320Y-67602299D01*
X224486036Y-67602182D01*
X224485937Y-67602141D01*
X224485838Y-67602182D01*
X210486036Y-67602182D01*
X210485937Y-67602141D01*
X210485838Y-67602182D01*
X210485554Y-67602299D01*
X210485396Y-67602682D01*
X210485437Y-67602781D01*
X210485437Y-81602583D01*
X210485396Y-81602682D01*
X205436478Y-81602682D01*
X205436437Y-81602583D01*
X205436437Y-67602781D01*
X205436478Y-67602682D01*
X205436320Y-67602299D01*
X205436036Y-67602182D01*
X205435937Y-67602141D01*
X205435838Y-67602182D01*
X191436036Y-67602182D01*
X191435937Y-67602141D01*
X191435838Y-67602182D01*
X191435554Y-67602299D01*
X191435396Y-67602682D01*
X191435437Y-67602781D01*
X191435437Y-81602583D01*
X191435396Y-81602682D01*
X186386478Y-81602682D01*
X186386437Y-81602583D01*
X186386437Y-67602781D01*
X186386478Y-67602682D01*
X186386320Y-67602299D01*
X186386036Y-67602182D01*
X186385937Y-67602141D01*
X186385838Y-67602182D01*
X172386036Y-67602182D01*
X172385937Y-67602141D01*
X172385838Y-67602182D01*
X172385554Y-67602299D01*
X172385396Y-67602682D01*
X172385437Y-67602781D01*
X172385437Y-81602583D01*
X172385396Y-81602682D01*
X167336478Y-81602682D01*
X167336437Y-81602583D01*
X167336437Y-67602781D01*
X167336478Y-67602682D01*
X167336320Y-67602299D01*
X167336036Y-67602182D01*
X167335937Y-67602141D01*
X167335838Y-67602182D01*
X153336036Y-67602182D01*
X153335937Y-67602141D01*
X153335838Y-67602182D01*
X153335554Y-67602299D01*
X153335396Y-67602682D01*
X153335437Y-67602781D01*
X153335437Y-81602583D01*
X153335396Y-81602682D01*
X148286478Y-81602682D01*
X148286437Y-81602583D01*
X148286437Y-67602781D01*
X148286478Y-67602682D01*
X148286320Y-67602299D01*
X148286036Y-67602182D01*
X148285937Y-67602141D01*
X148285838Y-67602182D01*
X134286036Y-67602182D01*
X134285937Y-67602141D01*
X134285838Y-67602182D01*
X134285554Y-67602299D01*
X134285396Y-67602682D01*
X134285437Y-67602781D01*
X134285437Y-81602583D01*
X134285396Y-81602682D01*
X129236478Y-81602682D01*
X129236437Y-81602583D01*
X129236437Y-67602781D01*
X129236478Y-67602682D01*
X129236320Y-67602299D01*
X129236036Y-67602182D01*
X129235937Y-67602141D01*
X129235838Y-67602182D01*
X115236036Y-67602182D01*
X115235937Y-67602141D01*
X115235838Y-67602182D01*
X115235554Y-67602299D01*
X115235396Y-67602682D01*
X115235437Y-67602781D01*
X115235437Y-81602583D01*
X115235396Y-81602682D01*
X110186478Y-81602682D01*
X110186437Y-81602583D01*
X110186437Y-67602781D01*
X110186478Y-67602682D01*
X110186320Y-67602299D01*
X110186036Y-67602182D01*
X110185937Y-67602141D01*
X110185838Y-67602182D01*
X96186036Y-67602182D01*
X96185937Y-67602141D01*
X96185838Y-67602182D01*
X96185554Y-67602299D01*
X96185396Y-67602682D01*
X96185437Y-67602781D01*
X96185437Y-81602583D01*
X96185396Y-81602682D01*
X91136478Y-81602682D01*
X91136437Y-81602583D01*
X91136437Y-67602781D01*
X91136478Y-67602682D01*
X91136320Y-67602299D01*
X91136036Y-67602182D01*
X91135937Y-67602141D01*
X91135838Y-67602182D01*
X77136036Y-67602182D01*
X77135937Y-67602141D01*
X77135838Y-67602182D01*
X77135554Y-67602299D01*
X77135396Y-67602682D01*
X77135437Y-67602781D01*
X77135437Y-81602583D01*
X77135396Y-81602682D01*
X67323978Y-81602682D01*
X67323937Y-81602583D01*
X67323937Y-73880935D01*
X69186627Y-73880935D01*
X69186650Y-73881301D01*
X69205547Y-74181672D01*
X69205593Y-74182392D01*
X69262192Y-74479095D01*
X69355532Y-74766365D01*
X69484140Y-75039671D01*
X69484325Y-75039963D01*
X69484327Y-75039966D01*
X69643844Y-75291326D01*
X69645988Y-75294703D01*
X69646214Y-75294976D01*
X69646219Y-75294983D01*
X69838294Y-75527162D01*
X69838301Y-75527169D01*
X69838524Y-75527439D01*
X70058711Y-75734209D01*
X70303078Y-75911751D01*
X70567769Y-76057267D01*
X70848611Y-76168460D01*
X71141175Y-76243577D01*
X71440846Y-76281435D01*
X71742539Y-76281435D01*
X71742900Y-76281435D01*
X72042571Y-76243577D01*
X72335135Y-76168460D01*
X72615977Y-76057267D01*
X72880668Y-75911751D01*
X73125035Y-75734209D01*
X73345222Y-75527439D01*
X73537758Y-75294703D01*
X73699606Y-75039671D01*
X73828214Y-74766365D01*
X73921554Y-74479095D01*
X73978153Y-74182392D01*
X73997119Y-73880935D01*
X73978153Y-73579478D01*
X73921554Y-73282775D01*
X73828214Y-72995505D01*
X73699606Y-72722199D01*
X73537758Y-72467167D01*
X73348476Y-72238364D01*
X73345451Y-72234707D01*
X73345445Y-72234701D01*
X73345222Y-72234431D01*
X73125035Y-72027661D01*
X72880668Y-71850119D01*
X72880356Y-71849947D01*
X72880349Y-71849943D01*
X72616297Y-71704779D01*
X72615977Y-71704603D01*
X72615631Y-71704466D01*
X72615629Y-71704465D01*
X72335474Y-71593544D01*
X72335470Y-71593542D01*
X72335135Y-71593410D01*
X72334796Y-71593323D01*
X72334787Y-71593320D01*
X72042915Y-71518381D01*
X72042910Y-71518380D01*
X72042571Y-71518293D01*
X72042222Y-71518248D01*
X72042212Y-71518247D01*
X71743260Y-71480480D01*
X71743252Y-71480479D01*
X71742900Y-71480435D01*
X71440846Y-71480435D01*
X71440494Y-71480479D01*
X71440485Y-71480480D01*
X71141533Y-71518247D01*
X71141520Y-71518249D01*
X71141175Y-71518293D01*
X71140838Y-71518379D01*
X71140830Y-71518381D01*
X70848958Y-71593320D01*
X70848944Y-71593324D01*
X70848611Y-71593410D01*
X70848279Y-71593541D01*
X70848271Y-71593544D01*
X70568116Y-71704465D01*
X70568107Y-71704468D01*
X70567769Y-71704603D01*
X70567453Y-71704776D01*
X70567448Y-71704779D01*
X70303396Y-71849943D01*
X70303382Y-71849951D01*
X70303078Y-71850119D01*
X70302794Y-71850324D01*
X70302785Y-71850331D01*
X70058998Y-72027452D01*
X70058993Y-72027455D01*
X70058711Y-72027661D01*
X70058455Y-72027901D01*
X70058447Y-72027908D01*
X69838786Y-72234184D01*
X69838778Y-72234192D01*
X69838524Y-72234431D01*
X69838307Y-72234692D01*
X69838294Y-72234707D01*
X69646219Y-72466886D01*
X69646208Y-72466900D01*
X69645988Y-72467167D01*
X69645802Y-72467459D01*
X69645794Y-72467471D01*
X69484327Y-72721903D01*
X69484321Y-72721912D01*
X69484140Y-72722199D01*
X69355532Y-72995505D01*
X69355424Y-72995834D01*
X69355422Y-72995842D01*
X69262303Y-73282432D01*
X69262192Y-73282775D01*
X69262125Y-73283125D01*
X69262124Y-73283130D01*
X69205660Y-73579124D01*
X69205658Y-73579132D01*
X69205593Y-73579478D01*
X69205570Y-73579830D01*
X69205570Y-73579837D01*
X69186650Y-73880569D01*
X69186627Y-73880935D01*
X67323937Y-73880935D01*
X67323937Y-67602781D01*
X67323978Y-67602682D01*
X67323820Y-67602299D01*
X67323536Y-67602182D01*
X67323437Y-67602141D01*
X67323338Y-67602182D01*
X53323536Y-67602182D01*
X53323437Y-67602141D01*
X53323338Y-67602182D01*
X53323054Y-67602299D01*
X53322896Y-67602682D01*
X53322937Y-67602781D01*
X53322937Y-81602583D01*
X53322896Y-81602682D01*
X46554743Y-81602682D01*
X46549506Y-62552682D01*
X48560396Y-62552682D01*
X48560437Y-62552781D01*
X48560554Y-62553065D01*
X48560937Y-62553223D01*
X48561036Y-62553182D01*
X62560838Y-62553182D01*
X62560937Y-62553223D01*
X62561320Y-62553065D01*
X62561437Y-62552781D01*
X62561478Y-62552682D01*
X67610396Y-62552682D01*
X67610437Y-62552781D01*
X67610554Y-62553065D01*
X67610937Y-62553223D01*
X67611036Y-62553182D01*
X81610838Y-62553182D01*
X81610937Y-62553223D01*
X81611320Y-62553065D01*
X81611437Y-62552781D01*
X81611478Y-62552682D01*
X86660396Y-62552682D01*
X86660437Y-62552781D01*
X86660554Y-62553065D01*
X86660937Y-62553223D01*
X86661036Y-62553182D01*
X100660838Y-62553182D01*
X100660937Y-62553223D01*
X100661320Y-62553065D01*
X100661437Y-62552781D01*
X100661478Y-62552682D01*
X105710396Y-62552682D01*
X105710437Y-62552781D01*
X105710554Y-62553065D01*
X105710937Y-62553223D01*
X105711036Y-62553182D01*
X119710838Y-62553182D01*
X119710937Y-62553223D01*
X119711320Y-62553065D01*
X119711437Y-62552781D01*
X119711478Y-62552682D01*
X124760396Y-62552682D01*
X124760437Y-62552781D01*
X124760554Y-62553065D01*
X124760937Y-62553223D01*
X124761036Y-62553182D01*
X138760838Y-62553182D01*
X138760937Y-62553223D01*
X138761320Y-62553065D01*
X138761437Y-62552781D01*
X138761478Y-62552682D01*
X143810396Y-62552682D01*
X143810437Y-62552781D01*
X143810554Y-62553065D01*
X143810937Y-62553223D01*
X143811036Y-62553182D01*
X157810838Y-62553182D01*
X157810937Y-62553223D01*
X157811320Y-62553065D01*
X157811437Y-62552781D01*
X157811478Y-62552682D01*
X162860396Y-62552682D01*
X162860437Y-62552781D01*
X162860554Y-62553065D01*
X162860937Y-62553223D01*
X162861036Y-62553182D01*
X176860838Y-62553182D01*
X176860937Y-62553223D01*
X176861320Y-62553065D01*
X176861437Y-62552781D01*
X176861478Y-62552682D01*
X181910396Y-62552682D01*
X181910437Y-62552781D01*
X181910554Y-62553065D01*
X181910937Y-62553223D01*
X181911036Y-62553182D01*
X195910838Y-62553182D01*
X195910937Y-62553223D01*
X195911320Y-62553065D01*
X195911437Y-62552781D01*
X195911478Y-62552682D01*
X200960396Y-62552682D01*
X200960437Y-62552781D01*
X200960554Y-62553065D01*
X200960937Y-62553223D01*
X200961036Y-62553182D01*
X214960838Y-62553182D01*
X214960937Y-62553223D01*
X214961320Y-62553065D01*
X214961437Y-62552781D01*
X214961478Y-62552682D01*
X220010396Y-62552682D01*
X220010437Y-62552781D01*
X220010554Y-62553065D01*
X220010937Y-62553223D01*
X220011036Y-62553182D01*
X234010838Y-62553182D01*
X234010937Y-62553223D01*
X234011320Y-62553065D01*
X234011437Y-62552781D01*
X234011478Y-62552682D01*
X239060396Y-62552682D01*
X239060437Y-62552781D01*
X239060554Y-62553065D01*
X239060937Y-62553223D01*
X239061036Y-62553182D01*
X240135937Y-62553182D01*
X240144069Y-62556550D01*
X240147437Y-62564682D01*
X240147437Y-63552583D01*
X240147396Y-63552682D01*
X240147437Y-63552781D01*
X240147554Y-63553065D01*
X240147937Y-63553223D01*
X240148036Y-63553182D01*
X247147838Y-63553182D01*
X247147937Y-63553223D01*
X247148320Y-63553065D01*
X247148437Y-63552781D01*
X247148478Y-63552682D01*
X247148437Y-63552583D01*
X247148437Y-62564682D01*
X247151805Y-62556550D01*
X247159937Y-62553182D01*
X248585838Y-62553182D01*
X248586036Y-62553182D01*
X253060838Y-62553182D01*
X253061036Y-62553182D01*
X258110838Y-62553182D01*
X258111036Y-62553182D01*
X262585838Y-62553182D01*
X262586036Y-62553182D01*
X264011937Y-62553182D01*
X264020069Y-62556550D01*
X264023437Y-62564682D01*
X264023437Y-63552583D01*
X264023396Y-63552682D01*
X264023437Y-63552781D01*
X264023554Y-63553065D01*
X264023937Y-63553223D01*
X264024036Y-63553182D01*
X271023838Y-63553182D01*
X271023937Y-63553223D01*
X271024320Y-63553065D01*
X271024437Y-63552781D01*
X271024478Y-63552682D01*
X271024437Y-63552583D01*
X271024437Y-62564682D01*
X271027805Y-62556550D01*
X271035937Y-62553182D01*
X272110838Y-62553182D01*
X272110937Y-62553223D01*
X272111320Y-62553065D01*
X272111437Y-62552781D01*
X272111478Y-62552682D01*
X277160396Y-62552682D01*
X277160437Y-62552781D01*
X277160554Y-62553065D01*
X277160937Y-62553223D01*
X277161036Y-62553182D01*
X291160838Y-62553182D01*
X291160937Y-62553223D01*
X291161320Y-62553065D01*
X291161437Y-62552781D01*
X291161478Y-62552682D01*
X296210396Y-62552682D01*
X296210437Y-62552781D01*
X296210554Y-62553065D01*
X296210937Y-62553223D01*
X296211036Y-62553182D01*
X310210838Y-62553182D01*
X310210937Y-62553223D01*
X310211320Y-62553065D01*
X310211437Y-62552781D01*
X310211478Y-62552682D01*
X315260396Y-62552682D01*
X315260437Y-62552781D01*
X315260554Y-62553065D01*
X315260937Y-62553223D01*
X315261036Y-62553182D01*
X329260838Y-62553182D01*
X329260937Y-62553223D01*
X329261320Y-62553065D01*
X329261437Y-62552781D01*
X329261478Y-62552682D01*
X329261437Y-62552583D01*
X329261437Y-48552781D01*
X329261478Y-48552682D01*
X329261320Y-48552299D01*
X329261036Y-48552182D01*
X329260937Y-48552141D01*
X329260838Y-48552182D01*
X315261036Y-48552182D01*
X315260937Y-48552141D01*
X315260838Y-48552182D01*
X315260554Y-48552299D01*
X315260396Y-48552682D01*
X315260437Y-48552781D01*
X315260437Y-62552583D01*
X315260396Y-62552682D01*
X310211478Y-62552682D01*
X310211437Y-62552583D01*
X310211437Y-48552781D01*
X310211478Y-48552682D01*
X310211320Y-48552299D01*
X310211036Y-48552182D01*
X310210937Y-48552141D01*
X310210838Y-48552182D01*
X296211036Y-48552182D01*
X296210937Y-48552141D01*
X296210838Y-48552182D01*
X296210554Y-48552299D01*
X296210396Y-48552682D01*
X296210437Y-48552781D01*
X296210437Y-62552583D01*
X296210396Y-62552682D01*
X291161478Y-62552682D01*
X291161437Y-62552583D01*
X291161437Y-48552781D01*
X291161478Y-48552682D01*
X291161320Y-48552299D01*
X291161036Y-48552182D01*
X291160937Y-48552141D01*
X291160838Y-48552182D01*
X277161036Y-48552182D01*
X277160937Y-48552141D01*
X277160838Y-48552182D01*
X277160554Y-48552299D01*
X277160396Y-48552682D01*
X277160437Y-48552781D01*
X277160437Y-62552583D01*
X277160396Y-62552682D01*
X272111478Y-62552682D01*
X272111437Y-62552583D01*
X272111437Y-48552781D01*
X272111478Y-48552682D01*
X272111320Y-48552299D01*
X272111036Y-48552182D01*
X272110937Y-48552141D01*
X272110838Y-48552182D01*
X271024036Y-48552182D01*
X264024036Y-48552182D01*
X262586036Y-48552182D01*
X258111036Y-48552182D01*
X253061036Y-48552182D01*
X248586036Y-48552182D01*
X247148036Y-48552182D01*
X240148036Y-48552182D01*
X239061036Y-48552182D01*
X239060937Y-48552141D01*
X239060838Y-48552182D01*
X239060554Y-48552299D01*
X239060396Y-48552682D01*
X239060437Y-48552781D01*
X239060437Y-62552583D01*
X239060396Y-62552682D01*
X234011478Y-62552682D01*
X234011437Y-62552583D01*
X234011437Y-48552781D01*
X234011478Y-48552682D01*
X234011320Y-48552299D01*
X234011036Y-48552182D01*
X234010937Y-48552141D01*
X234010838Y-48552182D01*
X220011036Y-48552182D01*
X220010937Y-48552141D01*
X220010838Y-48552182D01*
X220010554Y-48552299D01*
X220010396Y-48552682D01*
X220010437Y-48552781D01*
X220010437Y-62552583D01*
X220010396Y-62552682D01*
X214961478Y-62552682D01*
X214961437Y-62552583D01*
X214961437Y-48552781D01*
X214961478Y-48552682D01*
X214961320Y-48552299D01*
X214961036Y-48552182D01*
X214960937Y-48552141D01*
X214960838Y-48552182D01*
X200961036Y-48552182D01*
X200960937Y-48552141D01*
X200960838Y-48552182D01*
X200960554Y-48552299D01*
X200960396Y-48552682D01*
X200960437Y-48552781D01*
X200960437Y-62552583D01*
X200960396Y-62552682D01*
X195911478Y-62552682D01*
X195911437Y-62552583D01*
X195911437Y-48552781D01*
X195911478Y-48552682D01*
X195911320Y-48552299D01*
X195911036Y-48552182D01*
X195910937Y-48552141D01*
X195910838Y-48552182D01*
X181911036Y-48552182D01*
X181910937Y-48552141D01*
X181910838Y-48552182D01*
X181910554Y-48552299D01*
X181910396Y-48552682D01*
X181910437Y-48552781D01*
X181910437Y-62552583D01*
X181910396Y-62552682D01*
X176861478Y-62552682D01*
X176861437Y-62552583D01*
X176861437Y-48552781D01*
X176861478Y-48552682D01*
X176861320Y-48552299D01*
X176861036Y-48552182D01*
X176860937Y-48552141D01*
X176860838Y-48552182D01*
X162861036Y-48552182D01*
X162860937Y-48552141D01*
X162860838Y-48552182D01*
X162860554Y-48552299D01*
X162860396Y-48552682D01*
X162860437Y-48552781D01*
X162860437Y-62552583D01*
X162860396Y-62552682D01*
X157811478Y-62552682D01*
X157811437Y-62552583D01*
X157811437Y-48552781D01*
X157811478Y-48552682D01*
X157811320Y-48552299D01*
X157811036Y-48552182D01*
X157810937Y-48552141D01*
X157810838Y-48552182D01*
X143811036Y-48552182D01*
X143810937Y-48552141D01*
X143810838Y-48552182D01*
X143810554Y-48552299D01*
X143810396Y-48552682D01*
X143810437Y-48552781D01*
X143810437Y-62552583D01*
X143810396Y-62552682D01*
X138761478Y-62552682D01*
X138761437Y-62552583D01*
X138761437Y-48552781D01*
X138761478Y-48552682D01*
X138761320Y-48552299D01*
X138761036Y-48552182D01*
X138760937Y-48552141D01*
X138760838Y-48552182D01*
X124761036Y-48552182D01*
X124760937Y-48552141D01*
X124760838Y-48552182D01*
X124760554Y-48552299D01*
X124760396Y-48552682D01*
X124760437Y-48552781D01*
X124760437Y-62552583D01*
X124760396Y-62552682D01*
X119711478Y-62552682D01*
X119711437Y-62552583D01*
X119711437Y-48552781D01*
X119711478Y-48552682D01*
X119711320Y-48552299D01*
X119711036Y-48552182D01*
X119710937Y-48552141D01*
X119710838Y-48552182D01*
X105711036Y-48552182D01*
X105710937Y-48552141D01*
X105710838Y-48552182D01*
X105710554Y-48552299D01*
X105710396Y-48552682D01*
X105710437Y-48552781D01*
X105710437Y-62552583D01*
X105710396Y-62552682D01*
X100661478Y-62552682D01*
X100661437Y-62552583D01*
X100661437Y-48552781D01*
X100661478Y-48552682D01*
X100661320Y-48552299D01*
X100661036Y-48552182D01*
X100660937Y-48552141D01*
X100660838Y-48552182D01*
X86661036Y-48552182D01*
X86660937Y-48552141D01*
X86660838Y-48552182D01*
X86660554Y-48552299D01*
X86660396Y-48552682D01*
X86660437Y-48552781D01*
X86660437Y-62552583D01*
X86660396Y-62552682D01*
X81611478Y-62552682D01*
X81611437Y-62552583D01*
X81611437Y-48552781D01*
X81611478Y-48552682D01*
X81611320Y-48552299D01*
X81611036Y-48552182D01*
X81610937Y-48552141D01*
X81610838Y-48552182D01*
X67611036Y-48552182D01*
X67610937Y-48552141D01*
X67610838Y-48552182D01*
X67610554Y-48552299D01*
X67610396Y-48552682D01*
X67610437Y-48552781D01*
X67610437Y-62552583D01*
X67610396Y-62552682D01*
X62561478Y-62552682D01*
X62561437Y-62552583D01*
X62561437Y-48552781D01*
X62561478Y-48552682D01*
X62561320Y-48552299D01*
X62561036Y-48552182D01*
X62560937Y-48552141D01*
X62560838Y-48552182D01*
X48561036Y-48552182D01*
X48560937Y-48552141D01*
X48560838Y-48552182D01*
X48560554Y-48552299D01*
X48560396Y-48552682D01*
X48560437Y-48552781D01*
X48560437Y-62552583D01*
X48560396Y-62552682D01*
X46549506Y-62552682D01*
X46545522Y-48062346D01*
X46545547Y-48061592D01*
X46550977Y-47978642D01*
X46551007Y-47978580D01*
X46550981Y-47978579D01*
X46550992Y-47978417D01*
X46564220Y-47793335D01*
X46564407Y-47791947D01*
X46588093Y-47672803D01*
X46620122Y-47525497D01*
X46620463Y-47524265D01*
X46661695Y-47402746D01*
X46661712Y-47402699D01*
X46712006Y-47267796D01*
X46712451Y-47266763D01*
X46770353Y-47149299D01*
X46770518Y-47148983D01*
X46838176Y-47025023D01*
X46838687Y-47024179D01*
X46912113Y-46914241D01*
X46912398Y-46913838D01*
X46996328Y-46801669D01*
X46996847Y-46801030D01*
X47084329Y-46701229D01*
X47084778Y-46700749D01*
X47183568Y-46601908D01*
X47184059Y-46601449D01*
X47283838Y-46513899D01*
X47284460Y-46513394D01*
X47396571Y-46429420D01*
X47396975Y-46429133D01*
X47506887Y-46355645D01*
X47507710Y-46355146D01*
X47631696Y-46287393D01*
X47631983Y-46287244D01*
X47749397Y-46229294D01*
X47750444Y-46228842D01*
X47885266Y-46178501D01*
X47885436Y-46178440D01*
X48006860Y-46137173D01*
X48008091Y-46136831D01*
X48155458Y-46104713D01*
X48274508Y-46080984D01*
X48275906Y-46080795D01*
X48461769Y-46067422D01*
X48461843Y-46067417D01*
X48461906Y-46067427D01*
X48461906Y-46067413D01*
X48544068Y-46061992D01*
X48544824Y-46061968D01*
X329244526Y-46062477D01*
G37*
%TD.AperFunction*%
M02*
