%TF.GenerationSoftware,KiCad,Pcbnew,(7.0.0)*%
%TF.CreationDate,2024-03-13T18:16:39+01:00*%
%TF.ProjectId,qazimodo,71617a69-6d6f-4646-9f2e-6b696361645f,rev?*%
%TF.SameCoordinates,Original*%
%TF.FileFunction,Legend,Bot*%
%TF.FilePolarity,Positive*%
%FSLAX46Y46*%
G04 Gerber Fmt 4.6, Leading zero omitted, Abs format (unit mm)*
G04 Created by KiCad (PCBNEW (7.0.0)) date 2024-03-13 18:16:39*
%MOMM*%
%LPD*%
G01*
G04 APERTURE LIST*
G04 Aperture macros list*
%AMRoundRect*
0 Rectangle with rounded corners*
0 $1 Rounding radius*
0 $2 $3 $4 $5 $6 $7 $8 $9 X,Y pos of 4 corners*
0 Add a 4 corners polygon primitive as box body*
4,1,4,$2,$3,$4,$5,$6,$7,$8,$9,$2,$3,0*
0 Add four circle primitives for the rounded corners*
1,1,$1+$1,$2,$3*
1,1,$1+$1,$4,$5*
1,1,$1+$1,$6,$7*
1,1,$1+$1,$8,$9*
0 Add four rect primitives between the rounded corners*
20,1,$1+$1,$2,$3,$4,$5,0*
20,1,$1+$1,$4,$5,$6,$7,0*
20,1,$1+$1,$6,$7,$8,$9,0*
20,1,$1+$1,$8,$9,$2,$3,0*%
G04 Aperture macros list end*
%ADD10C,0.120000*%
%ADD11C,0.150000*%
%ADD12C,1.750000*%
%ADD13C,3.987800*%
%ADD14C,2.250000*%
%ADD15RoundRect,0.275000X0.625000X0.275000X-0.625000X0.275000X-0.625000X-0.275000X0.625000X-0.275000X0*%
%ADD16RoundRect,0.150000X0.587500X0.150000X-0.587500X0.150000X-0.587500X-0.150000X0.587500X-0.150000X0*%
%ADD17RoundRect,0.075000X0.075000X-0.662500X0.075000X0.662500X-0.075000X0.662500X-0.075000X-0.662500X0*%
%ADD18RoundRect,0.075000X0.662500X-0.075000X0.662500X0.075000X-0.662500X0.075000X-0.662500X-0.075000X0*%
%ADD19RoundRect,0.135000X-0.185000X0.135000X-0.185000X-0.135000X0.185000X-0.135000X0.185000X0.135000X0*%
%ADD20RoundRect,0.140000X0.170000X-0.140000X0.170000X0.140000X-0.170000X0.140000X-0.170000X-0.140000X0*%
%ADD21RoundRect,0.140000X-0.170000X0.140000X-0.170000X-0.140000X0.170000X-0.140000X0.170000X0.140000X0*%
%ADD22C,3.048000*%
%ADD23C,4.000000*%
%ADD24C,2.200000*%
%ADD25C,1.000000*%
%ADD26C,7.001300*%
%ADD27C,7.000240*%
%ADD28R,1.100000X1.100000*%
%ADD29R,1.800000X1.200000*%
%ADD30R,1.550000X0.600000*%
%ADD31RoundRect,0.135000X0.185000X-0.135000X0.185000X0.135000X-0.185000X0.135000X-0.185000X-0.135000X0*%
%ADD32RoundRect,0.250000X-0.625000X0.375000X-0.625000X-0.375000X0.625000X-0.375000X0.625000X0.375000X0*%
%ADD33C,0.650000*%
%ADD34R,0.600000X1.450000*%
%ADD35R,0.300000X1.450000*%
%ADD36O,1.000000X1.600000*%
%ADD37O,1.000000X2.100000*%
%ADD38R,0.700000X0.600000*%
%ADD39R,0.700000X1.000000*%
G04 APERTURE END LIST*
D10*
%TO.C,SW1*%
X107495000Y-83590000D02*
X107495000Y-81510000D01*
X106225000Y-79830000D02*
X106715000Y-80320000D01*
X106225000Y-79830000D02*
X103325000Y-79830000D01*
X106225000Y-85270000D02*
X106715000Y-84780000D01*
X106225000Y-85270000D02*
X103325000Y-85270000D01*
X103325000Y-79830000D02*
X102835000Y-80320000D01*
X103325000Y-85270000D02*
X102835000Y-84780000D01*
X102055000Y-83590000D02*
X102055000Y-81510000D01*
%TO.C,U3*%
X65487500Y-82522500D02*
X66137500Y-82522500D01*
X65487500Y-79402500D02*
X67162500Y-79402500D01*
X65487500Y-82522500D02*
X64837500Y-82522500D01*
X65487500Y-79402500D02*
X64837500Y-79402500D01*
%TO.C,U2*%
X78794000Y-82565000D02*
X78794000Y-82115000D01*
X71574000Y-89335000D02*
X72024000Y-89335000D01*
X78794000Y-89335000D02*
X78344000Y-89335000D01*
X71574000Y-82565000D02*
X71574000Y-82115000D01*
X71574000Y-82115000D02*
X72024000Y-82115000D01*
X78794000Y-88885000D02*
X78794000Y-89335000D01*
X71574000Y-88885000D02*
X71574000Y-89335000D01*
X78344000Y-89335000D02*
X78344000Y-90625000D01*
X78794000Y-82115000D02*
X78344000Y-82115000D01*
%TO.C,R5*%
X98838750Y-83983859D02*
X98838750Y-84291141D01*
X99598750Y-83983859D02*
X99598750Y-84291141D01*
%TO.C,C17*%
X68359404Y-81085980D02*
X68359404Y-80870308D01*
X67639404Y-81085980D02*
X67639404Y-80870308D01*
%TO.C,C16*%
X63396904Y-80848418D02*
X63396904Y-81064090D01*
X62676904Y-80848418D02*
X62676904Y-81064090D01*
%TO.C,C15*%
X70410000Y-91173414D02*
X70410000Y-91389086D01*
X69690000Y-91173414D02*
X69690000Y-91389086D01*
%TO.C,C14*%
X68696250Y-81070336D02*
X68696250Y-80854664D01*
X69416250Y-81070336D02*
X69416250Y-80854664D01*
%TO.C,C13*%
X71597500Y-91173414D02*
X71597500Y-91389086D01*
X70877500Y-91173414D02*
X70877500Y-91389086D01*
%TO.C,C12*%
X79283466Y-91173414D02*
X79283466Y-91389086D01*
X78563466Y-91173414D02*
X78563466Y-91389086D01*
%TO.C,C11*%
X80378870Y-91173414D02*
X80378870Y-91389086D01*
X79658870Y-91173414D02*
X79658870Y-91389086D01*
%TO.C,C10*%
X79095709Y-81070336D02*
X79095709Y-80854664D01*
X79815709Y-81070336D02*
X79815709Y-80854664D01*
%TO.C,C9*%
X69690000Y-81070336D02*
X69690000Y-80854664D01*
X70410000Y-81070336D02*
X70410000Y-80854664D01*
%TO.C,D7*%
X76787500Y-57762500D02*
X76787500Y-53912500D01*
X78787500Y-57762500D02*
X76787500Y-57762500D01*
X78787500Y-57762500D02*
X78787500Y-53912500D01*
%TO.C,D42*%
X238725200Y-114874400D02*
X238725200Y-111024400D01*
X240725200Y-114874400D02*
X238725200Y-114874400D01*
X240725200Y-114874400D02*
X240725200Y-111024400D01*
%TO.C,D48*%
X273637500Y-95862500D02*
X273637500Y-92012500D01*
X275637500Y-95862500D02*
X273637500Y-95862500D01*
X275637500Y-95862500D02*
X275637500Y-92012500D01*
%TO.C,D11*%
X81550000Y-133962500D02*
X81550000Y-130112500D01*
X83550000Y-133962500D02*
X81550000Y-133962500D01*
X83550000Y-133962500D02*
X83550000Y-130112500D01*
%TO.C,D58*%
X267287500Y-133962500D02*
X267287500Y-130112500D01*
X269287500Y-133962500D02*
X267287500Y-133962500D01*
X269287500Y-133962500D02*
X269287500Y-130112500D01*
D11*
%TO.C,J2*%
X94312500Y-62087500D02*
X91912500Y-62087500D01*
X91912500Y-62087500D02*
X91912500Y-63087500D01*
X96112500Y-67087500D02*
X96112500Y-63087500D01*
X91912500Y-67087500D02*
X91912500Y-68087500D01*
X91912500Y-68087500D02*
X94312500Y-68087500D01*
D10*
%TO.C,D71*%
X324437500Y-133962500D02*
X324437500Y-130112500D01*
X326437500Y-133962500D02*
X324437500Y-133962500D01*
X326437500Y-133962500D02*
X326437500Y-130112500D01*
%TO.C,D52*%
X286337500Y-114912500D02*
X286337500Y-111062500D01*
X288337500Y-114912500D02*
X286337500Y-114912500D01*
X288337500Y-114912500D02*
X288337500Y-111062500D01*
%TO.C,D15*%
X119650000Y-114912500D02*
X119650000Y-111062500D01*
X121650000Y-114912500D02*
X119650000Y-114912500D01*
X121650000Y-114912500D02*
X121650000Y-111062500D01*
%TO.C,D38*%
X200612500Y-76812500D02*
X200612500Y-72962500D01*
X202612500Y-76812500D02*
X200612500Y-76812500D01*
X202612500Y-76812500D02*
X202612500Y-72962500D01*
%TO.C,D50*%
X238712500Y-76812500D02*
X238712500Y-72962500D01*
X240712500Y-76812500D02*
X238712500Y-76812500D01*
X240712500Y-76812500D02*
X240712500Y-72962500D01*
%TO.C,D62*%
X324437500Y-114912500D02*
X324437500Y-111062500D01*
X326437500Y-114912500D02*
X324437500Y-114912500D01*
X326437500Y-114912500D02*
X326437500Y-111062500D01*
%TO.C,D70*%
X324437500Y-57762500D02*
X324437500Y-53912500D01*
X326437500Y-57762500D02*
X324437500Y-57762500D01*
X326437500Y-57762500D02*
X326437500Y-53912500D01*
%TO.C,D16*%
X85614000Y-133962500D02*
X85614000Y-130112500D01*
X87614000Y-133962500D02*
X85614000Y-133962500D01*
X87614000Y-133962500D02*
X87614000Y-130112500D01*
%TO.C,D66*%
X324437500Y-95862500D02*
X324437500Y-92012500D01*
X326437500Y-95862500D02*
X324437500Y-95862500D01*
X326437500Y-95862500D02*
X326437500Y-92012500D01*
%TO.C,D18*%
X124412500Y-76812500D02*
X124412500Y-72962500D01*
X126412500Y-76812500D02*
X124412500Y-76812500D01*
X126412500Y-76812500D02*
X126412500Y-72962500D01*
%TO.C,D61*%
X305387500Y-95862500D02*
X305387500Y-92012500D01*
X307387500Y-95862500D02*
X305387500Y-95862500D01*
X307387500Y-95862500D02*
X307387500Y-92012500D01*
%TO.C,D41*%
X209343750Y-133962500D02*
X209343750Y-130112500D01*
X211343750Y-133962500D02*
X209343750Y-133962500D01*
X211343750Y-133962500D02*
X211343750Y-130112500D01*
%TO.C,D34*%
X186325000Y-95862500D02*
X186325000Y-92012500D01*
X188325000Y-95862500D02*
X186325000Y-95862500D01*
X188325000Y-95862500D02*
X188325000Y-92012500D01*
%TO.C,D65*%
X305387500Y-76812500D02*
X305387500Y-72962500D01*
X307387500Y-76812500D02*
X305387500Y-76812500D01*
X307387500Y-76812500D02*
X307387500Y-72962500D01*
%TO.C,D4*%
X64784192Y-95851705D02*
X64784192Y-92001705D01*
X66784192Y-95851705D02*
X64784192Y-95851705D01*
X66784192Y-95851705D02*
X66784192Y-92001705D01*
%TO.C,D14*%
X110125000Y-95862500D02*
X110125000Y-92012500D01*
X112125000Y-95862500D02*
X110125000Y-95862500D01*
X112125000Y-95862500D02*
X112125000Y-92012500D01*
%TO.C,D47*%
X233156250Y-133962500D02*
X233156250Y-130112500D01*
X235156250Y-133962500D02*
X233156250Y-133962500D01*
X235156250Y-133962500D02*
X235156250Y-130112500D01*
%TO.C,D57*%
X305387500Y-114912500D02*
X305387500Y-111062500D01*
X307387500Y-114912500D02*
X305387500Y-114912500D01*
X307387500Y-114912500D02*
X307387500Y-111062500D01*
%TO.C,D51*%
X243475000Y-95862500D02*
X243475000Y-92012500D01*
X245475000Y-95862500D02*
X243475000Y-95862500D01*
X245475000Y-95862500D02*
X245475000Y-92012500D01*
%TO.C,D49*%
X229187500Y-57762500D02*
X229187500Y-53912500D01*
X231187500Y-57762500D02*
X229187500Y-57762500D01*
X231187500Y-57762500D02*
X231187500Y-53912500D01*
%TO.C,R_USBSHIELD1*%
X71654400Y-49787241D02*
X71654400Y-49479959D01*
X72414400Y-49787241D02*
X72414400Y-49479959D01*
%TO.C,D45*%
X224425000Y-95862500D02*
X224425000Y-92012500D01*
X226425000Y-95862500D02*
X224425000Y-95862500D01*
X226425000Y-95862500D02*
X226425000Y-92012500D01*
%TO.C,D17*%
X114887500Y-57762500D02*
X114887500Y-53912500D01*
X116887500Y-57762500D02*
X114887500Y-57762500D01*
X116887500Y-57762500D02*
X116887500Y-53912500D01*
%TO.C,F1*%
X68686000Y-64485436D02*
X68686000Y-65689564D01*
X70506000Y-64485436D02*
X70506000Y-65689564D01*
%TO.C,D10*%
X100600000Y-114912500D02*
X100600000Y-111062500D01*
X102600000Y-114912500D02*
X100600000Y-114912500D01*
X102600000Y-114912500D02*
X102600000Y-111062500D01*
%TO.C,R_USB1*%
X63880000Y-54583359D02*
X63880000Y-54890641D01*
X63120000Y-54583359D02*
X63120000Y-54890641D01*
%TO.C,D19*%
X129175000Y-95862500D02*
X129175000Y-92012500D01*
X131175000Y-95862500D02*
X129175000Y-95862500D01*
X131175000Y-95862500D02*
X131175000Y-92012500D01*
%TO.C,D5*%
X69515675Y-114926368D02*
X69515675Y-111076368D01*
X71515675Y-114926368D02*
X69515675Y-114926368D01*
X71515675Y-114926368D02*
X71515675Y-111076368D01*
%TO.C,R_USB2*%
X66928000Y-54583359D02*
X66928000Y-54890641D01*
X66168000Y-54583359D02*
X66168000Y-54890641D01*
%TO.C,D64*%
X286337500Y-57762500D02*
X286337500Y-53912500D01*
X288337500Y-57762500D02*
X286337500Y-57762500D01*
X288337500Y-57762500D02*
X288337500Y-53912500D01*
%TO.C,D26*%
X141081250Y-133962500D02*
X141081250Y-130112500D01*
X143081250Y-133962500D02*
X141081250Y-133962500D01*
X143081250Y-133962500D02*
X143081250Y-130112500D01*
%TO.C,D36*%
X195088000Y-133962500D02*
X195088000Y-130112500D01*
X197088000Y-133962500D02*
X195088000Y-133962500D01*
X197088000Y-133962500D02*
X197088000Y-130112500D01*
%TO.C,D22*%
X133937500Y-57762500D02*
X133937500Y-53912500D01*
X135937500Y-57762500D02*
X133937500Y-57762500D01*
X135937500Y-57762500D02*
X135937500Y-53912500D01*
%TO.C,J3*%
X60070000Y-44308000D02*
X69470000Y-44308000D01*
X60070000Y-46208000D02*
X60070000Y-44308000D01*
X60070000Y-50108000D02*
X60070000Y-48108000D01*
X69470000Y-46208000D02*
X69470000Y-44308000D01*
X69470000Y-50108000D02*
X69470000Y-48108000D01*
%TO.C,D31*%
X166481250Y-133962500D02*
X166481250Y-130112500D01*
X168481250Y-133962500D02*
X166481250Y-133962500D01*
X168481250Y-133962500D02*
X168481250Y-130112500D01*
%TO.C,D28*%
X162512500Y-76812500D02*
X162512500Y-72962500D01*
X164512500Y-76812500D02*
X162512500Y-76812500D01*
X164512500Y-76812500D02*
X164512500Y-72962500D01*
%TO.C,D72*%
X77358000Y-69187500D02*
X75358000Y-69187500D01*
X76058000Y-66067500D02*
X77358000Y-66067500D01*
%TO.C,D63*%
X276018750Y-133962500D02*
X276018750Y-130112500D01*
X278018750Y-133962500D02*
X276018750Y-133962500D01*
X278018750Y-133962500D02*
X278018750Y-130112500D01*
%TO.C,D44*%
X219662500Y-76812500D02*
X219662500Y-72962500D01*
X221662500Y-76812500D02*
X219662500Y-76812500D01*
X221662500Y-76812500D02*
X221662500Y-72962500D01*
%TO.C,D68*%
X305387500Y-57762500D02*
X305387500Y-53912500D01*
X307387500Y-57762500D02*
X305387500Y-57762500D01*
X307387500Y-57762500D02*
X307387500Y-53912500D01*
%TO.C,D29*%
X167275000Y-95862500D02*
X167275000Y-92012500D01*
X169275000Y-95862500D02*
X167275000Y-95862500D01*
X169275000Y-95862500D02*
X169275000Y-92012500D01*
%TO.C,D24*%
X148225000Y-95862500D02*
X148225000Y-92012500D01*
X150225000Y-95862500D02*
X148225000Y-95862500D01*
X150225000Y-95862500D02*
X150225000Y-92012500D01*
%TO.C,D2*%
X57737500Y-57953000D02*
X57737500Y-54103000D01*
X59737500Y-57953000D02*
X57737500Y-57953000D01*
X59737500Y-57953000D02*
X59737500Y-54103000D01*
%TO.C,D6*%
X57737500Y-133962500D02*
X57737500Y-130112500D01*
X59737500Y-133962500D02*
X57737500Y-133962500D01*
X59737500Y-133962500D02*
X59737500Y-130112500D01*
%TO.C,D43*%
X210137500Y-57762500D02*
X210137500Y-53912500D01*
X212137500Y-57762500D02*
X210137500Y-57762500D01*
X212137500Y-57762500D02*
X212137500Y-53912500D01*
%TO.C,D32*%
X172037500Y-57762500D02*
X172037500Y-53912500D01*
X174037500Y-57762500D02*
X172037500Y-57762500D01*
X174037500Y-57762500D02*
X174037500Y-53912500D01*
%TO.C,D1*%
X81550000Y-114912500D02*
X81550000Y-111062500D01*
X83550000Y-114912500D02*
X81550000Y-114912500D01*
X83550000Y-114912500D02*
X83550000Y-111062500D01*
%TO.C,D69*%
X324437500Y-76625000D02*
X324437500Y-72775000D01*
X326437500Y-76625000D02*
X324437500Y-76625000D01*
X326437500Y-76625000D02*
X326437500Y-72775000D01*
%TO.C,D60*%
X286337500Y-76812500D02*
X286337500Y-72962500D01*
X288337500Y-76812500D02*
X286337500Y-76812500D01*
X288337500Y-76812500D02*
X288337500Y-72962500D01*
%TO.C,D27*%
X152987500Y-57762500D02*
X152987500Y-53912500D01*
X154987500Y-57762500D02*
X152987500Y-57762500D01*
X154987500Y-57762500D02*
X154987500Y-53912500D01*
%TO.C,D25*%
X157750000Y-114912500D02*
X157750000Y-111062500D01*
X159750000Y-114912500D02*
X157750000Y-114912500D01*
X159750000Y-114912500D02*
X159750000Y-111062500D01*
%TO.C,D33*%
X181562500Y-76812500D02*
X181562500Y-72962500D01*
X183562500Y-76812500D02*
X181562500Y-76812500D01*
X183562500Y-76812500D02*
X183562500Y-72962500D01*
%TO.C,D21*%
X105362500Y-133962500D02*
X105362500Y-130112500D01*
X107362500Y-133962500D02*
X105362500Y-133962500D01*
X107362500Y-133962500D02*
X107362500Y-130112500D01*
%TO.C,D12*%
X95837500Y-57762500D02*
X95837500Y-53912500D01*
X97837500Y-57762500D02*
X95837500Y-57762500D01*
X97837500Y-57762500D02*
X97837500Y-53912500D01*
%TO.C,D23*%
X143462500Y-76812500D02*
X143462500Y-72962500D01*
X145462500Y-76812500D02*
X143462500Y-76812500D01*
X145462500Y-76812500D02*
X145462500Y-72962500D01*
%TO.C,D59*%
X272050000Y-60937500D02*
X272050000Y-57087500D01*
X274050000Y-60937500D02*
X272050000Y-60937500D01*
X274050000Y-60937500D02*
X274050000Y-57087500D01*
%TO.C,D40*%
X214900000Y-114912500D02*
X214900000Y-111062500D01*
X216900000Y-114912500D02*
X214900000Y-114912500D01*
X216900000Y-114912500D02*
X216900000Y-111062500D01*
%TO.C,D8*%
X86312500Y-76812500D02*
X86312500Y-72962500D01*
X88312500Y-76812500D02*
X86312500Y-76812500D01*
X88312500Y-76812500D02*
X88312500Y-72962500D01*
%TO.C,D56*%
X286337500Y-95862500D02*
X286337500Y-92012500D01*
X288337500Y-95862500D02*
X286337500Y-95862500D01*
X288337500Y-95862500D02*
X288337500Y-92012500D01*
%TO.C,D37*%
X191087500Y-57762500D02*
X191087500Y-53912500D01*
X193087500Y-57762500D02*
X191087500Y-57762500D01*
X193087500Y-57762500D02*
X193087500Y-53912500D01*
%TO.C,C_USBSHIELD1*%
X70607600Y-49739436D02*
X70607600Y-49523764D01*
X71327600Y-49739436D02*
X71327600Y-49523764D01*
%TO.C,D54*%
X248237500Y-60937500D02*
X248237500Y-57087500D01*
X250237500Y-60937500D02*
X248237500Y-60937500D01*
X250237500Y-60937500D02*
X250237500Y-57087500D01*
%TO.C,D55*%
X273637500Y-76812500D02*
X273637500Y-72962500D01*
X275637500Y-76812500D02*
X273637500Y-76812500D01*
X275637500Y-76812500D02*
X275637500Y-72962500D01*
%TO.C,D9*%
X91075000Y-95862500D02*
X91075000Y-92012500D01*
X93075000Y-95862500D02*
X91075000Y-95862500D01*
X93075000Y-95862500D02*
X93075000Y-92012500D01*
%TO.C,D3*%
X62500000Y-76812500D02*
X62500000Y-72962500D01*
X64500000Y-76812500D02*
X62500000Y-76812500D01*
X64500000Y-76812500D02*
X64500000Y-72962500D01*
%TO.C,D67*%
X305387500Y-133962500D02*
X305387500Y-130112500D01*
X307387500Y-133962500D02*
X305387500Y-133962500D01*
X307387500Y-133962500D02*
X307387500Y-130112500D01*
%TO.C,D13*%
X105362500Y-76812500D02*
X105362500Y-72962500D01*
X107362500Y-76812500D02*
X105362500Y-76812500D01*
X107362500Y-76812500D02*
X107362500Y-72962500D01*
%TO.C,D30*%
X176800000Y-114912500D02*
X176800000Y-111062500D01*
X178800000Y-114912500D02*
X176800000Y-114912500D01*
X178800000Y-114912500D02*
X178800000Y-111062500D01*
%TO.C,D46*%
X265700000Y-114912500D02*
X265700000Y-111062500D01*
X267700000Y-114912500D02*
X265700000Y-114912500D01*
X267700000Y-114912500D02*
X267700000Y-111062500D01*
%TO.C,D39*%
X205375000Y-95862500D02*
X205375000Y-92012500D01*
X207375000Y-95862500D02*
X205375000Y-95862500D01*
X207375000Y-95862500D02*
X207375000Y-92012500D01*
%TO.C,D35*%
X195850000Y-114912500D02*
X195850000Y-111062500D01*
X197850000Y-114912500D02*
X195850000Y-114912500D01*
X197850000Y-114912500D02*
X197850000Y-111062500D01*
%TO.C,D20*%
X138700000Y-114912500D02*
X138700000Y-111062500D01*
X140700000Y-114912500D02*
X138700000Y-114912500D01*
X140700000Y-114912500D02*
X140700000Y-111062500D01*
%TO.C,D53*%
X248237500Y-133962500D02*
X248237500Y-130112500D01*
X250237500Y-133962500D02*
X248237500Y-133962500D01*
X250237500Y-133962500D02*
X250237500Y-130112500D01*
%TD*%
%LPC*%
D12*
%TO.C,MX17*%
X79057500Y-74612500D03*
D13*
X84137500Y-74612500D03*
D12*
X89217500Y-74612500D03*
D14*
X80327500Y-72072500D03*
X86677500Y-69532500D03*
%TD*%
D15*
%TO.C,SW1*%
X107875000Y-80700000D03*
X101675000Y-80700000D03*
X107875000Y-84400000D03*
X101675000Y-84400000D03*
%TD*%
D16*
%TO.C,U3*%
X64550000Y-80962500D03*
X66425000Y-81912500D03*
X66425000Y-80012500D03*
%TD*%
D17*
%TO.C,U2*%
X77934000Y-89887500D03*
X77434000Y-89887500D03*
X76934000Y-89887500D03*
X76434000Y-89887500D03*
X75934000Y-89887500D03*
X75434000Y-89887500D03*
X74934000Y-89887500D03*
X74434000Y-89887500D03*
X73934000Y-89887500D03*
X73434000Y-89887500D03*
X72934000Y-89887500D03*
X72434000Y-89887500D03*
D18*
X71021500Y-88475000D03*
X71021500Y-87975000D03*
X71021500Y-87475000D03*
X71021500Y-86975000D03*
X71021500Y-86475000D03*
X71021500Y-85975000D03*
X71021500Y-85475000D03*
X71021500Y-84975000D03*
X71021500Y-84475000D03*
X71021500Y-83975000D03*
X71021500Y-83475000D03*
X71021500Y-82975000D03*
D17*
X72434000Y-81562500D03*
X72934000Y-81562500D03*
X73434000Y-81562500D03*
X73934000Y-81562500D03*
X74434000Y-81562500D03*
X74934000Y-81562500D03*
X75434000Y-81562500D03*
X75934000Y-81562500D03*
X76434000Y-81562500D03*
X76934000Y-81562500D03*
X77434000Y-81562500D03*
X77934000Y-81562500D03*
D18*
X79346500Y-82975000D03*
X79346500Y-83475000D03*
X79346500Y-83975000D03*
X79346500Y-84475000D03*
X79346500Y-84975000D03*
X79346500Y-85475000D03*
X79346500Y-85975000D03*
X79346500Y-86475000D03*
X79346500Y-86975000D03*
X79346500Y-87475000D03*
X79346500Y-87975000D03*
X79346500Y-88475000D03*
%TD*%
D19*
%TO.C,R5*%
X99218750Y-83627500D03*
X99218750Y-84647500D03*
%TD*%
D20*
%TO.C,C17*%
X67999404Y-80498144D03*
X67999404Y-81458144D03*
%TD*%
D21*
%TO.C,C16*%
X63036904Y-80476254D03*
X63036904Y-81436254D03*
%TD*%
%TO.C,C15*%
X70050000Y-90801250D03*
X70050000Y-91761250D03*
%TD*%
D20*
%TO.C,C14*%
X69056250Y-81442500D03*
X69056250Y-80482500D03*
%TD*%
D21*
%TO.C,C13*%
X71237500Y-90801250D03*
X71237500Y-91761250D03*
%TD*%
%TO.C,C12*%
X78923466Y-90801250D03*
X78923466Y-91761250D03*
%TD*%
%TO.C,C11*%
X80018870Y-90801250D03*
X80018870Y-91761250D03*
%TD*%
D20*
%TO.C,C10*%
X79455709Y-81442500D03*
X79455709Y-80482500D03*
%TD*%
%TO.C,C9*%
X70050000Y-81442500D03*
X70050000Y-80482500D03*
%TD*%
D12*
%TO.C,MX3*%
X88582500Y-55562500D03*
D13*
X93662500Y-55562500D03*
D12*
X98742500Y-55562500D03*
D14*
X89852500Y-53022500D03*
X96202500Y-50482500D03*
%TD*%
D12*
%TO.C,MX68*%
X317182500Y-131762500D03*
D13*
X322262500Y-131762500D03*
D12*
X327342500Y-131762500D03*
D14*
X318452500Y-129222500D03*
X324802500Y-126682500D03*
%TD*%
D13*
%TO.C,MX61*%
X174663687Y-123507500D03*
D22*
X174663687Y-138747500D03*
D12*
X181489937Y-131762500D03*
D13*
X186569937Y-131762500D03*
D12*
X191649937Y-131762500D03*
D13*
X198476187Y-123507500D03*
D22*
X198476187Y-138747500D03*
D14*
X182759937Y-129222500D03*
X189109937Y-126682500D03*
%TD*%
D12*
%TO.C,MX52*%
X279082500Y-112712500D03*
D13*
X284162500Y-112712500D03*
D12*
X289242500Y-112712500D03*
D14*
X280352500Y-110172500D03*
X286702500Y-107632500D03*
%TD*%
D12*
%TO.C,MX34*%
X140970000Y-93662500D03*
D13*
X146050000Y-93662500D03*
D12*
X151130000Y-93662500D03*
D14*
X142240000Y-91122500D03*
X148590000Y-88582500D03*
%TD*%
D12*
%TO.C,MX9*%
X202882500Y-55562500D03*
D13*
X207962500Y-55562500D03*
D12*
X213042500Y-55562500D03*
D14*
X204152500Y-53022500D03*
X210502500Y-50482500D03*
%TD*%
D12*
%TO.C,MX14*%
X298132500Y-55562500D03*
D13*
X303212500Y-55562500D03*
D12*
X308292500Y-55562500D03*
D14*
X299402500Y-53022500D03*
X305752500Y-50482500D03*
%TD*%
D12*
%TO.C,MX27*%
X279082500Y-74612500D03*
D13*
X284162500Y-74612500D03*
D12*
X289242500Y-74612500D03*
D14*
X280352500Y-72072500D03*
X286702500Y-69532500D03*
%TD*%
D12*
%TO.C,MX30a1*%
X52795628Y-93662501D03*
D13*
X57875628Y-93662501D03*
D12*
X62955628Y-93662501D03*
D14*
X54065628Y-91122501D03*
X60415628Y-88582501D03*
%TD*%
D12*
%TO.C,MX42*%
X317182500Y-93662500D03*
D13*
X322262500Y-93662500D03*
D12*
X327342500Y-93662500D03*
D14*
X318452500Y-91122500D03*
X324802500Y-88582500D03*
%TD*%
D12*
%TO.C,MX39a1*%
X236220000Y-93662500D03*
D13*
X241300000Y-93662500D03*
D12*
X246380000Y-93662500D03*
D14*
X237490000Y-91122500D03*
X243840000Y-88582500D03*
%TD*%
D12*
%TO.C,MX50*%
X207645000Y-112712500D03*
D13*
X212725000Y-112712500D03*
D12*
X217805000Y-112712500D03*
D14*
X208915000Y-110172500D03*
X215265000Y-107632500D03*
%TD*%
D13*
%TO.C,MX60b1*%
X112712500Y-123507500D03*
D22*
X112712500Y-138747500D03*
D12*
X155257500Y-131762500D03*
D13*
X160337500Y-131762500D03*
D12*
X165417500Y-131762500D03*
D13*
X207962500Y-123507500D03*
D22*
X207962500Y-138747500D03*
D14*
X156527500Y-129222500D03*
X162877500Y-126682500D03*
%TD*%
D12*
%TO.C,MX25*%
X231457500Y-74612500D03*
D13*
X236537500Y-74612500D03*
D12*
X241617500Y-74612500D03*
D14*
X232727500Y-72072500D03*
X239077500Y-69532500D03*
%TD*%
D12*
%TO.C,MX11*%
X240982500Y-55562500D03*
D13*
X246062500Y-55562500D03*
D12*
X251142500Y-55562500D03*
D14*
X242252500Y-53022500D03*
X248602500Y-50482500D03*
%TD*%
D12*
%TO.C,MX62*%
X212407500Y-131762500D03*
D13*
X217487500Y-131762500D03*
D12*
X222567500Y-131762500D03*
D14*
X213677500Y-129222500D03*
X220027500Y-126682500D03*
%TD*%
D12*
%TO.C,MX41*%
X298132500Y-93662500D03*
D13*
X303212500Y-93662500D03*
D12*
X308292500Y-93662500D03*
D14*
X299402500Y-91122500D03*
X305752500Y-88582500D03*
%TD*%
D12*
%TO.C,MX54*%
X317182500Y-112712500D03*
D13*
X322262500Y-112712500D03*
D12*
X327342500Y-112712500D03*
D14*
X318452500Y-110172500D03*
X324802500Y-107632500D03*
%TD*%
D22*
%TO.C,MX12a1*%
X243681250Y-48577500D03*
D13*
X243681250Y-63817500D03*
D12*
X250507500Y-55562500D03*
D13*
X255587500Y-55562500D03*
D12*
X260667500Y-55562500D03*
D22*
X267493750Y-48577500D03*
D13*
X267493750Y-63817500D03*
D14*
X251777500Y-53022500D03*
X258127500Y-50482500D03*
%TD*%
D23*
%TO.C,MX60c1*%
X160337500Y-131762500D03*
D24*
X156527500Y-129222500D03*
X162877500Y-126682500D03*
%TD*%
D12*
%TO.C,MX45*%
X112395000Y-112712500D03*
D13*
X117475000Y-112712500D03*
D12*
X122555000Y-112712500D03*
D14*
X113665000Y-110172500D03*
X120015000Y-107632500D03*
%TD*%
D12*
%TO.C,MX67*%
X298132500Y-131762500D03*
D13*
X303212500Y-131762500D03*
D12*
X308292500Y-131762500D03*
D14*
X299402500Y-129222500D03*
X305752500Y-126682500D03*
%TD*%
D12*
%TO.C,MX53*%
X298132500Y-112712500D03*
D13*
X303212500Y-112712500D03*
D12*
X308292500Y-112712500D03*
D14*
X299402500Y-110172500D03*
X305752500Y-107632500D03*
%TD*%
D12*
%TO.C,MX33*%
X121920000Y-93662500D03*
D13*
X127000000Y-93662500D03*
D12*
X132080000Y-93662500D03*
D14*
X123190000Y-91122500D03*
X129540000Y-88582500D03*
%TD*%
D12*
%TO.C,MX8*%
X183832500Y-55562500D03*
D13*
X188912500Y-55562500D03*
D12*
X193992500Y-55562500D03*
D14*
X185102500Y-53022500D03*
X191452500Y-50482500D03*
%TD*%
D12*
%TO.C,MX38*%
X217170000Y-93662500D03*
D13*
X222250000Y-93662500D03*
D12*
X227330000Y-93662500D03*
D14*
X218440000Y-91122500D03*
X224790000Y-88582500D03*
%TD*%
D12*
%TO.C,MX48*%
X169545000Y-112712500D03*
D13*
X174625000Y-112712500D03*
D12*
X179705000Y-112712500D03*
D14*
X170815000Y-110172500D03*
X177165000Y-107632500D03*
%TD*%
D12*
%TO.C,MX19*%
X117157500Y-74612500D03*
D13*
X122237500Y-74612500D03*
D12*
X127317500Y-74612500D03*
D14*
X118427500Y-72072500D03*
X124777500Y-69532500D03*
%TD*%
D13*
%TO.C,MX26a1*%
X254444500Y-72199500D03*
X254444500Y-96075500D03*
D12*
X257619500Y-84137500D03*
D13*
X262699500Y-84137500D03*
D12*
X267779500Y-84137500D03*
D22*
X269684500Y-72199500D03*
X269684500Y-96075500D03*
D14*
X258889500Y-81597500D03*
X265239500Y-79057500D03*
%TD*%
D12*
%TO.C,MX10*%
X221932500Y-55562500D03*
D13*
X227012500Y-55562500D03*
D12*
X232092500Y-55562500D03*
D14*
X223202500Y-53022500D03*
X229552500Y-50482500D03*
%TD*%
D12*
%TO.C,MX21*%
X155257500Y-74612500D03*
D13*
X160337500Y-74612500D03*
D12*
X165417500Y-74612500D03*
D14*
X156527500Y-72072500D03*
X162877500Y-69532500D03*
%TD*%
D12*
%TO.C,MX66a1*%
X288607500Y-131762500D03*
D13*
X293687500Y-131762500D03*
D12*
X298767500Y-131762500D03*
D14*
X289877500Y-129222500D03*
X296227500Y-126682500D03*
%TD*%
D12*
%TO.C,MX37*%
X198120000Y-93662500D03*
D13*
X203200000Y-93662500D03*
D12*
X208280000Y-93662500D03*
D14*
X199390000Y-91122500D03*
X205740000Y-88582500D03*
%TD*%
D12*
%TO.C,MX64*%
X236220000Y-131762500D03*
D13*
X241300000Y-131762500D03*
D12*
X246380000Y-131762500D03*
D14*
X237490000Y-129222500D03*
X243840000Y-126682500D03*
%TD*%
D12*
%TO.C,MX46*%
X131445000Y-112712500D03*
D13*
X136525000Y-112712500D03*
D12*
X141605000Y-112712500D03*
D14*
X132715000Y-110172500D03*
X139065000Y-107632500D03*
%TD*%
D13*
%TO.C,MX39*%
X241268250Y-85407500D03*
D22*
X241268250Y-100647500D03*
D12*
X248094500Y-93662500D03*
D13*
X253174500Y-93662500D03*
D12*
X258254500Y-93662500D03*
D13*
X265080750Y-85407500D03*
D22*
X265080750Y-100647500D03*
D14*
X249364500Y-91122500D03*
X255714500Y-88582500D03*
%TD*%
D12*
%TO.C,MX44*%
X93345000Y-112712500D03*
D13*
X98425000Y-112712500D03*
D12*
X103505000Y-112712500D03*
D14*
X94615000Y-110172500D03*
X100965000Y-107632500D03*
%TD*%
D12*
%TO.C,MX26*%
X255270000Y-74612500D03*
D13*
X260350000Y-74612500D03*
D12*
X265430000Y-74612500D03*
D14*
X256540000Y-72072500D03*
X262890000Y-69532500D03*
%TD*%
D13*
%TO.C,MX61a1*%
X169862500Y-123507500D03*
D22*
X169862500Y-138747500D03*
D12*
X183832500Y-131762500D03*
D13*
X188912500Y-131762500D03*
D12*
X193992500Y-131762500D03*
D13*
X207962500Y-123507500D03*
D22*
X207962500Y-138747500D03*
D14*
X185102500Y-129222500D03*
X191452500Y-126682500D03*
%TD*%
D12*
%TO.C,MX30*%
X57594500Y-93662500D03*
D13*
X62674500Y-93662500D03*
D12*
X67754500Y-93662500D03*
D14*
X58864500Y-91122500D03*
X65214500Y-88582500D03*
%TD*%
D12*
%TO.C,MX40*%
X279082500Y-93662500D03*
D13*
X284162500Y-93662500D03*
D12*
X289242500Y-93662500D03*
D14*
X280352500Y-91122500D03*
X286702500Y-88582500D03*
%TD*%
D12*
%TO.C,MX49*%
X188595000Y-112712500D03*
D13*
X193675000Y-112712500D03*
D12*
X198755000Y-112712500D03*
D14*
X189865000Y-110172500D03*
X196215000Y-107632500D03*
%TD*%
D12*
%TO.C,MX23*%
X193357500Y-74612500D03*
D13*
X198437500Y-74612500D03*
D12*
X203517500Y-74612500D03*
D14*
X194627500Y-72072500D03*
X200977500Y-69532500D03*
%TD*%
D12*
%TO.C,MX24*%
X212407500Y-74612500D03*
D13*
X217487500Y-74612500D03*
D12*
X222567500Y-74612500D03*
D14*
X213677500Y-72072500D03*
X220027500Y-69532500D03*
%TD*%
D12*
%TO.C,MX55*%
X50482500Y-131762500D03*
D13*
X55562500Y-131762500D03*
D12*
X60642500Y-131762500D03*
D14*
X51752500Y-129222500D03*
X58102500Y-126682500D03*
%TD*%
D12*
%TO.C,MX2*%
X69532500Y-55562500D03*
D13*
X74612500Y-55562500D03*
D12*
X79692500Y-55562500D03*
D14*
X70802500Y-53022500D03*
X77152500Y-50482500D03*
%TD*%
D12*
%TO.C,MX31*%
X83820000Y-93662500D03*
D13*
X88900000Y-93662500D03*
D12*
X93980000Y-93662500D03*
D14*
X85090000Y-91122500D03*
X91440000Y-88582500D03*
%TD*%
D12*
%TO.C,MX63b1*%
X219550000Y-131762500D03*
D13*
X224630000Y-131762500D03*
D12*
X229710000Y-131762500D03*
D14*
X220820000Y-129222500D03*
X227170000Y-126682500D03*
%TD*%
D12*
%TO.C,MX58*%
X98107500Y-131762500D03*
D13*
X103187500Y-131762500D03*
D12*
X108267500Y-131762500D03*
D14*
X99377500Y-129222500D03*
X105727500Y-126682500D03*
%TD*%
D12*
%TO.C,MX29*%
X317182500Y-74612500D03*
D13*
X322262500Y-74612500D03*
D12*
X327342500Y-74612500D03*
D14*
X318452500Y-72072500D03*
X324802500Y-69532500D03*
%TD*%
D12*
%TO.C,MX57a1*%
X88582500Y-131762500D03*
D13*
X93662500Y-131762500D03*
D12*
X98742500Y-131762500D03*
D14*
X89852500Y-129222500D03*
X96202500Y-126682500D03*
%TD*%
D12*
%TO.C,MX32*%
X102870000Y-93662500D03*
D13*
X107950000Y-93662500D03*
D12*
X113030000Y-93662500D03*
D14*
X104140000Y-91122500D03*
X110490000Y-88582500D03*
%TD*%
D12*
%TO.C,MX12*%
X260032500Y-55562500D03*
D13*
X265112500Y-55562500D03*
D12*
X270192500Y-55562500D03*
D14*
X261302500Y-53022500D03*
X267652500Y-50482500D03*
%TD*%
D12*
%TO.C,MX16*%
X55245000Y-74612500D03*
D13*
X60325000Y-74612500D03*
D12*
X65405000Y-74612500D03*
D14*
X56515000Y-72072500D03*
X62865000Y-69532500D03*
%TD*%
D13*
%TO.C,MX60a1*%
X107924600Y-123507500D03*
D22*
X107924600Y-138747500D03*
D12*
X152844500Y-131762500D03*
D13*
X157924500Y-131762500D03*
D12*
X163004500Y-131762500D03*
D13*
X207924400Y-123507500D03*
D22*
X207924400Y-138747500D03*
D14*
X154114500Y-129222500D03*
X160464500Y-126682500D03*
%TD*%
D12*
%TO.C,MX36*%
X179070000Y-93662500D03*
D13*
X184150000Y-93662500D03*
D12*
X189230000Y-93662500D03*
D14*
X180340000Y-91122500D03*
X186690000Y-88582500D03*
%TD*%
D13*
%TO.C,MX59a1*%
X112712500Y-123507500D03*
D22*
X112712500Y-138747500D03*
D12*
X126682500Y-131762500D03*
D13*
X131762500Y-131762500D03*
D12*
X136842500Y-131762500D03*
D13*
X150812500Y-123507500D03*
D22*
X150812500Y-138747500D03*
D14*
X127952500Y-129222500D03*
X134302500Y-126682500D03*
%TD*%
D22*
%TO.C,MX51b1*%
X236569250Y-105727500D03*
D13*
X236569250Y-120967500D03*
D12*
X243395500Y-112712500D03*
D13*
X248475500Y-112712500D03*
D12*
X253555500Y-112712500D03*
D22*
X260381750Y-105727500D03*
D13*
X260381750Y-120967500D03*
D14*
X244665500Y-110172500D03*
X251015500Y-107632500D03*
%TD*%
D12*
%TO.C,MX5*%
X126682500Y-55562500D03*
D13*
X131762500Y-55562500D03*
D12*
X136842500Y-55562500D03*
D14*
X127952500Y-53022500D03*
X134302500Y-50482500D03*
%TD*%
D12*
%TO.C,MX7*%
X164782500Y-55562500D03*
D13*
X169862500Y-55562500D03*
D12*
X174942500Y-55562500D03*
D14*
X166052500Y-53022500D03*
X172402500Y-50482500D03*
%TD*%
D12*
%TO.C,MX18*%
X98107500Y-74612500D03*
D13*
X103187500Y-74612500D03*
D12*
X108267500Y-74612500D03*
D14*
X99377500Y-72072500D03*
X105727500Y-69532500D03*
%TD*%
D12*
%TO.C,MX15*%
X317182500Y-55562500D03*
D13*
X322262500Y-55562500D03*
D12*
X327342500Y-55562500D03*
D14*
X318452500Y-53022500D03*
X324802500Y-50482500D03*
%TD*%
D12*
%TO.C,MX56b1*%
X74295000Y-131762500D03*
D13*
X79375000Y-131762500D03*
D12*
X84455000Y-131762500D03*
D14*
X75565000Y-129222500D03*
X81915000Y-126682500D03*
%TD*%
D12*
%TO.C,MX63*%
X221932500Y-131762500D03*
D13*
X227012500Y-131762500D03*
D12*
X232092500Y-131762500D03*
D14*
X223202500Y-129222500D03*
X229552500Y-126682500D03*
%TD*%
D12*
%TO.C,MX4*%
X107632500Y-55562500D03*
D13*
X112712500Y-55562500D03*
D12*
X117792500Y-55562500D03*
D14*
X108902500Y-53022500D03*
X115252500Y-50482500D03*
%TD*%
D12*
%TO.C,MX20*%
X136207500Y-74612500D03*
D13*
X141287500Y-74612500D03*
D12*
X146367500Y-74612500D03*
D14*
X137477500Y-72072500D03*
X143827500Y-69532500D03*
%TD*%
D12*
%TO.C,MX28*%
X298132500Y-74612500D03*
D13*
X303212500Y-74612500D03*
D12*
X308292500Y-74612500D03*
D14*
X299402500Y-72072500D03*
X305752500Y-69532500D03*
%TD*%
D12*
%TO.C,MX51*%
X226695000Y-112712500D03*
D13*
X231775000Y-112712500D03*
D12*
X236855000Y-112712500D03*
D14*
X227965000Y-110172500D03*
X234315000Y-107632500D03*
%TD*%
D12*
%TO.C,MX35*%
X160020000Y-93662500D03*
D13*
X165100000Y-93662500D03*
D12*
X170180000Y-93662500D03*
D14*
X161290000Y-91122500D03*
X167640000Y-88582500D03*
%TD*%
D12*
%TO.C,MX66*%
X279082500Y-131762500D03*
D13*
X284162500Y-131762500D03*
D12*
X289242500Y-131762500D03*
D14*
X280352500Y-129222500D03*
X286702500Y-126682500D03*
%TD*%
D12*
%TO.C,MX51a1*%
X252920500Y-112712500D03*
D13*
X258000500Y-112712500D03*
D12*
X263080500Y-112712500D03*
D14*
X254190500Y-110172500D03*
X260540500Y-107632500D03*
%TD*%
D13*
%TO.C,MX59*%
X127031750Y-123507500D03*
D22*
X127031750Y-138747500D03*
D12*
X133858000Y-131762500D03*
D13*
X138938000Y-131762500D03*
D12*
X144018000Y-131762500D03*
D13*
X150844250Y-123507500D03*
D22*
X150844250Y-138747500D03*
D14*
X135128000Y-129222500D03*
X141478000Y-126682500D03*
%TD*%
D12*
%TO.C,MX64b1*%
X240982500Y-131762500D03*
D13*
X246062500Y-131762500D03*
D12*
X251142500Y-131762500D03*
D14*
X242252500Y-129222500D03*
X248602500Y-126682500D03*
%TD*%
D12*
%TO.C,MX47*%
X150495000Y-112712500D03*
D13*
X155575000Y-112712500D03*
D12*
X160655000Y-112712500D03*
D14*
X151765000Y-110172500D03*
X158115000Y-107632500D03*
%TD*%
D25*
%TO.C,*%
X69325000Y-73991000D03*
X69325000Y-73991000D03*
X69998654Y-72364654D03*
X69998654Y-72364654D03*
X69998654Y-75617346D03*
X69998654Y-75617346D03*
X71625000Y-71691000D03*
X71625000Y-71691000D03*
D26*
X71625000Y-73991000D03*
X71625000Y-73991000D03*
D25*
X71625000Y-76291000D03*
X71625000Y-76291000D03*
X73251346Y-72364654D03*
X73251346Y-72364654D03*
X73251346Y-75617346D03*
X73251346Y-75617346D03*
X73925000Y-73991000D03*
X73925000Y-73991000D03*
D27*
X174625000Y-93091000D03*
X174625000Y-93091000D03*
%TD*%
D12*
%TO.C,MX39b1*%
X257619500Y-93662500D03*
D13*
X262699500Y-93662500D03*
D12*
X267779500Y-93662500D03*
D14*
X258889500Y-91122500D03*
X265239500Y-88582500D03*
%TD*%
D12*
%TO.C,MX56*%
X69532500Y-131762500D03*
D13*
X74612500Y-131762500D03*
D12*
X79692500Y-131762500D03*
D14*
X70802500Y-129222500D03*
X77152500Y-126682500D03*
%TD*%
D12*
%TO.C,MX43b1*%
X74295000Y-112712500D03*
D13*
X79375000Y-112712500D03*
D12*
X84455000Y-112712500D03*
D14*
X75565000Y-110172500D03*
X81915000Y-107632500D03*
%TD*%
D12*
%TO.C,MX43a1*%
X52839685Y-112727971D03*
D13*
X57919685Y-112727971D03*
D12*
X62999685Y-112727971D03*
D14*
X54109685Y-110187971D03*
X60459685Y-107647971D03*
%TD*%
D12*
%TO.C,MX65b1*%
X260032500Y-131762500D03*
D13*
X265112500Y-131762500D03*
D12*
X270192500Y-131762500D03*
D14*
X261302500Y-129222500D03*
X267652500Y-126682500D03*
%TD*%
D12*
%TO.C,MX22*%
X174307500Y-74612500D03*
D13*
X179387500Y-74612500D03*
D12*
X184467500Y-74612500D03*
D14*
X175577500Y-72072500D03*
X181927500Y-69532500D03*
%TD*%
D12*
%TO.C,MX13*%
X279082500Y-55562500D03*
D13*
X284162500Y-55562500D03*
D12*
X289242500Y-55562500D03*
D14*
X280352500Y-53022500D03*
X286702500Y-50482500D03*
%TD*%
D12*
%TO.C,MX6*%
X145732500Y-55562500D03*
D13*
X150812500Y-55562500D03*
D12*
X155892500Y-55562500D03*
D14*
X147002500Y-53022500D03*
X153352500Y-50482500D03*
%TD*%
D13*
%TO.C,MX60*%
X103187500Y-123507500D03*
D22*
X103187500Y-138747500D03*
D12*
X155257500Y-131762500D03*
D13*
X160337500Y-131762500D03*
D12*
X165417500Y-131762500D03*
D13*
X217487500Y-123507500D03*
D22*
X217487500Y-138747500D03*
D14*
X156527500Y-129222500D03*
X162877500Y-126682500D03*
%TD*%
D12*
%TO.C,MX1*%
X50482500Y-55562500D03*
D13*
X55562500Y-55562500D03*
D12*
X60642500Y-55562500D03*
D14*
X51752500Y-53022500D03*
X58102500Y-50482500D03*
%TD*%
D22*
%TO.C,MX43*%
X55467250Y-105727500D03*
D13*
X55467250Y-120967500D03*
D12*
X62293500Y-112712500D03*
D13*
X67373500Y-112712500D03*
D12*
X72453500Y-112712500D03*
D22*
X79279750Y-105727500D03*
D13*
X79279750Y-120967500D03*
D14*
X63563500Y-110172500D03*
X69913500Y-107632500D03*
%TD*%
D28*
%TO.C,D7*%
X77787499Y-56962499D03*
X77787499Y-54162499D03*
%TD*%
%TO.C,D42*%
X239725199Y-114074399D03*
X239725199Y-111274399D03*
%TD*%
%TO.C,D48*%
X274637499Y-95062499D03*
X274637499Y-92262499D03*
%TD*%
%TO.C,D11*%
X82549999Y-133162499D03*
X82549999Y-130362499D03*
%TD*%
%TO.C,D58*%
X268287499Y-133162499D03*
X268287499Y-130362499D03*
%TD*%
D29*
%TO.C,J2*%
X95412499Y-62287499D03*
X95412499Y-67887499D03*
D30*
X91537499Y-63587499D03*
X91537499Y-64587499D03*
X91537499Y-65587499D03*
X91537499Y-66587499D03*
%TD*%
D28*
%TO.C,D71*%
X325437499Y-133162499D03*
X325437499Y-130362499D03*
%TD*%
%TO.C,D52*%
X287337499Y-114112499D03*
X287337499Y-111312499D03*
%TD*%
%TO.C,D15*%
X120649999Y-114112499D03*
X120649999Y-111312499D03*
%TD*%
%TO.C,D38*%
X201612499Y-76012499D03*
X201612499Y-73212499D03*
%TD*%
%TO.C,D50*%
X239712499Y-76012499D03*
X239712499Y-73212499D03*
%TD*%
%TO.C,D62*%
X325437499Y-114112499D03*
X325437499Y-111312499D03*
%TD*%
%TO.C,D70*%
X325437499Y-56962499D03*
X325437499Y-54162499D03*
%TD*%
%TO.C,D16*%
X86613999Y-133162499D03*
X86613999Y-130362499D03*
%TD*%
%TO.C,D66*%
X325437499Y-95062499D03*
X325437499Y-92262499D03*
%TD*%
%TO.C,D18*%
X125412499Y-76012499D03*
X125412499Y-73212499D03*
%TD*%
%TO.C,D61*%
X306387499Y-95062499D03*
X306387499Y-92262499D03*
%TD*%
%TO.C,D41*%
X210343749Y-133162499D03*
X210343749Y-130362499D03*
%TD*%
%TO.C,D34*%
X187324999Y-95062499D03*
X187324999Y-92262499D03*
%TD*%
%TO.C,D65*%
X306387499Y-76012499D03*
X306387499Y-73212499D03*
%TD*%
%TO.C,D4*%
X65784191Y-95051704D03*
X65784191Y-92251704D03*
%TD*%
%TO.C,D14*%
X111124999Y-95062499D03*
X111124999Y-92262499D03*
%TD*%
%TO.C,D47*%
X234156249Y-133162499D03*
X234156249Y-130362499D03*
%TD*%
%TO.C,D57*%
X306387499Y-114112499D03*
X306387499Y-111312499D03*
%TD*%
%TO.C,D51*%
X244474999Y-95062499D03*
X244474999Y-92262499D03*
%TD*%
%TO.C,D49*%
X230187499Y-56962499D03*
X230187499Y-54162499D03*
%TD*%
D31*
%TO.C,R_USBSHIELD1*%
X72034400Y-50143600D03*
X72034400Y-49123600D03*
%TD*%
D28*
%TO.C,D45*%
X225424999Y-95062499D03*
X225424999Y-92262499D03*
%TD*%
%TO.C,D17*%
X115887499Y-56962499D03*
X115887499Y-54162499D03*
%TD*%
D32*
%TO.C,F1*%
X69596000Y-66487500D03*
X69596000Y-63687500D03*
%TD*%
D28*
%TO.C,D10*%
X101599999Y-114112499D03*
X101599999Y-111312499D03*
%TD*%
D19*
%TO.C,R_USB1*%
X63500000Y-54227000D03*
X63500000Y-55247000D03*
%TD*%
D28*
%TO.C,D19*%
X130174999Y-95062499D03*
X130174999Y-92262499D03*
%TD*%
%TO.C,D5*%
X70515674Y-114126367D03*
X70515674Y-111326367D03*
%TD*%
D19*
%TO.C,R_USB2*%
X66548000Y-54227000D03*
X66548000Y-55247000D03*
%TD*%
D28*
%TO.C,D64*%
X287337499Y-56962499D03*
X287337499Y-54162499D03*
%TD*%
%TO.C,D26*%
X142081249Y-133162499D03*
X142081249Y-130362499D03*
%TD*%
%TO.C,D36*%
X196087999Y-133162499D03*
X196087999Y-130362499D03*
%TD*%
%TO.C,D22*%
X134937499Y-56962499D03*
X134937499Y-54162499D03*
%TD*%
D33*
%TO.C,J3*%
X61880000Y-50808000D03*
X67660000Y-50808000D03*
D34*
X61519999Y-52252999D03*
X62319999Y-52252999D03*
D35*
X63519999Y-52252999D03*
X64519999Y-52252999D03*
X65019999Y-52252999D03*
X66019999Y-52252999D03*
D34*
X67219999Y-52252999D03*
X68019999Y-52252999D03*
X68019999Y-52252999D03*
X67219999Y-52252999D03*
D35*
X66519999Y-52252999D03*
X65519999Y-52252999D03*
X64019999Y-52252999D03*
X63019999Y-52252999D03*
D34*
X62319999Y-52252999D03*
X61519999Y-52252999D03*
D36*
X60449999Y-47157999D03*
D37*
X60449999Y-51337999D03*
D36*
X69089999Y-47157999D03*
D37*
X69089999Y-51337999D03*
%TD*%
D28*
%TO.C,D31*%
X167481249Y-133162499D03*
X167481249Y-130362499D03*
%TD*%
%TO.C,D28*%
X163512499Y-76012499D03*
X163512499Y-73212499D03*
%TD*%
D38*
%TO.C,D72*%
X77707999Y-68577499D03*
X77707999Y-66677499D03*
X75707999Y-66677499D03*
D39*
X75707999Y-68377499D03*
%TD*%
D28*
%TO.C,D63*%
X277018749Y-133162499D03*
X277018749Y-130362499D03*
%TD*%
%TO.C,D44*%
X220662499Y-76012499D03*
X220662499Y-73212499D03*
%TD*%
%TO.C,D68*%
X306387499Y-56962499D03*
X306387499Y-54162499D03*
%TD*%
%TO.C,D29*%
X168274999Y-95062499D03*
X168274999Y-92262499D03*
%TD*%
%TO.C,D24*%
X149224999Y-95062499D03*
X149224999Y-92262499D03*
%TD*%
%TO.C,D2*%
X58737499Y-57152999D03*
X58737499Y-54352999D03*
%TD*%
%TO.C,D6*%
X58737499Y-133162499D03*
X58737499Y-130362499D03*
%TD*%
%TO.C,D43*%
X211137499Y-56962499D03*
X211137499Y-54162499D03*
%TD*%
%TO.C,D32*%
X173037499Y-56962499D03*
X173037499Y-54162499D03*
%TD*%
%TO.C,D1*%
X82549999Y-114112499D03*
X82549999Y-111312499D03*
%TD*%
%TO.C,D69*%
X325437499Y-75824999D03*
X325437499Y-73024999D03*
%TD*%
%TO.C,D60*%
X287337499Y-76012499D03*
X287337499Y-73212499D03*
%TD*%
%TO.C,D27*%
X153987499Y-56962499D03*
X153987499Y-54162499D03*
%TD*%
%TO.C,D25*%
X158749999Y-114112499D03*
X158749999Y-111312499D03*
%TD*%
%TO.C,D33*%
X182562499Y-76012499D03*
X182562499Y-73212499D03*
%TD*%
%TO.C,D21*%
X106362499Y-133162499D03*
X106362499Y-130362499D03*
%TD*%
%TO.C,D12*%
X96837499Y-56962499D03*
X96837499Y-54162499D03*
%TD*%
%TO.C,D23*%
X144462499Y-76012499D03*
X144462499Y-73212499D03*
%TD*%
%TO.C,D59*%
X273049999Y-60137499D03*
X273049999Y-57337499D03*
%TD*%
%TO.C,D40*%
X215899999Y-114112499D03*
X215899999Y-111312499D03*
%TD*%
%TO.C,D8*%
X87312499Y-76012499D03*
X87312499Y-73212499D03*
%TD*%
%TO.C,D56*%
X287337499Y-95062499D03*
X287337499Y-92262499D03*
%TD*%
%TO.C,D37*%
X192087499Y-56962499D03*
X192087499Y-54162499D03*
%TD*%
D20*
%TO.C,C_USBSHIELD1*%
X70967600Y-50111600D03*
X70967600Y-49151600D03*
%TD*%
D28*
%TO.C,D54*%
X249237499Y-60137499D03*
X249237499Y-57337499D03*
%TD*%
%TO.C,D55*%
X274637499Y-76012499D03*
X274637499Y-73212499D03*
%TD*%
%TO.C,D9*%
X92074999Y-95062499D03*
X92074999Y-92262499D03*
%TD*%
%TO.C,D3*%
X63499999Y-76012499D03*
X63499999Y-73212499D03*
%TD*%
%TO.C,D67*%
X306387499Y-133162499D03*
X306387499Y-130362499D03*
%TD*%
%TO.C,D13*%
X106362499Y-76012499D03*
X106362499Y-73212499D03*
%TD*%
%TO.C,D30*%
X177799999Y-114112499D03*
X177799999Y-111312499D03*
%TD*%
%TO.C,D46*%
X266699999Y-114112499D03*
X266699999Y-111312499D03*
%TD*%
%TO.C,D39*%
X206374999Y-95062499D03*
X206374999Y-92262499D03*
%TD*%
%TO.C,D35*%
X196849999Y-114112499D03*
X196849999Y-111312499D03*
%TD*%
%TO.C,D20*%
X139699999Y-114112499D03*
X139699999Y-111312499D03*
%TD*%
%TO.C,D53*%
X249237499Y-133162499D03*
X249237499Y-130362499D03*
%TD*%
M02*
