M48
; DRILL file {KiCad (7.0.0)} date Wed Mar 13 18:16:39 2024
; FORMAT={-:-/ absolute / inch / decimal}
; #@! TF.CreationDate,2024-03-13T18:16:39+01:00
; #@! TF.GenerationSoftware,Kicad,Pcbnew,(7.0.0)
; #@! TF.FileFunction,Plated,1,2,PTH
FMAT,2
INCH
; #@! TA.AperFunction,Plated,PTH,ViaDrill
T1C0.0157
; #@! TA.AperFunction,Plated,PTH,ComponentDrill
T2C0.0197
; #@! TA.AperFunction,Plated,PTH,ComponentDrill
T3C0.0236
; #@! TA.AperFunction,Plated,PTH,ComponentDrill
T4C0.0579
; #@! TA.AperFunction,Plated,PTH,ComponentDrill
T5C0.0591
; #@! TA.AperFunction,Plated,PTH,ComponentDrill
T6C0.0984
; #@! TA.AperFunction,Plated,PTH,ComponentDrill
T7C0.0984
%
G90
G05
T1
X2.2249Y-3.4134
X2.422Y-2.124
X2.4822Y-3.2379
X2.5Y-2.21
X2.5125Y-2.29
X2.5386Y-3.0312
X2.6156Y-3.1065
X2.6179Y-2.21
X2.6773Y-3.1381
X2.68Y-2.14
X2.6875Y-2.29
X2.7189Y-3.139
X2.7577Y-3.6523
X2.7583Y-3.1394
X2.7764Y-3.5305
X2.8046Y-3.652
X2.8232Y-3.7812
X2.875Y-1.935
X2.9284Y-3.375
X2.9364Y-2.6926
X2.959Y-3.4688
X2.9688Y-3.3347
X2.9688Y-3.375
X2.9688Y-3.4153
X2.9776Y-2.5496
X3.0091Y-3.375
X3.0625Y-3.0312
X3.0625Y-3.375
X3.1Y-2.6225
X3.1075Y-3.6485
X3.125Y-2.5034
X3.125Y-2.6875
X3.1281Y-3.1328
X3.1467Y-3.6482
X3.161Y-3.2382
X3.2812Y-3.7812
X3.35Y-3.8616
X3.54Y-2.6225
X3.884Y-3.3723
X4.1Y-3.8793
X4.85Y-3.895
X5.5986Y-3.9112
X6.35Y-3.9325
X7.1Y-3.95
X7.85Y-3.965
X8.62Y-3.985
X9.3342Y-4.021
X9.8175Y-3.9043
X11.0375Y-4.0388
X11.788Y-4.0565
X12.538Y-4.084
X12.922Y-3.046
T2
X2.7293Y-2.913
X2.7293Y-2.913
X2.7559Y-2.849
X2.7559Y-2.849
X2.7559Y-2.9771
X2.7559Y-2.9771
X2.8199Y-2.8225
X2.8199Y-2.8225
X2.8199Y-3.0036
X2.8199Y-3.0036
X2.8839Y-2.849
X2.8839Y-2.849
X2.8839Y-2.9771
X2.8839Y-2.9771
X2.9104Y-2.913
X2.9104Y-2.913
T4
X2.0375Y-2.0875
X2.0375Y-5.0875
X2.1286Y-3.5875
X2.1303Y-4.3381
X2.225Y-2.8375
X2.2875Y-1.9875
X2.2875Y-4.9875
X2.3175Y-3.5875
X2.3786Y-3.4875
X2.3803Y-4.2381
X2.475Y-2.7375
X2.5025Y-4.3375
X2.5675Y-3.4875
X2.7525Y-4.2375
X2.7875Y-2.0875
X2.7875Y-5.0875
X2.975Y-4.3375
X2.975Y-5.0875
X3.0375Y-1.9875
X3.0375Y-4.9875
X3.1625Y-2.8375
X3.225Y-4.2375
X3.225Y-4.9875
X3.35Y-3.5875
X3.4125Y-2.7375
X3.5375Y-2.0875
X3.5375Y-5.0875
X3.6Y-3.4875
X3.725Y-4.3375
X3.7875Y-1.9875
X3.7875Y-4.9875
X3.9125Y-2.8375
X3.9125Y-5.0875
X3.975Y-4.2375
X4.1Y-3.5875
X4.1625Y-2.7375
X4.1625Y-4.9875
X4.2875Y-2.0875
X4.35Y-3.4875
X4.475Y-4.3375
X4.5375Y-1.9875
X4.6625Y-2.8375
X4.725Y-4.2375
X4.85Y-3.5875
X4.9125Y-2.7375
X5.0375Y-2.0875
X5.0375Y-5.0875
X5.1Y-3.4875
X5.225Y-4.3375
X5.2875Y-1.9875
X5.2875Y-4.9875
X5.32Y-5.0875
X5.4125Y-2.8375
X5.475Y-4.2375
X5.57Y-4.9875
X5.6Y-3.5875
X5.6625Y-2.7375
X5.7875Y-2.0875
X5.85Y-3.4875
X5.975Y-4.3375
X6.0375Y-1.9875
X6.0675Y-5.0875
X6.1625Y-2.8375
X6.1625Y-5.0875
X6.1625Y-5.0875
X6.225Y-4.2375
X6.3175Y-4.9875
X6.35Y-3.5875
X6.4125Y-2.7375
X6.4125Y-4.9875
X6.4125Y-4.9875
X6.5375Y-2.0875
X6.6Y-3.4875
X6.725Y-4.3375
X6.7875Y-1.9875
X6.9125Y-2.8375
X6.975Y-4.2375
X7.1Y-3.5875
X7.1625Y-2.7375
X7.1953Y-5.0875
X7.2875Y-2.0875
X7.2875Y-5.0875
X7.35Y-3.4875
X7.4453Y-4.9875
X7.475Y-4.3375
X7.5375Y-1.9875
X7.5375Y-4.9875
X7.6625Y-2.8375
X7.725Y-4.2375
X7.85Y-3.5875
X7.9125Y-2.7375
X8.0375Y-2.0875
X8.1Y-3.4875
X8.225Y-4.3375
X8.2875Y-1.9875
X8.4125Y-2.8375
X8.4125Y-5.0875
X8.475Y-4.2375
X8.6Y-3.5875
X8.6625Y-2.7375
X8.6625Y-4.9875
X8.6937Y-5.0875
X8.7875Y-2.0875
X8.7875Y-5.0875
X8.85Y-3.4875
X8.9437Y-4.9875
X8.975Y-4.3375
X9.0375Y-1.9875
X9.0375Y-4.9875
X9.1625Y-2.8375
X9.225Y-4.2375
X9.35Y-3.5875
X9.35Y-5.0875
X9.4125Y-2.7375
X9.5375Y-2.0875
X9.5375Y-5.0875
X9.6Y-3.4875
X9.6Y-4.9875
X9.6325Y-4.3375
X9.7875Y-1.9875
X9.7875Y-4.9875
X9.8175Y-3.5875
X9.8825Y-4.2375
X9.9125Y-2.0875
X10.0075Y-4.3375
X10.0675Y-3.4875
X10.1Y-2.8375
X10.1625Y-1.9875
X10.1925Y-3.2125
X10.1925Y-3.5875
X10.2575Y-4.2375
X10.2875Y-2.0875
X10.2875Y-5.0875
X10.35Y-2.7375
X10.4425Y-3.1125
X10.4425Y-3.4875
X10.5375Y-1.9875
X10.5375Y-4.9875
X11.0375Y-2.0875
X11.0375Y-2.8375
X11.0375Y-3.5875
X11.0375Y-4.3375
X11.0375Y-5.0875
X11.2875Y-1.9875
X11.2875Y-2.7375
X11.2875Y-3.4875
X11.2875Y-4.2375
X11.2875Y-4.9875
X11.4125Y-5.0875
X11.6625Y-4.9875
X11.7875Y-2.0875
X11.7875Y-2.8375
X11.7875Y-3.5875
X11.7875Y-4.3375
X11.7875Y-5.0875
X12.0375Y-1.9875
X12.0375Y-2.7375
X12.0375Y-3.4875
X12.0375Y-4.2375
X12.0375Y-4.9875
X12.5375Y-2.0875
X12.5375Y-2.8375
X12.5375Y-3.5875
X12.5375Y-4.3375
X12.5375Y-5.0875
X12.7875Y-1.9875
X12.7875Y-2.7375
X12.7875Y-3.4875
X12.7875Y-4.2375
X12.7875Y-4.9875
T5
X6.1625Y-5.0875
X6.4125Y-4.9875
T7
X2.8199Y-2.913
X2.8199Y-2.913
T3
G00X2.3799Y-1.8448
M15
G01X2.3799Y-1.8684
M16
G05
G00X2.3799Y-1.9995
M15
G01X2.3799Y-2.0428
M16
G05
G00X2.7201Y-1.8448
M15
G01X2.7201Y-1.8684
M16
G05
G00X2.7201Y-1.9995
M15
G01X2.7201Y-2.0428
M16
G05
T6
G00X6.8258Y-3.665
M15
G01X6.9242Y-3.665
M16
G05
G00X6.8258Y-3.665
M15
G01X6.9242Y-3.665
M16
G05
T0
M30
