<?xml version="1.0" standalone="no"?>
 <!DOCTYPE svg PUBLIC "-//W3C//DTD SVG 1.1//EN" 
 "http://www.w3.org/Graphics/SVG/1.1/DTD/svg11.dtd"> 
<svg
  xmlns:svg="http://www.w3.org/2000/svg"
  xmlns="http://www.w3.org/2000/svg"
  xmlns:xlink="http://www.w3.org/1999/xlink"
  version="1.1"
  width="317.8302mm" height="116.1288mm" viewBox="0.0000 0.0000 317.8302 116.1288">
<title>SVG Image created as qazimodo-B_Silkscreen.svg date 2024/06/11 23:14:33 </title>
  <desc>Image generated by PCBNEW </desc>
<g style="fill:#000000; fill-opacity:1.0000;stroke:#000000; stroke-opacity:1.0000;
stroke-linecap:round; stroke-linejoin:round;"
 transform="translate(0 0) scale(1 1)">
</g>
<g style="fill:#000000; fill-opacity:0.0; 
stroke:#000000; stroke-width:0.0000; stroke-opacity:1; 
stroke-linecap:round; stroke-linejoin:round;">
</g>
<g style="fill:#E8B2A7; fill-opacity:0.0; 
stroke:#E8B2A7; stroke-width:0.0000; stroke-opacity:1; 
stroke-linecap:round; stroke-linejoin:round;">
</g>
<g style="fill:#E8B2A7; fill-opacity:0.0; 
stroke:#E8B2A7; stroke-width:0.5000; stroke-opacity:1; 
stroke-linecap:round; stroke-linejoin:round;">
</g>
<g style="fill:#E8B2A7; fill-opacity:1.0000; 
stroke:#E8B2A7; stroke-width:0.5000; stroke-opacity:1; 
stroke-linecap:round; stroke-linejoin:round;">
<path style="fill:#E8B2A7; fill-opacity:1.0000; 
stroke:#E8B2A7; stroke-width:0.5000; stroke-opacity:1; 
stroke-linecap:round; stroke-linejoin:round;fill-rule:evenodd;"
d="M 32.9267,64.1215
32.4767,64.1215
32.9267,63.6715
Z" /> 
</g>
<g style="fill:#E8B2A7; fill-opacity:1.0000; 
stroke:#E8B2A7; stroke-width:0.1250; stroke-opacity:1; 
stroke-linecap:round; stroke-linejoin:round;">
</g>
<g style="fill:#E8B2A7; fill-opacity:0.0; 
stroke:#E8B2A7; stroke-width:0.1250; stroke-opacity:1; 
stroke-linecap:round; stroke-linejoin:round;">
<text x="39.0640" y="56.9177"
transform="scale(-1 1) translate(-78.128000 0)"
textLength="2.1982" font-size="1.0000" lengthAdjust="spacingAndGlyphs"
text-anchor="middle" opacity="0">10k</text>
<g class="stroked-text"><desc>10k</desc>
<path d="M39.5104 56.8183
L39.9390 56.8183
" />
<path d="M39.7247 56.8183
L39.7247 56.0683
" />
<path d="M39.7247 56.0683
L39.7961 56.1754
" />
<path d="M39.7961 56.1754
L39.8676 56.2469
" />
<path d="M39.8676 56.2469
L39.9390 56.2826
" />
<path d="M39.0461 56.0683
L38.9747 56.0683
" />
<path d="M38.9747 56.0683
L38.9033 56.1040
" />
<path d="M38.9033 56.1040
L38.8676 56.1397
" />
<path d="M38.8676 56.1397
L38.8319 56.2111
" />
<path d="M38.8319 56.2111
L38.7961 56.3540
" />
<path d="M38.7961 56.3540
L38.7961 56.5326
" />
<path d="M38.7961 56.5326
L38.8319 56.6754
" />
<path d="M38.8319 56.6754
L38.8676 56.7469
" />
<path d="M38.8676 56.7469
L38.9033 56.7826
" />
<path d="M38.9033 56.7826
L38.9747 56.8183
" />
<path d="M38.9747 56.8183
L39.0461 56.8183
" />
<path d="M39.0461 56.8183
L39.1176 56.7826
" />
<path d="M39.1176 56.7826
L39.1533 56.7469
" />
<path d="M39.1533 56.7469
L39.1890 56.6754
" />
<path d="M39.1890 56.6754
L39.2247 56.5326
" />
<path d="M39.2247 56.5326
L39.2247 56.3540
" />
<path d="M39.2247 56.3540
L39.1890 56.2111
" />
<path d="M39.1890 56.2111
L39.1533 56.1397
" />
<path d="M39.1533 56.1397
L39.1176 56.1040
" />
<path d="M39.1176 56.1040
L39.0461 56.0683
" />
<path d="M38.4747 56.8183
L38.4747 56.0683
" />
<path d="M38.4033 56.5326
L38.1890 56.8183
" />
<path d="M38.1890 56.3183
L38.4747 56.6040
" />
</g><g transform="rotate(-90.000000 31.9202 68.4490)">
<text x="31.9202" y="68.8240"
transform="scale(-1 1) translate(-63.840500 0)"
textLength="3.6268" font-size="1.0000" lengthAdjust="spacingAndGlyphs"
text-anchor="middle" opacity="0">100nF</text>
</g>
<g class="stroked-text"><desc>100nF</desc>
<path d="M32.1958 67.2883
L32.1958 66.8597
" />
<path d="M32.1958 67.0740
L31.4458 67.0740
" />
<path d="M31.4458 67.0740
L31.5529 67.0026
" />
<path d="M31.5529 67.0026
L31.6244 66.9311
" />
<path d="M31.6244 66.9311
L31.6601 66.8597
" />
<path d="M31.4458 67.7526
L31.4458 67.8240
" />
<path d="M31.4458 67.8240
L31.4815 67.8954
" />
<path d="M31.4815 67.8954
L31.5172 67.9311
" />
<path d="M31.5172 67.9311
L31.5886 67.9669
" />
<path d="M31.5886 67.9669
L31.7315 68.0026
" />
<path d="M31.7315 68.0026
L31.9101 68.0026
" />
<path d="M31.9101 68.0026
L32.0529 67.9669
" />
<path d="M32.0529 67.9669
L32.1244 67.9311
" />
<path d="M32.1244 67.9311
L32.1601 67.8954
" />
<path d="M32.1601 67.8954
L32.1958 67.8240
" />
<path d="M32.1958 67.8240
L32.1958 67.7526
" />
<path d="M32.1958 67.7526
L32.1601 67.6811
" />
<path d="M32.1601 67.6811
L32.1244 67.6454
" />
<path d="M32.1244 67.6454
L32.0529 67.6097
" />
<path d="M32.0529 67.6097
L31.9101 67.5740
" />
<path d="M31.9101 67.5740
L31.7315 67.5740
" />
<path d="M31.7315 67.5740
L31.5886 67.6097
" />
<path d="M31.5886 67.6097
L31.5172 67.6454
" />
<path d="M31.5172 67.6454
L31.4815 67.6811
" />
<path d="M31.4815 67.6811
L31.4458 67.7526
" />
<path d="M31.4458 68.4669
L31.4458 68.5383
" />
<path d="M31.4458 68.5383
L31.4815 68.6097
" />
<path d="M31.4815 68.6097
L31.5172 68.6454
" />
<path d="M31.5172 68.6454
L31.5886 68.6811
" />
<path d="M31.5886 68.6811
L31.7315 68.7169
" />
<path d="M31.7315 68.7169
L31.9101 68.7169
" />
<path d="M31.9101 68.7169
L32.0529 68.6811
" />
<path d="M32.0529 68.6811
L32.1244 68.6454
" />
<path d="M32.1244 68.6454
L32.1601 68.6097
" />
<path d="M32.1601 68.6097
L32.1958 68.5383
" />
<path d="M32.1958 68.5383
L32.1958 68.4669
" />
<path d="M32.1958 68.4669
L32.1601 68.3954
" />
<path d="M32.1601 68.3954
L32.1244 68.3597
" />
<path d="M32.1244 68.3597
L32.0529 68.3240
" />
<path d="M32.0529 68.3240
L31.9101 68.2883
" />
<path d="M31.9101 68.2883
L31.7315 68.2883
" />
<path d="M31.7315 68.2883
L31.5886 68.3240
" />
<path d="M31.5886 68.3240
L31.5172 68.3597
" />
<path d="M31.5172 68.3597
L31.4815 68.3954
" />
<path d="M31.4815 68.3954
L31.4458 68.4669
" />
<path d="M31.6958 69.0383
L32.1958 69.0383
" />
<path d="M31.7672 69.0383
L31.7315 69.0740
" />
<path d="M31.7315 69.0740
L31.6958 69.1454
" />
<path d="M31.6958 69.1454
L31.6958 69.2526
" />
<path d="M31.6958 69.2526
L31.7315 69.3240
" />
<path d="M31.7315 69.3240
L31.8029 69.3597
" />
<path d="M31.8029 69.3597
L32.1958 69.3597
" />
<path d="M31.8029 69.9669
L31.8029 69.7169
" />
<path d="M32.1958 69.7169
L31.4458 69.7169
" />
<path d="M31.4458 69.7169
L31.4458 70.0740
" />
</g><text x="19.2203" y="25.1177"
transform="scale(-1 1) translate(-38.440500 0)"
textLength="1.8849" font-size="0.8667" lengthAdjust="spacingAndGlyphs"
text-anchor="middle" opacity="0">usb</text>
<g class="stroked-text"><desc>usb</desc>
<path d="M19.6381 24.5982
L19.6381 25.0315
" />
<path d="M19.9167 24.5982
L19.9167 24.9387
" />
<path d="M19.9167 24.9387
L19.8857 25.0006
" />
<path d="M19.8857 25.0006
L19.8238 25.0315
" />
<path d="M19.8238 25.0315
L19.7310 25.0315
" />
<path d="M19.7310 25.0315
L19.6691 25.0006
" />
<path d="M19.6691 25.0006
L19.6381 24.9696
" />
<path d="M19.3595 25.0006
L19.2976 25.0315
" />
<path d="M19.2976 25.0315
L19.1738 25.0315
" />
<path d="M19.1738 25.0315
L19.1119 25.0006
" />
<path d="M19.1119 25.0006
L19.0810 24.9387
" />
<path d="M19.0810 24.9387
L19.0810 24.9077
" />
<path d="M19.0810 24.9077
L19.1119 24.8458
" />
<path d="M19.1119 24.8458
L19.1738 24.8149
" />
<path d="M19.1738 24.8149
L19.2667 24.8149
" />
<path d="M19.2667 24.8149
L19.3286 24.7839
" />
<path d="M19.3286 24.7839
L19.3595 24.7220
" />
<path d="M19.3595 24.7220
L19.3595 24.6911
" />
<path d="M19.3595 24.6911
L19.3286 24.6292
" />
<path d="M19.3286 24.6292
L19.2667 24.5982
" />
<path d="M19.2667 24.5982
L19.1738 24.5982
" />
<path d="M19.1738 24.5982
L19.1119 24.6292
" />
<path d="M18.8024 25.0315
L18.8024 24.3815
" />
<path d="M18.8024 24.6292
L18.7405 24.5982
" />
<path d="M18.7405 24.5982
L18.6167 24.5982
" />
<path d="M18.6167 24.5982
L18.5548 24.6292
" />
<path d="M18.5548 24.6292
L18.5238 24.6601
" />
<path d="M18.5238 24.6601
L18.4929 24.7220
" />
<path d="M18.4929 24.7220
L18.4929 24.9077
" />
<path d="M18.4929 24.9077
L18.5238 24.9696
" />
<path d="M18.5238 24.9696
L18.5548 25.0006
" />
<path d="M18.5548 25.0006
L18.6167 25.0315
" />
<path d="M18.6167 25.0315
L18.7405 25.0315
" />
<path d="M18.7405 25.0315
L18.8024 25.0006
" />
</g><text x="9.6952" y="58.5052"
transform="scale(-1 1) translate(-19.390500 0)"
textLength="2.1982" font-size="1.0000" lengthAdjust="spacingAndGlyphs"
text-anchor="middle" opacity="0">1uF</text>
<g class="stroked-text"><desc>1uF</desc>
<path d="M10.1417 58.4058
L10.5702 58.4058
" />
<path d="M10.3560 58.4058
L10.3560 57.6558
" />
<path d="M10.3560 57.6558
L10.4274 57.7629
" />
<path d="M10.4274 57.7629
L10.4988 57.8344
" />
<path d="M10.4988 57.8344
L10.5702 57.8701
" />
<path d="M9.4988 57.9058
L9.4988 58.4058
" />
<path d="M9.8202 57.9058
L9.8202 58.2986
" />
<path d="M9.8202 58.2986
L9.7845 58.3701
" />
<path d="M9.7845 58.3701
L9.7131 58.4058
" />
<path d="M9.7131 58.4058
L9.6060 58.4058
" />
<path d="M9.6060 58.4058
L9.5345 58.3701
" />
<path d="M9.5345 58.3701
L9.4988 58.3344
" />
<path d="M8.8917 58.0129
L9.1417 58.0129
" />
<path d="M9.1417 58.4058
L9.1417 57.6558
" />
<path d="M9.1417 57.6558
L8.7845 57.6558
" />
</g><text x="20.0600" y="53.7428"
transform="scale(-1 1) translate(-40.119960 0)"
textLength="3.6268" font-size="1.0000" lengthAdjust="spacingAndGlyphs"
text-anchor="middle" opacity="0">100nF</text>
<g class="stroked-text"><desc>100nF</desc>
<path d="M21.2207 53.6433
L21.6493 53.6433
" />
<path d="M21.4350 53.6433
L21.4350 52.8933
" />
<path d="M21.4350 52.8933
L21.5064 53.0004
" />
<path d="M21.5064 53.0004
L21.5778 53.0719
" />
<path d="M21.5778 53.0719
L21.6493 53.1076
" />
<path d="M20.7564 52.8933
L20.6850 52.8933
" />
<path d="M20.6850 52.8933
L20.6136 52.9290
" />
<path d="M20.6136 52.9290
L20.5778 52.9647
" />
<path d="M20.5778 52.9647
L20.5421 53.0361
" />
<path d="M20.5421 53.0361
L20.5064 53.1790
" />
<path d="M20.5064 53.1790
L20.5064 53.3576
" />
<path d="M20.5064 53.3576
L20.5421 53.5004
" />
<path d="M20.5421 53.5004
L20.5778 53.5719
" />
<path d="M20.5778 53.5719
L20.6136 53.6076
" />
<path d="M20.6136 53.6076
L20.6850 53.6433
" />
<path d="M20.6850 53.6433
L20.7564 53.6433
" />
<path d="M20.7564 53.6433
L20.8278 53.6076
" />
<path d="M20.8278 53.6076
L20.8636 53.5719
" />
<path d="M20.8636 53.5719
L20.8993 53.5004
" />
<path d="M20.8993 53.5004
L20.9350 53.3576
" />
<path d="M20.9350 53.3576
L20.9350 53.1790
" />
<path d="M20.9350 53.1790
L20.8993 53.0361
" />
<path d="M20.8993 53.0361
L20.8636 52.9647
" />
<path d="M20.8636 52.9647
L20.8278 52.9290
" />
<path d="M20.8278 52.9290
L20.7564 52.8933
" />
<path d="M20.0421 52.8933
L19.9707 52.8933
" />
<path d="M19.9707 52.8933
L19.8993 52.9290
" />
<path d="M19.8993 52.9290
L19.8636 52.9647
" />
<path d="M19.8636 52.9647
L19.8278 53.0361
" />
<path d="M19.8278 53.0361
L19.7921 53.1790
" />
<path d="M19.7921 53.1790
L19.7921 53.3576
" />
<path d="M19.7921 53.3576
L19.8278 53.5004
" />
<path d="M19.8278 53.5004
L19.8636 53.5719
" />
<path d="M19.8636 53.5719
L19.8993 53.6076
" />
<path d="M19.8993 53.6076
L19.9707 53.6433
" />
<path d="M19.9707 53.6433
L20.0421 53.6433
" />
<path d="M20.0421 53.6433
L20.1136 53.6076
" />
<path d="M20.1136 53.6076
L20.1493 53.5719
" />
<path d="M20.1493 53.5719
L20.1850 53.5004
" />
<path d="M20.1850 53.5004
L20.2207 53.3576
" />
<path d="M20.2207 53.3576
L20.2207 53.1790
" />
<path d="M20.2207 53.1790
L20.1850 53.0361
" />
<path d="M20.1850 53.0361
L20.1493 52.9647
" />
<path d="M20.1493 52.9647
L20.1136 52.9290
" />
<path d="M20.1136 52.9290
L20.0421 52.8933
" />
<path d="M19.4707 53.1433
L19.4707 53.6433
" />
<path d="M19.4707 53.2147
L19.4350 53.1790
" />
<path d="M19.4350 53.1790
L19.3636 53.1433
" />
<path d="M19.3636 53.1433
L19.2564 53.1433
" />
<path d="M19.2564 53.1433
L19.1850 53.1790
" />
<path d="M19.1850 53.1790
L19.1493 53.2504
" />
<path d="M19.1493 53.2504
L19.1493 53.6433
" />
<path d="M18.5421 53.2504
L18.7921 53.2504
" />
<path d="M18.7921 53.6433
L18.7921 52.8933
" />
<path d="M18.7921 52.8933
L18.4350 52.8933
" />
</g><text x="22.3952" y="58.5052"
transform="scale(-1 1) translate(-44.790500 0)"
textLength="2.9125" font-size="1.0000" lengthAdjust="spacingAndGlyphs"
text-anchor="middle" opacity="0">10uF</text>
<g class="stroked-text"><desc>10uF</desc>
<path d="M23.1988 58.4058
L23.6274 58.4058
" />
<path d="M23.4131 58.4058
L23.4131 57.6558
" />
<path d="M23.4131 57.6558
L23.4845 57.7629
" />
<path d="M23.4845 57.7629
L23.5560 57.8344
" />
<path d="M23.5560 57.8344
L23.6274 57.8701
" />
<path d="M22.7345 57.6558
L22.6631 57.6558
" />
<path d="M22.6631 57.6558
L22.5917 57.6915
" />
<path d="M22.5917 57.6915
L22.5560 57.7272
" />
<path d="M22.5560 57.7272
L22.5202 57.7986
" />
<path d="M22.5202 57.7986
L22.4845 57.9415
" />
<path d="M22.4845 57.9415
L22.4845 58.1201
" />
<path d="M22.4845 58.1201
L22.5202 58.2629
" />
<path d="M22.5202 58.2629
L22.5560 58.3344
" />
<path d="M22.5560 58.3344
L22.5917 58.3701
" />
<path d="M22.5917 58.3701
L22.6631 58.4058
" />
<path d="M22.6631 58.4058
L22.7345 58.4058
" />
<path d="M22.7345 58.4058
L22.8060 58.3701
" />
<path d="M22.8060 58.3701
L22.8417 58.3344
" />
<path d="M22.8417 58.3344
L22.8774 58.2629
" />
<path d="M22.8774 58.2629
L22.9131 58.1201
" />
<path d="M22.9131 58.1201
L22.9131 57.9415
" />
<path d="M22.9131 57.9415
L22.8774 57.7986
" />
<path d="M22.8774 57.7986
L22.8417 57.7272
" />
<path d="M22.8417 57.7272
L22.8060 57.6915
" />
<path d="M22.8060 57.6915
L22.7345 57.6558
" />
<path d="M21.8417 57.9058
L21.8417 58.4058
" />
<path d="M22.1631 57.9058
L22.1631 58.2986
" />
<path d="M22.1631 58.2986
L22.1274 58.3701
" />
<path d="M22.1274 58.3701
L22.0560 58.4058
" />
<path d="M22.0560 58.4058
L21.9488 58.4058
" />
<path d="M21.9488 58.4058
L21.8774 58.3701
" />
<path d="M21.8774 58.3701
L21.8417 58.3344
" />
<path d="M21.2345 58.0129
L21.4845 58.0129
" />
<path d="M21.4845 58.4058
L21.4845 57.6558
" />
<path d="M21.4845 57.6558
L21.1274 57.6558
" />
</g><text x="17.6327" y="58.5052"
transform="scale(-1 1) translate(-35.265500 0)"
textLength="2.1982" font-size="1.0000" lengthAdjust="spacingAndGlyphs"
text-anchor="middle" opacity="0">1uF</text>
<g class="stroked-text"><desc>1uF</desc>
<path d="M18.0792 58.4058
L18.5077 58.4058
" />
<path d="M18.2935 58.4058
L18.2935 57.6558
" />
<path d="M18.2935 57.6558
L18.3649 57.7629
" />
<path d="M18.3649 57.7629
L18.4363 57.8344
" />
<path d="M18.4363 57.8344
L18.5077 57.8701
" />
<path d="M17.4363 57.9058
L17.4363 58.4058
" />
<path d="M17.7577 57.9058
L17.7577 58.2986
" />
<path d="M17.7577 58.2986
L17.7220 58.3701
" />
<path d="M17.7220 58.3701
L17.6506 58.4058
" />
<path d="M17.6506 58.4058
L17.5435 58.4058
" />
<path d="M17.5435 58.4058
L17.4720 58.3701
" />
<path d="M17.4720 58.3701
L17.4363 58.3344
" />
<path d="M16.8292 58.0129
L17.0792 58.0129
" />
<path d="M17.0792 58.4058
L17.0792 57.6558
" />
<path d="M17.0792 57.6558
L16.7220 57.6558
" />
</g><text x="35.8890" y="52.9490"
transform="scale(-1 1) translate(-71.778000 0)"
textLength="3.6268" font-size="1.0000" lengthAdjust="spacingAndGlyphs"
text-anchor="middle" opacity="0">100nF</text>
<g class="stroked-text"><desc>100nF</desc>
<path d="M37.0497 52.8495
L37.4783 52.8495
" />
<path d="M37.2640 52.8495
L37.2640 52.0995
" />
<path d="M37.2640 52.0995
L37.3354 52.2067
" />
<path d="M37.3354 52.2067
L37.4069 52.2781
" />
<path d="M37.4069 52.2781
L37.4783 52.3138
" />
<path d="M36.5854 52.0995
L36.5140 52.0995
" />
<path d="M36.5140 52.0995
L36.4426 52.1352
" />
<path d="M36.4426 52.1352
L36.4069 52.1710
" />
<path d="M36.4069 52.1710
L36.3711 52.2424
" />
<path d="M36.3711 52.2424
L36.3354 52.3852
" />
<path d="M36.3354 52.3852
L36.3354 52.5638
" />
<path d="M36.3354 52.5638
L36.3711 52.7067
" />
<path d="M36.3711 52.7067
L36.4069 52.7781
" />
<path d="M36.4069 52.7781
L36.4426 52.8138
" />
<path d="M36.4426 52.8138
L36.5140 52.8495
" />
<path d="M36.5140 52.8495
L36.5854 52.8495
" />
<path d="M36.5854 52.8495
L36.6569 52.8138
" />
<path d="M36.6569 52.8138
L36.6926 52.7781
" />
<path d="M36.6926 52.7781
L36.7283 52.7067
" />
<path d="M36.7283 52.7067
L36.7640 52.5638
" />
<path d="M36.7640 52.5638
L36.7640 52.3852
" />
<path d="M36.7640 52.3852
L36.7283 52.2424
" />
<path d="M36.7283 52.2424
L36.6926 52.1710
" />
<path d="M36.6926 52.1710
L36.6569 52.1352
" />
<path d="M36.6569 52.1352
L36.5854 52.0995
" />
<path d="M35.8711 52.0995
L35.7997 52.0995
" />
<path d="M35.7997 52.0995
L35.7283 52.1352
" />
<path d="M35.7283 52.1352
L35.6926 52.1710
" />
<path d="M35.6926 52.1710
L35.6569 52.2424
" />
<path d="M35.6569 52.2424
L35.6211 52.3852
" />
<path d="M35.6211 52.3852
L35.6211 52.5638
" />
<path d="M35.6211 52.5638
L35.6569 52.7067
" />
<path d="M35.6569 52.7067
L35.6926 52.7781
" />
<path d="M35.6926 52.7781
L35.7283 52.8138
" />
<path d="M35.7283 52.8138
L35.7997 52.8495
" />
<path d="M35.7997 52.8495
L35.8711 52.8495
" />
<path d="M35.8711 52.8495
L35.9426 52.8138
" />
<path d="M35.9426 52.8138
L35.9783 52.7781
" />
<path d="M35.9783 52.7781
L36.0140 52.7067
" />
<path d="M36.0140 52.7067
L36.0497 52.5638
" />
<path d="M36.0497 52.5638
L36.0497 52.3852
" />
<path d="M36.0497 52.3852
L36.0140 52.2424
" />
<path d="M36.0140 52.2424
L35.9783 52.1710
" />
<path d="M35.9783 52.1710
L35.9426 52.1352
" />
<path d="M35.9426 52.1352
L35.8711 52.0995
" />
<path d="M35.2997 52.3495
L35.2997 52.8495
" />
<path d="M35.2997 52.4210
L35.2640 52.3852
" />
<path d="M35.2640 52.3852
L35.1926 52.3495
" />
<path d="M35.1926 52.3495
L35.0854 52.3495
" />
<path d="M35.0854 52.3495
L35.0140 52.3852
" />
<path d="M35.0140 52.3852
L34.9783 52.4567
" />
<path d="M34.9783 52.4567
L34.9783 52.8495
" />
<path d="M34.3711 52.4567
L34.6211 52.4567
" />
<path d="M34.6211 52.8495
L34.6211 52.0995
" />
<path d="M34.6211 52.0995
L34.2640 52.0995
" />
</g><g transform="rotate(-90.000000 23.5249 67.9253)">
<text x="23.5249" y="68.3003"
transform="scale(-1 1) translate(-47.049872 0)"
textLength="3.6268" font-size="1.0000" lengthAdjust="spacingAndGlyphs"
text-anchor="middle" opacity="0">100nF</text>
</g>
<g class="stroked-text"><desc>100nF</desc>
<path d="M23.8005 66.7646
L23.8005 66.3361
" />
<path d="M23.8005 66.5503
L23.0505 66.5503
" />
<path d="M23.0505 66.5503
L23.1576 66.4789
" />
<path d="M23.1576 66.4789
L23.2290 66.4075
" />
<path d="M23.2290 66.4075
L23.2648 66.3361
" />
<path d="M23.0505 67.2289
L23.0505 67.3003
" />
<path d="M23.0505 67.3003
L23.0862 67.3718
" />
<path d="M23.0862 67.3718
L23.1219 67.4075
" />
<path d="M23.1219 67.4075
L23.1933 67.4432
" />
<path d="M23.1933 67.4432
L23.3362 67.4789
" />
<path d="M23.3362 67.4789
L23.5148 67.4789
" />
<path d="M23.5148 67.4789
L23.6576 67.4432
" />
<path d="M23.6576 67.4432
L23.7290 67.4075
" />
<path d="M23.7290 67.4075
L23.7648 67.3718
" />
<path d="M23.7648 67.3718
L23.8005 67.3003
" />
<path d="M23.8005 67.3003
L23.8005 67.2289
" />
<path d="M23.8005 67.2289
L23.7648 67.1575
" />
<path d="M23.7648 67.1575
L23.7290 67.1218
" />
<path d="M23.7290 67.1218
L23.6576 67.0861
" />
<path d="M23.6576 67.0861
L23.5148 67.0503
" />
<path d="M23.5148 67.0503
L23.3362 67.0503
" />
<path d="M23.3362 67.0503
L23.1933 67.0861
" />
<path d="M23.1933 67.0861
L23.1219 67.1218
" />
<path d="M23.1219 67.1218
L23.0862 67.1575
" />
<path d="M23.0862 67.1575
L23.0505 67.2289
" />
<path d="M23.0505 67.9432
L23.0505 68.0146
" />
<path d="M23.0505 68.0146
L23.0862 68.0861
" />
<path d="M23.0862 68.0861
L23.1219 68.1218
" />
<path d="M23.1219 68.1218
L23.1933 68.1575
" />
<path d="M23.1933 68.1575
L23.3362 68.1932
" />
<path d="M23.3362 68.1932
L23.5148 68.1932
" />
<path d="M23.5148 68.1932
L23.6576 68.1575
" />
<path d="M23.6576 68.1575
L23.7290 68.1218
" />
<path d="M23.7290 68.1218
L23.7648 68.0861
" />
<path d="M23.7648 68.0861
L23.8005 68.0146
" />
<path d="M23.8005 68.0146
L23.8005 67.9432
" />
<path d="M23.8005 67.9432
L23.7648 67.8718
" />
<path d="M23.7648 67.8718
L23.7290 67.8361
" />
<path d="M23.7290 67.8361
L23.6576 67.8003
" />
<path d="M23.6576 67.8003
L23.5148 67.7646
" />
<path d="M23.5148 67.7646
L23.3362 67.7646
" />
<path d="M23.3362 67.7646
L23.1933 67.8003
" />
<path d="M23.1933 67.8003
L23.1219 67.8361
" />
<path d="M23.1219 67.8361
L23.0862 67.8718
" />
<path d="M23.0862 67.8718
L23.0505 67.9432
" />
<path d="M23.3005 68.5146
L23.8005 68.5146
" />
<path d="M23.3719 68.5146
L23.3362 68.5503
" />
<path d="M23.3362 68.5503
L23.3005 68.6218
" />
<path d="M23.3005 68.6218
L23.3005 68.7289
" />
<path d="M23.3005 68.7289
L23.3362 68.8003
" />
<path d="M23.3362 68.8003
L23.4076 68.8361
" />
<path d="M23.4076 68.8361
L23.8005 68.8361
" />
<path d="M23.4076 69.4432
L23.4076 69.1932
" />
<path d="M23.8005 69.1932
L23.0505 69.1932
" />
<path d="M23.0505 69.1932
L23.0505 69.5503
" />
</g><text x="24.7765" y="40.1990"
transform="scale(-1 1) translate(-49.553000 0)"
textLength="2.2254" font-size="0.8667" lengthAdjust="spacingAndGlyphs"
text-anchor="middle" opacity="0">fuse</text>
<g class="stroked-text"><desc>fuse</desc>
<path d="M25.7360 39.6795
L25.4884 39.6795
" />
<path d="M25.6432 40.1128
L25.6432 39.5557
" />
<path d="M25.6432 39.5557
L25.6122 39.4937
" />
<path d="M25.6122 39.4937
L25.5503 39.4628
" />
<path d="M25.5503 39.4628
L25.4884 39.4628
" />
<path d="M24.9932 39.6795
L24.9932 40.1128
" />
<path d="M25.2717 39.6795
L25.2717 40.0199
" />
<path d="M25.2717 40.0199
L25.2408 40.0818
" />
<path d="M25.2408 40.0818
L25.1789 40.1128
" />
<path d="M25.1789 40.1128
L25.0860 40.1128
" />
<path d="M25.0860 40.1128
L25.0241 40.0818
" />
<path d="M25.0241 40.0818
L24.9932 40.0509
" />
<path d="M24.7146 40.0818
L24.6527 40.1128
" />
<path d="M24.6527 40.1128
L24.5289 40.1128
" />
<path d="M24.5289 40.1128
L24.4670 40.0818
" />
<path d="M24.4670 40.0818
L24.4360 40.0199
" />
<path d="M24.4360 40.0199
L24.4360 39.9890
" />
<path d="M24.4360 39.9890
L24.4670 39.9271
" />
<path d="M24.4670 39.9271
L24.5289 39.8961
" />
<path d="M24.5289 39.8961
L24.6217 39.8961
" />
<path d="M24.6217 39.8961
L24.6836 39.8652
" />
<path d="M24.6836 39.8652
L24.7146 39.8033
" />
<path d="M24.7146 39.8033
L24.7146 39.7723
" />
<path d="M24.7146 39.7723
L24.6836 39.7104
" />
<path d="M24.6836 39.7104
L24.6217 39.6795
" />
<path d="M24.6217 39.6795
L24.5289 39.6795
" />
<path d="M24.5289 39.6795
L24.4670 39.7104
" />
<path d="M23.9098 40.0818
L23.9717 40.1128
" />
<path d="M23.9717 40.1128
L24.0955 40.1128
" />
<path d="M24.0955 40.1128
L24.1575 40.0818
" />
<path d="M24.1575 40.0818
L24.1884 40.0199
" />
<path d="M24.1884 40.0199
L24.1884 39.7723
" />
<path d="M24.1884 39.7723
L24.1575 39.7104
" />
<path d="M24.1575 39.7104
L24.0955 39.6795
" />
<path d="M24.0955 39.6795
L23.9717 39.6795
" />
<path d="M23.9717 39.6795
L23.9098 39.7104
" />
<path d="M23.9098 39.7104
L23.8789 39.7723
" />
<path d="M23.8789 39.7723
L23.8789 39.8342
" />
<path d="M23.8789 39.8342
L24.1884 39.8961
" />
</g><g transform="rotate(-90.000000 13.6640 55.7490)">
<text x="13.6640" y="56.0740"
transform="scale(-1 1) translate(-27.328000 0)"
textLength="3.3087" font-size="0.8667" lengthAdjust="spacingAndGlyphs"
text-anchor="middle" opacity="0">shifter</text>
</g>
<g class="stroked-text"><desc>shifter</desc>
<path d="M13.8718 54.3097
L13.9028 54.3716
" />
<path d="M13.9028 54.3716
L13.9028 54.4954
" />
<path d="M13.9028 54.4954
L13.8718 54.5573
" />
<path d="M13.8718 54.5573
L13.8099 54.5883
" />
<path d="M13.8099 54.5883
L13.7790 54.5883
" />
<path d="M13.7790 54.5883
L13.7171 54.5573
" />
<path d="M13.7171 54.5573
L13.6861 54.4954
" />
<path d="M13.6861 54.4954
L13.6861 54.4026
" />
<path d="M13.6861 54.4026
L13.6552 54.3407
" />
<path d="M13.6552 54.3407
L13.5933 54.3097
" />
<path d="M13.5933 54.3097
L13.5623 54.3097
" />
<path d="M13.5623 54.3097
L13.5004 54.3407
" />
<path d="M13.5004 54.3407
L13.4695 54.4026
" />
<path d="M13.4695 54.4026
L13.4695 54.4954
" />
<path d="M13.4695 54.4954
L13.5004 54.5573
" />
<path d="M13.9028 54.8669
L13.2528 54.8669
" />
<path d="M13.9028 55.1454
L13.5623 55.1454
" />
<path d="M13.5623 55.1454
L13.5004 55.1145
" />
<path d="M13.5004 55.1145
L13.4695 55.0526
" />
<path d="M13.4695 55.0526
L13.4695 54.9597
" />
<path d="M13.4695 54.9597
L13.5004 54.8978
" />
<path d="M13.5004 54.8978
L13.5314 54.8669
" />
<path d="M13.9028 55.4550
L13.4695 55.4550
" />
<path d="M13.2528 55.4550
L13.2837 55.4240
" />
<path d="M13.2837 55.4240
L13.3147 55.4550
" />
<path d="M13.3147 55.4550
L13.2837 55.4859
" />
<path d="M13.2837 55.4859
L13.2528 55.4550
" />
<path d="M13.2528 55.4550
L13.3147 55.4550
" />
<path d="M13.4695 55.6716
L13.4695 55.9192
" />
<path d="M13.9028 55.7645
L13.3457 55.7645
" />
<path d="M13.3457 55.7645
L13.2837 55.7954
" />
<path d="M13.2837 55.7954
L13.2528 55.8573
" />
<path d="M13.2528 55.8573
L13.2528 55.9192
" />
<path d="M13.4695 56.0430
L13.4695 56.2907
" />
<path d="M13.2528 56.1359
L13.8099 56.1359
" />
<path d="M13.8099 56.1359
L13.8718 56.1669
" />
<path d="M13.8718 56.1669
L13.9028 56.2288
" />
<path d="M13.9028 56.2288
L13.9028 56.2907
" />
<path d="M13.8718 56.7550
L13.9028 56.6930
" />
<path d="M13.9028 56.6930
L13.9028 56.5692
" />
<path d="M13.9028 56.5692
L13.8718 56.5073
" />
<path d="M13.8718 56.5073
L13.8099 56.4764
" />
<path d="M13.8099 56.4764
L13.5623 56.4764
" />
<path d="M13.5623 56.4764
L13.5004 56.5073
" />
<path d="M13.5004 56.5073
L13.4695 56.5692
" />
<path d="M13.4695 56.5692
L13.4695 56.6930
" />
<path d="M13.4695 56.6930
L13.5004 56.7550
" />
<path d="M13.5004 56.7550
L13.5623 56.7859
" />
<path d="M13.5623 56.7859
L13.6242 56.7859
" />
<path d="M13.6242 56.7859
L13.6861 56.4764
" />
<path d="M13.9028 57.0645
L13.4695 57.0645
" />
<path d="M13.5933 57.0645
L13.5314 57.0954
" />
<path d="M13.5314 57.0954
L13.5004 57.1264
" />
<path d="M13.5004 57.1264
L13.4695 57.1883
" />
<path d="M13.4695 57.1883
L13.4695 57.2502
" />
</g><text x="29.5390" y="57.9790"
transform="scale(-1 1) translate(-59.078000 0)"
textLength="2.1944" font-size="0.8667" lengthAdjust="spacingAndGlyphs"
text-anchor="middle" opacity="0">mcu</text>
<g class="stroked-text"><desc>mcu</desc>
<path d="M30.3902 57.8928
L30.3902 57.4595
" />
<path d="M30.3902 57.5214
L30.3592 57.4904
" />
<path d="M30.3592 57.4904
L30.2973 57.4595
" />
<path d="M30.2973 57.4595
L30.2045 57.4595
" />
<path d="M30.2045 57.4595
L30.1426 57.4904
" />
<path d="M30.1426 57.4904
L30.1116 57.5523
" />
<path d="M30.1116 57.5523
L30.1116 57.8928
" />
<path d="M30.1116 57.5523
L30.0807 57.4904
" />
<path d="M30.0807 57.4904
L30.0188 57.4595
" />
<path d="M30.0188 57.4595
L29.9259 57.4595
" />
<path d="M29.9259 57.4595
L29.8640 57.4904
" />
<path d="M29.8640 57.4904
L29.8330 57.5523
" />
<path d="M29.8330 57.5523
L29.8330 57.8928
" />
<path d="M29.2450 57.8618
L29.3069 57.8928
" />
<path d="M29.3069 57.8928
L29.4307 57.8928
" />
<path d="M29.4307 57.8928
L29.4926 57.8618
" />
<path d="M29.4926 57.8618
L29.5235 57.8309
" />
<path d="M29.5235 57.8309
L29.5545 57.7690
" />
<path d="M29.5545 57.7690
L29.5545 57.5833
" />
<path d="M29.5545 57.5833
L29.5235 57.5214
" />
<path d="M29.5235 57.5214
L29.4926 57.4904
" />
<path d="M29.4926 57.4904
L29.4307 57.4595
" />
<path d="M29.4307 57.4595
L29.3069 57.4595
" />
<path d="M29.3069 57.4595
L29.2450 57.4904
" />
<path d="M28.6878 57.4595
L28.6878 57.8928
" />
<path d="M28.9664 57.4595
L28.9664 57.7999
" />
<path d="M28.9664 57.7999
L28.9354 57.8618
" />
<path d="M28.9354 57.8618
L28.8735 57.8928
" />
<path d="M28.8735 57.8928
L28.7807 57.8928
" />
<path d="M28.7807 57.8928
L28.7188 57.8618
" />
<path d="M28.7188 57.8618
L28.6878 57.8309
" />
</g><text x="21.6015" y="38.6615"
transform="scale(-1 1) translate(-43.203000 0)"
textLength="2.5554" font-size="1.0000" lengthAdjust="spacingAndGlyphs"
text-anchor="middle" opacity="0">5.1k</text>
<g class="stroked-text"><desc>5.1k</desc>
<path d="M22.2622 37.8120
L22.6194 37.8120
" />
<path d="M22.6194 37.8120
L22.6551 38.1692
" />
<path d="M22.6551 38.1692
L22.6194 38.1335
" />
<path d="M22.6194 38.1335
L22.5479 38.0977
" />
<path d="M22.5479 38.0977
L22.3694 38.0977
" />
<path d="M22.3694 38.0977
L22.2979 38.1335
" />
<path d="M22.2979 38.1335
L22.2622 38.1692
" />
<path d="M22.2622 38.1692
L22.2265 38.2406
" />
<path d="M22.2265 38.2406
L22.2265 38.4192
" />
<path d="M22.2265 38.4192
L22.2622 38.4906
" />
<path d="M22.2622 38.4906
L22.2979 38.5263
" />
<path d="M22.2979 38.5263
L22.3694 38.5620
" />
<path d="M22.3694 38.5620
L22.5479 38.5620
" />
<path d="M22.5479 38.5620
L22.6194 38.5263
" />
<path d="M22.6194 38.5263
L22.6551 38.4906
" />
<path d="M21.9051 38.4906
L21.8694 38.5263
" />
<path d="M21.8694 38.5263
L21.9051 38.5620
" />
<path d="M21.9051 38.5620
L21.9408 38.5263
" />
<path d="M21.9408 38.5263
L21.9051 38.4906
" />
<path d="M21.9051 38.4906
L21.9051 38.5620
" />
<path d="M21.1551 38.5620
L21.5836 38.5620
" />
<path d="M21.3694 38.5620
L21.3694 37.8120
" />
<path d="M21.3694 37.8120
L21.4408 37.9192
" />
<path d="M21.4408 37.9192
L21.5122 37.9906
" />
<path d="M21.5122 37.9906
L21.5836 38.0263
" />
<path d="M20.8336 38.5620
L20.8336 37.8120
" />
<path d="M20.7622 38.2763
L20.5479 38.5620
" />
<path d="M20.5479 38.0620
L20.8336 38.3477
" />
</g><text x="45.3758" y="57.5617"
transform="scale(-1 1) translate(-90.751536 0)"
textLength="2.3182" font-size="0.8667" lengthAdjust="spacingAndGlyphs"
text-anchor="middle" opacity="0">boot</text>
<g class="stroked-text"><desc>boot</desc>
<path d="M46.2889 57.4755
L46.2889 56.8255
" />
<path d="M46.2889 57.0732
L46.2270 57.0422
" />
<path d="M46.2270 57.0422
L46.1031 57.0422
" />
<path d="M46.1031 57.0422
L46.0412 57.0732
" />
<path d="M46.0412 57.0732
L46.0103 57.1041
" />
<path d="M46.0103 57.1041
L45.9793 57.1660
" />
<path d="M45.9793 57.1660
L45.9793 57.3517
" />
<path d="M45.9793 57.3517
L46.0103 57.4136
" />
<path d="M46.0103 57.4136
L46.0412 57.4446
" />
<path d="M46.0412 57.4446
L46.1031 57.4755
" />
<path d="M46.1031 57.4755
L46.2270 57.4755
" />
<path d="M46.2270 57.4755
L46.2889 57.4446
" />
<path d="M45.6079 57.4755
L45.6698 57.4446
" />
<path d="M45.6698 57.4446
L45.7008 57.4136
" />
<path d="M45.7008 57.4136
L45.7317 57.3517
" />
<path d="M45.7317 57.3517
L45.7317 57.1660
" />
<path d="M45.7317 57.1660
L45.7008 57.1041
" />
<path d="M45.7008 57.1041
L45.6698 57.0732
" />
<path d="M45.6698 57.0732
L45.6079 57.0422
" />
<path d="M45.6079 57.0422
L45.5151 57.0422
" />
<path d="M45.5151 57.0422
L45.4531 57.0732
" />
<path d="M45.4531 57.0732
L45.4222 57.1041
" />
<path d="M45.4222 57.1041
L45.3912 57.1660
" />
<path d="M45.3912 57.1660
L45.3912 57.3517
" />
<path d="M45.3912 57.3517
L45.4222 57.4136
" />
<path d="M45.4222 57.4136
L45.4531 57.4446
" />
<path d="M45.4531 57.4446
L45.5151 57.4755
" />
<path d="M45.5151 57.4755
L45.6079 57.4755
" />
<path d="M45.0198 57.4755
L45.0817 57.4446
" />
<path d="M45.0817 57.4446
L45.1127 57.4136
" />
<path d="M45.1127 57.4136
L45.1436 57.3517
" />
<path d="M45.1436 57.3517
L45.1436 57.1660
" />
<path d="M45.1436 57.1660
L45.1127 57.1041
" />
<path d="M45.1127 57.1041
L45.0817 57.0732
" />
<path d="M45.0817 57.0732
L45.0198 57.0422
" />
<path d="M45.0198 57.0422
L44.9270 57.0422
" />
<path d="M44.9270 57.0422
L44.8651 57.0732
" />
<path d="M44.8651 57.0732
L44.8341 57.1041
" />
<path d="M44.8341 57.1041
L44.8031 57.1660
" />
<path d="M44.8031 57.1660
L44.8031 57.3517
" />
<path d="M44.8031 57.3517
L44.8341 57.4136
" />
<path d="M44.8341 57.4136
L44.8651 57.4446
" />
<path d="M44.8651 57.4446
L44.9270 57.4755
" />
<path d="M44.9270 57.4755
L45.0198 57.4755
" />
<path d="M44.6174 57.0422
L44.3698 57.0422
" />
<path d="M44.5246 56.8255
L44.5246 57.3827
" />
<path d="M44.5246 57.3827
L44.4936 57.4446
" />
<path d="M44.4936 57.4446
L44.4317 57.4755
" />
<path d="M44.4317 57.4755
L44.3698 57.4755
" />
</g><text x="17.6327" y="38.6615"
transform="scale(-1 1) translate(-35.265500 0)"
textLength="2.5554" font-size="1.0000" lengthAdjust="spacingAndGlyphs"
text-anchor="middle" opacity="0">5.1k</text>
<g class="stroked-text"><desc>5.1k</desc>
<path d="M18.2935 37.8120
L18.6506 37.8120
" />
<path d="M18.6506 37.8120
L18.6863 38.1692
" />
<path d="M18.6863 38.1692
L18.6506 38.1335
" />
<path d="M18.6506 38.1335
L18.5792 38.0977
" />
<path d="M18.5792 38.0977
L18.4006 38.0977
" />
<path d="M18.4006 38.0977
L18.3292 38.1335
" />
<path d="M18.3292 38.1335
L18.2935 38.1692
" />
<path d="M18.2935 38.1692
L18.2577 38.2406
" />
<path d="M18.2577 38.2406
L18.2577 38.4192
" />
<path d="M18.2577 38.4192
L18.2935 38.4906
" />
<path d="M18.2935 38.4906
L18.3292 38.5263
" />
<path d="M18.3292 38.5263
L18.4006 38.5620
" />
<path d="M18.4006 38.5620
L18.5792 38.5620
" />
<path d="M18.5792 38.5620
L18.6506 38.5263
" />
<path d="M18.6506 38.5263
L18.6863 38.4906
" />
<path d="M17.9363 38.4906
L17.9006 38.5263
" />
<path d="M17.9006 38.5263
L17.9363 38.5620
" />
<path d="M17.9363 38.5620
L17.9720 38.5263
" />
<path d="M17.9720 38.5263
L17.9363 38.4906
" />
<path d="M17.9363 38.4906
L17.9363 38.5620
" />
<path d="M17.1863 38.5620
L17.6149 38.5620
" />
<path d="M17.4006 38.5620
L17.4006 37.8120
" />
<path d="M17.4006 37.8120
L17.4720 37.9192
" />
<path d="M17.4720 37.9192
L17.5435 37.9906
" />
<path d="M17.5435 37.9906
L17.6149 38.0263
" />
<path d="M16.8649 38.5620
L16.8649 37.8120
" />
<path d="M16.7935 38.2763
L16.5792 38.5620
" />
<path d="M16.5792 38.0620
L16.8649 38.3477
" />
</g><g transform="rotate(-90.000000 31.9202 72.4177)">
<text x="31.9202" y="72.7927"
transform="scale(-1 1) translate(-63.840500 0)"
textLength="3.6268" font-size="1.0000" lengthAdjust="spacingAndGlyphs"
text-anchor="middle" opacity="0">100nF</text>
</g>
<g class="stroked-text"><desc>100nF</desc>
<path d="M32.1958 71.2570
L32.1958 70.8285
" />
<path d="M32.1958 71.0427
L31.4458 71.0427
" />
<path d="M31.4458 71.0427
L31.5529 70.9713
" />
<path d="M31.5529 70.9713
L31.6244 70.8999
" />
<path d="M31.6244 70.8999
L31.6601 70.8285
" />
<path d="M31.4458 71.7213
L31.4458 71.7927
" />
<path d="M31.4458 71.7927
L31.4815 71.8642
" />
<path d="M31.4815 71.8642
L31.5172 71.8999
" />
<path d="M31.5172 71.8999
L31.5886 71.9356
" />
<path d="M31.5886 71.9356
L31.7315 71.9713
" />
<path d="M31.7315 71.9713
L31.9101 71.9713
" />
<path d="M31.9101 71.9713
L32.0529 71.9356
" />
<path d="M32.0529 71.9356
L32.1244 71.8999
" />
<path d="M32.1244 71.8999
L32.1601 71.8642
" />
<path d="M32.1601 71.8642
L32.1958 71.7927
" />
<path d="M32.1958 71.7927
L32.1958 71.7213
" />
<path d="M32.1958 71.7213
L32.1601 71.6499
" />
<path d="M32.1601 71.6499
L32.1244 71.6142
" />
<path d="M32.1244 71.6142
L32.0529 71.5785
" />
<path d="M32.0529 71.5785
L31.9101 71.5427
" />
<path d="M31.9101 71.5427
L31.7315 71.5427
" />
<path d="M31.7315 71.5427
L31.5886 71.5785
" />
<path d="M31.5886 71.5785
L31.5172 71.6142
" />
<path d="M31.5172 71.6142
L31.4815 71.6499
" />
<path d="M31.4815 71.6499
L31.4458 71.7213
" />
<path d="M31.4458 72.4356
L31.4458 72.5070
" />
<path d="M31.4458 72.5070
L31.4815 72.5785
" />
<path d="M31.4815 72.5785
L31.5172 72.6142
" />
<path d="M31.5172 72.6142
L31.5886 72.6499
" />
<path d="M31.5886 72.6499
L31.7315 72.6856
" />
<path d="M31.7315 72.6856
L31.9101 72.6856
" />
<path d="M31.9101 72.6856
L32.0529 72.6499
" />
<path d="M32.0529 72.6499
L32.1244 72.6142
" />
<path d="M32.1244 72.6142
L32.1601 72.5785
" />
<path d="M32.1601 72.5785
L32.1958 72.5070
" />
<path d="M32.1958 72.5070
L32.1958 72.4356
" />
<path d="M32.1958 72.4356
L32.1601 72.3642
" />
<path d="M32.1601 72.3642
L32.1244 72.3285
" />
<path d="M32.1244 72.3285
L32.0529 72.2927
" />
<path d="M32.0529 72.2927
L31.9101 72.2570
" />
<path d="M31.9101 72.2570
L31.7315 72.2570
" />
<path d="M31.7315 72.2570
L31.5886 72.2927
" />
<path d="M31.5886 72.2927
L31.5172 72.3285
" />
<path d="M31.5172 72.3285
L31.4815 72.3642
" />
<path d="M31.4815 72.3642
L31.4458 72.4356
" />
<path d="M31.6958 73.0070
L32.1958 73.0070
" />
<path d="M31.7672 73.0070
L31.7315 73.0427
" />
<path d="M31.7315 73.0427
L31.6958 73.1142
" />
<path d="M31.6958 73.1142
L31.6958 73.2213
" />
<path d="M31.6958 73.2213
L31.7315 73.2927
" />
<path d="M31.7315 73.2927
L31.8029 73.3285
" />
<path d="M31.8029 73.3285
L32.1958 73.3285
" />
<path d="M31.8029 73.9356
L31.8029 73.6856
" />
<path d="M32.1958 73.6856
L31.4458 73.6856
" />
<path d="M31.4458 73.6856
L31.4458 74.0427
" />
</g><g transform="rotate(-90.000000 30.8215 42.3632)">
<text x="30.8215" y="42.6882"
transform="scale(-1 1) translate(-61.642934 0)"
textLength="1.6992" font-size="0.8667" lengthAdjust="spacingAndGlyphs"
text-anchor="middle" opacity="0">lod</text>
</g>
<g class="stroked-text"><desc>lod</desc>
<path d="M31.0603 41.8525
L31.0293 41.7906
" />
<path d="M31.0293 41.7906
L30.9674 41.7597
" />
<path d="M30.9674 41.7597
L30.4103 41.7597
" />
<path d="M31.0603 42.1930
L31.0293 42.1311
" />
<path d="M31.0293 42.1311
L30.9984 42.1001
" />
<path d="M30.9984 42.1001
L30.9365 42.0692
" />
<path d="M30.9365 42.0692
L30.7507 42.0692
" />
<path d="M30.7507 42.0692
L30.6888 42.1001
" />
<path d="M30.6888 42.1001
L30.6579 42.1311
" />
<path d="M30.6579 42.1311
L30.6269 42.1930
" />
<path d="M30.6269 42.1930
L30.6269 42.2858
" />
<path d="M30.6269 42.2858
L30.6579 42.3477
" />
<path d="M30.6579 42.3477
L30.6888 42.3787
" />
<path d="M30.6888 42.3787
L30.7507 42.4097
" />
<path d="M30.7507 42.4097
L30.9365 42.4097
" />
<path d="M30.9365 42.4097
L30.9984 42.3787
" />
<path d="M30.9984 42.3787
L31.0293 42.3477
" />
<path d="M31.0293 42.3477
L31.0603 42.2858
" />
<path d="M31.0603 42.2858
L31.0603 42.1930
" />
<path d="M31.0603 42.9668
L30.4103 42.9668
" />
<path d="M31.0293 42.9668
L31.0603 42.9049
" />
<path d="M31.0603 42.9049
L31.0603 42.7811
" />
<path d="M31.0603 42.7811
L31.0293 42.7192
" />
<path d="M31.0293 42.7192
L30.9984 42.6882
" />
<path d="M30.9984 42.6882
L30.9365 42.6573
" />
<path d="M30.9365 42.6573
L30.7507 42.6573
" />
<path d="M30.7507 42.6573
L30.6888 42.6882
" />
<path d="M30.6888 42.6882
L30.6579 42.7192
" />
<path d="M30.6579 42.7192
L30.6269 42.7811
" />
<path d="M30.6269 42.7811
L30.6269 42.9049
" />
<path d="M30.6269 42.9049
L30.6579 42.9668
" />
</g><text x="48.5890" y="40.1990"
transform="scale(-1 1) translate(-97.178000 0)"
textLength="1.3896" font-size="0.8667" lengthAdjust="spacingAndGlyphs"
text-anchor="middle" opacity="0">jst</text>
<g class="stroked-text"><desc>jst</desc>
<path d="M49.0378 39.6795
L49.0378 40.2366
" />
<path d="M49.0378 40.2366
L49.0688 40.2985
" />
<path d="M49.0688 40.2985
L49.1307 40.3295
" />
<path d="M49.1307 40.3295
L49.1616 40.3295
" />
<path d="M49.0378 39.4628
L49.0688 39.4937
" />
<path d="M49.0688 39.4937
L49.0378 39.5247
" />
<path d="M49.0378 39.5247
L49.0069 39.4937
" />
<path d="M49.0069 39.4937
L49.0378 39.4628
" />
<path d="M49.0378 39.4628
L49.0378 39.5247
" />
<path d="M48.7592 40.0818
L48.6973 40.1128
" />
<path d="M48.6973 40.1128
L48.5735 40.1128
" />
<path d="M48.5735 40.1128
L48.5116 40.0818
" />
<path d="M48.5116 40.0818
L48.4807 40.0199
" />
<path d="M48.4807 40.0199
L48.4807 39.9890
" />
<path d="M48.4807 39.9890
L48.5116 39.9271
" />
<path d="M48.5116 39.9271
L48.5735 39.8961
" />
<path d="M48.5735 39.8961
L48.6664 39.8961
" />
<path d="M48.6664 39.8961
L48.7283 39.8652
" />
<path d="M48.7283 39.8652
L48.7592 39.8033
" />
<path d="M48.7592 39.8033
L48.7592 39.7723
" />
<path d="M48.7592 39.7723
L48.7283 39.7104
" />
<path d="M48.7283 39.7104
L48.6664 39.6795
" />
<path d="M48.6664 39.6795
L48.5735 39.6795
" />
<path d="M48.5735 39.6795
L48.5116 39.7104
" />
<path d="M48.2950 39.6795
L48.0473 39.6795
" />
<path d="M48.2021 39.4628
L48.2021 40.0199
" />
<path d="M48.2021 40.0199
L48.1711 40.0818
" />
<path d="M48.1711 40.0818
L48.1092 40.1128
" />
<path d="M48.1092 40.1128
L48.0473 40.1128
" />
</g><g transform="rotate(-90.000000 21.3109 64.4802)">
<text x="21.3109" y="64.8552"
transform="scale(-1 1) translate(-42.621710 0)"
textLength="3.6268" font-size="1.0000" lengthAdjust="spacingAndGlyphs"
text-anchor="middle" opacity="0">100nF</text>
</g>
<g class="stroked-text"><desc>100nF</desc>
<path d="M21.5864 63.3195
L21.5864 62.8910
" />
<path d="M21.5864 63.1052
L20.8364 63.1052
" />
<path d="M20.8364 63.1052
L20.9435 63.0338
" />
<path d="M20.9435 63.0338
L21.0150 62.9624
" />
<path d="M21.0150 62.9624
L21.0507 62.8910
" />
<path d="M20.8364 63.7838
L20.8364 63.8552
" />
<path d="M20.8364 63.8552
L20.8721 63.9267
" />
<path d="M20.8721 63.9267
L20.9078 63.9624
" />
<path d="M20.9078 63.9624
L20.9792 63.9981
" />
<path d="M20.9792 63.9981
L21.1221 64.0338
" />
<path d="M21.1221 64.0338
L21.3007 64.0338
" />
<path d="M21.3007 64.0338
L21.4435 63.9981
" />
<path d="M21.4435 63.9981
L21.5150 63.9624
" />
<path d="M21.5150 63.9624
L21.5507 63.9267
" />
<path d="M21.5507 63.9267
L21.5864 63.8552
" />
<path d="M21.5864 63.8552
L21.5864 63.7838
" />
<path d="M21.5864 63.7838
L21.5507 63.7124
" />
<path d="M21.5507 63.7124
L21.5150 63.6767
" />
<path d="M21.5150 63.6767
L21.4435 63.6410
" />
<path d="M21.4435 63.6410
L21.3007 63.6052
" />
<path d="M21.3007 63.6052
L21.1221 63.6052
" />
<path d="M21.1221 63.6052
L20.9792 63.6410
" />
<path d="M20.9792 63.6410
L20.9078 63.6767
" />
<path d="M20.9078 63.6767
L20.8721 63.7124
" />
<path d="M20.8721 63.7124
L20.8364 63.7838
" />
<path d="M20.8364 64.4981
L20.8364 64.5695
" />
<path d="M20.8364 64.5695
L20.8721 64.6410
" />
<path d="M20.8721 64.6410
L20.9078 64.6767
" />
<path d="M20.9078 64.6767
L20.9792 64.7124
" />
<path d="M20.9792 64.7124
L21.1221 64.7481
" />
<path d="M21.1221 64.7481
L21.3007 64.7481
" />
<path d="M21.3007 64.7481
L21.4435 64.7124
" />
<path d="M21.4435 64.7124
L21.5150 64.6767
" />
<path d="M21.5150 64.6767
L21.5507 64.6410
" />
<path d="M21.5507 64.6410
L21.5864 64.5695
" />
<path d="M21.5864 64.5695
L21.5864 64.4981
" />
<path d="M21.5864 64.4981
L21.5507 64.4267
" />
<path d="M21.5507 64.4267
L21.5150 64.3910
" />
<path d="M21.5150 64.3910
L21.4435 64.3552
" />
<path d="M21.4435 64.3552
L21.3007 64.3195
" />
<path d="M21.3007 64.3195
L21.1221 64.3195
" />
<path d="M21.1221 64.3195
L20.9792 64.3552
" />
<path d="M20.9792 64.3552
L20.9078 64.3910
" />
<path d="M20.9078 64.3910
L20.8721 64.4267
" />
<path d="M20.8721 64.4267
L20.8364 64.4981
" />
<path d="M21.0864 65.0695
L21.5864 65.0695
" />
<path d="M21.1578 65.0695
L21.1221 65.1052
" />
<path d="M21.1221 65.1052
L21.0864 65.1767
" />
<path d="M21.0864 65.1767
L21.0864 65.2838
" />
<path d="M21.0864 65.2838
L21.1221 65.3552
" />
<path d="M21.1221 65.3552
L21.1935 65.3910
" />
<path d="M21.1935 65.3910
L21.5864 65.3910
" />
<path d="M21.1935 65.9981
L21.1935 65.7481
" />
<path d="M21.5864 65.7481
L20.8364 65.7481
" />
<path d="M20.8364 65.7481
L20.8364 66.1052
" />
</g></g>
<g style="fill:#E8B2A7; fill-opacity:0.0; 
stroke:#E8B2A7; stroke-width:0.1200; stroke-opacity:1; 
stroke-linecap:round; stroke-linejoin:round;">
<path d="M30.9202 32.6090
L30.9202 28.7490
" />
<path d="M32.9202 32.6090
L30.9202 32.6090
" />
<path d="M32.9202 32.6090
L32.9202 28.7490
" />
<path d="M188.0828 89.7209
L188.0828 85.8609
" />
<path d="M190.0828 89.7209
L188.0828 89.7209
" />
<path d="M190.0828 89.7209
L190.0828 85.8609
" />
<path d="M219.0390 70.7090
L219.0390 66.8490
" />
<path d="M221.0390 70.7090
L219.0390 70.7090
" />
<path d="M221.0390 70.7090
L221.0390 66.8490
" />
<path d="M35.6827 108.8090
L35.6827 104.9490
" />
<path d="M37.6827 108.8090
L35.6827 108.8090
" />
<path d="M37.6827 108.8090
L37.6827 104.9490
" />
<path d="M221.4202 108.8090
L221.4202 104.9490
" />
<path d="M223.4202 108.8090
L221.4202 108.8090
" />
<path d="M223.4202 108.8090
L223.4202 104.9490
" />
</g>
<g style="fill:#E8B2A7; fill-opacity:0.0; 
stroke:#E8B2A7; stroke-width:0.1500; stroke-opacity:1; 
stroke-linecap:round; stroke-linejoin:round;">
<path d="M48.4452 36.8740
L46.0452 36.8740
" />
<path d="M46.0452 36.8740
L46.0452 37.8740
" />
<path d="M50.2452 41.8740
L50.2452 37.8740
" />
<path d="M46.0452 41.8740
L46.0452 42.8740
" />
<path d="M46.0452 42.8740
L48.4452 42.8740
" />
</g>
<g style="fill:#E8B2A7; fill-opacity:0.0; 
stroke:#E8B2A7; stroke-width:0.1200; stroke-opacity:1; 
stroke-linecap:round; stroke-linejoin:round;">
<path d="M278.5702 108.8090
L278.5702 104.9490
" />
<path d="M280.5702 108.8090
L278.5702 108.8090
" />
<path d="M280.5702 108.8090
L280.5702 104.9490
" />
<path d="M240.4702 89.7590
L240.4702 85.8990
" />
<path d="M242.4702 89.7590
L240.4702 89.7590
" />
<path d="M242.4702 89.7590
L242.4702 85.8990
" />
<path d="M73.7827 89.7590
L73.7827 85.8990
" />
<path d="M75.7827 89.7590
L73.7827 89.7590
" />
<path d="M75.7827 89.7590
L75.7827 85.8990
" />
<path d="M154.7452 51.6590
L154.7452 47.7990
" />
<path d="M156.7452 51.6590
L154.7452 51.6590
" />
<path d="M156.7452 51.6590
L156.7452 47.7990
" />
<path d="M192.8452 51.6590
L192.8452 47.7990
" />
<path d="M194.8452 51.6590
L192.8452 51.6590
" />
<path d="M194.8452 51.6590
L194.8452 47.7990
" />
<path d="M10.4302 55.4815
L10.4302 56.0040
" />
<path d="M8.9603 55.4815
L8.9603 56.0040
" />
<path d="M278.5702 89.7590
L278.5702 85.8990
" />
<path d="M280.5702 89.7590
L278.5702 89.7590
" />
<path d="M280.5702 89.7590
L280.5702 85.8990
" />
<path d="M278.5702 32.6090
L278.5702 28.7490
" />
<path d="M280.5702 32.6090
L278.5702 32.6090
" />
<path d="M280.5702 32.6090
L280.5702 28.7490
" />
<path d="M12.9040 57.3290
L14.3640 57.3290
" />
<path d="M12.9040 57.3290
L12.9040 56.3990
" />
<path d="M12.9040 54.1690
L16.0640 54.1690
" />
<path d="M12.9040 54.1690
L12.9040 55.0990
" />
<path d="M35.1540 55.2165
L35.1540 54.6940
" />
<path d="M36.6240 55.2165
L36.6240 54.6940
" />
<path d="M39.7467 108.8090
L39.7467 104.9490
" />
<path d="M41.7467 108.8090
L39.7467 108.8090
" />
<path d="M41.7467 108.8090
L41.7467 104.9490
" />
<path d="M16.8977 56.0103
L16.8977 55.4877
" />
<path d="M18.3678 56.0103
L18.3678 55.4877
" />
<path d="M23.4302 64.2190
L23.4302 64.7415
" />
<path d="M21.9602 64.2190
L21.9602 64.7415
" />
<path d="M278.5702 70.7090
L278.5702 66.8490
" />
<path d="M280.5702 70.7090
L278.5702 70.7090
" />
<path d="M280.5702 70.7090
L280.5702 66.8490
" />
<path d="M78.5452 51.6590
L78.5452 47.7990
" />
<path d="M80.5452 51.6590
L78.5452 51.6590
" />
<path d="M80.5452 51.6590
L80.5452 47.7990
" />
<path d="M259.5202 70.7090
L259.5202 66.8490
" />
<path d="M261.5202 70.7090
L259.5202 70.7090
" />
<path d="M261.5202 70.7090
L261.5202 66.8490
" />
<path d="M163.4765 108.8090
L163.4765 104.9490
" />
<path d="M165.4765 108.8090
L163.4765 108.8090
" />
<path d="M165.4765 108.8090
L165.4765 104.9490
" />
<path d="M140.4578 70.7090
L140.4578 66.8490
" />
<path d="M142.4578 70.7090
L140.4578 70.7090
" />
<path d="M142.4578 70.7090
L142.4578 66.8490
" />
<path d="M33.9912 68.1877
L33.9912 68.7103
" />
<path d="M32.5212 68.1877
L32.5212 68.7103
" />
<path d="M259.5202 51.6590
L259.5202 47.7990
" />
<path d="M261.5202 51.6590
L259.5202 51.6590
" />
<path d="M261.5202 51.6590
L261.5202 47.7990
" />
<path d="M18.9169 70.6982
L18.9169 66.8382
" />
<path d="M20.9169 70.6982
L18.9169 70.6982
" />
<path d="M20.9169 70.6982
L20.9169 66.8382
" />
<path d="M64.2578 70.7090
L64.2578 66.8490
" />
<path d="M66.2578 70.7090
L64.2578 70.7090
" />
<path d="M66.2578 70.7090
L66.2578 66.8490
" />
<path d="M39.7990 58.6969
L39.7990 59.1511
" />
<path d="M38.3290 58.6969
L38.3290 59.1511
" />
<path d="M187.2890 108.8090
L187.2890 104.9490
" />
<path d="M189.2890 108.8090
L187.2890 108.8090
" />
<path d="M189.2890 108.8090
L189.2890 104.9490
" />
<path d="M259.5202 89.7590
L259.5202 85.8990
" />
<path d="M261.5202 89.7590
L259.5202 89.7590
" />
<path d="M261.5202 89.7590
L261.5202 85.8990
" />
<path d="M197.6077 70.7090
L197.6077 66.8490
" />
<path d="M199.6077 70.7090
L197.6077 70.7090
" />
<path d="M199.6077 70.7090
L199.6077 66.8490
" />
<path d="M183.3202 32.6090
L183.3202 28.7490
" />
<path d="M185.3202 32.6090
L183.3202 32.6090
" />
<path d="M185.3202 32.6090
L185.3202 28.7490
" />
<path d="M178.5577 70.7090
L178.5577 66.8490
" />
<path d="M180.5577 70.7090
L178.5577 70.7090
" />
<path d="M180.5577 70.7090
L180.5577 66.8490
" />
<path d="M69.0202 32.6090
L69.0202 28.7490
" />
<path d="M71.0202 32.6090
L69.0202 32.6090
" />
<path d="M71.0202 32.6090
L71.0202 28.7490
" />
<path d="M25.6865 39.2719
L25.6865 40.4761
" />
<path d="M23.8665 39.2719
L23.8665 40.4761
" />
<path d="M54.7327 89.7590
L54.7327 85.8990
" />
<path d="M56.7327 89.7590
L54.7327 89.7590
" />
<path d="M56.7327 89.7590
L56.7327 85.8990
" />
<path d="M18.3678 35.6782
L18.3678 36.1323
" />
<path d="M16.8977 35.6782
L16.8977 36.1323
" />
<path d="M83.3077 70.7090
L83.3077 66.8490
" />
<path d="M85.3077 70.7090
L83.3077 70.7090
" />
<path d="M85.3077 70.7090
L85.3077 66.8490
" />
<path d="M23.6484 89.7729
L23.6484 85.9129
" />
<path d="M25.6484 89.7729
L23.6484 89.7729
" />
<path d="M25.6484 89.7729
L25.6484 85.9129
" />
<path d="M22.1365 35.6782
L22.1365 36.1323
" />
<path d="M20.6665 35.6782
L20.6665 36.1323
" />
<path d="M240.4702 32.6090
L240.4702 28.7490
" />
<path d="M242.4702 32.6090
L240.4702 32.6090
" />
<path d="M242.4702 32.6090
L242.4702 28.7490
" />
<path d="M95.2140 108.8090
L95.2140 104.9490
" />
<path d="M97.2140 108.8090
L95.2140 108.8090
" />
<path d="M97.2140 108.8090
L97.2140 104.9490
" />
<path d="M149.2207 108.8090
L149.2207 104.9490
" />
<path d="M151.2207 108.8090
L149.2207 108.8090
" />
<path d="M151.2207 108.8090
L151.2207 104.9490
" />
<path d="M21.6602 56.0103
L21.6602 55.4877
" />
<path d="M23.1303 56.0103
L23.1303 55.4877
" />
<path d="M48.1340 58.3765
L48.1340 56.2965
" />
<path d="M46.8640 60.0565
L47.3540 59.5665
" />
<path d="M46.8640 60.0565
L43.9640 60.0565
" />
<path d="M46.8640 54.6165
L47.3540 55.1065
" />
<path d="M46.8640 54.6165
L43.9640 54.6165
" />
<path d="M43.9640 60.0565
L43.4740 59.5665
" />
<path d="M43.9640 54.6165
L43.4740 55.1065
" />
<path d="M42.6940 58.3765
L42.6940 56.2965
" />
<path d="M88.0703 32.6090
L88.0703 28.7490
" />
<path d="M90.0703 32.6090
L88.0703 32.6090
" />
<path d="M90.0703 32.6090
L90.0703 28.7490
" />
<path d="M14.2027 19.0945
L23.6028 19.0945
" />
<path d="M14.2027 20.9945
L14.2027 19.0945
" />
<path d="M14.2027 24.8945
L14.2027 22.8945
" />
<path d="M23.6028 20.9945
L23.6028 19.0945
" />
<path d="M23.6028 24.8945
L23.6028 22.8945
" />
<path d="M33.9912 72.1565
L33.9912 72.6790
" />
<path d="M32.5212 72.1565
L32.5212 72.6790
" />
<path d="M120.6140 108.8090
L120.6140 104.9490
" />
<path d="M122.6140 108.8090
L120.6140 108.8090
" />
<path d="M122.6140 108.8090
L122.6140 104.9490
" />
<path d="M116.6452 51.6590
L116.6452 47.7990
" />
<path d="M118.6452 51.6590
L116.6452 51.6590
" />
<path d="M118.6452 51.6590
L118.6452 47.7990
" />
<path d="M30.1907 40.8540
L31.4907 40.8540
" />
<path d="M31.4907 43.9740
L28.4907 43.9740
" />
<path d="M230.1515 108.8090
L230.1515 104.9490
" />
<path d="M232.1515 108.8090
L230.1515 108.8090
" />
<path d="M232.1515 108.8090
L232.1515 104.9490
" />
<path d="M173.7952 51.6590
L173.7952 47.7990
" />
<path d="M175.7952 51.6590
L173.7952 51.6590
" />
<path d="M175.7952 51.6590
L175.7952 47.7990
" />
<path d="M259.5202 32.6090
L259.5202 28.7490
" />
<path d="M261.5202 32.6090
L259.5202 32.6090
" />
<path d="M261.5202 32.6090
L261.5202 28.7490
" />
<path d="M121.4077 70.7090
L121.4077 66.8490
" />
<path d="M123.4077 70.7090
L121.4077 70.7090
" />
<path d="M123.4077 70.7090
L123.4077 66.8490
" />
<path d="M102.3577 70.7090
L102.3577 66.8490
" />
<path d="M104.3577 70.7090
L102.3577 70.7090
" />
<path d="M104.3577 70.7090
L104.3577 66.8490
" />
<path d="M11.8702 32.7995
L11.8702 28.9395
" />
<path d="M13.8702 32.7995
L11.8702 32.7995
" />
<path d="M13.8702 32.7995
L13.8702 28.9395
" />
<path d="M25.7067 64.1215
L26.1567 64.1215
" />
<path d="M32.4767 64.1215
L32.4767 65.4115
" />
<path d="M32.9267 64.1215
L32.4767 64.1215
" />
<path d="M25.7067 63.6715
L25.7067 64.1215
" />
<path d="M32.9267 63.6715
L32.9267 64.1215
" />
<path d="M25.7067 57.3515
L25.7067 56.9015
" />
<path d="M32.9267 57.3515
L32.9267 56.9015
" />
<path d="M25.7067 56.9015
L26.1567 56.9015
" />
<path d="M32.9267 56.9015
L32.4767 56.9015
" />
<path d="M19.2790 56.0103
L19.2790 55.4877
" />
<path d="M20.7490 56.0103
L20.7490 55.4877
" />
<path d="M11.8702 108.8090
L11.8702 104.9490
" />
<path d="M13.8702 108.8090
L11.8702 108.8090
" />
<path d="M13.8702 108.8090
L13.8702 104.9490
" />
<path d="M164.2703 32.6090
L164.2703 28.7490
" />
<path d="M166.2703 32.6090
L164.2703 32.6090
" />
<path d="M166.2703 32.6090
L166.2703 28.7490
" />
<path d="M126.1702 32.6090
L126.1702 28.7490
" />
<path d="M128.1702 32.6090
L126.1702 32.6090
" />
<path d="M128.1702 32.6090
L128.1702 28.7490
" />
<path d="M35.6827 89.7590
L35.6827 85.8990
" />
<path d="M37.6827 89.7590
L35.6827 89.7590
" />
<path d="M37.6827 89.7590
L37.6827 85.8990
" />
<path d="M278.5702 51.4715
L278.5702 47.6115
" />
<path d="M280.5702 51.4715
L278.5702 51.4715
" />
<path d="M280.5702 51.4715
L280.5702 47.6115
" />
<path d="M240.4702 51.6590
L240.4702 47.7990
" />
<path d="M242.4702 51.6590
L240.4702 51.6590
" />
<path d="M242.4702 51.6590
L242.4702 47.7990
" />
<path d="M107.1202 32.6090
L107.1202 28.7490
" />
<path d="M109.1202 32.6090
L107.1202 32.6090
" />
<path d="M109.1202 32.6090
L109.1202 28.7490
" />
<path d="M111.8828 89.7590
L111.8828 85.8990
" />
<path d="M113.8828 89.7590
L111.8828 89.7590
" />
<path d="M113.8828 89.7590
L113.8828 85.8990
" />
<path d="M135.6952 51.6590
L135.6952 47.7990
" />
<path d="M137.6952 51.6590
L135.6952 51.6590
" />
<path d="M137.6952 51.6590
L137.6952 47.7990
" />
<path d="M59.4952 108.8090
L59.4952 104.9490
" />
<path d="M61.4952 108.8090
L59.4952 108.8090
" />
<path d="M61.4952 108.8090
L61.4952 104.9490
" />
<path d="M49.9703 32.6090
L49.9703 28.7490
" />
<path d="M51.9703 32.6090
L49.9703 32.6090
" />
<path d="M51.9703 32.6090
L51.9703 28.7490
" />
<path d="M25.5115 67.3940
L25.5115 67.9165
" />
<path d="M24.0415 67.3940
L24.0415 67.9165
" />
<path d="M97.5952 51.6590
L97.5952 47.7990
" />
<path d="M99.5952 51.6590
L97.5952 51.6590
" />
<path d="M99.5952 51.6590
L99.5952 47.7990
" />
<path d="M221.4202 35.7840
L221.4202 31.9240
" />
<path d="M223.4202 35.7840
L221.4202 35.7840
" />
<path d="M223.4202 35.7840
L223.4202 31.9240
" />
<path d="M169.0327 89.7590
L169.0327 85.8990
" />
<path d="M171.0327 89.7590
L169.0327 89.7590
" />
<path d="M171.0327 89.7590
L171.0327 85.8990
" />
<path d="M40.4453 51.6590
L40.4453 47.7990
" />
<path d="M42.4453 51.6590
L40.4453 51.6590
" />
<path d="M42.4453 51.6590
L42.4453 47.7990
" />
<path d="M240.4702 70.7090
L240.4702 66.8490
" />
<path d="M242.4702 70.7090
L240.4702 70.7090
" />
<path d="M242.4702 70.7090
L242.4702 66.8490
" />
<path d="M145.2202 32.6090
L145.2202 28.7490
" />
<path d="M147.2202 32.6090
L145.2202 32.6090
" />
<path d="M147.2202 32.6090
L147.2202 28.7490
" />
<path d="M202.3702 35.7840
L202.3702 31.9240
" />
<path d="M204.3702 35.7840
L202.3702 35.7840
" />
<path d="M204.3702 35.7840
L204.3702 31.9240
" />
<path d="M227.7702 51.6590
L227.7702 47.7990
" />
<path d="M229.7702 51.6590
L227.7702 51.6590
" />
<path d="M229.7702 51.6590
L229.7702 47.7990
" />
<path d="M45.2077 70.7090
L45.2077 66.8490
" />
<path d="M47.2077 70.7090
L45.2077 70.7090
" />
<path d="M47.2077 70.7090
L47.2077 66.8490
" />
<path d="M16.6327 51.6590
L16.6327 47.7990
" />
<path d="M18.6327 51.6590
L16.6327 51.6590
" />
<path d="M18.6327 51.6590
L18.6327 47.7990
" />
<path d="M259.5202 108.8090
L259.5202 104.9490
" />
<path d="M261.5202 108.8090
L259.5202 108.8090
" />
<path d="M261.5202 108.8090
L261.5202 104.9490
" />
<path d="M59.4952 51.6590
L59.4952 47.7990
" />
<path d="M61.4952 51.6590
L59.4952 51.6590
" />
<path d="M61.4952 51.6590
L61.4952 47.7990
" />
<path d="M130.9327 89.7590
L130.9327 85.8990
" />
<path d="M132.9327 89.7590
L130.9327 89.7590
" />
<path d="M132.9327 89.7590
L132.9327 85.8990
" />
<path d="M214.2765 89.7590
L214.2765 85.8990
" />
<path d="M216.2765 89.7590
L214.2765 89.7590
" />
<path d="M216.2765 89.7590
L216.2765 85.8990
" />
<path d="M159.5077 70.7090
L159.5077 66.8490
" />
<path d="M161.5077 70.7090
L159.5077 70.7090
" />
<path d="M161.5077 70.7090
L161.5077 66.8490
" />
<path d="M149.9827 89.7590
L149.9827 85.8990
" />
<path d="M151.9827 89.7590
L149.9827 89.7590
" />
<path d="M151.9827 89.7590
L151.9827 85.8990
" />
<path d="M92.8327 89.7590
L92.8327 85.8990
" />
<path d="M94.8327 89.7590
L92.8327 89.7590
" />
<path d="M94.8327 89.7590
L94.8327 85.8990
" />
<path d="M202.3702 108.8090
L202.3702 104.9490
" />
<path d="M204.3702 108.8090
L202.3702 108.8090
" />
<path d="M204.3702 108.8090
L204.3702 104.9490
" />
<g >
</g>
<g >
</g>
<g >
</g>
<g >
</g>
<g >
</g>
<g >
</g>
<g >
</g>
<g >
</g>
<g >
</g>
<g >
</g>
<g >
</g>
<g >
</g>
<g >
</g>
<g >
</g>
<g >
</g>
<g >
</g>
<g >
</g>
<g >
</g>
<g >
</g>
<g >
</g>
<g >
</g>
<g >
</g>
<g >
</g>
<g >
</g>
<g >
</g>
<g >
</g>
<g >
</g>
<g >
</g>
<g >
</g>
<g >
</g>
<g >
</g>
<g >
</g>
<g >
</g>
<g >
</g>
<g >
</g>
<g >
</g>
<g >
</g>
<g >
</g>
<g >
</g>
<g >
</g>
<g >
</g>
<g >
</g>
<g >
</g>
<g >
</g>
<g >
</g>
<g >
</g>
<g >
</g>
<g >
</g>
<g >
</g>
<g >
</g>
<g >
</g>
<g >
</g>
<g >
</g>
<g >
</g>
<g >
</g>
<g >
</g>
<g >
</g>
<g >
</g>
<g >
</g>
<g >
</g>
<g >
</g>
<g >
</g>
<g >
</g>
<g >
</g>
<g >
</g>
<g >
</g>
<g >
</g>
<g >
</g>
<g >
</g>
<g >
</g>
<g >
</g>
<g >
</g>
<g >
</g>
<g >
</g>
<g >
</g>
<g >
</g>
<g >
</g>
<g >
</g>
<g >
</g>
<g >
</g>
<g >
</g>
<g >
</g>
<g >
</g>
<g >
</g>
<g >
</g>
<g >
</g>
<g >
</g>
<g >
</g>
<g >
</g>
<g >
</g>
<g >
</g>
<g >
</g>
<g >
</g>
<g >
</g>
<g >
</g>
<g >
</g>
<g >
</g>
<g >
</g>
<g >
</g>
<g >
</g>
<g >
</g>
<g >
</g>
<g >
</g>
<g >
</g>
<g >
</g>
<g >
</g>
<g >
</g>
<g >
</g>
<g >
</g>
<g >
</g>
<g >
</g>
<g >
</g>
<g >
</g>
<g >
</g>
<g >
</g>
<g >
</g>
<g >
</g>
<g >
</g>
<g >
</g>
<g >
</g>
<g >
</g>
<g >
</g>
<g >
</g>
<g >
</g>
<g >
</g>
<g >
</g>
<g >
</g>
<g >
</g>
<g >
</g>
<g >
</g>
<g >
</g>
<g >
</g>
<g >
</g>
<g >
</g>
<g >
</g>
<g >
</g>
<g >
</g>
<g >
</g>
<g >
</g>
<g >
</g>
<g >
</g>
<g >
</g>
<g >
</g>
<g >
</g>
<g >
</g>
<g >
</g>
<g >
</g>
<g >
</g>
<g >
</g>
<g >
</g>
<g >
</g>
<g >
</g>
<g >
</g>
<g >
</g>
<g >
</g>
<g >
</g>
<g >
</g>
<g >
</g>
<g >
</g>
<g >
</g>
<g >
</g>
<g >
</g>
<g >
</g>
<g >
</g>
<g >
</g>
<g >
</g>
<g >
</g>
<g >
</g>
<g >
</g>
<g >
</g>
<g >
</g>
<g >
</g>
<g >
</g>
<g >
</g>
<g >
</g>
<g >
</g>
<g >
</g>
<g >
</g>
<g >
</g>
<g >
</g>
<g >
</g>
</g>
<g style="fill:#000000; fill-opacity:0.0; 
stroke:#000000; stroke-width:0.1200; stroke-opacity:1; 
stroke-linecap:round; stroke-linejoin:round;">
</g>
<g style="fill:#D0D2CD; fill-opacity:0.0; 
stroke:#D0D2CD; stroke-width:0.1200; stroke-opacity:1; 
stroke-linecap:round; stroke-linejoin:round;">
</g>
<g style="fill:#D0D2CD; fill-opacity:0.0; 
stroke:#D0D2CD; stroke-width:0.2000; stroke-opacity:1; 
stroke-linecap:round; stroke-linejoin:round;">
<path d="M0.6965 22.9588
L0.6965 76.1587
" />
<path d="M0.6965 76.1587
L3.5895 76.1587
" />
<path d="M0.6965 78.3588
L0.6960 113.1582
" />
<path d="M2.6960 20.9582
L7.6960 20.9582
" />
<path d="M2.6965 115.1587
L9.6960 115.1582
" />
<path d="M3.5895 78.3588
L0.6965 78.3588
" />
<path d="M12.8460 112.6593
L16.4210 112.6593
" />
<path d="M23.3185 115.1587
L44.6625 115.1587
" />
<path d="M34.2265 20.9588
L13.9960 20.9582
" />
<path d="M51.7915 20.9588
L42.3685 20.9588
" />
<path d="M92.3505 20.9588
L62.8515 20.9588
" />
<path d="M92.3505 115.1587
L56.6501 115.1588
" />
<path d="M99.3760 112.6593
L99.6460 112.6593
" />
<path d="M102.7375 115.1587
L183.3555 115.1587
" />
<path d="M124.7309 20.9588
L102.7375 20.9588
" />
<path d="M183.2960 20.9582
L132.9771 20.9588
" />
<path d="M186.9810 112.6840
L186.4595 112.6593
" />
<path d="M193.7425 115.1587
L229.3789 115.1588
" />
<path d="M223.2415 20.9588
L193.7425 20.9588
" />
<path d="M241.4305 115.1587
L262.7745 115.1587
" />
<path d="M243.7245 20.9588
L234.3015 20.9588
" />
<path d="M269.8512 112.6647
L273.2460 112.6593
" />
<path d="M270.0958 20.9583
L251.8665 20.9588
" />
<path d="M276.3960 115.1582
L283.3965 115.1587
" />
<path d="M282.5035 76.1587
L285.3965 76.1587
" />
<path d="M283.3965 20.9588
L276.4375 20.9588
" />
<path d="M285.3965 76.1587
L285.3965 22.9588
" />
<path d="M285.3965 78.3588
L282.5035 78.3588
" />
<path d="M285.3965 113.1587
L285.3965 78.3588
" />
<path d="M2.6960 20.9582 A2.0013 2.0013 0.0 0 0 0.6965 22.9588" />
<path d="M0.6960 113.1582 A2.0005 2.0005 0.0 0 0 2.6965 115.1587" />
<path d="M3.5895 78.3587 A1.1000 1.1000 0.0 1 0 3.5895 76.1587" />
<path d="M12.8460 112.6594 A3.4411 3.4411 0.0 0 0 9.6960 115.1582" />
<path d="M7.6960 20.9582 A3.2348 3.2348 0.0 0 0 13.9960 20.9582" />
<path d="M16.4210 112.6594 A0.6539 0.6539 0.0 0 0 16.8550 112.4937" />
<path d="M22.7475 114.5878 A3.6000 3.6000 0.0 0 0 16.8550 112.4938" />
<path d="M22.7475 114.5878 A0.5702 0.5702 0.0 0 0 23.3185 115.1587" />
<path d="M34.7975 21.5298 A0.5702 0.5702 0.0 0 0 34.2265 20.9588" />
<path d="M34.7975 21.5298 A3.5557 3.5557 0.0 0 0 41.7975 21.5298" />
<path d="M42.3685 20.9588 A0.5702 0.5702 0.0 0 0 41.7975 21.5298" />
<path d="M44.6625 115.1587 A0.5565 0.5565 0.0 0 0 45.2185 114.6027" />
<path d="M55.3200 114.3523 A5.1343 5.1343 0.0 0 0 45.2185 114.6028" />
<path d="M52.3625 21.5298 A0.5702 0.5702 0.0 0 0 51.7915 20.9588" />
<path d="M55.3200 114.3523 A1.5000 1.5000 0.0 0 0 56.6501 115.1588" />
<path d="M52.3625 21.5298 A5.0185 5.0185 0.0 0 0 62.2805 21.5298" />
<path d="M62.8515 20.9588 A0.5702 0.5702 0.0 0 0 62.2805 21.5298" />
<path d="M92.9215 21.5298 A0.5702 0.5702 0.0 0 0 92.3505 20.9588" />
<path d="M92.3505 115.1587 A0.5702 0.5702 0.0 0 0 92.9215 114.5878" />
<path d="M98.8665 112.6327 A3.5560 3.5560 0.0 0 0 92.9215 114.5878" />
<path d="M92.9215 21.5298 A3.5939 3.5939 0.0 0 0 98.7112 23.6397" />
<path d="M99.6215 23.4571 A1.3977 1.3977 0.0 0 0 98.7112 23.6397" />
<path d="M98.8665 112.6327 A1.2521 1.2521 0.0 0 0 99.3760 112.6593" />
<path d="M102.7375 115.1588 A3.1310 3.1310 0.0 0 0 99.6460 112.6594" />
<path d="M99.6215 23.4571 A3.0898 3.0898 0.0 0 0 102.7375 20.9588" />
<path d="M126.0609 21.7652 A1.4999 1.4999 0.0 0 0 124.7309 20.9588" />
<path d="M126.0609 21.7652 A3.1500 3.1500 0.0 0 0 131.6470 21.7652" />
<path d="M132.9771 20.9588 A1.5001 1.5001 0.0 0 0 131.6470 21.7652" />
<path d="M186.4595 112.6593 A3.0678 3.0678 0.0 0 0 183.3555 115.1588" />
<path d="M183.2960 20.9582 A3.1949 3.1949 0.0 0 0 186.4460 23.4571" />
<path d="M187.3434 23.6239 A1.6536 1.6536 0.0 0 0 186.4460 23.4571" />
<path d="M186.9810 112.6840 A0.7353 0.7353 0.0 0 0 187.4530 112.4810" />
<path d="M193.1715 114.5878 A3.5316 3.5316 0.0 0 0 187.4530 112.4810" />
<path d="M187.3434 23.6239 A3.5727 3.5727 0.0 0 0 193.1715 21.5298" />
<path d="M193.7425 20.9588 A0.5702 0.5702 0.0 0 0 193.1715 21.5298" />
<path d="M193.1715 114.5878 A0.5702 0.5702 0.0 0 0 193.7425 115.1587" />
<path d="M223.8125 21.5298 A0.5702 0.5702 0.0 0 0 223.2415 20.9588" />
<path d="M229.3789 115.1588 A1.8563 1.8563 0.0 0 0 231.1770 113.7637" />
<path d="M240.8745 114.6027 A5.0110 5.0110 0.0 0 0 231.1770 113.7638" />
<path d="M223.8125 21.5298 A5.0185 5.0185 0.0 0 0 233.7305 21.5298" />
<path d="M234.3015 20.9588 A0.5702 0.5702 0.0 0 0 233.7305 21.5298" />
<path d="M240.8745 114.6027 A0.5565 0.5565 0.0 0 0 241.4305 115.1587" />
<path d="M244.2955 21.5298 A0.5700 0.5700 0.0 0 0 243.7245 20.9588" />
<path d="M244.2955 21.5298 A3.5557 3.5557 0.0 0 0 251.2955 21.5298" />
<path d="M251.8665 20.9588 A0.5702 0.5702 0.0 0 0 251.2955 21.5298" />
<path d="M262.7745 115.1587 A0.5702 0.5702 0.0 0 0 263.3455 114.5878" />
<path d="M269.2185 112.5657 A3.5566 3.5566 0.0 0 0 263.3455 114.5878" />
<path d="M269.2185 112.5657 A0.9497 0.9497 0.0 0 0 269.8512 112.6647" />
<path d="M276.3960 115.1582 A3.2877 3.2877 0.0 0 0 273.2460 112.6593" />
<path d="M270.0958 20.9583 A3.2563 3.2563 0.0 0 0 276.4375 20.9588" />
<path d="M282.5035 76.1587 A1.1000 1.1000 0.0 1 0 282.5035 78.3587" />
<path d="M285.3965 22.9588 A2.0007 2.0007 0.0 0 0 283.3965 20.9588" />
<path d="M283.3965 115.1587 A2.0007 2.0007 0.0 0 0 285.3965 113.1587" />
<g >
</g>
<g >
</g>
<g >
</g>
<g >
</g>
<g >
</g>
<g >
</g>
<g >
</g>
<g >
</g>
<g >
</g>
<g >
</g>
<g >
</g>
<g >
</g>
<g >
</g>
<g >
</g>
<g >
</g>
<g >
</g>
<g >
</g>
<g >
</g>
<g >
</g>
<g >
</g>
<g >
</g>
<g >
</g>
<g >
</g>
<g >
</g>
<g >
</g>
<g >
</g>
<g >
</g>
<g >
</g>
<g >
</g>
<g >
</g>
<g >
</g>
<g >
</g>
<g >
</g>
<g >
</g>
<g >
</g>
<g >
</g>
<g >
</g>
<g >
</g>
<g >
</g>
<g >
</g>
<g >
</g>
<g >
</g>
<g >
</g>
<g >
</g>
<g >
</g>
<g >
</g>
<g >
</g>
<g >
</g>
<g >
</g>
<g >
</g>
<g >
</g>
<g >
</g>
<g >
</g>
<g >
</g>
<g >
</g>
<g >
</g>
<g >
</g>
<g >
</g>
<g >
</g>
<g >
</g>
<g >
</g>
<g >
</g>
<g >
</g>
<g >
</g>
<g >
</g>
<g >
</g>
<g >
</g>
<g >
</g>
<g >
</g>
<g >
</g>
<g >
</g>
<g >
</g>
<g >
</g>
<g >
</g>
<g >
</g>
<g >
</g>
<g >
</g>
<g >
</g>
<g >
</g>
<g >
</g>
<g >
</g>
<g >
</g>
<g >
</g>
<g >
</g>
<g >
</g>
<g >
</g>
<g >
</g>
<g >
</g>
<g >
</g>
<g >
</g>
<g >
</g>
<g >
</g>
<g >
</g>
<g >
</g>
<g >
</g>
<g >
</g>
<g >
</g>
<g >
</g>
<g >
</g>
<g >
</g>
<g >
</g>
<g >
</g>
<g >
</g>
<g >
</g>
<g >
</g>
<g >
</g>
<g >
</g>
<g >
</g>
<g >
</g>
<g >
</g>
<g >
</g>
<g >
</g>
<g >
</g>
<g >
</g>
<g >
</g>
<g >
</g>
<g >
</g>
<g >
</g>
<g >
</g>
<g >
</g>
<g >
</g>
<g >
</g>
<g >
</g>
<g >
</g>
<g >
</g>
<g >
</g>
<g >
</g>
<g >
</g>
<g >
</g>
<g >
</g>
<g >
</g>
<g >
</g>
<g >
</g>
<g >
</g>
<g >
</g>
<g >
</g>
<g >
</g>
<g >
</g>
<g >
</g>
<g >
</g>
<g >
</g>
<g >
</g>
<g >
</g>
<g >
</g>
<g >
</g>
<g >
</g>
<g >
</g>
<g >
</g>
<g >
</g>
<g >
</g>
<g >
</g>
<g >
</g>
<g >
</g>
<g >
</g>
<g >
</g>
<g >
</g>
<g >
</g>
<g >
</g>
<g >
</g>
<g >
</g>
<g >
</g>
<g >
</g>
<g >
</g>
<g >
</g>
<g >
</g>
<g >
</g>
<g >
</g>
<g >
</g>
<g >
</g>
<g >
</g>
<g >
</g>
<g >
</g>
<g >
</g>
<g >
</g>
<g >
</g>
<g >
</g>
<g >
</g>
<g >
</g>
<g >
</g>
<g >
</g>
<g >
</g>
</g> 
</svg>
