<?xml version="1.0" standalone="no"?>
 <!DOCTYPE svg PUBLIC "-//W3C//DTD SVG 1.1//EN" 
 "http://www.w3.org/Graphics/SVG/1.1/DTD/svg11.dtd"> 
<svg
  xmlns:svg="http://www.w3.org/2000/svg"
  xmlns="http://www.w3.org/2000/svg"
  xmlns:xlink="http://www.w3.org/1999/xlink"
  version="1.1"
  width="317.8302mm" height="116.1288mm" viewBox="0.0000 0.0000 317.8302 116.1288">
<title>SVG Image created as qazimodo-F_Silkscreen.svg date 2024/06/11 23:14:33 </title>
  <desc>Image generated by PCBNEW </desc>
<g style="fill:#000000; fill-opacity:1.0000;stroke:#000000; stroke-opacity:1.0000;
stroke-linecap:round; stroke-linejoin:round;"
 transform="translate(0 0) scale(1 1)">
</g>
<g style="fill:#000000; fill-opacity:0.0; 
stroke:#000000; stroke-width:0.0000; stroke-opacity:1; 
stroke-linecap:round; stroke-linejoin:round;">
</g>
<g style="fill:#F2EDA1; fill-opacity:0.0; 
stroke:#F2EDA1; stroke-width:0.0000; stroke-opacity:1; 
stroke-linecap:round; stroke-linejoin:round;">
</g>
<g style="fill:#F2EDA1; fill-opacity:0.0; 
stroke:#F2EDA1; stroke-width:0.1500; stroke-opacity:1; 
stroke-linecap:round; stroke-linejoin:round;">
<text x="284.8105" y="115.2078"
textLength="0.3750" font-size="1.6933" lengthAdjust="spacingAndGlyphs"
text-anchor="middle" opacity="0"></text>
<g class="stroked-text"><desc></desc>
</g><text x="284.8105" y="115.2078"
textLength="0.3750" font-size="1.6933" lengthAdjust="spacingAndGlyphs"
text-anchor="middle" opacity="0"></text>
<g class="stroked-text"><desc></desc>
</g><g >
</g>
<g >
</g>
<g >
</g>
<g >
</g>
<g >
</g>
<g >
</g>
<g >
</g>
<g >
</g>
<g >
</g>
<g >
</g>
<g >
</g>
<g >
</g>
<g >
</g>
<g >
</g>
<g >
</g>
<g >
</g>
<g >
</g>
<g >
</g>
<g >
</g>
<g >
</g>
<g >
</g>
<g >
</g>
<g >
</g>
<g >
</g>
<g >
</g>
<g >
</g>
<g >
</g>
<g >
</g>
<g >
</g>
<g >
</g>
<g >
</g>
<g >
</g>
<g >
</g>
<g >
</g>
<g >
</g>
<g >
</g>
<g >
</g>
<g >
</g>
<g >
</g>
<g >
</g>
<g >
</g>
<g >
</g>
<g >
</g>
<g >
</g>
<g >
</g>
<g >
</g>
<g >
</g>
<g >
</g>
<g >
</g>
<g >
</g>
<g >
</g>
<g >
</g>
<g >
</g>
<g >
</g>
<g >
</g>
<g >
</g>
<g >
</g>
<g >
</g>
<g >
</g>
<g >
</g>
<g >
</g>
<g >
</g>
<g >
</g>
<g >
</g>
<g >
</g>
<g >
</g>
<g >
</g>
<g >
</g>
<g >
</g>
<g >
</g>
<g >
</g>
<g >
</g>
<g >
</g>
<g >
</g>
<g >
</g>
<g >
</g>
<g >
</g>
<g >
</g>
<g >
</g>
<g >
</g>
<g >
</g>
<g >
</g>
<g >
</g>
<g >
</g>
<g >
</g>
<g >
</g>
<g >
</g>
<g >
</g>
<g >
</g>
<g >
</g>
<g >
</g>
<g >
</g>
<g >
</g>
<g >
</g>
<g >
</g>
<g >
</g>
<g >
</g>
<g >
</g>
<g >
</g>
<g >
</g>
<g >
</g>
<g >
</g>
<g >
</g>
<g >
</g>
<g >
</g>
<g >
</g>
<g >
</g>
<g >
</g>
<g >
</g>
<g >
</g>
<g >
</g>
<g >
</g>
<g >
</g>
<g >
</g>
<g >
</g>
<g >
</g>
<g >
</g>
<g >
</g>
<g >
</g>
<g >
</g>
<g >
</g>
<g >
</g>
<g >
</g>
<g >
</g>
<g >
</g>
<g >
</g>
<g >
</g>
<g >
</g>
<g >
</g>
<g >
</g>
<g >
</g>
<g >
</g>
<g >
</g>
<g >
</g>
<g >
</g>
<g >
</g>
<g >
</g>
<g >
</g>
<g >
</g>
<g >
</g>
<g >
</g>
<g >
</g>
<g >
</g>
<g >
</g>
<g >
</g>
<g >
</g>
<g >
</g>
<g >
</g>
<g >
</g>
<g >
</g>
<g >
</g>
<g >
</g>
<g >
</g>
<g >
</g>
<g >
</g>
<g >
</g>
<g >
</g>
<g >
</g>
<g >
</g>
<g >
</g>
<g >
</g>
<g >
</g>
<g >
</g>
<g >
</g>
<g >
</g>
<g >
</g>
<g >
</g>
<g >
</g>
<g >
</g>
<g >
</g>
<g >
</g>
<g >
</g>
<g >
</g>
<g >
</g>
<g >
</g>
<g >
</g>
<g >
</g>
<g >
</g>
<g >
</g>
<g >
</g>
<g >
</g>
</g>
<g style="fill:#000000; fill-opacity:0.0; 
stroke:#000000; stroke-width:0.1500; stroke-opacity:1; 
stroke-linecap:round; stroke-linejoin:round;">
</g>
<g style="fill:#D0D2CD; fill-opacity:0.0; 
stroke:#D0D2CD; stroke-width:0.1500; stroke-opacity:1; 
stroke-linecap:round; stroke-linejoin:round;">
</g>
<g style="fill:#D0D2CD; fill-opacity:0.0; 
stroke:#D0D2CD; stroke-width:0.2000; stroke-opacity:1; 
stroke-linecap:round; stroke-linejoin:round;">
<path d="M0.6965 22.9588
L0.6965 76.1587
" />
<path d="M0.6965 76.1587
L3.5895 76.1587
" />
<path d="M0.6965 78.3588
L0.6960 113.1582
" />
<path d="M2.6960 20.9582
L7.6960 20.9582
" />
<path d="M2.6965 115.1587
L9.6960 115.1582
" />
<path d="M3.5895 78.3588
L0.6965 78.3588
" />
<path d="M12.8460 112.6593
L16.4210 112.6593
" />
<path d="M23.3185 115.1587
L44.6625 115.1587
" />
<path d="M34.2265 20.9588
L13.9960 20.9582
" />
<path d="M51.7915 20.9588
L42.3685 20.9588
" />
<path d="M92.3505 20.9588
L62.8515 20.9588
" />
<path d="M92.3505 115.1587
L56.6501 115.1588
" />
<path d="M99.3760 112.6593
L99.6460 112.6593
" />
<path d="M102.7375 115.1587
L183.3555 115.1587
" />
<path d="M124.7309 20.9588
L102.7375 20.9588
" />
<path d="M183.2960 20.9582
L132.9771 20.9588
" />
<path d="M186.9810 112.6840
L186.4595 112.6593
" />
<path d="M193.7425 115.1587
L229.3789 115.1588
" />
<path d="M223.2415 20.9588
L193.7425 20.9588
" />
<path d="M241.4305 115.1587
L262.7745 115.1587
" />
<path d="M243.7245 20.9588
L234.3015 20.9588
" />
<path d="M269.8512 112.6647
L273.2460 112.6593
" />
<path d="M270.0958 20.9583
L251.8665 20.9588
" />
<path d="M276.3960 115.1582
L283.3965 115.1587
" />
<path d="M282.5035 76.1587
L285.3965 76.1587
" />
<path d="M283.3965 20.9588
L276.4375 20.9588
" />
<path d="M285.3965 76.1587
L285.3965 22.9588
" />
<path d="M285.3965 78.3588
L282.5035 78.3588
" />
<path d="M285.3965 113.1587
L285.3965 78.3588
" />
<path d="M2.6960 20.9582 A2.0013 2.0013 0.0 0 0 0.6965 22.9588" />
<path d="M0.6960 113.1582 A2.0005 2.0005 0.0 0 0 2.6965 115.1587" />
<path d="M3.5895 78.3587 A1.1000 1.1000 0.0 1 0 3.5895 76.1587" />
<path d="M12.8460 112.6594 A3.4411 3.4411 0.0 0 0 9.6960 115.1582" />
<path d="M7.6960 20.9582 A3.2348 3.2348 0.0 0 0 13.9960 20.9582" />
<path d="M16.4210 112.6594 A0.6539 0.6539 0.0 0 0 16.8550 112.4937" />
<path d="M22.7475 114.5878 A3.6000 3.6000 0.0 0 0 16.8550 112.4938" />
<path d="M22.7475 114.5878 A0.5702 0.5702 0.0 0 0 23.3185 115.1587" />
<path d="M34.7975 21.5298 A0.5702 0.5702 0.0 0 0 34.2265 20.9588" />
<path d="M34.7975 21.5298 A3.5557 3.5557 0.0 0 0 41.7975 21.5298" />
<path d="M42.3685 20.9588 A0.5702 0.5702 0.0 0 0 41.7975 21.5298" />
<path d="M44.6625 115.1587 A0.5565 0.5565 0.0 0 0 45.2185 114.6027" />
<path d="M55.3200 114.3523 A5.1343 5.1343 0.0 0 0 45.2185 114.6028" />
<path d="M52.3625 21.5298 A0.5702 0.5702 0.0 0 0 51.7915 20.9588" />
<path d="M55.3200 114.3523 A1.5000 1.5000 0.0 0 0 56.6501 115.1588" />
<path d="M52.3625 21.5298 A5.0185 5.0185 0.0 0 0 62.2805 21.5298" />
<path d="M62.8515 20.9588 A0.5702 0.5702 0.0 0 0 62.2805 21.5298" />
<path d="M92.9215 21.5298 A0.5702 0.5702 0.0 0 0 92.3505 20.9588" />
<path d="M92.3505 115.1587 A0.5702 0.5702 0.0 0 0 92.9215 114.5878" />
<path d="M98.8665 112.6327 A3.5560 3.5560 0.0 0 0 92.9215 114.5878" />
<path d="M92.9215 21.5298 A3.5939 3.5939 0.0 0 0 98.7112 23.6397" />
<path d="M99.6215 23.4571 A1.3977 1.3977 0.0 0 0 98.7112 23.6397" />
<path d="M98.8665 112.6327 A1.2521 1.2521 0.0 0 0 99.3760 112.6593" />
<path d="M102.7375 115.1588 A3.1310 3.1310 0.0 0 0 99.6460 112.6594" />
<path d="M99.6215 23.4571 A3.0898 3.0898 0.0 0 0 102.7375 20.9588" />
<path d="M126.0609 21.7652 A1.4999 1.4999 0.0 0 0 124.7309 20.9588" />
<path d="M126.0609 21.7652 A3.1500 3.1500 0.0 0 0 131.6470 21.7652" />
<path d="M132.9771 20.9588 A1.5001 1.5001 0.0 0 0 131.6470 21.7652" />
<path d="M186.4595 112.6593 A3.0678 3.0678 0.0 0 0 183.3555 115.1588" />
<path d="M183.2960 20.9582 A3.1949 3.1949 0.0 0 0 186.4460 23.4571" />
<path d="M187.3434 23.6239 A1.6536 1.6536 0.0 0 0 186.4460 23.4571" />
<path d="M186.9810 112.6840 A0.7353 0.7353 0.0 0 0 187.4530 112.4810" />
<path d="M193.1715 114.5878 A3.5316 3.5316 0.0 0 0 187.4530 112.4810" />
<path d="M187.3434 23.6239 A3.5727 3.5727 0.0 0 0 193.1715 21.5298" />
<path d="M193.7425 20.9588 A0.5702 0.5702 0.0 0 0 193.1715 21.5298" />
<path d="M193.1715 114.5878 A0.5702 0.5702 0.0 0 0 193.7425 115.1587" />
<path d="M223.8125 21.5298 A0.5702 0.5702 0.0 0 0 223.2415 20.9588" />
<path d="M229.3789 115.1588 A1.8563 1.8563 0.0 0 0 231.1770 113.7637" />
<path d="M240.8745 114.6027 A5.0110 5.0110 0.0 0 0 231.1770 113.7638" />
<path d="M223.8125 21.5298 A5.0185 5.0185 0.0 0 0 233.7305 21.5298" />
<path d="M234.3015 20.9588 A0.5702 0.5702 0.0 0 0 233.7305 21.5298" />
<path d="M240.8745 114.6027 A0.5565 0.5565 0.0 0 0 241.4305 115.1587" />
<path d="M244.2955 21.5298 A0.5700 0.5700 0.0 0 0 243.7245 20.9588" />
<path d="M244.2955 21.5298 A3.5557 3.5557 0.0 0 0 251.2955 21.5298" />
<path d="M251.8665 20.9588 A0.5702 0.5702 0.0 0 0 251.2955 21.5298" />
<path d="M262.7745 115.1587 A0.5702 0.5702 0.0 0 0 263.3455 114.5878" />
<path d="M269.2185 112.5657 A3.5566 3.5566 0.0 0 0 263.3455 114.5878" />
<path d="M269.2185 112.5657 A0.9497 0.9497 0.0 0 0 269.8512 112.6647" />
<path d="M276.3960 115.1582 A3.2877 3.2877 0.0 0 0 273.2460 112.6593" />
<path d="M270.0958 20.9583 A3.2563 3.2563 0.0 0 0 276.4375 20.9588" />
<path d="M282.5035 76.1587 A1.1000 1.1000 0.0 1 0 282.5035 78.3587" />
<path d="M285.3965 22.9588 A2.0007 2.0007 0.0 0 0 283.3965 20.9588" />
<path d="M283.3965 115.1587 A2.0007 2.0007 0.0 0 0 285.3965 113.1587" />
<g >
</g>
<g >
</g>
<g >
</g>
<g >
</g>
<g >
</g>
<g >
</g>
<g >
</g>
<g >
</g>
<g >
</g>
<g >
</g>
<g >
</g>
<g >
</g>
<g >
</g>
<g >
</g>
<g >
</g>
<g >
</g>
<g >
</g>
<g >
</g>
<g >
</g>
<g >
</g>
<g >
</g>
<g >
</g>
<g >
</g>
<g >
</g>
<g >
</g>
<g >
</g>
<g >
</g>
<g >
</g>
<g >
</g>
<g >
</g>
<g >
</g>
<g >
</g>
<g >
</g>
<g >
</g>
<g >
</g>
<g >
</g>
<g >
</g>
<g >
</g>
<g >
</g>
<g >
</g>
<g >
</g>
<g >
</g>
<g >
</g>
<g >
</g>
<g >
</g>
<g >
</g>
<g >
</g>
<g >
</g>
<g >
</g>
<g >
</g>
<g >
</g>
<g >
</g>
<g >
</g>
<g >
</g>
<g >
</g>
<g >
</g>
<g >
</g>
<g >
</g>
<g >
</g>
<g >
</g>
<g >
</g>
<g >
</g>
<g >
</g>
<g >
</g>
<g >
</g>
<g >
</g>
<g >
</g>
<g >
</g>
<g >
</g>
<g >
</g>
<g >
</g>
<g >
</g>
<g >
</g>
<g >
</g>
<g >
</g>
<g >
</g>
<g >
</g>
<g >
</g>
<g >
</g>
<g >
</g>
<g >
</g>
<g >
</g>
<g >
</g>
<g >
</g>
<g >
</g>
<g >
</g>
<g >
</g>
<g >
</g>
<g >
</g>
<g >
</g>
<g >
</g>
<g >
</g>
<g >
</g>
<g >
</g>
<g >
</g>
<g >
</g>
<g >
</g>
<g >
</g>
<g >
</g>
<g >
</g>
<g >
</g>
<g >
</g>
<g >
</g>
<g >
</g>
<g >
</g>
<g >
</g>
<g >
</g>
<g >
</g>
<g >
</g>
<g >
</g>
<g >
</g>
<g >
</g>
<g >
</g>
<g >
</g>
<g >
</g>
<g >
</g>
<g >
</g>
<g >
</g>
<g >
</g>
<g >
</g>
<g >
</g>
<g >
</g>
<g >
</g>
<g >
</g>
<g >
</g>
<g >
</g>
<g >
</g>
<g >
</g>
<g >
</g>
<g >
</g>
<g >
</g>
<g >
</g>
<g >
</g>
<g >
</g>
<g >
</g>
<g >
</g>
<g >
</g>
<g >
</g>
<g >
</g>
<g >
</g>
<g >
</g>
<g >
</g>
<g >
</g>
<g >
</g>
<g >
</g>
<g >
</g>
<g >
</g>
<g >
</g>
<g >
</g>
<g >
</g>
<g >
</g>
<g >
</g>
<g >
</g>
<g >
</g>
<g >
</g>
<g >
</g>
<g >
</g>
<g >
</g>
<g >
</g>
<g >
</g>
<g >
</g>
<g >
</g>
<g >
</g>
<g >
</g>
<g >
</g>
<g >
</g>
<g >
</g>
<g >
</g>
<g >
</g>
<g >
</g>
<g >
</g>
<g >
</g>
<g >
</g>
<g >
</g>
<g >
</g>
<g >
</g>
<g >
</g>
<g >
</g>
<g >
</g>
<g >
</g>
<g >
</g>
</g> 
</svg>
