<?xml version="1.0" standalone="no"?>
 <!DOCTYPE svg PUBLIC "-//W3C//DTD SVG 1.1//EN" 
 "http://www.w3.org/Graphics/SVG/1.1/DTD/svg11.dtd"> 
<svg
  xmlns:svg="http://www.w3.org/2000/svg"
  xmlns="http://www.w3.org/2000/svg"
  xmlns:xlink="http://www.w3.org/1999/xlink"
  version="1.1"
  width="317.8302mm" height="116.1288mm" viewBox="0.0000 0.0000 317.8302 116.1288">
<title>SVG Image created as qazimodo-B_Silkscreen.svg date 2024/03/13 18:09:03 </title>
  <desc>Image generated by PCBNEW </desc>
<g style="fill:#000000; fill-opacity:1.0000;stroke:#000000; stroke-opacity:1.0000;
stroke-linecap:round; stroke-linejoin:round;"
 transform="translate(0 0) scale(1 1)">
</g>
<g style="fill:#000000; fill-opacity:0.0; 
stroke:#000000; stroke-width:0.0000; stroke-opacity:1; 
stroke-linecap:round; stroke-linejoin:round;">
</g>
<g style="fill:#E8B2A7; fill-opacity:0.0; 
stroke:#E8B2A7; stroke-width:0.0000; stroke-opacity:1; 
stroke-linecap:round; stroke-linejoin:round;">
</g>
<g style="fill:#E8B2A7; fill-opacity:0.0; 
stroke:#E8B2A7; stroke-width:0.1200; stroke-opacity:1; 
stroke-linecap:round; stroke-linejoin:round;">
<path d="M61.6277 58.3765
L61.6277 56.2965
" />
<path d="M60.3577 54.6165
L60.8477 55.1065
" />
<path d="M60.3577 54.6165
L57.4577 54.6165
" />
<path d="M60.3577 60.0565
L60.8477 59.5665
" />
<path d="M60.3577 60.0565
L57.4577 60.0565
" />
<path d="M57.4577 54.6165
L56.9677 55.1065
" />
<path d="M57.4577 60.0565
L56.9677 59.5665
" />
<path d="M56.1877 58.3765
L56.1877 56.2965
" />
<path d="M19.6202 57.3090
L20.2703 57.3090
" />
<path d="M19.6202 54.1890
L21.2952 54.1890
" />
<path d="M19.6202 57.3090
L18.9703 57.3090
" />
<path d="M19.6202 54.1890
L18.9703 54.1890
" />
<path d="M32.9267 57.3515
L32.9267 56.9015
" />
<path d="M25.7067 64.1215
L26.1567 64.1215
" />
<path d="M32.9267 64.1215
L32.4767 64.1215
" />
<path d="M25.7067 57.3515
L25.7067 56.9015
" />
<path d="M25.7067 56.9015
L26.1567 56.9015
" />
<path d="M32.9267 63.6715
L32.9267 64.1215
" />
<path d="M25.7067 63.6715
L25.7067 64.1215
" />
<path d="M32.4767 64.1215
L32.4767 65.4115
" />
<path d="M32.9267 56.9015
L32.4767 56.9015
" />
<path d="M52.9715 58.7704
L52.9715 59.0776
" />
<path d="M53.7315 58.7704
L53.7315 59.0776
" />
<path d="M22.4922 55.8725
L22.4922 55.6568
" />
<path d="M21.7722 55.8725
L21.7722 55.6568
" />
<path d="M17.5297 55.6349
L17.5297 55.8506
" />
<path d="M16.8097 55.6349
L16.8097 55.8506
" />
<path d="M24.5427 65.9599
L24.5427 66.1756
" />
<path d="M23.8227 65.9599
L23.8227 66.1756
" />
<path d="M22.8290 55.8568
L22.8290 55.6412
" />
<path d="M23.5490 55.8568
L23.5490 55.6412
" />
<path d="M25.7302 65.9599
L25.7302 66.1756
" />
<path d="M25.0102 65.9599
L25.0102 66.1756
" />
<path d="M33.4162 65.9599
L33.4162 66.1756
" />
<path d="M32.6962 65.9599
L32.6962 66.1756
" />
<path d="M34.5116 65.9599
L34.5116 66.1756
" />
<path d="M33.7916 65.9599
L33.7916 66.1756
" />
<path d="M33.2285 55.8568
L33.2285 55.6412
" />
<path d="M33.9485 55.8568
L33.9485 55.6412
" />
<path d="M23.8227 55.8568
L23.8227 55.6412
" />
<path d="M24.5427 55.8568
L24.5427 55.6412
" />
<path d="M30.9202 32.5490
L30.9202 28.6990
" />
<path d="M32.9202 32.5490
L30.9202 32.5490
" />
<path d="M32.9202 32.5490
L32.9202 28.6990
" />
<path d="M192.8579 89.6609
L192.8579 85.8109
" />
<path d="M194.8579 89.6609
L192.8579 89.6609
" />
<path d="M194.8579 89.6609
L194.8579 85.8109
" />
<path d="M227.7702 70.6490
L227.7702 66.7990
" />
<path d="M229.7702 70.6490
L227.7702 70.6490
" />
<path d="M229.7702 70.6490
L229.7702 66.7990
" />
<path d="M35.6827 108.7490
L35.6827 104.8990
" />
<path d="M37.6827 108.7490
L35.6827 108.7490
" />
<path d="M37.6827 108.7490
L37.6827 104.8990
" />
<path d="M221.4202 108.7490
L221.4202 104.8990
" />
<path d="M223.4202 108.7490
L221.4202 108.7490
" />
<path d="M223.4202 108.7490
L223.4202 104.8990
" />
</g>
<g style="fill:#E8B2A7; fill-opacity:0.0; 
stroke:#E8B2A7; stroke-width:0.1500; stroke-opacity:1; 
stroke-linecap:round; stroke-linejoin:round;">
<path d="M48.4452 36.8740
L46.0452 36.8740
" />
<path d="M46.0452 36.8740
L46.0452 37.8740
" />
<path d="M50.2452 41.8740
L50.2452 37.8740
" />
<path d="M46.0452 41.8740
L46.0452 42.8740
" />
<path d="M46.0452 42.8740
L48.4452 42.8740
" />
</g>
<g style="fill:#E8B2A7; fill-opacity:0.0; 
stroke:#E8B2A7; stroke-width:0.1200; stroke-opacity:1; 
stroke-linecap:round; stroke-linejoin:round;">
<path d="M278.5702 108.7490
L278.5702 104.8990
" />
<path d="M280.5702 108.7490
L278.5702 108.7490
" />
<path d="M280.5702 108.7490
L280.5702 104.8990
" />
<path d="M240.4702 89.6990
L240.4702 85.8490
" />
<path d="M242.4702 89.6990
L240.4702 89.6990
" />
<path d="M242.4702 89.6990
L242.4702 85.8490
" />
<path d="M73.7827 89.6990
L73.7827 85.8490
" />
<path d="M75.7827 89.6990
L73.7827 89.6990
" />
<path d="M75.7827 89.6990
L75.7827 85.8490
" />
<path d="M154.7452 51.5990
L154.7452 47.7490
" />
<path d="M156.7452 51.5990
L154.7452 51.5990
" />
<path d="M156.7452 51.5990
L156.7452 47.7490
" />
<path d="M192.8452 51.5990
L192.8452 47.7490
" />
<path d="M194.8452 51.5990
L192.8452 51.5990
" />
<path d="M194.8452 51.5990
L194.8452 47.7490
" />
<path d="M278.5702 89.6990
L278.5702 85.8490
" />
<path d="M280.5702 89.6990
L278.5702 89.6990
" />
<path d="M280.5702 89.6990
L280.5702 85.8490
" />
<path d="M278.5702 32.5490
L278.5702 28.6990
" />
<path d="M280.5702 32.5490
L278.5702 32.5490
" />
<path d="M280.5702 32.5490
L280.5702 28.6990
" />
<path d="M39.7467 108.7490
L39.7467 104.8990
" />
<path d="M41.7467 108.7490
L39.7467 108.7490
" />
<path d="M41.7467 108.7490
L41.7467 104.8990
" />
<path d="M278.5702 70.6490
L278.5702 66.7990
" />
<path d="M280.5702 70.6490
L278.5702 70.6490
" />
<path d="M280.5702 70.6490
L280.5702 66.7990
" />
<path d="M78.5452 51.5990
L78.5452 47.7490
" />
<path d="M80.5452 51.5990
L78.5452 51.5990
" />
<path d="M80.5452 51.5990
L80.5452 47.7490
" />
<path d="M259.5202 70.6490
L259.5202 66.7990
" />
<path d="M261.5202 70.6490
L259.5202 70.6490
" />
<path d="M261.5202 70.6490
L261.5202 66.7990
" />
<path d="M163.4765 108.7490
L163.4765 104.8990
" />
<path d="M165.4765 108.7490
L163.4765 108.7490
" />
<path d="M165.4765 108.7490
L165.4765 104.8990
" />
<path d="M140.4578 70.6490
L140.4578 66.7990
" />
<path d="M142.4578 70.6490
L140.4578 70.6490
" />
<path d="M142.4578 70.6490
L142.4578 66.7990
" />
<path d="M259.5202 51.5990
L259.5202 47.7490
" />
<path d="M261.5202 51.5990
L259.5202 51.5990
" />
<path d="M261.5202 51.5990
L261.5202 47.7490
" />
<path d="M18.9169 70.6382
L18.9169 66.7882
" />
<path d="M20.9169 70.6382
L18.9169 70.6382
" />
<path d="M20.9169 70.6382
L20.9169 66.7882
" />
<path d="M64.2578 70.6490
L64.2578 66.7990
" />
<path d="M66.2578 70.6490
L64.2578 70.6490
" />
<path d="M66.2578 70.6490
L66.2578 66.7990
" />
<path d="M187.2890 108.7490
L187.2890 104.8990
" />
<path d="M189.2890 108.7490
L187.2890 108.7490
" />
<path d="M189.2890 108.7490
L189.2890 104.8990
" />
<path d="M259.5202 89.6990
L259.5202 85.8490
" />
<path d="M261.5202 89.6990
L259.5202 89.6990
" />
<path d="M261.5202 89.6990
L261.5202 85.8490
" />
<path d="M197.6077 70.6490
L197.6077 66.7990
" />
<path d="M199.6077 70.6490
L197.6077 70.6490
" />
<path d="M199.6077 70.6490
L199.6077 66.7990
" />
<path d="M183.3202 32.5490
L183.3202 28.6990
" />
<path d="M185.3202 32.5490
L183.3202 32.5490
" />
<path d="M185.3202 32.5490
L185.3202 28.6990
" />
<path d="M25.7872 24.5737
L25.7872 24.2665
" />
<path d="M26.5471 24.5737
L26.5471 24.2665
" />
<path d="M178.5577 70.6490
L178.5577 66.7990
" />
<path d="M180.5577 70.6490
L178.5577 70.6490
" />
<path d="M180.5577 70.6490
L180.5577 66.7990
" />
<path d="M69.0202 32.5490
L69.0202 28.6990
" />
<path d="M71.0202 32.5490
L69.0202 32.5490
" />
<path d="M71.0202 32.5490
L71.0202 28.6990
" />
<path d="M22.8187 39.2719
L22.8187 40.4761
" />
<path d="M24.6387 39.2719
L24.6387 40.4761
" />
<path d="M54.7327 89.6990
L54.7327 85.8490
" />
<path d="M56.7327 89.6990
L54.7327 89.6990
" />
<path d="M56.7327 89.6990
L56.7327 85.8490
" />
<path d="M18.0128 29.3699
L18.0128 29.6771
" />
<path d="M17.2527 29.3699
L17.2527 29.6771
" />
<path d="M83.3077 70.6490
L83.3077 66.7990
" />
<path d="M85.3077 70.6490
L83.3077 70.6490
" />
<path d="M85.3077 70.6490
L85.3077 66.7990
" />
<path d="M23.6484 89.7129
L23.6484 85.8629
" />
<path d="M25.6484 89.7129
L23.6484 89.7129
" />
<path d="M25.6484 89.7129
L25.6484 85.8629
" />
<path d="M21.0607 29.3699
L21.0607 29.6771
" />
<path d="M20.3008 29.3699
L20.3008 29.6771
" />
<path d="M240.4702 32.5490
L240.4702 28.6990
" />
<path d="M242.4702 32.5490
L240.4702 32.5490
" />
<path d="M242.4702 32.5490
L242.4702 28.6990
" />
<path d="M95.2140 108.7490
L95.2140 104.8990
" />
<path d="M97.2140 108.7490
L95.2140 108.7490
" />
<path d="M97.2140 108.7490
L97.2140 104.8990
" />
<path d="M149.2207 108.7490
L149.2207 104.8990
" />
<path d="M151.2207 108.7490
L149.2207 108.7490
" />
<path d="M151.2207 108.7490
L151.2207 104.8990
" />
<path d="M88.0703 32.5490
L88.0703 28.6990
" />
<path d="M90.0703 32.5490
L88.0703 32.5490
" />
<path d="M90.0703 32.5490
L90.0703 28.6990
" />
<path d="M14.2027 19.0945
L23.6028 19.0945
" />
<path d="M14.2027 20.9945
L14.2027 19.0945
" />
<path d="M14.2027 24.8945
L14.2027 22.8945
" />
<path d="M23.6028 20.9945
L23.6028 19.0945
" />
<path d="M23.6028 24.8945
L23.6028 22.8945
" />
<path d="M120.6140 108.7490
L120.6140 104.8990
" />
<path d="M122.6140 108.7490
L120.6140 108.7490
" />
<path d="M122.6140 108.7490
L122.6140 104.8990
" />
<path d="M116.6452 51.5990
L116.6452 47.7490
" />
<path d="M118.6452 51.5990
L116.6452 51.5990
" />
<path d="M118.6452 51.5990
L118.6452 47.7490
" />
<path d="M31.4907 43.9740
L29.4907 43.9740
" />
<path d="M30.1907 40.8540
L31.4907 40.8540
" />
<path d="M230.1515 108.7490
L230.1515 104.8990
" />
<path d="M232.1515 108.7490
L230.1515 108.7490
" />
<path d="M232.1515 108.7490
L232.1515 104.8990
" />
<path d="M173.7952 51.5990
L173.7952 47.7490
" />
<path d="M175.7952 51.5990
L173.7952 51.5990
" />
<path d="M175.7952 51.5990
L175.7952 47.7490
" />
<path d="M259.5202 32.5490
L259.5202 28.6990
" />
<path d="M261.5202 32.5490
L259.5202 32.5490
" />
<path d="M261.5202 32.5490
L261.5202 28.6990
" />
<path d="M121.4077 70.6490
L121.4077 66.7990
" />
<path d="M123.4077 70.6490
L121.4077 70.6490
" />
<path d="M123.4077 70.6490
L123.4077 66.7990
" />
<path d="M102.3577 70.6490
L102.3577 66.7990
" />
<path d="M104.3577 70.6490
L102.3577 70.6490
" />
<path d="M104.3577 70.6490
L104.3577 66.7990
" />
<path d="M11.8702 32.7395
L11.8702 28.8895
" />
<path d="M13.8702 32.7395
L11.8702 32.7395
" />
<path d="M13.8702 32.7395
L13.8702 28.8895
" />
<path d="M11.8702 108.7490
L11.8702 104.8990
" />
<path d="M13.8702 108.7490
L11.8702 108.7490
" />
<path d="M13.8702 108.7490
L13.8702 104.8990
" />
<path d="M164.2703 32.5490
L164.2703 28.6990
" />
<path d="M166.2703 32.5490
L164.2703 32.5490
" />
<path d="M166.2703 32.5490
L166.2703 28.6990
" />
<path d="M126.1702 32.5490
L126.1702 28.6990
" />
<path d="M128.1702 32.5490
L126.1702 32.5490
" />
<path d="M128.1702 32.5490
L128.1702 28.6990
" />
<path d="M35.6827 89.6990
L35.6827 85.8490
" />
<path d="M37.6827 89.6990
L35.6827 89.6990
" />
<path d="M37.6827 89.6990
L37.6827 85.8490
" />
<path d="M278.5702 51.4115
L278.5702 47.5615
" />
<path d="M280.5702 51.4115
L278.5702 51.4115
" />
<path d="M280.5702 51.4115
L280.5702 47.5615
" />
<path d="M240.4702 51.5990
L240.4702 47.7490
" />
<path d="M242.4702 51.5990
L240.4702 51.5990
" />
<path d="M242.4702 51.5990
L242.4702 47.7490
" />
<path d="M107.1202 32.5490
L107.1202 28.6990
" />
<path d="M109.1202 32.5490
L107.1202 32.5490
" />
<path d="M109.1202 32.5490
L109.1202 28.6990
" />
<path d="M111.8828 89.6990
L111.8828 85.8490
" />
<path d="M113.8828 89.6990
L111.8828 89.6990
" />
<path d="M113.8828 89.6990
L113.8828 85.8490
" />
<path d="M135.6952 51.5990
L135.6952 47.7490
" />
<path d="M137.6952 51.5990
L135.6952 51.5990
" />
<path d="M137.6952 51.5990
L137.6952 47.7490
" />
<path d="M59.4952 108.7490
L59.4952 104.8990
" />
<path d="M61.4952 108.7490
L59.4952 108.7490
" />
<path d="M61.4952 108.7490
L61.4952 104.8990
" />
<path d="M49.9703 32.5490
L49.9703 28.6990
" />
<path d="M51.9703 32.5490
L49.9703 32.5490
" />
<path d="M51.9703 32.5490
L51.9703 28.6990
" />
<path d="M97.5952 51.5990
L97.5952 47.7490
" />
<path d="M99.5952 51.5990
L97.5952 51.5990
" />
<path d="M99.5952 51.5990
L99.5952 47.7490
" />
<path d="M226.1827 35.7240
L226.1827 31.8740
" />
<path d="M228.1827 35.7240
L226.1827 35.7240
" />
<path d="M228.1827 35.7240
L228.1827 31.8740
" />
<path d="M169.0327 89.6990
L169.0327 85.8490
" />
<path d="M171.0327 89.6990
L169.0327 89.6990
" />
<path d="M171.0327 89.6990
L171.0327 85.8490
" />
<path d="M40.4453 51.5990
L40.4453 47.7490
" />
<path d="M42.4453 51.5990
L40.4453 51.5990
" />
<path d="M42.4453 51.5990
L42.4453 47.7490
" />
<path d="M240.4702 70.6490
L240.4702 66.7990
" />
<path d="M242.4702 70.6490
L240.4702 70.6490
" />
<path d="M242.4702 70.6490
L242.4702 66.7990
" />
<path d="M145.2202 32.5490
L145.2202 28.6990
" />
<path d="M147.2202 32.5490
L145.2202 32.5490
" />
<path d="M147.2202 32.5490
L147.2202 28.6990
" />
<path d="M24.7403 24.5259
L24.7403 24.3103
" />
<path d="M25.4603 24.5259
L25.4603 24.3103
" />
<path d="M202.3702 35.7240
L202.3702 31.8740
" />
<path d="M204.3702 35.7240
L202.3702 35.7240
" />
<path d="M204.3702 35.7240
L204.3702 31.8740
" />
<path d="M227.7702 51.5990
L227.7702 47.7490
" />
<path d="M229.7702 51.5990
L227.7702 51.5990
" />
<path d="M229.7702 51.5990
L229.7702 47.7490
" />
<path d="M45.2077 70.6490
L45.2077 66.7990
" />
<path d="M47.2077 70.6490
L45.2077 70.6490
" />
<path d="M47.2077 70.6490
L47.2077 66.7990
" />
<path d="M16.6327 51.5990
L16.6327 47.7490
" />
<path d="M18.6327 51.5990
L16.6327 51.5990
" />
<path d="M18.6327 51.5990
L18.6327 47.7490
" />
<path d="M259.5202 108.7490
L259.5202 104.8990
" />
<path d="M261.5202 108.7490
L259.5202 108.7490
" />
<path d="M261.5202 108.7490
L261.5202 104.8990
" />
<path d="M59.4952 51.5990
L59.4952 47.7490
" />
<path d="M61.4952 51.5990
L59.4952 51.5990
" />
<path d="M61.4952 51.5990
L61.4952 47.7490
" />
<path d="M130.9327 89.6990
L130.9327 85.8490
" />
<path d="M132.9327 89.6990
L130.9327 89.6990
" />
<path d="M132.9327 89.6990
L132.9327 85.8490
" />
<path d="M219.8327 89.6990
L219.8327 85.8490
" />
<path d="M221.8327 89.6990
L219.8327 89.6990
" />
<path d="M221.8327 89.6990
L221.8327 85.8490
" />
<path d="M159.5077 70.6490
L159.5077 66.7990
" />
<path d="M161.5077 70.6490
L159.5077 70.6490
" />
<path d="M161.5077 70.6490
L161.5077 66.7990
" />
<path d="M149.9827 89.6990
L149.9827 85.8490
" />
<path d="M151.9827 89.6990
L149.9827 89.6990
" />
<path d="M151.9827 89.6990
L151.9827 85.8490
" />
<path d="M92.8327 89.6990
L92.8327 85.8490
" />
<path d="M94.8327 89.6990
L92.8327 89.6990
" />
<path d="M94.8327 89.6990
L94.8327 85.8490
" />
<path d="M202.3702 108.7490
L202.3702 104.8990
" />
<path d="M204.3702 108.7490
L202.3702 108.7490
" />
<path d="M204.3702 108.7490
L204.3702 104.8990
" />
<g >
</g>
<g >
</g>
<g >
</g>
<g >
</g>
<g >
</g>
<g >
</g>
<g >
</g>
<g >
</g>
<g >
</g>
<g >
</g>
<g >
</g>
<g >
</g>
<g >
</g>
<g >
</g>
<g >
</g>
<g >
</g>
<g >
</g>
<g >
</g>
<g >
</g>
<g >
</g>
<g >
</g>
<g >
</g>
<g >
</g>
<g >
</g>
<g >
</g>
<g >
</g>
<g >
</g>
<g >
</g>
<g >
</g>
<g >
</g>
<g >
</g>
<g >
</g>
<g >
</g>
<g >
</g>
<g >
</g>
<g >
</g>
<g >
</g>
<g >
</g>
<g >
</g>
<g >
</g>
<g >
</g>
<g >
</g>
<g >
</g>
<g >
</g>
<g >
</g>
<g >
</g>
<g >
</g>
<g >
</g>
<g >
</g>
<g >
</g>
<g >
</g>
<g >
</g>
<g >
</g>
<g >
</g>
<g >
</g>
<g >
</g>
<g >
</g>
<g >
</g>
<g >
</g>
<g >
</g>
<g >
</g>
<g >
</g>
<g >
</g>
<g >
</g>
<g >
</g>
<g >
</g>
<g >
</g>
<g >
</g>
<g >
</g>
<g >
</g>
<g >
</g>
<g >
</g>
<g >
</g>
<g >
</g>
<g >
</g>
<g >
</g>
<g >
</g>
<g >
</g>
<g >
</g>
<g >
</g>
<g >
</g>
<g >
</g>
<g >
</g>
<g >
</g>
<g >
</g>
<g >
</g>
<g >
</g>
<g >
</g>
<g >
</g>
<g >
</g>
<g >
</g>
<g >
</g>
<g >
</g>
<g >
</g>
<g >
</g>
<g >
</g>
<g >
</g>
<g >
</g>
<g >
</g>
<g >
</g>
<g >
</g>
<g >
</g>
<g >
</g>
<g >
</g>
<g >
</g>
<g >
</g>
<g >
</g>
<g >
</g>
<g >
</g>
<g >
</g>
<g >
</g>
<g >
</g>
<g >
</g>
<g >
</g>
<g >
</g>
<g >
</g>
<g >
</g>
<g >
</g>
<g >
</g>
<g >
</g>
<g >
</g>
<g >
</g>
<g >
</g>
<g >
</g>
<g >
</g>
<g >
</g>
<g >
</g>
<g >
</g>
<g >
</g>
<g >
</g>
<g >
</g>
<g >
</g>
<g >
</g>
<g >
</g>
<g >
</g>
<g >
</g>
<g >
</g>
<g >
</g>
<g >
</g>
<g >
</g>
<g >
</g>
<g >
</g>
<g >
</g>
<g >
</g>
<g >
</g>
<g >
</g>
<g >
</g>
<g >
</g>
<g >
</g>
<g >
</g>
<g >
</g>
<g >
</g>
<g >
</g>
<g >
</g>
<g >
</g>
<g >
</g>
<g >
</g>
<g >
</g>
<g >
</g>
<g >
</g>
<g >
</g>
<g >
</g>
<g >
</g>
<g >
</g>
<g >
</g>
<g >
</g>
<g >
</g>
<g >
</g>
<g >
</g>
<g >
</g>
<g >
</g>
<g >
</g>
<g >
</g>
<g >
</g>
<g >
</g>
<g >
</g>
<g >
</g>
<g >
</g>
<g >
</g>
<g >
</g>
<g >
</g>
<g >
</g>
</g>
<g style="fill:#000000; fill-opacity:0.0; 
stroke:#000000; stroke-width:0.1200; stroke-opacity:1; 
stroke-linecap:round; stroke-linejoin:round;">
</g>
<g style="fill:#D0D2CD; fill-opacity:0.0; 
stroke:#D0D2CD; stroke-width:0.1200; stroke-opacity:1; 
stroke-linecap:round; stroke-linejoin:round;">
</g>
<g style="fill:#D0D2CD; fill-opacity:0.0; 
stroke:#D0D2CD; stroke-width:0.2000; stroke-opacity:1; 
stroke-linecap:round; stroke-linejoin:round;">
<path d="M0.6965 22.9588
L0.6965 76.1587
" />
<path d="M0.6965 76.1587
L3.5895 76.1587
" />
<path d="M0.6965 78.3588
L0.6960 113.1582
" />
<path d="M2.6960 20.9582
L7.6960 20.9582
" />
<path d="M2.6965 115.1587
L9.6960 115.1582
" />
<path d="M3.5895 78.3588
L0.6965 78.3588
" />
<path d="M12.8460 112.6593
L16.4210 112.6593
" />
<path d="M23.3185 115.1587
L44.6625 115.1587
" />
<path d="M34.2265 20.9588
L13.9960 20.9582
" />
<path d="M51.7915 20.9588
L42.3685 20.9588
" />
<path d="M92.3505 20.9588
L62.8515 20.9588
" />
<path d="M92.3505 115.1587
L56.6501 115.1588
" />
<path d="M99.3760 112.6593
L99.6460 112.6593
" />
<path d="M102.7375 115.1587
L183.3555 115.1587
" />
<path d="M124.7309 20.9588
L102.7375 20.9588
" />
<path d="M183.2960 20.9582
L132.9771 20.9588
" />
<path d="M186.9810 112.6840
L186.4595 112.6593
" />
<path d="M193.7425 115.1587
L229.3789 115.1588
" />
<path d="M223.2415 20.9588
L193.7425 20.9588
" />
<path d="M241.4305 115.1587
L262.7745 115.1587
" />
<path d="M243.7245 20.9588
L234.3015 20.9588
" />
<path d="M269.8512 112.6647
L273.2460 112.6593
" />
<path d="M270.0958 20.9583
L251.8665 20.9588
" />
<path d="M276.3960 115.1582
L283.3965 115.1587
" />
<path d="M282.5035 76.1587
L285.3965 76.1587
" />
<path d="M283.3965 20.9588
L276.4375 20.9588
" />
<path d="M285.3965 76.1587
L285.3965 22.9588
" />
<path d="M285.3965 78.3588
L282.5035 78.3588
" />
<path d="M285.3965 113.1587
L285.3965 78.3588
" />
<path d="M2.6960 20.9582 A2.0013 2.0013 0.0 0 0 0.6965 22.9588" />
<path d="M0.6960 113.1582 A2.0005 2.0005 0.0 0 0 2.6965 115.1587" />
<path d="M3.5895 78.3587 A1.1000 1.1000 0.0 1 0 3.5895 76.1587" />
<path d="M12.8460 112.6594 A3.4411 3.4411 0.0 0 0 9.6960 115.1582" />
<path d="M7.6960 20.9582 A3.2348 3.2348 0.0 0 0 13.9960 20.9582" />
<path d="M16.4210 112.6594 A0.6539 0.6539 0.0 0 0 16.8550 112.4937" />
<path d="M22.7475 114.5878 A3.6000 3.6000 0.0 0 0 16.8550 112.4938" />
<path d="M22.7475 114.5878 A0.5702 0.5702 0.0 0 0 23.3185 115.1587" />
<path d="M34.7975 21.5298 A0.5702 0.5702 0.0 0 0 34.2265 20.9588" />
<path d="M34.7975 21.5298 A3.5557 3.5557 0.0 0 0 41.7975 21.5298" />
<path d="M42.3685 20.9588 A0.5702 0.5702 0.0 0 0 41.7975 21.5298" />
<path d="M44.6625 115.1587 A0.5565 0.5565 0.0 0 0 45.2185 114.6027" />
<path d="M55.3200 114.3523 A5.1343 5.1343 0.0 0 0 45.2185 114.6028" />
<path d="M52.3625 21.5298 A0.5702 0.5702 0.0 0 0 51.7915 20.9588" />
<path d="M55.3200 114.3523 A1.5000 1.5000 0.0 0 0 56.6501 115.1588" />
<path d="M52.3625 21.5298 A5.0185 5.0185 0.0 0 0 62.2805 21.5298" />
<path d="M62.8515 20.9588 A0.5702 0.5702 0.0 0 0 62.2805 21.5298" />
<path d="M92.9215 21.5298 A0.5702 0.5702 0.0 0 0 92.3505 20.9588" />
<path d="M92.3505 115.1587 A0.5702 0.5702 0.0 0 0 92.9215 114.5878" />
<path d="M98.8665 112.6327 A3.5560 3.5560 0.0 0 0 92.9215 114.5878" />
<path d="M92.9215 21.5298 A3.5939 3.5939 0.0 0 0 98.7112 23.6397" />
<path d="M99.6215 23.4571 A1.3977 1.3977 0.0 0 0 98.7112 23.6397" />
<path d="M98.8665 112.6327 A1.2521 1.2521 0.0 0 0 99.3760 112.6593" />
<path d="M102.7375 115.1588 A3.1310 3.1310 0.0 0 0 99.6460 112.6594" />
<path d="M99.6215 23.4571 A3.0898 3.0898 0.0 0 0 102.7375 20.9588" />
<path d="M126.0609 21.7652 A1.4999 1.4999 0.0 0 0 124.7309 20.9588" />
<path d="M126.0609 21.7652 A3.1500 3.1500 0.0 0 0 131.6470 21.7652" />
<path d="M132.9771 20.9588 A1.5001 1.5001 0.0 0 0 131.6470 21.7652" />
<path d="M186.4595 112.6593 A3.0678 3.0678 0.0 0 0 183.3555 115.1588" />
<path d="M183.2960 20.9582 A3.1949 3.1949 0.0 0 0 186.4460 23.4571" />
<path d="M187.3434 23.6239 A1.6536 1.6536 0.0 0 0 186.4460 23.4571" />
<path d="M186.9810 112.6840 A0.7353 0.7353 0.0 0 0 187.4530 112.4810" />
<path d="M193.1715 114.5878 A3.5316 3.5316 0.0 0 0 187.4530 112.4810" />
<path d="M187.3434 23.6239 A3.5727 3.5727 0.0 0 0 193.1715 21.5298" />
<path d="M193.7425 20.9588 A0.5702 0.5702 0.0 0 0 193.1715 21.5298" />
<path d="M193.1715 114.5878 A0.5702 0.5702 0.0 0 0 193.7425 115.1587" />
<path d="M223.8125 21.5298 A0.5702 0.5702 0.0 0 0 223.2415 20.9588" />
<path d="M229.3789 115.1588 A1.8563 1.8563 0.0 0 0 231.1770 113.7637" />
<path d="M240.8745 114.6027 A5.0110 5.0110 0.0 0 0 231.1770 113.7638" />
<path d="M223.8125 21.5298 A5.0185 5.0185 0.0 0 0 233.7305 21.5298" />
<path d="M234.3015 20.9588 A0.5702 0.5702 0.0 0 0 233.7305 21.5298" />
<path d="M240.8745 114.6027 A0.5565 0.5565 0.0 0 0 241.4305 115.1587" />
<path d="M244.2955 21.5298 A0.5700 0.5700 0.0 0 0 243.7245 20.9588" />
<path d="M244.2955 21.5298 A3.5557 3.5557 0.0 0 0 251.2955 21.5298" />
<path d="M251.8665 20.9588 A0.5702 0.5702 0.0 0 0 251.2955 21.5298" />
<path d="M262.7745 115.1587 A0.5702 0.5702 0.0 0 0 263.3455 114.5878" />
<path d="M269.2185 112.5657 A3.5566 3.5566 0.0 0 0 263.3455 114.5878" />
<path d="M269.2185 112.5657 A0.9497 0.9497 0.0 0 0 269.8512 112.6647" />
<path d="M276.3960 115.1582 A3.2877 3.2877 0.0 0 0 273.2460 112.6593" />
<path d="M270.0958 20.9583 A3.2563 3.2563 0.0 0 0 276.4375 20.9588" />
<path d="M282.5035 76.1587 A1.1000 1.1000 0.0 1 0 282.5035 78.3587" />
<path d="M285.3965 22.9588 A2.0007 2.0007 0.0 0 0 283.3965 20.9588" />
<path d="M283.3965 115.1587 A2.0007 2.0007 0.0 0 0 285.3965 113.1587" />
<g >
</g>
<g >
</g>
<g >
</g>
<g >
</g>
<g >
</g>
<g >
</g>
<g >
</g>
<g >
</g>
<g >
</g>
<g >
</g>
<g >
</g>
<g >
</g>
<g >
</g>
<g >
</g>
<g >
</g>
<g >
</g>
<g >
</g>
<g >
</g>
<g >
</g>
<g >
</g>
<g >
</g>
<g >
</g>
<g >
</g>
<g >
</g>
<g >
</g>
<g >
</g>
<g >
</g>
<g >
</g>
<g >
</g>
<g >
</g>
<g >
</g>
<g >
</g>
<g >
</g>
<g >
</g>
<g >
</g>
<g >
</g>
<g >
</g>
<g >
</g>
<g >
</g>
<g >
</g>
<g >
</g>
<g >
</g>
<g >
</g>
<g >
</g>
<g >
</g>
<g >
</g>
<g >
</g>
<g >
</g>
<g >
</g>
<g >
</g>
<g >
</g>
<g >
</g>
<g >
</g>
<g >
</g>
<g >
</g>
<g >
</g>
<g >
</g>
<g >
</g>
<g >
</g>
<g >
</g>
<g >
</g>
<g >
</g>
<g >
</g>
<g >
</g>
<g >
</g>
<g >
</g>
<g >
</g>
<g >
</g>
<g >
</g>
<g >
</g>
<g >
</g>
<g >
</g>
<g >
</g>
<g >
</g>
<g >
</g>
<g >
</g>
<g >
</g>
<g >
</g>
<g >
</g>
<g >
</g>
<g >
</g>
<g >
</g>
<g >
</g>
<g >
</g>
<g >
</g>
<g >
</g>
<g >
</g>
<g >
</g>
<g >
</g>
<g >
</g>
<g >
</g>
<g >
</g>
<g >
</g>
<g >
</g>
<g >
</g>
<g >
</g>
<g >
</g>
<g >
</g>
<g >
</g>
<g >
</g>
<g >
</g>
<g >
</g>
<g >
</g>
<g >
</g>
<g >
</g>
<g >
</g>
<g >
</g>
<g >
</g>
<g >
</g>
<g >
</g>
<g >
</g>
<g >
</g>
<g >
</g>
<g >
</g>
<g >
</g>
<g >
</g>
<g >
</g>
<g >
</g>
<g >
</g>
<g >
</g>
<g >
</g>
<g >
</g>
<g >
</g>
<g >
</g>
<g >
</g>
<g >
</g>
<g >
</g>
<g >
</g>
<g >
</g>
<g >
</g>
<g >
</g>
<g >
</g>
<g >
</g>
<g >
</g>
<g >
</g>
<g >
</g>
<g >
</g>
<g >
</g>
<g >
</g>
<g >
</g>
<g >
</g>
<g >
</g>
<g >
</g>
<g >
</g>
<g >
</g>
<g >
</g>
<g >
</g>
<g >
</g>
<g >
</g>
<g >
</g>
<g >
</g>
<g >
</g>
<g >
</g>
<g >
</g>
<g >
</g>
<g >
</g>
<g >
</g>
<g >
</g>
<g >
</g>
<g >
</g>
<g >
</g>
<g >
</g>
<g >
</g>
<g >
</g>
<g >
</g>
<g >
</g>
<g >
</g>
<g >
</g>
<g >
</g>
<g >
</g>
<g >
</g>
<g >
</g>
<g >
</g>
<g >
</g>
<g >
</g>
<g >
</g>
<g >
</g>
<g >
</g>
<g >
</g>
<g >
</g>
<g >
</g>
<g >
</g>
</g> 
</svg>
