<?xml version="1.0" standalone="no"?>
 <!DOCTYPE svg PUBLIC "-//W3C//DTD SVG 1.1//EN" 
 "http://www.w3.org/Graphics/SVG/1.1/DTD/svg11.dtd"> 
<svg
  xmlns:svg="http://www.w3.org/2000/svg"
  xmlns="http://www.w3.org/2000/svg"
  xmlns:xlink="http://www.w3.org/1999/xlink"
  version="1.1"
  width="419.9890mm" height="297.0022mm" viewBox="0.0000 0.0000 419.9890 297.0022">
<title>SVG Image created as qazimodo-B_Adhesive.svg date 2023/03/26 19:37:01 </title>
  <desc>Image generated by PCBNEW </desc>
<g style="fill:#000000; fill-opacity:1.0000;stroke:#000000; stroke-opacity:1.0000;
stroke-linecap:round; stroke-linejoin:round;"
 transform="translate(0 0) scale(1 1)">
</g>
<g style="fill:#000000; fill-opacity:0.0; 
stroke:#000000; stroke-width:0.0000; stroke-opacity:1; 
stroke-linecap:round; stroke-linejoin:round;">
</g>
<g style="fill:#000000; fill-opacity:0.0; 
stroke:#000000; stroke-width:0.0212; stroke-opacity:1; 
stroke-linecap:round; stroke-linejoin:round;">
</g>
<g style="fill:#000000; fill-opacity:0.0; 
stroke:#000000; stroke-width:0.1500; stroke-opacity:1; 
stroke-linecap:round; stroke-linejoin:round;">
<path d="M299.9890 253.0022
L407.9890 253.0022
L407.9890 285.0022
L299.9890 285.0022
L299.9890 253.0022
" />
</g>
<g style="fill:#000000; fill-opacity:0.0; 
stroke:#000000; stroke-width:0.0212; stroke-opacity:1; 
stroke-linecap:round; stroke-linejoin:round;">
</g>
<g style="fill:#000000; fill-opacity:0.0; 
stroke:#000000; stroke-width:0.1500; stroke-opacity:1; 
stroke-linecap:round; stroke-linejoin:round;">
<path d="M10.0000 10.0000
L409.9890 10.0000
L409.9890 287.0022
L10.0000 287.0022
L10.0000 10.0000
" />
</g>
<g style="fill:#000000; fill-opacity:0.0; 
stroke:#000000; stroke-width:0.0212; stroke-opacity:1; 
stroke-linecap:round; stroke-linejoin:round;">
</g>
<g style="fill:#000000; fill-opacity:0.0; 
stroke:#000000; stroke-width:0.1500; stroke-opacity:1; 
stroke-linecap:round; stroke-linejoin:round;">
<path d="M12.0000 12.0000
L407.9890 12.0000
L407.9890 285.0022
L12.0000 285.0022
L12.0000 12.0000
" />
</g>
<g style="fill:#000000; fill-opacity:0.0; 
stroke:#000000; stroke-width:0.0212; stroke-opacity:1; 
stroke-linecap:round; stroke-linejoin:round;">
</g>
<g style="fill:#000000; fill-opacity:0.0; 
stroke:#000000; stroke-width:0.1500; stroke-opacity:1; 
stroke-linecap:round; stroke-linejoin:round;">
<path d="M60.0000 12.0000
L60.0000 10.0000
" />
</g>
<g style="fill:#000000; fill-opacity:0.0; 
stroke:#000000; stroke-width:0.0212; stroke-opacity:1; 
stroke-linecap:round; stroke-linejoin:round;">
</g>
<g style="fill:#000000; fill-opacity:0.0; 
stroke:#000000; stroke-width:0.1500; stroke-opacity:1; 
stroke-linecap:round; stroke-linejoin:round;">
<path d="M110.0000 12.0000
L110.0000 10.0000
" />
</g>
<g style="fill:#000000; fill-opacity:0.0; 
stroke:#000000; stroke-width:0.0212; stroke-opacity:1; 
stroke-linecap:round; stroke-linejoin:round;">
</g>
<g style="fill:#000000; fill-opacity:0.0; 
stroke:#000000; stroke-width:0.1500; stroke-opacity:1; 
stroke-linecap:round; stroke-linejoin:round;">
<path d="M160.0000 12.0000
L160.0000 10.0000
" />
</g>
<g style="fill:#000000; fill-opacity:0.0; 
stroke:#000000; stroke-width:0.0212; stroke-opacity:1; 
stroke-linecap:round; stroke-linejoin:round;">
</g>
<g style="fill:#000000; fill-opacity:0.0; 
stroke:#000000; stroke-width:0.1500; stroke-opacity:1; 
stroke-linecap:round; stroke-linejoin:round;">
<path d="M210.0000 12.0000
L210.0000 10.0000
" />
</g>
<g style="fill:#000000; fill-opacity:0.0; 
stroke:#000000; stroke-width:0.0212; stroke-opacity:1; 
stroke-linecap:round; stroke-linejoin:round;">
</g>
<g style="fill:#000000; fill-opacity:0.0; 
stroke:#000000; stroke-width:0.1500; stroke-opacity:1; 
stroke-linecap:round; stroke-linejoin:round;">
<path d="M260.0000 12.0000
L260.0000 10.0000
" />
</g>
<g style="fill:#000000; fill-opacity:0.0; 
stroke:#000000; stroke-width:0.0212; stroke-opacity:1; 
stroke-linecap:round; stroke-linejoin:round;">
</g>
<g style="fill:#000000; fill-opacity:0.0; 
stroke:#000000; stroke-width:0.1500; stroke-opacity:1; 
stroke-linecap:round; stroke-linejoin:round;">
<path d="M310.0000 12.0000
L310.0000 10.0000
" />
</g>
<g style="fill:#000000; fill-opacity:0.0; 
stroke:#000000; stroke-width:0.0212; stroke-opacity:1; 
stroke-linecap:round; stroke-linejoin:round;">
</g>
<g style="fill:#000000; fill-opacity:0.0; 
stroke:#000000; stroke-width:0.1500; stroke-opacity:1; 
stroke-linecap:round; stroke-linejoin:round;">
<path d="M360.0000 12.0000
L360.0000 10.0000
" />
</g>
<g style="fill:#000000; fill-opacity:0.0; 
stroke:#000000; stroke-width:0.0212; stroke-opacity:1; 
stroke-linecap:round; stroke-linejoin:round;">
</g>
<g style="fill:#000000; fill-opacity:0.0; 
stroke:#000000; stroke-width:0.1500; stroke-opacity:1; 
stroke-linecap:round; stroke-linejoin:round;">
<text x="35.0000" y="11.6500"
textLength="1.3531" font-size="1.7333" lengthAdjust="spacingAndGlyphs"
text-anchor="start" opacity="0">1</text>
<g class="stroked-text"><desc>1</desc>
<path d="M35.9905 11.4776
L35.2476 11.4776
" />
<path d="M35.6190 11.4776
L35.6190 10.1776
" />
<path d="M35.6190 10.1776
L35.4952 10.3633
" />
<path d="M35.4952 10.3633
L35.3714 10.4871
" />
<path d="M35.3714 10.4871
L35.2476 10.5490
" />
</g></g>
<g style="fill:#000000; fill-opacity:0.0; 
stroke:#000000; stroke-width:0.0212; stroke-opacity:1; 
stroke-linecap:round; stroke-linejoin:round;">
</g>
<g style="fill:#000000; fill-opacity:0.0; 
stroke:#000000; stroke-width:0.1500; stroke-opacity:1; 
stroke-linecap:round; stroke-linejoin:round;">
<text x="85.0000" y="11.6500"
textLength="1.3531" font-size="1.7333" lengthAdjust="spacingAndGlyphs"
text-anchor="start" opacity="0">2</text>
<g class="stroked-text"><desc>2</desc>
<path d="M85.2476 10.3014
L85.3095 10.2395
" />
<path d="M85.3095 10.2395
L85.4333 10.1776
" />
<path d="M85.4333 10.1776
L85.7429 10.1776
" />
<path d="M85.7429 10.1776
L85.8667 10.2395
" />
<path d="M85.8667 10.2395
L85.9286 10.3014
" />
<path d="M85.9286 10.3014
L85.9905 10.4252
" />
<path d="M85.9905 10.4252
L85.9905 10.5490
" />
<path d="M85.9905 10.5490
L85.9286 10.7347
" />
<path d="M85.9286 10.7347
L85.1857 11.4776
" />
<path d="M85.1857 11.4776
L85.9905 11.4776
" />
</g></g>
<g style="fill:#000000; fill-opacity:0.0; 
stroke:#000000; stroke-width:0.0212; stroke-opacity:1; 
stroke-linecap:round; stroke-linejoin:round;">
</g>
<g style="fill:#000000; fill-opacity:0.0; 
stroke:#000000; stroke-width:0.1500; stroke-opacity:1; 
stroke-linecap:round; stroke-linejoin:round;">
<text x="135.0000" y="11.6500"
textLength="1.3531" font-size="1.7333" lengthAdjust="spacingAndGlyphs"
text-anchor="start" opacity="0">3</text>
<g class="stroked-text"><desc>3</desc>
<path d="M135.1857 10.1776
L135.9905 10.1776
" />
<path d="M135.9905 10.1776
L135.5571 10.6728
" />
<path d="M135.5571 10.6728
L135.7429 10.6728
" />
<path d="M135.7429 10.6728
L135.8667 10.7347
" />
<path d="M135.8667 10.7347
L135.9286 10.7966
" />
<path d="M135.9286 10.7966
L135.9905 10.9205
" />
<path d="M135.9905 10.9205
L135.9905 11.2300
" />
<path d="M135.9905 11.2300
L135.9286 11.3538
" />
<path d="M135.9286 11.3538
L135.8667 11.4157
" />
<path d="M135.8667 11.4157
L135.7429 11.4776
" />
<path d="M135.7429 11.4776
L135.3714 11.4776
" />
<path d="M135.3714 11.4776
L135.2476 11.4157
" />
<path d="M135.2476 11.4157
L135.1857 11.3538
" />
</g></g>
<g style="fill:#000000; fill-opacity:0.0; 
stroke:#000000; stroke-width:0.0212; stroke-opacity:1; 
stroke-linecap:round; stroke-linejoin:round;">
</g>
<g style="fill:#000000; fill-opacity:0.0; 
stroke:#000000; stroke-width:0.1500; stroke-opacity:1; 
stroke-linecap:round; stroke-linejoin:round;">
<text x="185.0000" y="11.6500"
textLength="1.3531" font-size="1.7333" lengthAdjust="spacingAndGlyphs"
text-anchor="start" opacity="0">4</text>
<g class="stroked-text"><desc>4</desc>
<path d="M185.8667 10.6109
L185.8667 11.4776
" />
<path d="M185.5571 10.1157
L185.2476 11.0443
" />
<path d="M185.2476 11.0443
L186.0524 11.0443
" />
</g></g>
<g style="fill:#000000; fill-opacity:0.0; 
stroke:#000000; stroke-width:0.0212; stroke-opacity:1; 
stroke-linecap:round; stroke-linejoin:round;">
</g>
<g style="fill:#000000; fill-opacity:0.0; 
stroke:#000000; stroke-width:0.1500; stroke-opacity:1; 
stroke-linecap:round; stroke-linejoin:round;">
<text x="235.0000" y="11.6500"
textLength="1.3531" font-size="1.7333" lengthAdjust="spacingAndGlyphs"
text-anchor="start" opacity="0">5</text>
<g class="stroked-text"><desc>5</desc>
<path d="M235.9286 10.1776
L235.3095 10.1776
" />
<path d="M235.3095 10.1776
L235.2476 10.7966
" />
<path d="M235.2476 10.7966
L235.3095 10.7347
" />
<path d="M235.3095 10.7347
L235.4333 10.6728
" />
<path d="M235.4333 10.6728
L235.7429 10.6728
" />
<path d="M235.7429 10.6728
L235.8667 10.7347
" />
<path d="M235.8667 10.7347
L235.9286 10.7966
" />
<path d="M235.9286 10.7966
L235.9905 10.9205
" />
<path d="M235.9905 10.9205
L235.9905 11.2300
" />
<path d="M235.9905 11.2300
L235.9286 11.3538
" />
<path d="M235.9286 11.3538
L235.8667 11.4157
" />
<path d="M235.8667 11.4157
L235.7429 11.4776
" />
<path d="M235.7429 11.4776
L235.4333 11.4776
" />
<path d="M235.4333 11.4776
L235.3095 11.4157
" />
<path d="M235.3095 11.4157
L235.2476 11.3538
" />
</g></g>
<g style="fill:#000000; fill-opacity:0.0; 
stroke:#000000; stroke-width:0.0212; stroke-opacity:1; 
stroke-linecap:round; stroke-linejoin:round;">
</g>
<g style="fill:#000000; fill-opacity:0.0; 
stroke:#000000; stroke-width:0.1500; stroke-opacity:1; 
stroke-linecap:round; stroke-linejoin:round;">
<text x="285.0000" y="11.6500"
textLength="1.3531" font-size="1.7333" lengthAdjust="spacingAndGlyphs"
text-anchor="start" opacity="0">6</text>
<g class="stroked-text"><desc>6</desc>
<path d="M285.8667 10.1776
L285.6190 10.1776
" />
<path d="M285.6190 10.1776
L285.4952 10.2395
" />
<path d="M285.4952 10.2395
L285.4333 10.3014
" />
<path d="M285.4333 10.3014
L285.3095 10.4871
" />
<path d="M285.3095 10.4871
L285.2476 10.7347
" />
<path d="M285.2476 10.7347
L285.2476 11.2300
" />
<path d="M285.2476 11.2300
L285.3095 11.3538
" />
<path d="M285.3095 11.3538
L285.3714 11.4157
" />
<path d="M285.3714 11.4157
L285.4952 11.4776
" />
<path d="M285.4952 11.4776
L285.7429 11.4776
" />
<path d="M285.7429 11.4776
L285.8667 11.4157
" />
<path d="M285.8667 11.4157
L285.9286 11.3538
" />
<path d="M285.9286 11.3538
L285.9905 11.2300
" />
<path d="M285.9905 11.2300
L285.9905 10.9205
" />
<path d="M285.9905 10.9205
L285.9286 10.7966
" />
<path d="M285.9286 10.7966
L285.8667 10.7347
" />
<path d="M285.8667 10.7347
L285.7429 10.6728
" />
<path d="M285.7429 10.6728
L285.4952 10.6728
" />
<path d="M285.4952 10.6728
L285.3714 10.7347
" />
<path d="M285.3714 10.7347
L285.3095 10.7966
" />
<path d="M285.3095 10.7966
L285.2476 10.9205
" />
</g></g>
<g style="fill:#000000; fill-opacity:0.0; 
stroke:#000000; stroke-width:0.0212; stroke-opacity:1; 
stroke-linecap:round; stroke-linejoin:round;">
</g>
<g style="fill:#000000; fill-opacity:0.0; 
stroke:#000000; stroke-width:0.1500; stroke-opacity:1; 
stroke-linecap:round; stroke-linejoin:round;">
<text x="335.0000" y="11.6500"
textLength="1.3531" font-size="1.7333" lengthAdjust="spacingAndGlyphs"
text-anchor="start" opacity="0">7</text>
<g class="stroked-text"><desc>7</desc>
<path d="M335.1857 10.1776
L336.0524 10.1776
" />
<path d="M336.0524 10.1776
L335.4952 11.4776
" />
</g></g>
<g style="fill:#000000; fill-opacity:0.0; 
stroke:#000000; stroke-width:0.0212; stroke-opacity:1; 
stroke-linecap:round; stroke-linejoin:round;">
</g>
<g style="fill:#000000; fill-opacity:0.0; 
stroke:#000000; stroke-width:0.1500; stroke-opacity:1; 
stroke-linecap:round; stroke-linejoin:round;">
<text x="385.0000" y="11.6500"
textLength="1.3531" font-size="1.7333" lengthAdjust="spacingAndGlyphs"
text-anchor="start" opacity="0">8</text>
<g class="stroked-text"><desc>8</desc>
<path d="M385.4952 10.7347
L385.3714 10.6728
" />
<path d="M385.3714 10.6728
L385.3095 10.6109
" />
<path d="M385.3095 10.6109
L385.2476 10.4871
" />
<path d="M385.2476 10.4871
L385.2476 10.4252
" />
<path d="M385.2476 10.4252
L385.3095 10.3014
" />
<path d="M385.3095 10.3014
L385.3714 10.2395
" />
<path d="M385.3714 10.2395
L385.4952 10.1776
" />
<path d="M385.4952 10.1776
L385.7429 10.1776
" />
<path d="M385.7429 10.1776
L385.8667 10.2395
" />
<path d="M385.8667 10.2395
L385.9286 10.3014
" />
<path d="M385.9286 10.3014
L385.9905 10.4252
" />
<path d="M385.9905 10.4252
L385.9905 10.4871
" />
<path d="M385.9905 10.4871
L385.9286 10.6109
" />
<path d="M385.9286 10.6109
L385.8667 10.6728
" />
<path d="M385.8667 10.6728
L385.7429 10.7347
" />
<path d="M385.7429 10.7347
L385.4952 10.7347
" />
<path d="M385.4952 10.7347
L385.3714 10.7966
" />
<path d="M385.3714 10.7966
L385.3095 10.8585
" />
<path d="M385.3095 10.8585
L385.2476 10.9824
" />
<path d="M385.2476 10.9824
L385.2476 11.2300
" />
<path d="M385.2476 11.2300
L385.3095 11.3538
" />
<path d="M385.3095 11.3538
L385.3714 11.4157
" />
<path d="M385.3714 11.4157
L385.4952 11.4776
" />
<path d="M385.4952 11.4776
L385.7429 11.4776
" />
<path d="M385.7429 11.4776
L385.8667 11.4157
" />
<path d="M385.8667 11.4157
L385.9286 11.3538
" />
<path d="M385.9286 11.3538
L385.9905 11.2300
" />
<path d="M385.9905 11.2300
L385.9905 10.9824
" />
<path d="M385.9905 10.9824
L385.9286 10.8585
" />
<path d="M385.9286 10.8585
L385.8667 10.7966
" />
<path d="M385.8667 10.7966
L385.7429 10.7347
" />
</g></g>
<g style="fill:#000000; fill-opacity:0.0; 
stroke:#000000; stroke-width:0.0212; stroke-opacity:1; 
stroke-linecap:round; stroke-linejoin:round;">
</g>
<g style="fill:#000000; fill-opacity:0.0; 
stroke:#000000; stroke-width:0.1500; stroke-opacity:1; 
stroke-linecap:round; stroke-linejoin:round;">
<path d="M60.0000 285.0022
L60.0000 287.0022
" />
</g>
<g style="fill:#000000; fill-opacity:0.0; 
stroke:#000000; stroke-width:0.0212; stroke-opacity:1; 
stroke-linecap:round; stroke-linejoin:round;">
</g>
<g style="fill:#000000; fill-opacity:0.0; 
stroke:#000000; stroke-width:0.1500; stroke-opacity:1; 
stroke-linecap:round; stroke-linejoin:round;">
<path d="M110.0000 285.0022
L110.0000 287.0022
" />
</g>
<g style="fill:#000000; fill-opacity:0.0; 
stroke:#000000; stroke-width:0.0212; stroke-opacity:1; 
stroke-linecap:round; stroke-linejoin:round;">
</g>
<g style="fill:#000000; fill-opacity:0.0; 
stroke:#000000; stroke-width:0.1500; stroke-opacity:1; 
stroke-linecap:round; stroke-linejoin:round;">
<path d="M160.0000 285.0022
L160.0000 287.0022
" />
</g>
<g style="fill:#000000; fill-opacity:0.0; 
stroke:#000000; stroke-width:0.0212; stroke-opacity:1; 
stroke-linecap:round; stroke-linejoin:round;">
</g>
<g style="fill:#000000; fill-opacity:0.0; 
stroke:#000000; stroke-width:0.1500; stroke-opacity:1; 
stroke-linecap:round; stroke-linejoin:round;">
<path d="M210.0000 285.0022
L210.0000 287.0022
" />
</g>
<g style="fill:#000000; fill-opacity:0.0; 
stroke:#000000; stroke-width:0.0212; stroke-opacity:1; 
stroke-linecap:round; stroke-linejoin:round;">
</g>
<g style="fill:#000000; fill-opacity:0.0; 
stroke:#000000; stroke-width:0.1500; stroke-opacity:1; 
stroke-linecap:round; stroke-linejoin:round;">
<path d="M260.0000 285.0022
L260.0000 287.0022
" />
</g>
<g style="fill:#000000; fill-opacity:0.0; 
stroke:#000000; stroke-width:0.0212; stroke-opacity:1; 
stroke-linecap:round; stroke-linejoin:round;">
</g>
<g style="fill:#000000; fill-opacity:0.0; 
stroke:#000000; stroke-width:0.1500; stroke-opacity:1; 
stroke-linecap:round; stroke-linejoin:round;">
<path d="M310.0000 285.0022
L310.0000 287.0022
" />
</g>
<g style="fill:#000000; fill-opacity:0.0; 
stroke:#000000; stroke-width:0.0212; stroke-opacity:1; 
stroke-linecap:round; stroke-linejoin:round;">
</g>
<g style="fill:#000000; fill-opacity:0.0; 
stroke:#000000; stroke-width:0.1500; stroke-opacity:1; 
stroke-linecap:round; stroke-linejoin:round;">
<path d="M360.0000 285.0022
L360.0000 287.0022
" />
</g>
<g style="fill:#000000; fill-opacity:0.0; 
stroke:#000000; stroke-width:0.0212; stroke-opacity:1; 
stroke-linecap:round; stroke-linejoin:round;">
</g>
<g style="fill:#000000; fill-opacity:0.0; 
stroke:#000000; stroke-width:0.1500; stroke-opacity:1; 
stroke-linecap:round; stroke-linejoin:round;">
<text x="35.0000" y="286.6522"
textLength="1.3531" font-size="1.7333" lengthAdjust="spacingAndGlyphs"
text-anchor="start" opacity="0">1</text>
<g class="stroked-text"><desc>1</desc>
<path d="M35.9905 286.4798
L35.2476 286.4798
" />
<path d="M35.6190 286.4798
L35.6190 285.1798
" />
<path d="M35.6190 285.1798
L35.4952 285.3655
" />
<path d="M35.4952 285.3655
L35.3714 285.4893
" />
<path d="M35.3714 285.4893
L35.2476 285.5512
" />
</g></g>
<g style="fill:#000000; fill-opacity:0.0; 
stroke:#000000; stroke-width:0.0212; stroke-opacity:1; 
stroke-linecap:round; stroke-linejoin:round;">
</g>
<g style="fill:#000000; fill-opacity:0.0; 
stroke:#000000; stroke-width:0.1500; stroke-opacity:1; 
stroke-linecap:round; stroke-linejoin:round;">
<text x="85.0000" y="286.6522"
textLength="1.3531" font-size="1.7333" lengthAdjust="spacingAndGlyphs"
text-anchor="start" opacity="0">2</text>
<g class="stroked-text"><desc>2</desc>
<path d="M85.2476 285.3036
L85.3095 285.2417
" />
<path d="M85.3095 285.2417
L85.4333 285.1798
" />
<path d="M85.4333 285.1798
L85.7429 285.1798
" />
<path d="M85.7429 285.1798
L85.8667 285.2417
" />
<path d="M85.8667 285.2417
L85.9286 285.3036
" />
<path d="M85.9286 285.3036
L85.9905 285.4274
" />
<path d="M85.9905 285.4274
L85.9905 285.5512
" />
<path d="M85.9905 285.5512
L85.9286 285.7369
" />
<path d="M85.9286 285.7369
L85.1857 286.4798
" />
<path d="M85.1857 286.4798
L85.9905 286.4798
" />
</g></g>
<g style="fill:#000000; fill-opacity:0.0; 
stroke:#000000; stroke-width:0.0212; stroke-opacity:1; 
stroke-linecap:round; stroke-linejoin:round;">
</g>
<g style="fill:#000000; fill-opacity:0.0; 
stroke:#000000; stroke-width:0.1500; stroke-opacity:1; 
stroke-linecap:round; stroke-linejoin:round;">
<text x="135.0000" y="286.6522"
textLength="1.3531" font-size="1.7333" lengthAdjust="spacingAndGlyphs"
text-anchor="start" opacity="0">3</text>
<g class="stroked-text"><desc>3</desc>
<path d="M135.1857 285.1798
L135.9905 285.1798
" />
<path d="M135.9905 285.1798
L135.5571 285.6750
" />
<path d="M135.5571 285.6750
L135.7429 285.6750
" />
<path d="M135.7429 285.6750
L135.8667 285.7369
" />
<path d="M135.8667 285.7369
L135.9286 285.7988
" />
<path d="M135.9286 285.7988
L135.9905 285.9227
" />
<path d="M135.9905 285.9227
L135.9905 286.2322
" />
<path d="M135.9905 286.2322
L135.9286 286.3560
" />
<path d="M135.9286 286.3560
L135.8667 286.4179
" />
<path d="M135.8667 286.4179
L135.7429 286.4798
" />
<path d="M135.7429 286.4798
L135.3714 286.4798
" />
<path d="M135.3714 286.4798
L135.2476 286.4179
" />
<path d="M135.2476 286.4179
L135.1857 286.3560
" />
</g></g>
<g style="fill:#000000; fill-opacity:0.0; 
stroke:#000000; stroke-width:0.0212; stroke-opacity:1; 
stroke-linecap:round; stroke-linejoin:round;">
</g>
<g style="fill:#000000; fill-opacity:0.0; 
stroke:#000000; stroke-width:0.1500; stroke-opacity:1; 
stroke-linecap:round; stroke-linejoin:round;">
<text x="185.0000" y="286.6522"
textLength="1.3531" font-size="1.7333" lengthAdjust="spacingAndGlyphs"
text-anchor="start" opacity="0">4</text>
<g class="stroked-text"><desc>4</desc>
<path d="M185.8667 285.6131
L185.8667 286.4798
" />
<path d="M185.5571 285.1179
L185.2476 286.0465
" />
<path d="M185.2476 286.0465
L186.0524 286.0465
" />
</g></g>
<g style="fill:#000000; fill-opacity:0.0; 
stroke:#000000; stroke-width:0.0212; stroke-opacity:1; 
stroke-linecap:round; stroke-linejoin:round;">
</g>
<g style="fill:#000000; fill-opacity:0.0; 
stroke:#000000; stroke-width:0.1500; stroke-opacity:1; 
stroke-linecap:round; stroke-linejoin:round;">
<text x="235.0000" y="286.6522"
textLength="1.3531" font-size="1.7333" lengthAdjust="spacingAndGlyphs"
text-anchor="start" opacity="0">5</text>
<g class="stroked-text"><desc>5</desc>
<path d="M235.9286 285.1798
L235.3095 285.1798
" />
<path d="M235.3095 285.1798
L235.2476 285.7988
" />
<path d="M235.2476 285.7988
L235.3095 285.7369
" />
<path d="M235.3095 285.7369
L235.4333 285.6750
" />
<path d="M235.4333 285.6750
L235.7429 285.6750
" />
<path d="M235.7429 285.6750
L235.8667 285.7369
" />
<path d="M235.8667 285.7369
L235.9286 285.7988
" />
<path d="M235.9286 285.7988
L235.9905 285.9227
" />
<path d="M235.9905 285.9227
L235.9905 286.2322
" />
<path d="M235.9905 286.2322
L235.9286 286.3560
" />
<path d="M235.9286 286.3560
L235.8667 286.4179
" />
<path d="M235.8667 286.4179
L235.7429 286.4798
" />
<path d="M235.7429 286.4798
L235.4333 286.4798
" />
<path d="M235.4333 286.4798
L235.3095 286.4179
" />
<path d="M235.3095 286.4179
L235.2476 286.3560
" />
</g></g>
<g style="fill:#000000; fill-opacity:0.0; 
stroke:#000000; stroke-width:0.0212; stroke-opacity:1; 
stroke-linecap:round; stroke-linejoin:round;">
</g>
<g style="fill:#000000; fill-opacity:0.0; 
stroke:#000000; stroke-width:0.1500; stroke-opacity:1; 
stroke-linecap:round; stroke-linejoin:round;">
<text x="285.0000" y="286.6522"
textLength="1.3531" font-size="1.7333" lengthAdjust="spacingAndGlyphs"
text-anchor="start" opacity="0">6</text>
<g class="stroked-text"><desc>6</desc>
<path d="M285.8667 285.1798
L285.6190 285.1798
" />
<path d="M285.6190 285.1798
L285.4952 285.2417
" />
<path d="M285.4952 285.2417
L285.4333 285.3036
" />
<path d="M285.4333 285.3036
L285.3095 285.4893
" />
<path d="M285.3095 285.4893
L285.2476 285.7369
" />
<path d="M285.2476 285.7369
L285.2476 286.2322
" />
<path d="M285.2476 286.2322
L285.3095 286.3560
" />
<path d="M285.3095 286.3560
L285.3714 286.4179
" />
<path d="M285.3714 286.4179
L285.4952 286.4798
" />
<path d="M285.4952 286.4798
L285.7429 286.4798
" />
<path d="M285.7429 286.4798
L285.8667 286.4179
" />
<path d="M285.8667 286.4179
L285.9286 286.3560
" />
<path d="M285.9286 286.3560
L285.9905 286.2322
" />
<path d="M285.9905 286.2322
L285.9905 285.9227
" />
<path d="M285.9905 285.9227
L285.9286 285.7988
" />
<path d="M285.9286 285.7988
L285.8667 285.7369
" />
<path d="M285.8667 285.7369
L285.7429 285.6750
" />
<path d="M285.7429 285.6750
L285.4952 285.6750
" />
<path d="M285.4952 285.6750
L285.3714 285.7369
" />
<path d="M285.3714 285.7369
L285.3095 285.7988
" />
<path d="M285.3095 285.7988
L285.2476 285.9227
" />
</g></g>
<g style="fill:#000000; fill-opacity:0.0; 
stroke:#000000; stroke-width:0.0212; stroke-opacity:1; 
stroke-linecap:round; stroke-linejoin:round;">
</g>
<g style="fill:#000000; fill-opacity:0.0; 
stroke:#000000; stroke-width:0.1500; stroke-opacity:1; 
stroke-linecap:round; stroke-linejoin:round;">
<text x="335.0000" y="286.6522"
textLength="1.3531" font-size="1.7333" lengthAdjust="spacingAndGlyphs"
text-anchor="start" opacity="0">7</text>
<g class="stroked-text"><desc>7</desc>
<path d="M335.1857 285.1798
L336.0524 285.1798
" />
<path d="M336.0524 285.1798
L335.4952 286.4798
" />
</g></g>
<g style="fill:#000000; fill-opacity:0.0; 
stroke:#000000; stroke-width:0.0212; stroke-opacity:1; 
stroke-linecap:round; stroke-linejoin:round;">
</g>
<g style="fill:#000000; fill-opacity:0.0; 
stroke:#000000; stroke-width:0.1500; stroke-opacity:1; 
stroke-linecap:round; stroke-linejoin:round;">
<text x="385.0000" y="286.6522"
textLength="1.3531" font-size="1.7333" lengthAdjust="spacingAndGlyphs"
text-anchor="start" opacity="0">8</text>
<g class="stroked-text"><desc>8</desc>
<path d="M385.4952 285.7369
L385.3714 285.6750
" />
<path d="M385.3714 285.6750
L385.3095 285.6131
" />
<path d="M385.3095 285.6131
L385.2476 285.4893
" />
<path d="M385.2476 285.4893
L385.2476 285.4274
" />
<path d="M385.2476 285.4274
L385.3095 285.3036
" />
<path d="M385.3095 285.3036
L385.3714 285.2417
" />
<path d="M385.3714 285.2417
L385.4952 285.1798
" />
<path d="M385.4952 285.1798
L385.7429 285.1798
" />
<path d="M385.7429 285.1798
L385.8667 285.2417
" />
<path d="M385.8667 285.2417
L385.9286 285.3036
" />
<path d="M385.9286 285.3036
L385.9905 285.4274
" />
<path d="M385.9905 285.4274
L385.9905 285.4893
" />
<path d="M385.9905 285.4893
L385.9286 285.6131
" />
<path d="M385.9286 285.6131
L385.8667 285.6750
" />
<path d="M385.8667 285.6750
L385.7429 285.7369
" />
<path d="M385.7429 285.7369
L385.4952 285.7369
" />
<path d="M385.4952 285.7369
L385.3714 285.7988
" />
<path d="M385.3714 285.7988
L385.3095 285.8607
" />
<path d="M385.3095 285.8607
L385.2476 285.9846
" />
<path d="M385.2476 285.9846
L385.2476 286.2322
" />
<path d="M385.2476 286.2322
L385.3095 286.3560
" />
<path d="M385.3095 286.3560
L385.3714 286.4179
" />
<path d="M385.3714 286.4179
L385.4952 286.4798
" />
<path d="M385.4952 286.4798
L385.7429 286.4798
" />
<path d="M385.7429 286.4798
L385.8667 286.4179
" />
<path d="M385.8667 286.4179
L385.9286 286.3560
" />
<path d="M385.9286 286.3560
L385.9905 286.2322
" />
<path d="M385.9905 286.2322
L385.9905 285.9846
" />
<path d="M385.9905 285.9846
L385.9286 285.8607
" />
<path d="M385.9286 285.8607
L385.8667 285.7988
" />
<path d="M385.8667 285.7988
L385.7429 285.7369
" />
</g></g>
<g style="fill:#000000; fill-opacity:0.0; 
stroke:#000000; stroke-width:0.0212; stroke-opacity:1; 
stroke-linecap:round; stroke-linejoin:round;">
</g>
<g style="fill:#000000; fill-opacity:0.0; 
stroke:#000000; stroke-width:0.1500; stroke-opacity:1; 
stroke-linecap:round; stroke-linejoin:round;">
<path d="M10.0000 60.0000
L12.0000 60.0000
" />
</g>
<g style="fill:#000000; fill-opacity:0.0; 
stroke:#000000; stroke-width:0.0212; stroke-opacity:1; 
stroke-linecap:round; stroke-linejoin:round;">
</g>
<g style="fill:#000000; fill-opacity:0.0; 
stroke:#000000; stroke-width:0.1500; stroke-opacity:1; 
stroke-linecap:round; stroke-linejoin:round;">
<path d="M10.0000 110.0000
L12.0000 110.0000
" />
</g>
<g style="fill:#000000; fill-opacity:0.0; 
stroke:#000000; stroke-width:0.0212; stroke-opacity:1; 
stroke-linecap:round; stroke-linejoin:round;">
</g>
<g style="fill:#000000; fill-opacity:0.0; 
stroke:#000000; stroke-width:0.1500; stroke-opacity:1; 
stroke-linecap:round; stroke-linejoin:round;">
<path d="M10.0000 160.0000
L12.0000 160.0000
" />
</g>
<g style="fill:#000000; fill-opacity:0.0; 
stroke:#000000; stroke-width:0.0212; stroke-opacity:1; 
stroke-linecap:round; stroke-linejoin:round;">
</g>
<g style="fill:#000000; fill-opacity:0.0; 
stroke:#000000; stroke-width:0.1500; stroke-opacity:1; 
stroke-linecap:round; stroke-linejoin:round;">
<path d="M10.0000 210.0000
L12.0000 210.0000
" />
</g>
<g style="fill:#000000; fill-opacity:0.0; 
stroke:#000000; stroke-width:0.0212; stroke-opacity:1; 
stroke-linecap:round; stroke-linejoin:round;">
</g>
<g style="fill:#000000; fill-opacity:0.0; 
stroke:#000000; stroke-width:0.1500; stroke-opacity:1; 
stroke-linecap:round; stroke-linejoin:round;">
<path d="M10.0000 260.0000
L12.0000 260.0000
" />
</g>
<g style="fill:#000000; fill-opacity:0.0; 
stroke:#000000; stroke-width:0.0212; stroke-opacity:1; 
stroke-linecap:round; stroke-linejoin:round;">
</g>
<g style="fill:#000000; fill-opacity:0.0; 
stroke:#000000; stroke-width:0.1500; stroke-opacity:1; 
stroke-linecap:round; stroke-linejoin:round;">
<text x="11.0000" y="35.6500"
textLength="1.2293" font-size="1.7333" lengthAdjust="spacingAndGlyphs"
text-anchor="middle" opacity="0">A</text>
<g class="stroked-text"><desc>A</desc>
<path d="M10.6905 35.1062
L11.3095 35.1062
" />
<path d="M10.5667 35.4776
L11.0000 34.1776
" />
<path d="M11.0000 34.1776
L11.4333 35.4776
" />
</g></g>
<g style="fill:#000000; fill-opacity:0.0; 
stroke:#000000; stroke-width:0.0212; stroke-opacity:1; 
stroke-linecap:round; stroke-linejoin:round;">
</g>
<g style="fill:#000000; fill-opacity:0.0; 
stroke:#000000; stroke-width:0.1500; stroke-opacity:1; 
stroke-linecap:round; stroke-linejoin:round;">
<text x="11.0000" y="85.6500"
textLength="1.4150" font-size="1.7333" lengthAdjust="spacingAndGlyphs"
text-anchor="middle" opacity="0">B</text>
<g class="stroked-text"><desc>B</desc>
<path d="M11.0929 84.7966
L11.2786 84.8585
" />
<path d="M11.2786 84.8585
L11.3405 84.9205
" />
<path d="M11.3405 84.9205
L11.4024 85.0443
" />
<path d="M11.4024 85.0443
L11.4024 85.2300
" />
<path d="M11.4024 85.2300
L11.3405 85.3538
" />
<path d="M11.3405 85.3538
L11.2786 85.4157
" />
<path d="M11.2786 85.4157
L11.1548 85.4776
" />
<path d="M11.1548 85.4776
L10.6595 85.4776
" />
<path d="M10.6595 85.4776
L10.6595 84.1776
" />
<path d="M10.6595 84.1776
L11.0929 84.1776
" />
<path d="M11.0929 84.1776
L11.2167 84.2395
" />
<path d="M11.2167 84.2395
L11.2786 84.3014
" />
<path d="M11.2786 84.3014
L11.3405 84.4252
" />
<path d="M11.3405 84.4252
L11.3405 84.5490
" />
<path d="M11.3405 84.5490
L11.2786 84.6728
" />
<path d="M11.2786 84.6728
L11.2167 84.7347
" />
<path d="M11.2167 84.7347
L11.0929 84.7966
" />
<path d="M11.0929 84.7966
L10.6595 84.7966
" />
</g></g>
<g style="fill:#000000; fill-opacity:0.0; 
stroke:#000000; stroke-width:0.0212; stroke-opacity:1; 
stroke-linecap:round; stroke-linejoin:round;">
</g>
<g style="fill:#000000; fill-opacity:0.0; 
stroke:#000000; stroke-width:0.1500; stroke-opacity:1; 
stroke-linecap:round; stroke-linejoin:round;">
<text x="11.0000" y="135.6500"
textLength="1.4150" font-size="1.7333" lengthAdjust="spacingAndGlyphs"
text-anchor="middle" opacity="0">C</text>
<g class="stroked-text"><desc>C</desc>
<path d="M11.4024 135.3538
L11.3405 135.4157
" />
<path d="M11.3405 135.4157
L11.1548 135.4776
" />
<path d="M11.1548 135.4776
L11.0310 135.4776
" />
<path d="M11.0310 135.4776
L10.8452 135.4157
" />
<path d="M10.8452 135.4157
L10.7214 135.2919
" />
<path d="M10.7214 135.2919
L10.6595 135.1681
" />
<path d="M10.6595 135.1681
L10.5976 134.9205
" />
<path d="M10.5976 134.9205
L10.5976 134.7347
" />
<path d="M10.5976 134.7347
L10.6595 134.4871
" />
<path d="M10.6595 134.4871
L10.7214 134.3633
" />
<path d="M10.7214 134.3633
L10.8452 134.2395
" />
<path d="M10.8452 134.2395
L11.0310 134.1776
" />
<path d="M11.0310 134.1776
L11.1548 134.1776
" />
<path d="M11.1548 134.1776
L11.3405 134.2395
" />
<path d="M11.3405 134.2395
L11.4024 134.3014
" />
</g></g>
<g style="fill:#000000; fill-opacity:0.0; 
stroke:#000000; stroke-width:0.0212; stroke-opacity:1; 
stroke-linecap:round; stroke-linejoin:round;">
</g>
<g style="fill:#000000; fill-opacity:0.0; 
stroke:#000000; stroke-width:0.1500; stroke-opacity:1; 
stroke-linecap:round; stroke-linejoin:round;">
<text x="11.0000" y="185.6500"
textLength="1.4150" font-size="1.7333" lengthAdjust="spacingAndGlyphs"
text-anchor="middle" opacity="0">D</text>
<g class="stroked-text"><desc>D</desc>
<path d="M10.6595 185.4776
L10.6595 184.1776
" />
<path d="M10.6595 184.1776
L10.9690 184.1776
" />
<path d="M10.9690 184.1776
L11.1548 184.2395
" />
<path d="M11.1548 184.2395
L11.2786 184.3633
" />
<path d="M11.2786 184.3633
L11.3405 184.4871
" />
<path d="M11.3405 184.4871
L11.4024 184.7347
" />
<path d="M11.4024 184.7347
L11.4024 184.9205
" />
<path d="M11.4024 184.9205
L11.3405 185.1681
" />
<path d="M11.3405 185.1681
L11.2786 185.2919
" />
<path d="M11.2786 185.2919
L11.1548 185.4157
" />
<path d="M11.1548 185.4157
L10.9690 185.4776
" />
<path d="M10.9690 185.4776
L10.6595 185.4776
" />
</g></g>
<g style="fill:#000000; fill-opacity:0.0; 
stroke:#000000; stroke-width:0.0212; stroke-opacity:1; 
stroke-linecap:round; stroke-linejoin:round;">
</g>
<g style="fill:#000000; fill-opacity:0.0; 
stroke:#000000; stroke-width:0.1500; stroke-opacity:1; 
stroke-linecap:round; stroke-linejoin:round;">
<text x="11.0000" y="235.6500"
textLength="1.2912" font-size="1.7333" lengthAdjust="spacingAndGlyphs"
text-anchor="middle" opacity="0">E</text>
<g class="stroked-text"><desc>E</desc>
<path d="M10.7214 234.7966
L11.1548 234.7966
" />
<path d="M11.3405 235.4776
L10.7214 235.4776
" />
<path d="M10.7214 235.4776
L10.7214 234.1776
" />
<path d="M10.7214 234.1776
L11.3405 234.1776
" />
</g></g>
<g style="fill:#000000; fill-opacity:0.0; 
stroke:#000000; stroke-width:0.0212; stroke-opacity:1; 
stroke-linecap:round; stroke-linejoin:round;">
</g>
<g style="fill:#000000; fill-opacity:0.0; 
stroke:#000000; stroke-width:0.1500; stroke-opacity:1; 
stroke-linecap:round; stroke-linejoin:round;">
<text x="11.0000" y="285.6500"
textLength="1.2293" font-size="1.7333" lengthAdjust="spacingAndGlyphs"
text-anchor="middle" opacity="0">F</text>
<g class="stroked-text"><desc>F</desc>
<path d="M11.1857 284.7966
L10.7524 284.7966
" />
<path d="M10.7524 285.4776
L10.7524 284.1776
" />
<path d="M10.7524 284.1776
L11.3714 284.1776
" />
</g></g>
<g style="fill:#000000; fill-opacity:0.0; 
stroke:#000000; stroke-width:0.0212; stroke-opacity:1; 
stroke-linecap:round; stroke-linejoin:round;">
</g>
<g style="fill:#000000; fill-opacity:0.0; 
stroke:#000000; stroke-width:0.1500; stroke-opacity:1; 
stroke-linecap:round; stroke-linejoin:round;">
<path d="M409.9890 60.0000
L407.9890 60.0000
" />
</g>
<g style="fill:#000000; fill-opacity:0.0; 
stroke:#000000; stroke-width:0.0212; stroke-opacity:1; 
stroke-linecap:round; stroke-linejoin:round;">
</g>
<g style="fill:#000000; fill-opacity:0.0; 
stroke:#000000; stroke-width:0.1500; stroke-opacity:1; 
stroke-linecap:round; stroke-linejoin:round;">
<path d="M409.9890 110.0000
L407.9890 110.0000
" />
</g>
<g style="fill:#000000; fill-opacity:0.0; 
stroke:#000000; stroke-width:0.0212; stroke-opacity:1; 
stroke-linecap:round; stroke-linejoin:round;">
</g>
<g style="fill:#000000; fill-opacity:0.0; 
stroke:#000000; stroke-width:0.1500; stroke-opacity:1; 
stroke-linecap:round; stroke-linejoin:round;">
<path d="M409.9890 160.0000
L407.9890 160.0000
" />
</g>
<g style="fill:#000000; fill-opacity:0.0; 
stroke:#000000; stroke-width:0.0212; stroke-opacity:1; 
stroke-linecap:round; stroke-linejoin:round;">
</g>
<g style="fill:#000000; fill-opacity:0.0; 
stroke:#000000; stroke-width:0.1500; stroke-opacity:1; 
stroke-linecap:round; stroke-linejoin:round;">
<path d="M409.9890 210.0000
L407.9890 210.0000
" />
</g>
<g style="fill:#000000; fill-opacity:0.0; 
stroke:#000000; stroke-width:0.0212; stroke-opacity:1; 
stroke-linecap:round; stroke-linejoin:round;">
</g>
<g style="fill:#000000; fill-opacity:0.0; 
stroke:#000000; stroke-width:0.1500; stroke-opacity:1; 
stroke-linecap:round; stroke-linejoin:round;">
<path d="M409.9890 260.0000
L407.9890 260.0000
" />
</g>
<g style="fill:#000000; fill-opacity:0.0; 
stroke:#000000; stroke-width:0.0212; stroke-opacity:1; 
stroke-linecap:round; stroke-linejoin:round;">
</g>
<g style="fill:#000000; fill-opacity:0.0; 
stroke:#000000; stroke-width:0.1500; stroke-opacity:1; 
stroke-linecap:round; stroke-linejoin:round;">
<text x="408.9890" y="35.6500"
textLength="1.2293" font-size="1.7333" lengthAdjust="spacingAndGlyphs"
text-anchor="middle" opacity="0">A</text>
<g class="stroked-text"><desc>A</desc>
<path d="M408.6795 35.1062
L409.2985 35.1062
" />
<path d="M408.5557 35.4776
L408.9890 34.1776
" />
<path d="M408.9890 34.1776
L409.4223 35.4776
" />
</g></g>
<g style="fill:#000000; fill-opacity:0.0; 
stroke:#000000; stroke-width:0.0212; stroke-opacity:1; 
stroke-linecap:round; stroke-linejoin:round;">
</g>
<g style="fill:#000000; fill-opacity:0.0; 
stroke:#000000; stroke-width:0.1500; stroke-opacity:1; 
stroke-linecap:round; stroke-linejoin:round;">
<text x="408.9890" y="85.6500"
textLength="1.4150" font-size="1.7333" lengthAdjust="spacingAndGlyphs"
text-anchor="middle" opacity="0">B</text>
<g class="stroked-text"><desc>B</desc>
<path d="M409.0819 84.7966
L409.2676 84.8585
" />
<path d="M409.2676 84.8585
L409.3295 84.9205
" />
<path d="M409.3295 84.9205
L409.3914 85.0443
" />
<path d="M409.3914 85.0443
L409.3914 85.2300
" />
<path d="M409.3914 85.2300
L409.3295 85.3538
" />
<path d="M409.3295 85.3538
L409.2676 85.4157
" />
<path d="M409.2676 85.4157
L409.1438 85.4776
" />
<path d="M409.1438 85.4776
L408.6485 85.4776
" />
<path d="M408.6485 85.4776
L408.6485 84.1776
" />
<path d="M408.6485 84.1776
L409.0819 84.1776
" />
<path d="M409.0819 84.1776
L409.2057 84.2395
" />
<path d="M409.2057 84.2395
L409.2676 84.3014
" />
<path d="M409.2676 84.3014
L409.3295 84.4252
" />
<path d="M409.3295 84.4252
L409.3295 84.5490
" />
<path d="M409.3295 84.5490
L409.2676 84.6728
" />
<path d="M409.2676 84.6728
L409.2057 84.7347
" />
<path d="M409.2057 84.7347
L409.0819 84.7966
" />
<path d="M409.0819 84.7966
L408.6485 84.7966
" />
</g></g>
<g style="fill:#000000; fill-opacity:0.0; 
stroke:#000000; stroke-width:0.0212; stroke-opacity:1; 
stroke-linecap:round; stroke-linejoin:round;">
</g>
<g style="fill:#000000; fill-opacity:0.0; 
stroke:#000000; stroke-width:0.1500; stroke-opacity:1; 
stroke-linecap:round; stroke-linejoin:round;">
<text x="408.9890" y="135.6500"
textLength="1.4150" font-size="1.7333" lengthAdjust="spacingAndGlyphs"
text-anchor="middle" opacity="0">C</text>
<g class="stroked-text"><desc>C</desc>
<path d="M409.3914 135.3538
L409.3295 135.4157
" />
<path d="M409.3295 135.4157
L409.1438 135.4776
" />
<path d="M409.1438 135.4776
L409.0200 135.4776
" />
<path d="M409.0200 135.4776
L408.8342 135.4157
" />
<path d="M408.8342 135.4157
L408.7104 135.2919
" />
<path d="M408.7104 135.2919
L408.6485 135.1681
" />
<path d="M408.6485 135.1681
L408.5866 134.9205
" />
<path d="M408.5866 134.9205
L408.5866 134.7347
" />
<path d="M408.5866 134.7347
L408.6485 134.4871
" />
<path d="M408.6485 134.4871
L408.7104 134.3633
" />
<path d="M408.7104 134.3633
L408.8342 134.2395
" />
<path d="M408.8342 134.2395
L409.0200 134.1776
" />
<path d="M409.0200 134.1776
L409.1438 134.1776
" />
<path d="M409.1438 134.1776
L409.3295 134.2395
" />
<path d="M409.3295 134.2395
L409.3914 134.3014
" />
</g></g>
<g style="fill:#000000; fill-opacity:0.0; 
stroke:#000000; stroke-width:0.0212; stroke-opacity:1; 
stroke-linecap:round; stroke-linejoin:round;">
</g>
<g style="fill:#000000; fill-opacity:0.0; 
stroke:#000000; stroke-width:0.1500; stroke-opacity:1; 
stroke-linecap:round; stroke-linejoin:round;">
<text x="408.9890" y="185.6500"
textLength="1.4150" font-size="1.7333" lengthAdjust="spacingAndGlyphs"
text-anchor="middle" opacity="0">D</text>
<g class="stroked-text"><desc>D</desc>
<path d="M408.6485 185.4776
L408.6485 184.1776
" />
<path d="M408.6485 184.1776
L408.9580 184.1776
" />
<path d="M408.9580 184.1776
L409.1438 184.2395
" />
<path d="M409.1438 184.2395
L409.2676 184.3633
" />
<path d="M409.2676 184.3633
L409.3295 184.4871
" />
<path d="M409.3295 184.4871
L409.3914 184.7347
" />
<path d="M409.3914 184.7347
L409.3914 184.9205
" />
<path d="M409.3914 184.9205
L409.3295 185.1681
" />
<path d="M409.3295 185.1681
L409.2676 185.2919
" />
<path d="M409.2676 185.2919
L409.1438 185.4157
" />
<path d="M409.1438 185.4157
L408.9580 185.4776
" />
<path d="M408.9580 185.4776
L408.6485 185.4776
" />
</g></g>
<g style="fill:#000000; fill-opacity:0.0; 
stroke:#000000; stroke-width:0.0212; stroke-opacity:1; 
stroke-linecap:round; stroke-linejoin:round;">
</g>
<g style="fill:#000000; fill-opacity:0.0; 
stroke:#000000; stroke-width:0.1500; stroke-opacity:1; 
stroke-linecap:round; stroke-linejoin:round;">
<text x="408.9890" y="235.6500"
textLength="1.2912" font-size="1.7333" lengthAdjust="spacingAndGlyphs"
text-anchor="middle" opacity="0">E</text>
<g class="stroked-text"><desc>E</desc>
<path d="M408.7104 234.7966
L409.1438 234.7966
" />
<path d="M409.3295 235.4776
L408.7104 235.4776
" />
<path d="M408.7104 235.4776
L408.7104 234.1776
" />
<path d="M408.7104 234.1776
L409.3295 234.1776
" />
</g></g>
<g style="fill:#000000; fill-opacity:0.0; 
stroke:#000000; stroke-width:0.0212; stroke-opacity:1; 
stroke-linecap:round; stroke-linejoin:round;">
</g>
<g style="fill:#000000; fill-opacity:0.0; 
stroke:#000000; stroke-width:0.1500; stroke-opacity:1; 
stroke-linecap:round; stroke-linejoin:round;">
<text x="408.9890" y="285.6500"
textLength="1.2293" font-size="1.7333" lengthAdjust="spacingAndGlyphs"
text-anchor="middle" opacity="0">F</text>
<g class="stroked-text"><desc>F</desc>
<path d="M409.1747 284.7966
L408.7414 284.7966
" />
<path d="M408.7414 285.4776
L408.7414 284.1776
" />
<path d="M408.7414 284.1776
L409.3604 284.1776
" />
</g></g>
<g style="fill:#000000; fill-opacity:0.0; 
stroke:#000000; stroke-width:0.0212; stroke-opacity:1; 
stroke-linecap:round; stroke-linejoin:round;">
</g>
<g style="fill:#000000; fill-opacity:0.0; 
stroke:#000000; stroke-width:0.1500; stroke-opacity:1; 
stroke-linecap:round; stroke-linejoin:round;">
<text x="322.9890" y="280.8522"
textLength="6.6893" font-size="2.0000" lengthAdjust="spacingAndGlyphs"
text-anchor="start" opacity="0">Date: </text>
<g class="stroked-text"><desc>Date: </desc>
<path d="M323.3461 280.6533
L323.3461 279.1533
" />
<path d="M323.3461 279.1533
L323.7033 279.1533
" />
<path d="M323.7033 279.1533
L323.9176 279.2247
" />
<path d="M323.9176 279.2247
L324.0604 279.3676
" />
<path d="M324.0604 279.3676
L324.1319 279.5104
" />
<path d="M324.1319 279.5104
L324.2033 279.7961
" />
<path d="M324.2033 279.7961
L324.2033 280.0104
" />
<path d="M324.2033 280.0104
L324.1319 280.2961
" />
<path d="M324.1319 280.2961
L324.0604 280.4390
" />
<path d="M324.0604 280.4390
L323.9176 280.5818
" />
<path d="M323.9176 280.5818
L323.7033 280.6533
" />
<path d="M323.7033 280.6533
L323.3461 280.6533
" />
<path d="M325.4890 280.6533
L325.4890 279.8676
" />
<path d="M325.4890 279.8676
L325.4176 279.7247
" />
<path d="M325.4176 279.7247
L325.2747 279.6533
" />
<path d="M325.2747 279.6533
L324.9890 279.6533
" />
<path d="M324.9890 279.6533
L324.8461 279.7247
" />
<path d="M325.4890 280.5818
L325.3461 280.6533
" />
<path d="M325.3461 280.6533
L324.9890 280.6533
" />
<path d="M324.9890 280.6533
L324.8461 280.5818
" />
<path d="M324.8461 280.5818
L324.7747 280.4390
" />
<path d="M324.7747 280.4390
L324.7747 280.2961
" />
<path d="M324.7747 280.2961
L324.8461 280.1533
" />
<path d="M324.8461 280.1533
L324.9890 280.0818
" />
<path d="M324.9890 280.0818
L325.3461 280.0818
" />
<path d="M325.3461 280.0818
L325.4890 280.0104
" />
<path d="M325.9890 279.6533
L326.5604 279.6533
" />
<path d="M326.2033 279.1533
L326.2033 280.4390
" />
<path d="M326.2033 280.4390
L326.2747 280.5818
" />
<path d="M326.2747 280.5818
L326.4176 280.6533
" />
<path d="M326.4176 280.6533
L326.5604 280.6533
" />
<path d="M327.6319 280.5818
L327.4890 280.6533
" />
<path d="M327.4890 280.6533
L327.2033 280.6533
" />
<path d="M327.2033 280.6533
L327.0604 280.5818
" />
<path d="M327.0604 280.5818
L326.9890 280.4390
" />
<path d="M326.9890 280.4390
L326.9890 279.8676
" />
<path d="M326.9890 279.8676
L327.0604 279.7247
" />
<path d="M327.0604 279.7247
L327.2033 279.6533
" />
<path d="M327.2033 279.6533
L327.4890 279.6533
" />
<path d="M327.4890 279.6533
L327.6319 279.7247
" />
<path d="M327.6319 279.7247
L327.7033 279.8676
" />
<path d="M327.7033 279.8676
L327.7033 280.0104
" />
<path d="M327.7033 280.0104
L326.9890 280.1533
" />
<path d="M328.3461 280.5104
L328.4176 280.5818
" />
<path d="M328.4176 280.5818
L328.3461 280.6533
" />
<path d="M328.3461 280.6533
L328.2747 280.5818
" />
<path d="M328.2747 280.5818
L328.3461 280.5104
" />
<path d="M328.3461 280.5104
L328.3461 280.6533
" />
<path d="M328.3461 279.7247
L328.4176 279.7961
" />
<path d="M328.4176 279.7961
L328.3461 279.8676
" />
<path d="M328.3461 279.8676
L328.2747 279.7961
" />
<path d="M328.2747 279.7961
L328.3461 279.7247
" />
<path d="M328.3461 279.7247
L328.3461 279.8676
" />
</g></g>
<g style="fill:#000000; fill-opacity:0.0; 
stroke:#000000; stroke-width:0.0212; stroke-opacity:1; 
stroke-linecap:round; stroke-linejoin:round;">
</g>
<g style="fill:#000000; fill-opacity:0.0; 
stroke:#000000; stroke-width:0.1500; stroke-opacity:1; 
stroke-linecap:round; stroke-linejoin:round;">
<path d="M299.9890 281.5022
L407.9890 281.5022
" />
</g>
<g style="fill:#000000; fill-opacity:0.0; 
stroke:#000000; stroke-width:0.0212; stroke-opacity:1; 
stroke-linecap:round; stroke-linejoin:round;">
</g>
<g style="fill:#000000; fill-opacity:0.0; 
stroke:#000000; stroke-width:0.1500; stroke-opacity:1; 
stroke-linecap:round; stroke-linejoin:round;">
<text x="300.9890" y="283.6522"
textLength="30.0321" font-size="2.0000" lengthAdjust="spacingAndGlyphs"
text-anchor="start" opacity="0">KiCad E.D.A.  kicad (7.0.0)</text>
<g class="stroked-text"><desc>KiCad E.D.A.  kicad (7.0.0)</desc>
<path d="M301.3461 283.4533
L301.3461 281.9533
" />
<path d="M302.2033 283.4533
L301.5604 282.5961
" />
<path d="M302.2033 281.9533
L301.3461 282.8104
" />
<path d="M302.8461 283.4533
L302.8461 282.4533
" />
<path d="M302.8461 281.9533
L302.7747 282.0247
" />
<path d="M302.7747 282.0247
L302.8461 282.0961
" />
<path d="M302.8461 282.0961
L302.9176 282.0247
" />
<path d="M302.9176 282.0247
L302.8461 281.9533
" />
<path d="M302.8461 281.9533
L302.8461 282.0961
" />
<path d="M304.4176 283.3104
L304.3461 283.3818
" />
<path d="M304.3461 283.3818
L304.1319 283.4533
" />
<path d="M304.1319 283.4533
L303.9890 283.4533
" />
<path d="M303.9890 283.4533
L303.7747 283.3818
" />
<path d="M303.7747 283.3818
L303.6319 283.2390
" />
<path d="M303.6319 283.2390
L303.5604 283.0961
" />
<path d="M303.5604 283.0961
L303.4890 282.8104
" />
<path d="M303.4890 282.8104
L303.4890 282.5961
" />
<path d="M303.4890 282.5961
L303.5604 282.3104
" />
<path d="M303.5604 282.3104
L303.6319 282.1676
" />
<path d="M303.6319 282.1676
L303.7747 282.0247
" />
<path d="M303.7747 282.0247
L303.9890 281.9533
" />
<path d="M303.9890 281.9533
L304.1319 281.9533
" />
<path d="M304.1319 281.9533
L304.3461 282.0247
" />
<path d="M304.3461 282.0247
L304.4176 282.0961
" />
<path d="M305.7033 283.4533
L305.7033 282.6676
" />
<path d="M305.7033 282.6676
L305.6319 282.5247
" />
<path d="M305.6319 282.5247
L305.4890 282.4533
" />
<path d="M305.4890 282.4533
L305.2033 282.4533
" />
<path d="M305.2033 282.4533
L305.0604 282.5247
" />
<path d="M305.7033 283.3818
L305.5604 283.4533
" />
<path d="M305.5604 283.4533
L305.2033 283.4533
" />
<path d="M305.2033 283.4533
L305.0604 283.3818
" />
<path d="M305.0604 283.3818
L304.9890 283.2390
" />
<path d="M304.9890 283.2390
L304.9890 283.0961
" />
<path d="M304.9890 283.0961
L305.0604 282.9533
" />
<path d="M305.0604 282.9533
L305.2033 282.8818
" />
<path d="M305.2033 282.8818
L305.5604 282.8818
" />
<path d="M305.5604 282.8818
L305.7033 282.8104
" />
<path d="M307.0604 283.4533
L307.0604 281.9533
" />
<path d="M307.0604 283.3818
L306.9176 283.4533
" />
<path d="M306.9176 283.4533
L306.6319 283.4533
" />
<path d="M306.6319 283.4533
L306.4890 283.3818
" />
<path d="M306.4890 283.3818
L306.4176 283.3104
" />
<path d="M306.4176 283.3104
L306.3461 283.1676
" />
<path d="M306.3461 283.1676
L306.3461 282.7390
" />
<path d="M306.3461 282.7390
L306.4176 282.5961
" />
<path d="M306.4176 282.5961
L306.4890 282.5247
" />
<path d="M306.4890 282.5247
L306.6319 282.4533
" />
<path d="M306.6319 282.4533
L306.9176 282.4533
" />
<path d="M306.9176 282.4533
L307.0604 282.5247
" />
<path d="M308.6747 282.6676
L309.1747 282.6676
" />
<path d="M309.3890 283.4533
L308.6747 283.4533
" />
<path d="M308.6747 283.4533
L308.6747 281.9533
" />
<path d="M308.6747 281.9533
L309.3890 281.9533
" />
<path d="M310.0319 283.3104
L310.1033 283.3818
" />
<path d="M310.1033 283.3818
L310.0319 283.4533
" />
<path d="M310.0319 283.4533
L309.9604 283.3818
" />
<path d="M309.9604 283.3818
L310.0319 283.3104
" />
<path d="M310.0319 283.3104
L310.0319 283.4533
" />
<path d="M310.7461 283.4533
L310.7461 281.9533
" />
<path d="M310.7461 281.9533
L311.1033 281.9533
" />
<path d="M311.1033 281.9533
L311.3176 282.0247
" />
<path d="M311.3176 282.0247
L311.4604 282.1676
" />
<path d="M311.4604 282.1676
L311.5319 282.3104
" />
<path d="M311.5319 282.3104
L311.6033 282.5961
" />
<path d="M311.6033 282.5961
L311.6033 282.8104
" />
<path d="M311.6033 282.8104
L311.5319 283.0961
" />
<path d="M311.5319 283.0961
L311.4604 283.2390
" />
<path d="M311.4604 283.2390
L311.3176 283.3818
" />
<path d="M311.3176 283.3818
L311.1033 283.4533
" />
<path d="M311.1033 283.4533
L310.7461 283.4533
" />
<path d="M312.2461 283.3104
L312.3176 283.3818
" />
<path d="M312.3176 283.3818
L312.2461 283.4533
" />
<path d="M312.2461 283.4533
L312.1747 283.3818
" />
<path d="M312.1747 283.3818
L312.2461 283.3104
" />
<path d="M312.2461 283.3104
L312.2461 283.4533
" />
<path d="M312.8890 283.0247
L313.6033 283.0247
" />
<path d="M312.7461 283.4533
L313.2461 281.9533
" />
<path d="M313.2461 281.9533
L313.7461 283.4533
" />
<path d="M314.2461 283.3104
L314.3176 283.3818
" />
<path d="M314.3176 283.3818
L314.2461 283.4533
" />
<path d="M314.2461 283.4533
L314.1747 283.3818
" />
<path d="M314.1747 283.3818
L314.2461 283.3104
" />
<path d="M314.2461 283.3104
L314.2461 283.4533
" />
<path d="M316.7604 283.4533
L316.7604 281.9533
" />
<path d="M316.9033 282.8818
L317.3319 283.4533
" />
<path d="M317.3319 282.4533
L316.7604 283.0247
" />
<path d="M317.9747 283.4533
L317.9747 282.4533
" />
<path d="M317.9747 281.9533
L317.9033 282.0247
" />
<path d="M317.9033 282.0247
L317.9747 282.0961
" />
<path d="M317.9747 282.0961
L318.0461 282.0247
" />
<path d="M318.0461 282.0247
L317.9747 281.9533
" />
<path d="M317.9747 281.9533
L317.9747 282.0961
" />
<path d="M319.3319 283.3818
L319.1890 283.4533
" />
<path d="M319.1890 283.4533
L318.9033 283.4533
" />
<path d="M318.9033 283.4533
L318.7604 283.3818
" />
<path d="M318.7604 283.3818
L318.6890 283.3104
" />
<path d="M318.6890 283.3104
L318.6176 283.1676
" />
<path d="M318.6176 283.1676
L318.6176 282.7390
" />
<path d="M318.6176 282.7390
L318.6890 282.5961
" />
<path d="M318.6890 282.5961
L318.7604 282.5247
" />
<path d="M318.7604 282.5247
L318.9033 282.4533
" />
<path d="M318.9033 282.4533
L319.1890 282.4533
" />
<path d="M319.1890 282.4533
L319.3319 282.5247
" />
<path d="M320.6176 283.4533
L320.6176 282.6676
" />
<path d="M320.6176 282.6676
L320.5461 282.5247
" />
<path d="M320.5461 282.5247
L320.4033 282.4533
" />
<path d="M320.4033 282.4533
L320.1176 282.4533
" />
<path d="M320.1176 282.4533
L319.9747 282.5247
" />
<path d="M320.6176 283.3818
L320.4747 283.4533
" />
<path d="M320.4747 283.4533
L320.1176 283.4533
" />
<path d="M320.1176 283.4533
L319.9747 283.3818
" />
<path d="M319.9747 283.3818
L319.9033 283.2390
" />
<path d="M319.9033 283.2390
L319.9033 283.0961
" />
<path d="M319.9033 283.0961
L319.9747 282.9533
" />
<path d="M319.9747 282.9533
L320.1176 282.8818
" />
<path d="M320.1176 282.8818
L320.4747 282.8818
" />
<path d="M320.4747 282.8818
L320.6176 282.8104
" />
<path d="M321.9747 283.4533
L321.9747 281.9533
" />
<path d="M321.9747 283.3818
L321.8319 283.4533
" />
<path d="M321.8319 283.4533
L321.5461 283.4533
" />
<path d="M321.5461 283.4533
L321.4033 283.3818
" />
<path d="M321.4033 283.3818
L321.3319 283.3104
" />
<path d="M321.3319 283.3104
L321.2604 283.1676
" />
<path d="M321.2604 283.1676
L321.2604 282.7390
" />
<path d="M321.2604 282.7390
L321.3319 282.5961
" />
<path d="M321.3319 282.5961
L321.4033 282.5247
" />
<path d="M321.4033 282.5247
L321.5461 282.4533
" />
<path d="M321.5461 282.4533
L321.8319 282.4533
" />
<path d="M321.8319 282.4533
L321.9747 282.5247
" />
<path d="M324.0176 284.0247
L323.9461 283.9533
" />
<path d="M323.9461 283.9533
L323.8033 283.7390
" />
<path d="M323.8033 283.7390
L323.7319 283.5961
" />
<path d="M323.7319 283.5961
L323.6604 283.3818
" />
<path d="M323.6604 283.3818
L323.5890 283.0247
" />
<path d="M323.5890 283.0247
L323.5890 282.7390
" />
<path d="M323.5890 282.7390
L323.6604 282.3818
" />
<path d="M323.6604 282.3818
L323.7319 282.1676
" />
<path d="M323.7319 282.1676
L323.8033 282.0247
" />
<path d="M323.8033 282.0247
L323.9461 281.8104
" />
<path d="M323.9461 281.8104
L324.0176 281.7390
" />
<path d="M324.4461 281.9533
L325.4461 281.9533
" />
<path d="M325.4461 281.9533
L324.8033 283.4533
" />
<path d="M326.0176 283.3104
L326.0890 283.3818
" />
<path d="M326.0890 283.3818
L326.0176 283.4533
" />
<path d="M326.0176 283.4533
L325.9461 283.3818
" />
<path d="M325.9461 283.3818
L326.0176 283.3104
" />
<path d="M326.0176 283.3104
L326.0176 283.4533
" />
<path d="M327.0176 281.9533
L327.1604 281.9533
" />
<path d="M327.1604 281.9533
L327.3033 282.0247
" />
<path d="M327.3033 282.0247
L327.3747 282.0961
" />
<path d="M327.3747 282.0961
L327.4461 282.2390
" />
<path d="M327.4461 282.2390
L327.5176 282.5247
" />
<path d="M327.5176 282.5247
L327.5176 282.8818
" />
<path d="M327.5176 282.8818
L327.4461 283.1676
" />
<path d="M327.4461 283.1676
L327.3747 283.3104
" />
<path d="M327.3747 283.3104
L327.3033 283.3818
" />
<path d="M327.3033 283.3818
L327.1604 283.4533
" />
<path d="M327.1604 283.4533
L327.0176 283.4533
" />
<path d="M327.0176 283.4533
L326.8747 283.3818
" />
<path d="M326.8747 283.3818
L326.8033 283.3104
" />
<path d="M326.8033 283.3104
L326.7319 283.1676
" />
<path d="M326.7319 283.1676
L326.6604 282.8818
" />
<path d="M326.6604 282.8818
L326.6604 282.5247
" />
<path d="M326.6604 282.5247
L326.7319 282.2390
" />
<path d="M326.7319 282.2390
L326.8033 282.0961
" />
<path d="M326.8033 282.0961
L326.8747 282.0247
" />
<path d="M326.8747 282.0247
L327.0176 281.9533
" />
<path d="M328.1604 283.3104
L328.2319 283.3818
" />
<path d="M328.2319 283.3818
L328.1604 283.4533
" />
<path d="M328.1604 283.4533
L328.0890 283.3818
" />
<path d="M328.0890 283.3818
L328.1604 283.3104
" />
<path d="M328.1604 283.3104
L328.1604 283.4533
" />
<path d="M329.1604 281.9533
L329.3033 281.9533
" />
<path d="M329.3033 281.9533
L329.4461 282.0247
" />
<path d="M329.4461 282.0247
L329.5176 282.0961
" />
<path d="M329.5176 282.0961
L329.5890 282.2390
" />
<path d="M329.5890 282.2390
L329.6604 282.5247
" />
<path d="M329.6604 282.5247
L329.6604 282.8818
" />
<path d="M329.6604 282.8818
L329.5890 283.1676
" />
<path d="M329.5890 283.1676
L329.5176 283.3104
" />
<path d="M329.5176 283.3104
L329.4461 283.3818
" />
<path d="M329.4461 283.3818
L329.3033 283.4533
" />
<path d="M329.3033 283.4533
L329.1604 283.4533
" />
<path d="M329.1604 283.4533
L329.0176 283.3818
" />
<path d="M329.0176 283.3818
L328.9461 283.3104
" />
<path d="M328.9461 283.3104
L328.8747 283.1676
" />
<path d="M328.8747 283.1676
L328.8033 282.8818
" />
<path d="M328.8033 282.8818
L328.8033 282.5247
" />
<path d="M328.8033 282.5247
L328.8747 282.2390
" />
<path d="M328.8747 282.2390
L328.9461 282.0961
" />
<path d="M328.9461 282.0961
L329.0176 282.0247
" />
<path d="M329.0176 282.0247
L329.1604 281.9533
" />
<path d="M330.1604 284.0247
L330.2319 283.9533
" />
<path d="M330.2319 283.9533
L330.3747 283.7390
" />
<path d="M330.3747 283.7390
L330.4461 283.5961
" />
<path d="M330.4461 283.5961
L330.5176 283.3818
" />
<path d="M330.5176 283.3818
L330.5890 283.0247
" />
<path d="M330.5890 283.0247
L330.5890 282.7390
" />
<path d="M330.5890 282.7390
L330.5176 282.3818
" />
<path d="M330.5176 282.3818
L330.4461 282.1676
" />
<path d="M330.4461 282.1676
L330.3747 282.0247
" />
<path d="M330.3747 282.0247
L330.2319 281.8104
" />
<path d="M330.2319 281.8104
L330.1604 281.7390
" />
</g></g>
<g style="fill:#000000; fill-opacity:0.0; 
stroke:#000000; stroke-width:0.0212; stroke-opacity:1; 
stroke-linecap:round; stroke-linejoin:round;">
</g>
<g style="fill:#000000; fill-opacity:0.0; 
stroke:#000000; stroke-width:0.1500; stroke-opacity:1; 
stroke-linecap:round; stroke-linejoin:round;">
<path d="M299.9890 278.5022
L407.9890 278.5022
" />
</g>
<g style="fill:#000000; fill-opacity:0.0; 
stroke:#000000; stroke-width:0.0212; stroke-opacity:1; 
stroke-linecap:round; stroke-linejoin:round;">
</g>
<g style="fill:#000000; fill-opacity:0.0; 
stroke:#000000; stroke-width:0.3000; stroke-opacity:1; 
stroke-linecap:round; stroke-linejoin:round;">
<text x="385.9890" y="280.8522"
textLength="5.9929" font-size="2.0000" lengthAdjust="spacingAndGlyphs"
text-anchor="start" opacity="0">Rev: </text>
<g class="stroked-text"><desc>Rev: </desc>
<path d="M387.2033 280.6533
L386.7033 279.9390
" />
<path d="M386.3461 280.6533
L386.3461 279.1533
" />
<path d="M386.3461 279.1533
L386.9176 279.1533
" />
<path d="M386.9176 279.1533
L387.0604 279.2247
" />
<path d="M387.0604 279.2247
L387.1319 279.2961
" />
<path d="M387.1319 279.2961
L387.2033 279.4390
" />
<path d="M387.2033 279.4390
L387.2033 279.6533
" />
<path d="M387.2033 279.6533
L387.1319 279.7961
" />
<path d="M387.1319 279.7961
L387.0604 279.8676
" />
<path d="M387.0604 279.8676
L386.9176 279.9390
" />
<path d="M386.9176 279.9390
L386.3461 279.9390
" />
<path d="M388.4176 280.5818
L388.2747 280.6533
" />
<path d="M388.2747 280.6533
L387.9890 280.6533
" />
<path d="M387.9890 280.6533
L387.8461 280.5818
" />
<path d="M387.8461 280.5818
L387.7747 280.4390
" />
<path d="M387.7747 280.4390
L387.7747 279.8676
" />
<path d="M387.7747 279.8676
L387.8461 279.7247
" />
<path d="M387.8461 279.7247
L387.9890 279.6533
" />
<path d="M387.9890 279.6533
L388.2747 279.6533
" />
<path d="M388.2747 279.6533
L388.4176 279.7247
" />
<path d="M388.4176 279.7247
L388.4890 279.8676
" />
<path d="M388.4890 279.8676
L388.4890 280.0104
" />
<path d="M388.4890 280.0104
L387.7747 280.1533
" />
<path d="M388.9890 279.6533
L389.3461 280.6533
" />
<path d="M389.3461 280.6533
L389.7033 279.6533
" />
<path d="M390.2747 280.5104
L390.3461 280.5818
" />
<path d="M390.3461 280.5818
L390.2747 280.6533
" />
<path d="M390.2747 280.6533
L390.2033 280.5818
" />
<path d="M390.2033 280.5818
L390.2747 280.5104
" />
<path d="M390.2747 280.5104
L390.2747 280.6533
" />
<path d="M390.2747 279.7247
L390.3461 279.7961
" />
<path d="M390.3461 279.7961
L390.2747 279.8676
" />
<path d="M390.2747 279.8676
L390.2033 279.7961
" />
<path d="M390.2033 279.7961
L390.2747 279.7247
" />
<path d="M390.2747 279.7247
L390.2747 279.8676
" />
</g></g>
<g style="fill:#000000; fill-opacity:0.0; 
stroke:#000000; stroke-width:0.0212; stroke-opacity:1; 
stroke-linecap:round; stroke-linejoin:round;">
</g>
<g style="fill:#000000; fill-opacity:0.0; 
stroke:#000000; stroke-width:0.1500; stroke-opacity:1; 
stroke-linecap:round; stroke-linejoin:round;">
<text x="300.9890" y="280.8522"
textLength="9.0464" font-size="2.0000" lengthAdjust="spacingAndGlyphs"
text-anchor="start" opacity="0">Size: A3</text>
<g class="stroked-text"><desc>Size: A3</desc>
<path d="M301.2747 280.5818
L301.4890 280.6533
" />
<path d="M301.4890 280.6533
L301.8461 280.6533
" />
<path d="M301.8461 280.6533
L301.9890 280.5818
" />
<path d="M301.9890 280.5818
L302.0604 280.5104
" />
<path d="M302.0604 280.5104
L302.1319 280.3676
" />
<path d="M302.1319 280.3676
L302.1319 280.2247
" />
<path d="M302.1319 280.2247
L302.0604 280.0818
" />
<path d="M302.0604 280.0818
L301.9890 280.0104
" />
<path d="M301.9890 280.0104
L301.8461 279.9390
" />
<path d="M301.8461 279.9390
L301.5604 279.8676
" />
<path d="M301.5604 279.8676
L301.4176 279.7961
" />
<path d="M301.4176 279.7961
L301.3461 279.7247
" />
<path d="M301.3461 279.7247
L301.2747 279.5818
" />
<path d="M301.2747 279.5818
L301.2747 279.4390
" />
<path d="M301.2747 279.4390
L301.3461 279.2961
" />
<path d="M301.3461 279.2961
L301.4176 279.2247
" />
<path d="M301.4176 279.2247
L301.5604 279.1533
" />
<path d="M301.5604 279.1533
L301.9176 279.1533
" />
<path d="M301.9176 279.1533
L302.1319 279.2247
" />
<path d="M302.7747 280.6533
L302.7747 279.6533
" />
<path d="M302.7747 279.1533
L302.7033 279.2247
" />
<path d="M302.7033 279.2247
L302.7747 279.2961
" />
<path d="M302.7747 279.2961
L302.8461 279.2247
" />
<path d="M302.8461 279.2247
L302.7747 279.1533
" />
<path d="M302.7747 279.1533
L302.7747 279.2961
" />
<path d="M303.3461 279.6533
L304.1319 279.6533
" />
<path d="M304.1319 279.6533
L303.3461 280.6533
" />
<path d="M303.3461 280.6533
L304.1319 280.6533
" />
<path d="M305.2747 280.5818
L305.1319 280.6533
" />
<path d="M305.1319 280.6533
L304.8461 280.6533
" />
<path d="M304.8461 280.6533
L304.7033 280.5818
" />
<path d="M304.7033 280.5818
L304.6319 280.4390
" />
<path d="M304.6319 280.4390
L304.6319 279.8676
" />
<path d="M304.6319 279.8676
L304.7033 279.7247
" />
<path d="M304.7033 279.7247
L304.8461 279.6533
" />
<path d="M304.8461 279.6533
L305.1319 279.6533
" />
<path d="M305.1319 279.6533
L305.2747 279.7247
" />
<path d="M305.2747 279.7247
L305.3461 279.8676
" />
<path d="M305.3461 279.8676
L305.3461 280.0104
" />
<path d="M305.3461 280.0104
L304.6319 280.1533
" />
<path d="M305.9890 280.5104
L306.0604 280.5818
" />
<path d="M306.0604 280.5818
L305.9890 280.6533
" />
<path d="M305.9890 280.6533
L305.9176 280.5818
" />
<path d="M305.9176 280.5818
L305.9890 280.5104
" />
<path d="M305.9890 280.5104
L305.9890 280.6533
" />
<path d="M305.9890 279.7247
L306.0604 279.7961
" />
<path d="M306.0604 279.7961
L305.9890 279.8676
" />
<path d="M305.9890 279.8676
L305.9176 279.7961
" />
<path d="M305.9176 279.7961
L305.9890 279.7247
" />
<path d="M305.9890 279.7247
L305.9890 279.8676
" />
<path d="M307.5319 280.2247
L308.2461 280.2247
" />
<path d="M307.3890 280.6533
L307.8890 279.1533
" />
<path d="M307.8890 279.1533
L308.3890 280.6533
" />
<path d="M308.7461 279.1533
L309.6747 279.1533
" />
<path d="M309.6747 279.1533
L309.1747 279.7247
" />
<path d="M309.1747 279.7247
L309.3890 279.7247
" />
<path d="M309.3890 279.7247
L309.5319 279.7961
" />
<path d="M309.5319 279.7961
L309.6033 279.8676
" />
<path d="M309.6033 279.8676
L309.6747 280.0104
" />
<path d="M309.6747 280.0104
L309.6747 280.3676
" />
<path d="M309.6747 280.3676
L309.6033 280.5104
" />
<path d="M309.6033 280.5104
L309.5319 280.5818
" />
<path d="M309.5319 280.5818
L309.3890 280.6533
" />
<path d="M309.3890 280.6533
L308.9604 280.6533
" />
<path d="M308.9604 280.6533
L308.8176 280.5818
" />
<path d="M308.8176 280.5818
L308.7461 280.5104
" />
</g></g>
<g style="fill:#000000; fill-opacity:0.0; 
stroke:#000000; stroke-width:0.0212; stroke-opacity:1; 
stroke-linecap:round; stroke-linejoin:round;">
</g>
<g style="fill:#000000; fill-opacity:0.0; 
stroke:#000000; stroke-width:0.1500; stroke-opacity:1; 
stroke-linecap:round; stroke-linejoin:round;">
<text x="385.9890" y="283.6522"
textLength="8.1893" font-size="2.0000" lengthAdjust="spacingAndGlyphs"
text-anchor="start" opacity="0">Id: 1/1</text>
<g class="stroked-text"><desc>Id: 1/1</desc>
<path d="M386.3461 283.4533
L386.3461 281.9533
" />
<path d="M387.7033 283.4533
L387.7033 281.9533
" />
<path d="M387.7033 283.3818
L387.5604 283.4533
" />
<path d="M387.5604 283.4533
L387.2747 283.4533
" />
<path d="M387.2747 283.4533
L387.1319 283.3818
" />
<path d="M387.1319 283.3818
L387.0604 283.3104
" />
<path d="M387.0604 283.3104
L386.9890 283.1676
" />
<path d="M386.9890 283.1676
L386.9890 282.7390
" />
<path d="M386.9890 282.7390
L387.0604 282.5961
" />
<path d="M387.0604 282.5961
L387.1319 282.5247
" />
<path d="M387.1319 282.5247
L387.2747 282.4533
" />
<path d="M387.2747 282.4533
L387.5604 282.4533
" />
<path d="M387.5604 282.4533
L387.7033 282.5247
" />
<path d="M388.4176 283.3104
L388.4890 283.3818
" />
<path d="M388.4890 283.3818
L388.4176 283.4533
" />
<path d="M388.4176 283.4533
L388.3461 283.3818
" />
<path d="M388.3461 283.3818
L388.4176 283.3104
" />
<path d="M388.4176 283.3104
L388.4176 283.4533
" />
<path d="M388.4176 282.5247
L388.4890 282.5961
" />
<path d="M388.4890 282.5961
L388.4176 282.6676
" />
<path d="M388.4176 282.6676
L388.3461 282.5961
" />
<path d="M388.3461 282.5961
L388.4176 282.5247
" />
<path d="M388.4176 282.5247
L388.4176 282.6676
" />
<path d="M390.8176 283.4533
L389.9604 283.4533
" />
<path d="M390.3890 283.4533
L390.3890 281.9533
" />
<path d="M390.3890 281.9533
L390.2461 282.1676
" />
<path d="M390.2461 282.1676
L390.1033 282.3104
" />
<path d="M390.1033 282.3104
L389.9604 282.3818
" />
<path d="M392.5319 281.8818
L391.2461 283.8104
" />
<path d="M393.8176 283.4533
L392.9604 283.4533
" />
<path d="M393.3890 283.4533
L393.3890 281.9533
" />
<path d="M393.3890 281.9533
L393.2461 282.1676
" />
<path d="M393.2461 282.1676
L393.1033 282.3104
" />
<path d="M393.1033 282.3104
L392.9604 282.3818
" />
</g></g>
<g style="fill:#000000; fill-opacity:0.0; 
stroke:#000000; stroke-width:0.0212; stroke-opacity:1; 
stroke-linecap:round; stroke-linejoin:round;">
</g>
<g style="fill:#000000; fill-opacity:0.0; 
stroke:#000000; stroke-width:0.1500; stroke-opacity:1; 
stroke-linecap:round; stroke-linejoin:round;">
<path d="M299.9890 274.5022
L407.9890 274.5022
" />
</g>
<g style="fill:#000000; fill-opacity:0.0; 
stroke:#000000; stroke-width:0.0212; stroke-opacity:1; 
stroke-linecap:round; stroke-linejoin:round;">
</g>
<g style="fill:#000000; fill-opacity:0.0; 
stroke:#000000; stroke-width:0.4000; stroke-opacity:1; 
stroke-linecap:round; stroke-linejoin:round;">
<text x="300.9890" y="277.3022"
textLength="9.1333" font-size="2.6667" lengthAdjust="spacingAndGlyphs"
text-anchor="start" opacity="0">Title: </text>
<g class="stroked-text"><desc>Title: </desc>
<path d="M301.4414 275.0370
L302.5842 275.0370
" />
<path d="M301.7628 277.0370
L302.0128 275.0370
" />
<path d="M303.0009 277.0370
L303.1676 275.7036
" />
<path d="M303.2509 275.0370
L303.1438 275.1322
" />
<path d="M303.1438 275.1322
L303.2271 275.2274
" />
<path d="M303.2271 275.2274
L303.3342 275.1322
" />
<path d="M303.3342 275.1322
L303.2509 275.0370
" />
<path d="M303.2509 275.0370
L303.2271 275.2274
" />
<path d="M303.8342 275.7036
L304.5961 275.7036
" />
<path d="M304.2033 275.0370
L303.9890 276.7512
" />
<path d="M303.9890 276.7512
L304.0604 276.9417
" />
<path d="M304.0604 276.9417
L304.2390 277.0370
" />
<path d="M304.2390 277.0370
L304.4295 277.0370
" />
<path d="M305.3819 277.0370
L305.2033 276.9417
" />
<path d="M305.2033 276.9417
L305.1319 276.7512
" />
<path d="M305.1319 276.7512
L305.3461 275.0370
" />
<path d="M306.9176 276.9417
L306.7152 277.0370
" />
<path d="M306.7152 277.0370
L306.3342 277.0370
" />
<path d="M306.3342 277.0370
L306.1557 276.9417
" />
<path d="M306.1557 276.9417
L306.0842 276.7512
" />
<path d="M306.0842 276.7512
L306.1795 275.9893
" />
<path d="M306.1795 275.9893
L306.2985 275.7989
" />
<path d="M306.2985 275.7989
L306.5009 275.7036
" />
<path d="M306.5009 275.7036
L306.8819 275.7036
" />
<path d="M306.8819 275.7036
L307.0604 275.7989
" />
<path d="M307.0604 275.7989
L307.1319 275.9893
" />
<path d="M307.1319 275.9893
L307.1080 276.1798
" />
<path d="M307.1080 276.1798
L306.1319 276.3703
" />
<path d="M307.8819 276.8465
L307.9652 276.9417
" />
<path d="M307.9652 276.9417
L307.8580 277.0370
" />
<path d="M307.8580 277.0370
L307.7747 276.9417
" />
<path d="M307.7747 276.9417
L307.8819 276.8465
" />
<path d="M307.8819 276.8465
L307.8580 277.0370
" />
<path d="M308.0128 275.7989
L308.0961 275.8941
" />
<path d="M308.0961 275.8941
L307.9890 275.9893
" />
<path d="M307.9890 275.9893
L307.9057 275.8941
" />
<path d="M307.9057 275.8941
L308.0128 275.7989
" />
<path d="M308.0128 275.7989
L307.9890 275.9893
" />
</g></g>
<g style="fill:#000000; fill-opacity:0.0; 
stroke:#000000; stroke-width:0.0212; stroke-opacity:1; 
stroke-linecap:round; stroke-linejoin:round;">
</g>
<g style="fill:#000000; fill-opacity:0.0; 
stroke:#000000; stroke-width:0.1500; stroke-opacity:1; 
stroke-linecap:round; stroke-linejoin:round;">
<text x="300.9890" y="273.4522"
textLength="28.2607" font-size="2.0000" lengthAdjust="spacingAndGlyphs"
text-anchor="start" opacity="0">File: qazimodo.kicad_pcb</text>
<g class="stroked-text"><desc>File: qazimodo.kicad_pcb</desc>
<path d="M301.8461 272.4676
L301.3461 272.4676
" />
<path d="M301.3461 273.2533
L301.3461 271.7533
" />
<path d="M301.3461 271.7533
L302.0604 271.7533
" />
<path d="M302.6319 273.2533
L302.6319 272.2533
" />
<path d="M302.6319 271.7533
L302.5604 271.8247
" />
<path d="M302.5604 271.8247
L302.6319 271.8961
" />
<path d="M302.6319 271.8961
L302.7033 271.8247
" />
<path d="M302.7033 271.8247
L302.6319 271.7533
" />
<path d="M302.6319 271.7533
L302.6319 271.8961
" />
<path d="M303.5604 273.2533
L303.4176 273.1818
" />
<path d="M303.4176 273.1818
L303.3461 273.0390
" />
<path d="M303.3461 273.0390
L303.3461 271.7533
" />
<path d="M304.7033 273.1818
L304.5604 273.2533
" />
<path d="M304.5604 273.2533
L304.2747 273.2533
" />
<path d="M304.2747 273.2533
L304.1319 273.1818
" />
<path d="M304.1319 273.1818
L304.0604 273.0390
" />
<path d="M304.0604 273.0390
L304.0604 272.4676
" />
<path d="M304.0604 272.4676
L304.1319 272.3247
" />
<path d="M304.1319 272.3247
L304.2747 272.2533
" />
<path d="M304.2747 272.2533
L304.5604 272.2533
" />
<path d="M304.5604 272.2533
L304.7033 272.3247
" />
<path d="M304.7033 272.3247
L304.7747 272.4676
" />
<path d="M304.7747 272.4676
L304.7747 272.6104
" />
<path d="M304.7747 272.6104
L304.0604 272.7533
" />
<path d="M305.4176 273.1104
L305.4890 273.1818
" />
<path d="M305.4890 273.1818
L305.4176 273.2533
" />
<path d="M305.4176 273.2533
L305.3461 273.1818
" />
<path d="M305.3461 273.1818
L305.4176 273.1104
" />
<path d="M305.4176 273.1104
L305.4176 273.2533
" />
<path d="M305.4176 272.3247
L305.4890 272.3961
" />
<path d="M305.4890 272.3961
L305.4176 272.4676
" />
<path d="M305.4176 272.4676
L305.3461 272.3961
" />
<path d="M305.3461 272.3961
L305.4176 272.3247
" />
<path d="M305.4176 272.3247
L305.4176 272.4676
" />
<path d="M307.6747 272.2533
L307.6747 273.7533
" />
<path d="M307.6747 273.1818
L307.5319 273.2533
" />
<path d="M307.5319 273.2533
L307.2461 273.2533
" />
<path d="M307.2461 273.2533
L307.1033 273.1818
" />
<path d="M307.1033 273.1818
L307.0319 273.1104
" />
<path d="M307.0319 273.1104
L306.9604 272.9676
" />
<path d="M306.9604 272.9676
L306.9604 272.5390
" />
<path d="M306.9604 272.5390
L307.0319 272.3961
" />
<path d="M307.0319 272.3961
L307.1033 272.3247
" />
<path d="M307.1033 272.3247
L307.2461 272.2533
" />
<path d="M307.2461 272.2533
L307.5319 272.2533
" />
<path d="M307.5319 272.2533
L307.6747 272.3247
" />
<path d="M309.0319 273.2533
L309.0319 272.4676
" />
<path d="M309.0319 272.4676
L308.9604 272.3247
" />
<path d="M308.9604 272.3247
L308.8176 272.2533
" />
<path d="M308.8176 272.2533
L308.5319 272.2533
" />
<path d="M308.5319 272.2533
L308.3890 272.3247
" />
<path d="M309.0319 273.1818
L308.8890 273.2533
" />
<path d="M308.8890 273.2533
L308.5319 273.2533
" />
<path d="M308.5319 273.2533
L308.3890 273.1818
" />
<path d="M308.3890 273.1818
L308.3176 273.0390
" />
<path d="M308.3176 273.0390
L308.3176 272.8961
" />
<path d="M308.3176 272.8961
L308.3890 272.7533
" />
<path d="M308.3890 272.7533
L308.5319 272.6818
" />
<path d="M308.5319 272.6818
L308.8890 272.6818
" />
<path d="M308.8890 272.6818
L309.0319 272.6104
" />
<path d="M309.6033 272.2533
L310.3890 272.2533
" />
<path d="M310.3890 272.2533
L309.6033 273.2533
" />
<path d="M309.6033 273.2533
L310.3890 273.2533
" />
<path d="M310.9604 273.2533
L310.9604 272.2533
" />
<path d="M310.9604 271.7533
L310.8890 271.8247
" />
<path d="M310.8890 271.8247
L310.9604 271.8961
" />
<path d="M310.9604 271.8961
L311.0319 271.8247
" />
<path d="M311.0319 271.8247
L310.9604 271.7533
" />
<path d="M310.9604 271.7533
L310.9604 271.8961
" />
<path d="M311.6747 273.2533
L311.6747 272.2533
" />
<path d="M311.6747 272.3961
L311.7461 272.3247
" />
<path d="M311.7461 272.3247
L311.8890 272.2533
" />
<path d="M311.8890 272.2533
L312.1033 272.2533
" />
<path d="M312.1033 272.2533
L312.2461 272.3247
" />
<path d="M312.2461 272.3247
L312.3176 272.4676
" />
<path d="M312.3176 272.4676
L312.3176 273.2533
" />
<path d="M312.3176 272.4676
L312.3890 272.3247
" />
<path d="M312.3890 272.3247
L312.5319 272.2533
" />
<path d="M312.5319 272.2533
L312.7461 272.2533
" />
<path d="M312.7461 272.2533
L312.8890 272.3247
" />
<path d="M312.8890 272.3247
L312.9604 272.4676
" />
<path d="M312.9604 272.4676
L312.9604 273.2533
" />
<path d="M313.8890 273.2533
L313.7461 273.1818
" />
<path d="M313.7461 273.1818
L313.6747 273.1104
" />
<path d="M313.6747 273.1104
L313.6033 272.9676
" />
<path d="M313.6033 272.9676
L313.6033 272.5390
" />
<path d="M313.6033 272.5390
L313.6747 272.3961
" />
<path d="M313.6747 272.3961
L313.7461 272.3247
" />
<path d="M313.7461 272.3247
L313.8890 272.2533
" />
<path d="M313.8890 272.2533
L314.1033 272.2533
" />
<path d="M314.1033 272.2533
L314.2461 272.3247
" />
<path d="M314.2461 272.3247
L314.3176 272.3961
" />
<path d="M314.3176 272.3961
L314.3890 272.5390
" />
<path d="M314.3890 272.5390
L314.3890 272.9676
" />
<path d="M314.3890 272.9676
L314.3176 273.1104
" />
<path d="M314.3176 273.1104
L314.2461 273.1818
" />
<path d="M314.2461 273.1818
L314.1033 273.2533
" />
<path d="M314.1033 273.2533
L313.8890 273.2533
" />
<path d="M315.6747 273.2533
L315.6747 271.7533
" />
<path d="M315.6747 273.1818
L315.5319 273.2533
" />
<path d="M315.5319 273.2533
L315.2461 273.2533
" />
<path d="M315.2461 273.2533
L315.1033 273.1818
" />
<path d="M315.1033 273.1818
L315.0319 273.1104
" />
<path d="M315.0319 273.1104
L314.9604 272.9676
" />
<path d="M314.9604 272.9676
L314.9604 272.5390
" />
<path d="M314.9604 272.5390
L315.0319 272.3961
" />
<path d="M315.0319 272.3961
L315.1033 272.3247
" />
<path d="M315.1033 272.3247
L315.2461 272.2533
" />
<path d="M315.2461 272.2533
L315.5319 272.2533
" />
<path d="M315.5319 272.2533
L315.6747 272.3247
" />
<path d="M316.6033 273.2533
L316.4604 273.1818
" />
<path d="M316.4604 273.1818
L316.3890 273.1104
" />
<path d="M316.3890 273.1104
L316.3176 272.9676
" />
<path d="M316.3176 272.9676
L316.3176 272.5390
" />
<path d="M316.3176 272.5390
L316.3890 272.3961
" />
<path d="M316.3890 272.3961
L316.4604 272.3247
" />
<path d="M316.4604 272.3247
L316.6033 272.2533
" />
<path d="M316.6033 272.2533
L316.8176 272.2533
" />
<path d="M316.8176 272.2533
L316.9604 272.3247
" />
<path d="M316.9604 272.3247
L317.0319 272.3961
" />
<path d="M317.0319 272.3961
L317.1033 272.5390
" />
<path d="M317.1033 272.5390
L317.1033 272.9676
" />
<path d="M317.1033 272.9676
L317.0319 273.1104
" />
<path d="M317.0319 273.1104
L316.9604 273.1818
" />
<path d="M316.9604 273.1818
L316.8176 273.2533
" />
<path d="M316.8176 273.2533
L316.6033 273.2533
" />
<path d="M317.7461 273.1104
L317.8176 273.1818
" />
<path d="M317.8176 273.1818
L317.7461 273.2533
" />
<path d="M317.7461 273.2533
L317.6747 273.1818
" />
<path d="M317.6747 273.1818
L317.7461 273.1104
" />
<path d="M317.7461 273.1104
L317.7461 273.2533
" />
<path d="M318.4604 273.2533
L318.4604 271.7533
" />
<path d="M318.6033 272.6818
L319.0319 273.2533
" />
<path d="M319.0319 272.2533
L318.4604 272.8247
" />
<path d="M319.6747 273.2533
L319.6747 272.2533
" />
<path d="M319.6747 271.7533
L319.6033 271.8247
" />
<path d="M319.6033 271.8247
L319.6747 271.8961
" />
<path d="M319.6747 271.8961
L319.7461 271.8247
" />
<path d="M319.7461 271.8247
L319.6747 271.7533
" />
<path d="M319.6747 271.7533
L319.6747 271.8961
" />
<path d="M321.0319 273.1818
L320.8890 273.2533
" />
<path d="M320.8890 273.2533
L320.6033 273.2533
" />
<path d="M320.6033 273.2533
L320.4604 273.1818
" />
<path d="M320.4604 273.1818
L320.3890 273.1104
" />
<path d="M320.3890 273.1104
L320.3176 272.9676
" />
<path d="M320.3176 272.9676
L320.3176 272.5390
" />
<path d="M320.3176 272.5390
L320.3890 272.3961
" />
<path d="M320.3890 272.3961
L320.4604 272.3247
" />
<path d="M320.4604 272.3247
L320.6033 272.2533
" />
<path d="M320.6033 272.2533
L320.8890 272.2533
" />
<path d="M320.8890 272.2533
L321.0319 272.3247
" />
<path d="M322.3176 273.2533
L322.3176 272.4676
" />
<path d="M322.3176 272.4676
L322.2461 272.3247
" />
<path d="M322.2461 272.3247
L322.1033 272.2533
" />
<path d="M322.1033 272.2533
L321.8176 272.2533
" />
<path d="M321.8176 272.2533
L321.6747 272.3247
" />
<path d="M322.3176 273.1818
L322.1747 273.2533
" />
<path d="M322.1747 273.2533
L321.8176 273.2533
" />
<path d="M321.8176 273.2533
L321.6747 273.1818
" />
<path d="M321.6747 273.1818
L321.6033 273.0390
" />
<path d="M321.6033 273.0390
L321.6033 272.8961
" />
<path d="M321.6033 272.8961
L321.6747 272.7533
" />
<path d="M321.6747 272.7533
L321.8176 272.6818
" />
<path d="M321.8176 272.6818
L322.1747 272.6818
" />
<path d="M322.1747 272.6818
L322.3176 272.6104
" />
<path d="M323.6747 273.2533
L323.6747 271.7533
" />
<path d="M323.6747 273.1818
L323.5319 273.2533
" />
<path d="M323.5319 273.2533
L323.2461 273.2533
" />
<path d="M323.2461 273.2533
L323.1033 273.1818
" />
<path d="M323.1033 273.1818
L323.0319 273.1104
" />
<path d="M323.0319 273.1104
L322.9604 272.9676
" />
<path d="M322.9604 272.9676
L322.9604 272.5390
" />
<path d="M322.9604 272.5390
L323.0319 272.3961
" />
<path d="M323.0319 272.3961
L323.1033 272.3247
" />
<path d="M323.1033 272.3247
L323.2461 272.2533
" />
<path d="M323.2461 272.2533
L323.5319 272.2533
" />
<path d="M323.5319 272.2533
L323.6747 272.3247
" />
<path d="M324.0319 273.3961
L325.1747 273.3961
" />
<path d="M325.5319 272.2533
L325.5319 273.7533
" />
<path d="M325.5319 272.3247
L325.6747 272.2533
" />
<path d="M325.6747 272.2533
L325.9604 272.2533
" />
<path d="M325.9604 272.2533
L326.1033 272.3247
" />
<path d="M326.1033 272.3247
L326.1747 272.3961
" />
<path d="M326.1747 272.3961
L326.2461 272.5390
" />
<path d="M326.2461 272.5390
L326.2461 272.9676
" />
<path d="M326.2461 272.9676
L326.1747 273.1104
" />
<path d="M326.1747 273.1104
L326.1033 273.1818
" />
<path d="M326.1033 273.1818
L325.9604 273.2533
" />
<path d="M325.9604 273.2533
L325.6747 273.2533
" />
<path d="M325.6747 273.2533
L325.5319 273.1818
" />
<path d="M327.5319 273.1818
L327.3890 273.2533
" />
<path d="M327.3890 273.2533
L327.1033 273.2533
" />
<path d="M327.1033 273.2533
L326.9604 273.1818
" />
<path d="M326.9604 273.1818
L326.8890 273.1104
" />
<path d="M326.8890 273.1104
L326.8176 272.9676
" />
<path d="M326.8176 272.9676
L326.8176 272.5390
" />
<path d="M326.8176 272.5390
L326.8890 272.3961
" />
<path d="M326.8890 272.3961
L326.9604 272.3247
" />
<path d="M326.9604 272.3247
L327.1033 272.2533
" />
<path d="M327.1033 272.2533
L327.3890 272.2533
" />
<path d="M327.3890 272.2533
L327.5319 272.3247
" />
<path d="M328.1747 273.2533
L328.1747 271.7533
" />
<path d="M328.1747 272.3247
L328.3176 272.2533
" />
<path d="M328.3176 272.2533
L328.6033 272.2533
" />
<path d="M328.6033 272.2533
L328.7461 272.3247
" />
<path d="M328.7461 272.3247
L328.8176 272.3961
" />
<path d="M328.8176 272.3961
L328.8890 272.5390
" />
<path d="M328.8890 272.5390
L328.8890 272.9676
" />
<path d="M328.8890 272.9676
L328.8176 273.1104
" />
<path d="M328.8176 273.1104
L328.7461 273.1818
" />
<path d="M328.7461 273.1818
L328.6033 273.2533
" />
<path d="M328.6033 273.2533
L328.3176 273.2533
" />
<path d="M328.3176 273.2533
L328.1747 273.1818
" />
</g></g>
<g style="fill:#000000; fill-opacity:0.0; 
stroke:#000000; stroke-width:0.0212; stroke-opacity:1; 
stroke-linecap:round; stroke-linejoin:round;">
</g>
<g style="fill:#000000; fill-opacity:0.0; 
stroke:#000000; stroke-width:0.1500; stroke-opacity:1; 
stroke-linecap:round; stroke-linejoin:round;">
<path d="M299.9890 268.5022
L407.9890 268.5022
" />
</g>
<g style="fill:#000000; fill-opacity:0.0; 
stroke:#000000; stroke-width:0.0212; stroke-opacity:1; 
stroke-linecap:round; stroke-linejoin:round;">
</g>
<g style="fill:#000000; fill-opacity:0.0; 
stroke:#000000; stroke-width:0.1500; stroke-opacity:1; 
stroke-linecap:round; stroke-linejoin:round;">
<text x="300.9890" y="270.7522"
textLength="7.9036" font-size="2.0000" lengthAdjust="spacingAndGlyphs"
text-anchor="start" opacity="0">Sheet: </text>
<g class="stroked-text"><desc>Sheet: </desc>
<path d="M301.2747 270.4818
L301.4890 270.5533
" />
<path d="M301.4890 270.5533
L301.8461 270.5533
" />
<path d="M301.8461 270.5533
L301.9890 270.4818
" />
<path d="M301.9890 270.4818
L302.0604 270.4104
" />
<path d="M302.0604 270.4104
L302.1319 270.2676
" />
<path d="M302.1319 270.2676
L302.1319 270.1247
" />
<path d="M302.1319 270.1247
L302.0604 269.9818
" />
<path d="M302.0604 269.9818
L301.9890 269.9104
" />
<path d="M301.9890 269.9104
L301.8461 269.8390
" />
<path d="M301.8461 269.8390
L301.5604 269.7676
" />
<path d="M301.5604 269.7676
L301.4176 269.6961
" />
<path d="M301.4176 269.6961
L301.3461 269.6247
" />
<path d="M301.3461 269.6247
L301.2747 269.4818
" />
<path d="M301.2747 269.4818
L301.2747 269.3390
" />
<path d="M301.2747 269.3390
L301.3461 269.1961
" />
<path d="M301.3461 269.1961
L301.4176 269.1247
" />
<path d="M301.4176 269.1247
L301.5604 269.0533
" />
<path d="M301.5604 269.0533
L301.9176 269.0533
" />
<path d="M301.9176 269.0533
L302.1319 269.1247
" />
<path d="M302.7747 270.5533
L302.7747 269.0533
" />
<path d="M303.4176 270.5533
L303.4176 269.7676
" />
<path d="M303.4176 269.7676
L303.3461 269.6247
" />
<path d="M303.3461 269.6247
L303.2033 269.5533
" />
<path d="M303.2033 269.5533
L302.9890 269.5533
" />
<path d="M302.9890 269.5533
L302.8461 269.6247
" />
<path d="M302.8461 269.6247
L302.7747 269.6961
" />
<path d="M304.7033 270.4818
L304.5604 270.5533
" />
<path d="M304.5604 270.5533
L304.2747 270.5533
" />
<path d="M304.2747 270.5533
L304.1319 270.4818
" />
<path d="M304.1319 270.4818
L304.0604 270.3390
" />
<path d="M304.0604 270.3390
L304.0604 269.7676
" />
<path d="M304.0604 269.7676
L304.1319 269.6247
" />
<path d="M304.1319 269.6247
L304.2747 269.5533
" />
<path d="M304.2747 269.5533
L304.5604 269.5533
" />
<path d="M304.5604 269.5533
L304.7033 269.6247
" />
<path d="M304.7033 269.6247
L304.7747 269.7676
" />
<path d="M304.7747 269.7676
L304.7747 269.9104
" />
<path d="M304.7747 269.9104
L304.0604 270.0533
" />
<path d="M305.9890 270.4818
L305.8461 270.5533
" />
<path d="M305.8461 270.5533
L305.5604 270.5533
" />
<path d="M305.5604 270.5533
L305.4176 270.4818
" />
<path d="M305.4176 270.4818
L305.3461 270.3390
" />
<path d="M305.3461 270.3390
L305.3461 269.7676
" />
<path d="M305.3461 269.7676
L305.4176 269.6247
" />
<path d="M305.4176 269.6247
L305.5604 269.5533
" />
<path d="M305.5604 269.5533
L305.8461 269.5533
" />
<path d="M305.8461 269.5533
L305.9890 269.6247
" />
<path d="M305.9890 269.6247
L306.0604 269.7676
" />
<path d="M306.0604 269.7676
L306.0604 269.9104
" />
<path d="M306.0604 269.9104
L305.3461 270.0533
" />
<path d="M306.4890 269.5533
L307.0604 269.5533
" />
<path d="M306.7033 269.0533
L306.7033 270.3390
" />
<path d="M306.7033 270.3390
L306.7747 270.4818
" />
<path d="M306.7747 270.4818
L306.9176 270.5533
" />
<path d="M306.9176 270.5533
L307.0604 270.5533
" />
<path d="M307.5604 270.4104
L307.6319 270.4818
" />
<path d="M307.6319 270.4818
L307.5604 270.5533
" />
<path d="M307.5604 270.5533
L307.4890 270.4818
" />
<path d="M307.4890 270.4818
L307.5604 270.4104
" />
<path d="M307.5604 270.4104
L307.5604 270.5533
" />
<path d="M307.5604 269.6247
L307.6319 269.6961
" />
<path d="M307.6319 269.6961
L307.5604 269.7676
" />
<path d="M307.5604 269.7676
L307.4890 269.6961
" />
<path d="M307.4890 269.6961
L307.5604 269.6247
" />
<path d="M307.5604 269.6247
L307.5604 269.7676
" />
</g></g>
<g style="fill:#000000; fill-opacity:0.0; 
stroke:#000000; stroke-width:0.0212; stroke-opacity:1; 
stroke-linecap:round; stroke-linejoin:round;">
</g>
<g style="fill:#000000; fill-opacity:0.0; 
stroke:#000000; stroke-width:0.3000; stroke-opacity:1; 
stroke-linecap:round; stroke-linejoin:round;">
<text x="300.9890" y="267.7522"
textLength="0.7500" font-size="2.0000" lengthAdjust="spacingAndGlyphs"
text-anchor="start" opacity="0"></text>
<g class="stroked-text"><desc></desc>
</g></g>
<g style="fill:#000000; fill-opacity:0.0; 
stroke:#000000; stroke-width:0.0212; stroke-opacity:1; 
stroke-linecap:round; stroke-linejoin:round;">
</g>
<g style="fill:#000000; fill-opacity:0.0; 
stroke:#000000; stroke-width:0.1500; stroke-opacity:1; 
stroke-linecap:round; stroke-linejoin:round;">
<text x="300.9890" y="264.7522"
textLength="0.3750" font-size="2.0000" lengthAdjust="spacingAndGlyphs"
text-anchor="start" opacity="0"></text>
<g class="stroked-text"><desc></desc>
</g></g>
<g style="fill:#000000; fill-opacity:0.0; 
stroke:#000000; stroke-width:0.0212; stroke-opacity:1; 
stroke-linecap:round; stroke-linejoin:round;">
</g>
<g style="fill:#000000; fill-opacity:0.0; 
stroke:#000000; stroke-width:0.1500; stroke-opacity:1; 
stroke-linecap:round; stroke-linejoin:round;">
<text x="300.9890" y="261.7522"
textLength="0.3750" font-size="2.0000" lengthAdjust="spacingAndGlyphs"
text-anchor="start" opacity="0"></text>
<g class="stroked-text"><desc></desc>
</g></g>
<g style="fill:#000000; fill-opacity:0.0; 
stroke:#000000; stroke-width:0.0212; stroke-opacity:1; 
stroke-linecap:round; stroke-linejoin:round;">
</g>
<g style="fill:#000000; fill-opacity:0.0; 
stroke:#000000; stroke-width:0.1500; stroke-opacity:1; 
stroke-linecap:round; stroke-linejoin:round;">
<text x="300.9890" y="258.7522"
textLength="0.3750" font-size="2.0000" lengthAdjust="spacingAndGlyphs"
text-anchor="start" opacity="0"></text>
<g class="stroked-text"><desc></desc>
</g></g>
<g style="fill:#000000; fill-opacity:0.0; 
stroke:#000000; stroke-width:0.0212; stroke-opacity:1; 
stroke-linecap:round; stroke-linejoin:round;">
</g>
<g style="fill:#000000; fill-opacity:0.0; 
stroke:#000000; stroke-width:0.1500; stroke-opacity:1; 
stroke-linecap:round; stroke-linejoin:round;">
<text x="300.9890" y="255.7522"
textLength="0.3750" font-size="2.0000" lengthAdjust="spacingAndGlyphs"
text-anchor="start" opacity="0"></text>
<g class="stroked-text"><desc></desc>
</g></g>
<g style="fill:#000000; fill-opacity:0.0; 
stroke:#000000; stroke-width:0.0212; stroke-opacity:1; 
stroke-linecap:round; stroke-linejoin:round;">
</g>
<g style="fill:#000000; fill-opacity:0.0; 
stroke:#000000; stroke-width:0.1500; stroke-opacity:1; 
stroke-linecap:round; stroke-linejoin:round;">
<path d="M319.9890 278.5022
L319.9890 281.5022
" />
</g>
<g style="fill:#000000; fill-opacity:0.0; 
stroke:#000000; stroke-width:0.0212; stroke-opacity:1; 
stroke-linecap:round; stroke-linejoin:round;">
</g>
<g style="fill:#000000; fill-opacity:0.0; 
stroke:#000000; stroke-width:0.1500; stroke-opacity:1; 
stroke-linecap:round; stroke-linejoin:round;">
<path d="M383.9890 278.5022
L383.9890 285.0022
" />
<g >
</g>
<g >
</g>
<g >
</g>
<g >
</g>
<g >
</g>
<g >
</g>
<g >
</g>
<g >
</g>
<g >
</g>
<g >
</g>
<g >
</g>
<g >
</g>
<g >
</g>
<g >
</g>
<g >
</g>
<g >
</g>
<g >
</g>
<g >
</g>
<g >
</g>
<g >
</g>
<g >
</g>
<g >
</g>
<g >
</g>
<g >
</g>
<g >
</g>
<g >
</g>
<g >
</g>
<g >
</g>
<g >
</g>
<g >
</g>
<g >
</g>
<g >
</g>
<g >
</g>
<g >
</g>
<g >
</g>
<g >
</g>
<g >
</g>
<g >
</g>
<g >
</g>
<g >
</g>
<g >
</g>
<g >
</g>
<g >
</g>
<g >
</g>
<g >
</g>
<g >
</g>
<g >
</g>
<g >
</g>
<g >
</g>
<g >
</g>
<g >
</g>
<g >
</g>
<g >
</g>
<g >
</g>
<g >
</g>
<g >
</g>
<g >
</g>
<g >
</g>
<g >
</g>
<g >
</g>
<g >
</g>
<g >
</g>
<g >
</g>
<g >
</g>
<g >
</g>
<g >
</g>
<g >
</g>
<g >
</g>
<g >
</g>
<g >
</g>
<g >
</g>
<g >
</g>
<g >
</g>
<g >
</g>
<g >
</g>
<g >
</g>
<g >
</g>
<g >
</g>
<g >
</g>
<g >
</g>
<g >
</g>
<g >
</g>
<g >
</g>
<g >
</g>
<g >
</g>
<g >
</g>
<g >
</g>
<g >
</g>
<g >
</g>
<g >
</g>
<g >
</g>
<g >
</g>
<g >
</g>
<g >
</g>
<g >
</g>
<g >
</g>
<g >
</g>
<g >
</g>
<g >
</g>
<g >
</g>
<g >
</g>
<g >
</g>
<g >
</g>
<g >
</g>
<g >
</g>
<g >
</g>
<g >
</g>
<g >
</g>
<g >
</g>
<g >
</g>
<g >
</g>
<g >
</g>
<g >
</g>
<g >
</g>
<g >
</g>
<g >
</g>
<g >
</g>
<g >
</g>
<g >
</g>
<g >
</g>
<g >
</g>
<g >
</g>
<g >
</g>
<g >
</g>
<g >
</g>
<g >
</g>
<g >
</g>
<g >
</g>
<g >
</g>
<g >
</g>
<g >
</g>
<g >
</g>
<g >
</g>
<g >
</g>
<g >
</g>
<g >
</g>
<g >
</g>
<g >
</g>
<g >
</g>
<g >
</g>
<g >
</g>
<g >
</g>
<g >
</g>
<g >
</g>
<g >
</g>
<g >
</g>
<g >
</g>
<g >
</g>
<g >
</g>
<g >
</g>
<g >
</g>
<g >
</g>
<g >
</g>
<g >
</g>
<g >
</g>
<g >
</g>
<g >
</g>
<g >
</g>
<g >
</g>
<g >
</g>
<g >
</g>
<g >
</g>
<g >
</g>
<g >
</g>
<g >
</g>
<g >
</g>
<g >
</g>
<g >
</g>
<g >
</g>
<g >
</g>
<g >
</g>
<g >
</g>
<g >
</g>
<g >
</g>
<g >
</g>
<g >
</g>
<g >
</g>
<g >
</g>
<g >
</g>
<g >
</g>
<g >
</g>
<g >
</g>
<g >
</g>
<g >
</g>
<g >
</g>
<g >
</g>
<g >
</g>
<g >
</g>
<g >
</g>
<g >
</g>
<g >
</g>
<g >
</g>
<g >
</g>
<g >
</g>
<g >
</g>
<g >
</g>
</g>
<g style="fill:#000000; fill-opacity:0.0; 
stroke:#000000; stroke-width:0.1500; stroke-opacity:1; 
stroke-linecap:round; stroke-linejoin:round;">
</g>
<g style="fill:#D0D2CD; fill-opacity:0.0; 
stroke:#D0D2CD; stroke-width:0.1500; stroke-opacity:1; 
stroke-linecap:round; stroke-linejoin:round;">
</g>
<g style="fill:#D0D2CD; fill-opacity:0.0; 
stroke:#D0D2CD; stroke-width:0.2000; stroke-opacity:1; 
stroke-linecap:round; stroke-linejoin:round;">
<path d="M46.5638 48.1723
L46.5638 101.3722
" />
<path d="M46.5638 101.3722
L49.4568 101.3722
" />
<path d="M46.5638 103.5722
L46.5633 138.3717
" />
<path d="M48.5633 46.1717
L53.5633 46.1717
" />
<path d="M48.5638 140.3722
L55.5633 140.3717
" />
<path d="M49.4568 103.5722
L46.5638 103.5722
" />
<path d="M58.7133 137.8728
L62.2883 137.8728
" />
<path d="M69.1858 140.3722
L90.5298 140.3722
" />
<path d="M80.0938 46.1723
L59.8633 46.1717
" />
<path d="M97.6588 46.1723
L88.2358 46.1723
" />
<path d="M138.2178 46.1723
L108.7188 46.1723
" />
<path d="M138.2178 140.3722
L102.5173 140.3723
" />
<path d="M145.2433 137.8728
L145.5133 137.8728
" />
<path d="M148.6047 140.3722
L229.2228 140.3722
" />
<path d="M170.5981 46.1723
L148.6047 46.1723
" />
<path d="M229.1633 46.1717
L178.8443 46.1723
" />
<path d="M232.8482 137.8975
L232.3268 137.8728
" />
<path d="M239.6098 140.3722
L275.2461 140.3723
" />
<path d="M269.1088 46.1723
L239.6098 46.1723
" />
<path d="M287.2978 140.3722
L308.6418 140.3722
" />
<path d="M289.5918 46.1723
L280.1688 46.1723
" />
<path d="M315.7184 137.8782
L319.1133 137.8728
" />
<path d="M315.9631 46.1718
L297.7338 46.1723
" />
<path d="M322.2633 140.3717
L329.2638 140.3722
" />
<path d="M328.3708 101.3722
L331.2638 101.3722
" />
<path d="M329.2638 46.1723
L322.3047 46.1723
" />
<path d="M331.2638 101.3722
L331.2638 48.1723
" />
<path d="M331.2638 103.5722
L328.3708 103.5722
" />
<path d="M331.2638 138.3722
L331.2638 103.5722
" />
<path d="M48.5633 46.1717 A2.0013 2.0013 0.0 0 0 46.5638 48.1723" />
<path d="M46.5633 138.3717 A2.0005 2.0005 0.0 0 0 48.5638 140.3722" />
<path d="M49.4568 103.5722 A1.1000 1.1000 0.0 1 0 49.4568 101.3722" />
<path d="M58.7133 137.8729 A3.4411 3.4411 0.0 0 0 55.5633 140.3717" />
<path d="M53.5633 46.1717 A3.2348 3.2348 0.0 0 0 59.8633 46.1717" />
<path d="M62.2883 137.8729 A0.6539 0.6539 0.0 0 0 62.7223 137.7072" />
<path d="M68.6148 139.8013 A3.6000 3.6000 0.0 0 0 62.7223 137.7073" />
<path d="M68.6148 139.8013 A0.5702 0.5702 0.0 0 0 69.1858 140.3722" />
<path d="M80.6648 46.7433 A0.5702 0.5702 0.0 0 0 80.0938 46.1723" />
<path d="M80.6648 46.7433 A3.5557 3.5557 0.0 0 0 87.6648 46.7433" />
<path d="M88.2358 46.1723 A0.5702 0.5702 0.0 0 0 87.6648 46.7433" />
<path d="M90.5298 140.3722 A0.5565 0.5565 0.0 0 0 91.0858 139.8162" />
<path d="M101.1873 139.5658 A5.1343 5.1343 0.0 0 0 91.0858 139.8163" />
<path d="M98.2298 46.7433 A0.5702 0.5702 0.0 0 0 97.6588 46.1723" />
<path d="M101.1873 139.5658 A1.5000 1.5000 0.0 0 0 102.5173 140.3723" />
<path d="M98.2298 46.7433 A5.0185 5.0185 0.0 0 0 108.1478 46.7433" />
<path d="M108.7188 46.1723 A0.5702 0.5702 0.0 0 0 108.1478 46.7433" />
<path d="M138.7888 46.7433 A0.5702 0.5702 0.0 0 0 138.2178 46.1723" />
<path d="M138.2178 140.3722 A0.5702 0.5702 0.0 0 0 138.7888 139.8013" />
<path d="M144.7338 137.8462 A3.5560 3.5560 0.0 0 0 138.7888 139.8013" />
<path d="M138.7888 46.7433 A3.5939 3.5939 0.0 0 0 144.5785 48.8532" />
<path d="M145.4888 48.6706 A1.3977 1.3977 0.0 0 0 144.5785 48.8532" />
<path d="M144.7338 137.8462 A1.2521 1.2521 0.0 0 0 145.2433 137.8728" />
<path d="M148.6047 140.3723 A3.1310 3.1310 0.0 0 0 145.5133 137.8729" />
<path d="M145.4888 48.6706 A3.0898 3.0898 0.0 0 0 148.6047 46.1723" />
<path d="M171.9281 46.9787 A1.4999 1.4999 0.0 0 0 170.5981 46.1723" />
<path d="M171.9281 46.9787 A3.1500 3.1500 0.0 0 0 177.5143 46.9787" />
<path d="M178.8443 46.1723 A1.5001 1.5001 0.0 0 0 177.5143 46.9787" />
<path d="M232.3268 137.8728 A3.0678 3.0678 0.0 0 0 229.2228 140.3723" />
<path d="M229.1633 46.1717 A3.1949 3.1949 0.0 0 0 232.3133 48.6706" />
<path d="M233.2106 48.8374 A1.6536 1.6536 0.0 0 0 232.3133 48.6706" />
<path d="M232.8483 137.8975 A0.7353 0.7353 0.0 0 0 233.3202 137.6945" />
<path d="M239.0388 139.8013 A3.5316 3.5316 0.0 0 0 233.3202 137.6945" />
<path d="M233.2106 48.8374 A3.5727 3.5727 0.0 0 0 239.0388 46.7433" />
<path d="M239.6098 46.1723 A0.5702 0.5702 0.0 0 0 239.0388 46.7433" />
<path d="M239.0388 139.8013 A0.5702 0.5702 0.0 0 0 239.6098 140.3722" />
<path d="M269.6798 46.7433 A0.5702 0.5702 0.0 0 0 269.1088 46.1723" />
<path d="M275.2461 140.3723 A1.8563 1.8563 0.0 0 0 277.0442 138.9772" />
<path d="M286.7418 139.8162 A5.0110 5.0110 0.0 0 0 277.0443 138.9773" />
<path d="M269.6798 46.7433 A5.0185 5.0185 0.0 0 0 279.5977 46.7433" />
<path d="M280.1688 46.1723 A0.5702 0.5702 0.0 0 0 279.5977 46.7433" />
<path d="M286.7418 139.8162 A0.5565 0.5565 0.0 0 0 287.2978 140.3722" />
<path d="M290.1627 46.7433 A0.5700 0.5700 0.0 0 0 289.5918 46.1723" />
<path d="M290.1627 46.7433 A3.5557 3.5557 0.0 0 0 297.1627 46.7433" />
<path d="M297.7338 46.1723 A0.5702 0.5702 0.0 0 0 297.1627 46.7433" />
<path d="M308.6418 140.3722 A0.5702 0.5702 0.0 0 0 309.2128 139.8013" />
<path d="M315.0858 137.7792 A3.5566 3.5566 0.0 0 0 309.2128 139.8013" />
<path d="M315.0858 137.7792 A0.9497 0.9497 0.0 0 0 315.7184 137.8782" />
<path d="M322.2633 140.3717 A3.2877 3.2877 0.0 0 0 319.1133 137.8728" />
<path d="M315.9631 46.1718 A3.2563 3.2563 0.0 0 0 322.3047 46.1723" />
<path d="M328.3708 101.3722 A1.1000 1.1000 0.0 1 0 328.3708 103.5722" />
<path d="M331.2638 48.1723 A2.0007 2.0007 0.0 0 0 329.2638 46.1723" />
<path d="M329.2638 140.3722 A2.0007 2.0007 0.0 0 0 331.2638 138.3722" />
<g >
</g>
<g >
</g>
<g >
</g>
<g >
</g>
<g >
</g>
<g >
</g>
<g >
</g>
<g >
</g>
<g >
</g>
<g >
</g>
<g >
</g>
<g >
</g>
<g >
</g>
<g >
</g>
<g >
</g>
<g >
</g>
<g >
</g>
<g >
</g>
<g >
</g>
<g >
</g>
<g >
</g>
<g >
</g>
<g >
</g>
<g >
</g>
<g >
</g>
<g >
</g>
<g >
</g>
<g >
</g>
<g >
</g>
<g >
</g>
<g >
</g>
<g >
</g>
<g >
</g>
<g >
</g>
<g >
</g>
<g >
</g>
<g >
</g>
<g >
</g>
<g >
</g>
<g >
</g>
<g >
</g>
<g >
</g>
<g >
</g>
<g >
</g>
<g >
</g>
<g >
</g>
<g >
</g>
<g >
</g>
<g >
</g>
<g >
</g>
<g >
</g>
<g >
</g>
<g >
</g>
<g >
</g>
<g >
</g>
<g >
</g>
<g >
</g>
<g >
</g>
<g >
</g>
<g >
</g>
<g >
</g>
<g >
</g>
<g >
</g>
<g >
</g>
<g >
</g>
<g >
</g>
<g >
</g>
<g >
</g>
<g >
</g>
<g >
</g>
<g >
</g>
<g >
</g>
<g >
</g>
<g >
</g>
<g >
</g>
<g >
</g>
<g >
</g>
<g >
</g>
<g >
</g>
<g >
</g>
<g >
</g>
<g >
</g>
<g >
</g>
<g >
</g>
<g >
</g>
<g >
</g>
<g >
</g>
<g >
</g>
<g >
</g>
<g >
</g>
<g >
</g>
<g >
</g>
<g >
</g>
<g >
</g>
<g >
</g>
<g >
</g>
<g >
</g>
<g >
</g>
<g >
</g>
<g >
</g>
<g >
</g>
<g >
</g>
<g >
</g>
<g >
</g>
<g >
</g>
<g >
</g>
<g >
</g>
<g >
</g>
<g >
</g>
<g >
</g>
<g >
</g>
<g >
</g>
<g >
</g>
<g >
</g>
<g >
</g>
<g >
</g>
<g >
</g>
<g >
</g>
<g >
</g>
<g >
</g>
<g >
</g>
<g >
</g>
<g >
</g>
<g >
</g>
<g >
</g>
<g >
</g>
<g >
</g>
<g >
</g>
<g >
</g>
<g >
</g>
<g >
</g>
<g >
</g>
<g >
</g>
<g >
</g>
<g >
</g>
<g >
</g>
<g >
</g>
<g >
</g>
<g >
</g>
<g >
</g>
<g >
</g>
<g >
</g>
<g >
</g>
<g >
</g>
<g >
</g>
<g >
</g>
<g >
</g>
<g >
</g>
<g >
</g>
<g >
</g>
<g >
</g>
<g >
</g>
<g >
</g>
<g >
</g>
<g >
</g>
<g >
</g>
<g >
</g>
<g >
</g>
<g >
</g>
<g >
</g>
<g >
</g>
<g >
</g>
<g >
</g>
<g >
</g>
<g >
</g>
<g >
</g>
<g >
</g>
<g >
</g>
<g >
</g>
<g >
</g>
<g >
</g>
<g >
</g>
<g >
</g>
<g >
</g>
<g >
</g>
<g >
</g>
<g >
</g>
<g >
</g>
<g >
</g>
<g >
</g>
<g >
</g>
<g >
</g>
<g >
</g>
<g >
</g>
<g >
</g>
<g >
</g>
<g >
</g>
<g >
</g>
<g >
</g>
<g >
</g>
<g >
</g>
<g >
</g>
<g >
</g>
<g >
</g>
<g >
</g>
<g >
</g>
</g> 
</svg>
